<?xml version="1.0" encoding="utf-8"?>
<!-- Generator: Adobe Illustrator 24.1.2, SVG Export Plug-In . SVG Version: 6.00 Build 0)  -->
<svg version="1.1" id="Capa_1" xmlns="http://www.w3.org/2000/svg" xmlns:xlink="http://www.w3.org/1999/xlink" x="0px" y="0px"
	 viewBox="0 0 664.9 136.7" style="enable-background:new 0 0 664.9 136.7;" xml:space="preserve">
<style type="text/css">
	.st0{fill:#61ACFB;}
	.st1{fill:#949494;}
	.st2{fill:#69BC48;}
	.st3{fill:#B8CC6A;}
	.st4{fill:#B77647;}
	.st5{fill:#E2AF8A;}
	.st6{fill:#B7B7B7;}
</style>
<path class="st0" d="M116.8,124H97.1c-1.3,0-2.4-1.1-2.4-2.4V76.8c0-0.6,0.2-1.2,0.7-1.6l19.7-20.6c1.5-1.5,4.1-0.5,4.1,1.6v65.4
	C119.2,123,118.1,124,116.8,124z"/>
<path class="st1" d="M125.7,27.2h-18.8c-1.9,0-3.5,1.6-3.5,3.5s1.6,3.5,3.5,3.5h10.3l-33.4,33L56.2,40.5c-1.4-1.3-3.5-1.3-4.9,0
	L13.5,77.9c-1.4,1.4-1.4,3.6,0,4.9c0.7,0.7,1.6,1,2.5,1c0.9,0,1.8-0.3,2.5-1l35.4-34.9l27.5,26.7c1.4,1.3,3.5,1.3,4.9,0l35.9-35.4
	v10.3c0,1.9,1.6,3.5,3.5,3.5s3.5-1.6,3.5-3.5V30.7C129.2,28.8,127.6,27.2,125.7,27.2z"/>
<path class="st2" d="M347.4,70l-4.4,2.7l19.7,9.6l1.9-22.8l-5.2,3.2l-21.1-37.2c-1.2-2.2-3.6-3.6-6.1-3.6s-4.8,1.4-6.1,3.6
	l-16.5,29.1l12.2,6.9l10.4-18.3L347.4,70z M308.9,84.2l3.8,2.2l-1.2-21.4l-20.8,8.9l6,3.4l-20.9,37c-1.2,2.2-1.2,4.8,0,7
	c1.3,2.2,3.6,3.5,6,3.5h32.3v-14h-20.3L308.9,84.2z M388.5,114.3l-16.8-29.7l-12.2,6.9l10.9,19.3h-30.2l0-5.6l-18,12.6l18,12.6
	l0-5.6h42.2c2.5,0,4.8-1.3,6-3.5C389.7,119.1,389.7,116.5,388.5,114.3z"/>
<path class="st3" d="M61.2,63.7c-1.5-1.5-4-0.4-4,1.7v56.2c0,1.3,1.1,2.4,2.4,2.4h19.7c1.3,0,2.4-1.1,2.4-2.4V85.1
	c0-0.6-0.3-1.2-0.7-1.7L61.2,63.7z M650,27.7c-5.7-4.2-26.2,1.4-32.1,10.5c-2.2,3.4-3.2,7.5-2.5,11.3c3.2-4.2,10.4-11.8,22.2-14.3
	c0.8-0.2,1.6,0.4,1.8,1.2s-0.4,1.6-1.2,1.8c-14.7,3.3-23,16.9-23.8,17.9c-1,1.5-1.9,2.9-2.7,4.2c-1-4.4-3.3-8.4-5.5-11.4
	c0,0,0,0,0,0c-3.3-4.8-16.8-23.2-31.9-27c-0.8-0.2-1.3-1-1.1-1.8c0.2-0.8,1-1.3,1.8-1.1c15.1,3.8,28.1,20.4,32.7,26.9
	c2.1-5.6,0.8-12.5-2.8-18.1c-8-12.3-33.7-23.2-41.3-17.7c-4.7,3.4,5,30.1,14.9,39.7c6.9,6.4,17.4,8.2,24.7,2.3c0,0,0.1-0.1,0.1-0.1
	c2.8,4,5.6,9.8,4.5,15.4c-0.2,1,0.4,2,1.4,2.3c0.2,0.1,0.4,0.1,0.6,0.1c0.8,0,1.5-0.4,1.8-1.2c1.3-2.9,4.1-8.1,7.6-12.5c0,0,0,0,0,0
	c5.5,4.4,13.4,3.2,18.4-1.5C645.1,47.7,653.5,30.3,650,27.7z"/>
<path class="st4" d="M40.1,69.4L20.3,90c-0.4,0.4-0.7,1-0.7,1.6v30.1c0,1.3,1.1,2.4,2.4,2.4h19.7c1.3,0,2.4-1.1,2.4-2.4V71
	C44.2,68.9,41.6,67.9,40.1,69.4z M631,78.3c-2.9,0-5.7,0.7-8.1,2.1c-1-9.1-8.7-16.1-18.1-16.1c-6.3,0-11.9,3.2-15.1,8.1
	c-1.8-1.1-3.9-1.8-6.2-1.8c-6.5,0-11.8,5.3-11.8,11.8c0,3.5,1.5,6.7,4,8.8l-4,12.8l44.4,13.4l10.3-5.6c1.5,0.4,3,0.7,4.6,0.7
	c9.4,0,17.1-7.6,17.1-17.1S640.5,78.3,631,78.3z"/>
<path class="st5" d="M655.5,101.4c-1.6-3.6-5.9-5.2-9.5-3.6l-26.8,11.3c0,0-0.6,0.4-2.5,0.9c-1.9,0.5-5-0.5-5-0.5l-28.2-5.4
	c-2-0.5-3.1-2.6-2.6-4.6l0,0c0.5-2,2.6-3.1,4.6-2.6l17.7,3.7c3.8,1.1,7.5,1.3,8.6-2.5c1.1-3.8-1.3-6.4-5.2-7.5l-32.5-9
	c-0.5-0.1-1-0.2-1.4-0.2c-9.9-1.7-15.8-0.1-27,4.4l-23.5-3.4V111h13.3l67,18.5c0,0,4.3,1,7.3-0.2c2.3-0.9,42.1-18.4,42.1-18.4
	C655.5,109.3,657.1,105,655.5,101.4z"/>
<path class="st6" d="M264.9,78.9h-114c-1.9,0-3.5,1.6-3.5,3.5s1.6,3.5,3.5,3.5h114c1.9,0,3.5-1.6,3.5-3.5S266.9,78.9,264.9,78.9z
	 M499.8,78.9h-97c-1.9,0-3.5,1.6-3.5,3.5s1.6,3.5,3.5,3.5h97c1.9,0,3.5-1.6,3.5-3.5S501.7,78.9,499.8,78.9z"/>
</svg>
