<?xml version="1.0" encoding="utf-8"?>
<!-- Generator: Adobe Illustrator 24.1.2, SVG Export Plug-In . SVG Version: 6.00 Build 0)  -->
<svg version="1.1" id="Capa_2" xmlns="http://www.w3.org/2000/svg" xmlns:xlink="http://www.w3.org/1999/xlink" x="0px" y="0px"
	 viewBox="0 0 416.6 416.6" style="enable-background:new 0 0 416.6 416.6;" xml:space="preserve">
<style type="text/css">
	.st0{fill:#808080;}
</style>
<path class="st0" d="M25.6,230.5h294.8L186.1,364.9c-3.5,3.5-3.5,9.2,0,12.7l17.8,17.8c3.5,3.5,9.2,3.5,12.7,0l172.2-172.2
	c0,0,0,0,0,0l8.6-8.6c3.5-3.5,3.5-9.2,0-12.7L216.6,21.2c-3.5-3.5-9.2-3.5-12.7,0L186.1,39c-3.5,3.5-3.5,9.2,0,12.7l135.7,135.7
	H25.6c-4.9,0-9,4-9,9v25.2C16.7,226.5,20.7,230.5,25.6,230.5z"/>
</svg>
