<?xml version="1.0" encoding="utf-8"?>
<!-- Generator: Adobe Illustrator 25.2.3, SVG Export Plug-In . SVG Version: 6.00 Build 0)  -->
<svg version="1.1" xmlns="http://www.w3.org/2000/svg" xmlns:xlink="http://www.w3.org/1999/xlink" x="0px" y="0px"
	 viewBox="0 0 378 378" style="enable-background:new 0 0 378 378;" xml:space="preserve">
<style type="text/css">
	.st0{fill:#FFFFFF;}
	.st1{fill:#E0E0E0;}
	.st2{fill:#C9C9C9;}
	.st3{fill:#AAE6FA;}
	.st4{fill:#9B724F;}
	.st5{fill:#D79E6D;}
	.st6{fill:#90949C;}
	.st7{fill:#6A88B1;}
	.st8{fill:#7D9FD4;}
	.st9{fill:#DCDEE2;}
	.st10{fill:#475B77;}
	.st11{fill:#586C92;}
	.st12{fill:#475670;}
	.st13{fill:#F3F7FF;}
	.st14{fill:#56595B;}
	.st15{fill:#1C1817;}
	.st16{fill:#FEFF28;}
	.st17{fill:#84CAB2;}
	.st18{fill:#B8EFD9;}
	.st19{fill:#74B69D;}
	.st20{fill:#5E2F16;}
	.st21{fill:#B8F0D9;}
	.st22{fill:#84BC3B;}
	.st23{fill:#BC5C31;}
	.st24{fill:#9D5327;}
	.st25{fill:#C7C3C4;}
	.st26{fill:#FFFEFF;}
	.st27{fill:#363C46;}
	.st28{fill:#C6C3C4;}
	.st29{fill:#D7E7FF;}
	.st30{fill:#727272;}
	.st31{fill:#353C46;}
	.st32{fill:#293D41;}
	.st33{fill:#0FAFD1;}
	.st34{fill:#FF882B;}
	.st35{fill:#00AD44;}
</style>
<g id="Capa_10">
	<g id="mesa">
		<path class="st0" d="M2.5,158.2h373c-0.9-5.4-2.1-10.8-3.4-16.2H5.9C4.5,147.3,3.4,152.7,2.5,158.2z"/>
		<path class="st1" d="M2.5,158.2h373c-0.2-1.2-0.4-2.5-0.6-3.8H3.2C2.9,155.7,2.7,156.9,2.5,158.2z"/>
		<path class="st0" d="M3.2,154.4h371.7c-0.8-4.2-1.7-8.3-2.7-12.4H5.9C4.8,146.1,3.9,150.2,3.2,154.4z"/>
	</g>
	<path class="st2" d="M2.5,158.2C0.8,168.4,0,178.7,0,189c0,104.4,84.6,189,189,189s189-84.6,189-189c0-10.3-0.8-20.6-2.5-30.8H2.5z
		"/>
	<path class="st3" d="M355.1,98.8C305.3,7.1,190.5-26.9,98.8,22.9c-29.5,16-54.2,39.6-71.5,68.3v45.6h327.9V98.8z"/>
	<path class="st4" d="M330.3,314.5H47.7c2.3,2.6,4.7,5.1,7.1,7.6h268.3C325.6,319.6,328,317.1,330.3,314.5z"/>
	<path class="st5" d="M376.4,214H1.6c5,37.4,21,72.4,46.1,100.5h282.5C355.3,286.4,371.4,251.4,376.4,214z"/>
	<path class="st6" d="M342.3,78.5v33.6h-23.5V51.6c-10.4-9.9-21.9-18.5-34.3-25.8h-76.8v24.2h-33.4V16.9l-28.4,29.7v24h-34.7V46.8
		H64.5C50.6,59,38.6,73.1,28.8,88.7v48h341.8C364.6,115.8,355.1,96.1,342.3,78.5z"/>
	<path class="st7" d="M49.7,61.3v3h60.2v-5.7H52.2C51.3,59.5,50.5,60.4,49.7,61.3z M63.8,47.4c-2.1,1.8-4.1,3.7-6.1,5.6h52.1v-5.6
		H63.8z M49.7,109.3h60.2v-5.6H49.7V109.3z M49.7,98h60.2v-5.6H49.7V98z M49.7,120.5h60.2v-5.6H49.7V120.5z M49.7,86.8h60.2v-5.6
		H49.7V86.8z M49.7,75.5h60.2v-5.6H49.7V75.5z"/>
	<path class="st8" d="M52.2,58.6h57.7V53H57.8C55.9,54.9,54,56.7,52.2,58.6z M49.7,92.4h60.2v-5.6H49.7V92.4z M70.5,41.8
		c-2.3,1.8-4.5,3.7-6.7,5.6h46v-5.6H70.5z M49.7,69.9h60.2v-5.6H49.7V69.9z M49.7,114.9h60.2v-5.6H49.7V114.9z M49.7,103.7h60.2V98
		H49.7V103.7z M49.7,81.1h60.2v-5.6H49.7V81.1z"/>
	<path class="st9" d="M103.6,38.8v-12H91.8c-7.4,4.5-14.6,9.5-21.3,14.9h39.4v79h3v-82L103.6,38.8z M46.7,120.8h3V61.3
		c-1,1.1-2,2.2-3,3.3V120.8z"/>
	<path class="st10" d="M88,36.7h4.9v-7.1H88V36.7z M94.9,29.5v7.1h4.9v-7.1L94.9,29.5z M81.1,36.7H86v-6.1c-1.6,1.1-3.3,2.2-4.9,3.3
		L81.1,36.7z"/>
	<polygon class="st9" points="56.7,55.7 56.7,114.6 73.3,114.6 73.3,65.9 87.1,65.9 87.1,114.6 103.6,114.6 103.6,55.7 	"/>
	<path class="st10" d="M74.3,64.5h4.6v-7h-4.6V64.5z M81.3,64.5H86v-7h-4.6L81.3,64.5z M65.9,92.1h4.6v-7h-4.6V92.1z M65.9,82.9h4.6
		v-7h-4.6V82.9z M65.9,64.5h4.6v-7h-4.6V64.5z M65.9,73.7h4.6v-7h-4.6V73.7z M58.9,101.2h4.6v-7h-4.6L58.9,101.2z M58.9,92.1h4.6v-7
		h-4.6L58.9,92.1z M58.9,73.7h4.6v-7h-4.6L58.9,73.7z M58.9,64.5h4.6v-7h-4.6L58.9,64.5z M58.9,82.9h4.6v-7h-4.6L58.9,82.9z
		 M65.9,101.2h4.6v-7h-4.6V101.2z M96.8,92.1h4.6v-7h-4.6V92.1z M89.8,101.2h4.6v-7h-4.6V101.2z M96.8,57.6v7h4.6v-7L96.8,57.6z
		 M96.8,73.7h4.6v-7h-4.6V73.7z M96.8,101.2h4.6v-7h-4.6V101.2z M96.8,82.9h4.6v-7h-4.6V82.9z M89.8,82.9h4.6v-7h-4.6V82.9z
		 M89.8,92.1h4.6v-7h-4.6V92.1z M89.8,64.5h4.6v-7h-4.6V64.5z M89.8,73.7h4.6v-7h-4.6V73.7z"/>
	<rect x="138" y="46.6" class="st9" width="68.2" height="53.3"/>
	<path class="st11" d="M151.8,96h9.6v-9.7h-9.6V96z M151.8,83.9h9.6v-9.7h-9.6V83.9z M141.1,59.7h9.6v-9.7h-9.6V59.7z M182.9,83.9
		h9.7v-9.7h-9.7V83.9z M193.9,50.1v9.7h9.7v-9.7L193.9,50.1z M193.9,83.9h9.7v-9.7h-9.7V83.9z M164.2,54.3h3.3v-4.2h-3.3V54.3z
		 M168.4,54.3h3.3v-4.2h-3.3V54.3z M168.4,66.4h3.3v-4.2h-3.3V66.4z M164.2,78.5h3.3v-4.2h-3.3V78.5z M168.4,78.5h3.3v-4.2h-3.3
		V78.5z M172.6,78.5h3.3v-4.2h-3.3V78.5z M168.4,90.6h3.3v-4.2h-3.3V90.6z"/>
	<path class="st12" d="M151.8,71.8h9.6v-9.6h-9.6V71.8z M141.1,83.9h9.6v-9.7h-9.6V83.9z M141.1,96h9.6v-9.7h-9.6V96z M141.1,71.8
		h9.6v-9.6h-9.6V71.8z M182.9,96h9.7v-9.7h-9.7V96z M193.9,96h9.7v-9.7h-9.7V96z M193.9,62.2v9.6h9.7v-9.6H193.9z M182.9,59.7h9.7
		v-9.7h-9.7V59.7z M151.9,59.7h9.6v-9.7h-9.6V59.7z M182.9,71.8h9.7v-9.6h-9.7V71.8z M172.6,54.3h3.3v-4.2h-3.3V54.3z M176.8,54.3
		h3.3v-4.2h-3.3V54.3z M164.2,66.4h3.3v-4.2h-3.3V66.4z M172.6,66.4h3.3v-4.2h-3.3V66.4z M176.8,66.4h3.3v-4.2h-3.3V66.4z
		 M176.8,78.5h3.3v-4.2h-3.3V78.5z M164.2,90.6h3.3v-4.2h-3.3V90.6z M172.6,90.6h3.3v-4.2h-3.3V90.6z M176.8,90.6h3.3v-4.2h-3.3
		V90.6z"/>
	<path class="st13" d="M164,57.2v2.5h16.1v-2.5H164z M164,71.8h16.1v-2.5H164V71.8z M164,83.9h16.1v-2.5H164V83.9z M164,96h16.1
		v-2.5H164V96z"/>
	<polygon class="st9" points="335.5,138.9 278.6,138.9 278.6,67.6 333.9,67.6 335.5,69.6 	"/>
	<path class="st11" d="M290.1,133.7h8.1v-12.9h-8.1V133.7z M290.1,117.5h8.1v-12.9h-8.1V117.5z M281.1,85.2h8.1V72.2h-8.1V85.2z
		 M316.1,117.5h8.1v-12.9h-8.1V117.5z M325.3,72.2v12.9h8.1V72.2L325.3,72.2z M325.3,117.5h8.1v-12.9h-8.1V117.5z M300.5,77.9h2.7
		v-5.6h-2.7V77.9z M304,77.9h2.7v-5.6H304L304,77.9z M304,94h2.7v-5.6H304L304,94z M300.5,110.2h2.7v-5.7h-2.7V110.2z M304,110.2
		h2.7v-5.7H304L304,110.2z M307.5,110.2h2.7v-5.7h-2.7V110.2z M304,126.4h2.7v-5.6H304V126.4z"/>
	<path class="st12" d="M290.1,101.3h8.1V88.4h-8.1V101.3z M281.1,117.5h8.1v-12.9h-8.1V117.5z M281.1,133.7h8.1v-12.9h-8.1V133.7z
		 M281.1,101.3h8.1V88.4h-8.1V101.3z M316.1,133.7h8.1v-12.9h-8.1V133.7z M325.3,133.7h8.1v-12.9h-8.1V133.7z M325.3,88.4v12.9h8.1
		V88.4H325.3z M316.1,85.2h8.1V72.2h-8.1V85.2z M290.2,85.2h8.1V72.2h-8.1V85.2z M316.1,101.3h8.1V88.4h-8.1V101.3z M307.5,77.9h2.7
		v-5.6h-2.7V77.9z M311,77.9h2.7v-5.6H311L311,77.9z M300.5,94.1h2.7v-5.6h-2.7V94.1z M307.5,94.1h2.7v-5.6h-2.7V94.1z M311,94.1
		h2.7v-5.6H311L311,94.1z M311,110.2h2.7v-5.7H311L311,110.2z M300.5,126.4h2.7v-5.6h-2.7V126.4z M307.5,126.4h2.7v-5.6h-2.7V126.4z
		 M311,126.4h2.7v-5.6H311L311,126.4z"/>
	<path class="st13" d="M300.3,81.8v3.4h13.4v-3.4H300.3z M300.3,101.3h13.4V98h-13.4V101.3z M300.3,117.5h13.4v-3.4h-13.4V117.5z
		 M300.3,133.7h13.4v-3.4h-13.4V133.7z"/>
	<path class="st14" d="M216.2,2v92.9h77.9V32C270.8,16.3,244.1,6,216.2,2z"/>
	<path class="st8" d="M265.9,30h6.3v-8.2h-6.3V30z M265.9,40.5h6.3v-8.2h-6.3V40.5z M259,82.3h6.3v-8.2H259V82.3z M259,92.8h6.3
		v-8.2H259V92.8z M265.9,61.4h6.3v-8.2h-6.3L265.9,61.4z M265.9,50.9h6.3v-8.2h-6.3L265.9,50.9z M265.9,92.8h6.3v-8.2h-6.3
		L265.9,92.8z M265.9,71.9h6.3v-8.2h-6.3L265.9,71.9z M259,71.9h6.3v-8.2H259V71.9z M259,40.4h6.3v-8.2H259V40.4z M252.1,40.4h6.3
		v-8.2h-6.3L252.1,40.4z M252.1,71.9h6.3v-8.2h-6.3L252.1,71.9z M252.1,50.9h6.3v-8.1h-6.3L252.1,50.9z M252.1,92.8h6.3v-8.1h-6.3
		L252.1,92.8z M259,50.9h6.3v-8.2H259V50.9z M259,61.4h6.3v-8.2H259V61.4z M265.9,82.4h6.3v-8.2h-6.3L265.9,82.4z M259,30h6.3v-8.2
		H259V30z M252.1,61.4h6.3v-8.2h-6.3L252.1,61.4z M279.8,92.8h6.2v-8.2h-6.3L279.8,92.8z M279.8,61.4h6.2v-8.2h-6.3L279.8,61.4z
		 M279.8,71.9h6.2v-8.2h-6.3L279.8,71.9z M286.7,50.9h6.3v-8.2h-6.3V50.9z M279.8,82.3h6.2v-8.2h-6.3L279.8,82.3z M286.7,61.3h6.3
		v-8.1h-6.3V61.3z M286.7,82.3h6.3v-8.2h-6.3V82.3z M286.7,92.8h6.3v-8.1h-6.3V92.8z M286.7,71.8h6.3v-8.2h-6.3V71.8z M279.7,30h6.3
		v-3.2c-2.1-1.2-4.1-2.4-6.3-3.6V30z M272.8,71.9h6.3v-8.2h-6.3V71.9z M279.7,50.9h6.3v-8.2h-6.3V50.9z M272.8,61.4h6.3v-8.2h-6.3
		V61.4z M272.8,40.4h6.3v-8.1h-6.3V40.4z M272.8,50.9h6.3v-8.1h-6.3V50.9z M279.7,40.4h6.3v-8.1h-6.3V40.4z M272.8,21.8V30h6.3v-7.2
		c-0.6-0.4-1.3-0.7-1.9-1L272.8,21.8z M272.8,92.8h6.3v-8.2h-6.3V92.8z M272.8,82.3h6.3v-8.2h-6.3V82.3z M252.1,82.3h6.3v-8.2h-6.3
		V82.3z M224.4,71.9h6.3v-8.2h-6.3V71.9z M231.3,50.9h6.3v-8.1h-6.3V50.9z M224.4,29.9h6.3v-8.1h-6.3V29.9z M224.4,40.3h6.3v-8.1
		h-6.3V40.3z M224.4,61.3h6.3v-8.1h-6.3V61.3z M224.4,92.8h6.3v-8.1h-6.3V92.8z M231.3,40.4h6.3v-8.1h-6.3V40.4z M231.3,29.9h6.3
		v-8.1h-6.3V29.9z M224.4,82.3h6.3v-8.1h-6.3V82.3z M224.4,50.9h6.3v-8.1h-6.3V50.9z M217.5,29.9h6.3v-8.1h-6.3V29.9z M217.5,92.7
		h6.3v-8.1h-6.3V92.7z M286.6,32.2v8.2h6.3v-8.1L286.6,32.2z M286.6,27.1V30h4.5C289.7,29,288.2,28.1,286.6,27.1L286.6,27.1z
		 M252.1,30h6.3v-8.2h-6.3L252.1,30z M217.5,82.3h6.3v-8.2h-6.3V82.3z M217.5,40.4h6.3v-8.2h-6.3V40.4z M217.5,71.9h6.3v-8.2h-6.3
		V71.9z M217.5,50.9h6.3v-8.1h-6.3V50.9z M217.5,61.3h6.3v-8.1h-6.3V61.3z M245.2,50.9h6.3v-8.1h-6.3V50.9z M245.2,40.4h6.3v-8.1
		h-6.3V40.4z M245.2,29.9h6.3v-8.1h-6.3V29.9z M238.2,82.3h6.3v-8.1h-6.3V82.3z M245.2,71.8h6.3v-8.1h-6.3V71.8z M245.2,82.3h6.3
		v-8.1h-6.3V82.3z M245.2,92.8h6.3v-8.1h-6.3V92.8z M238.2,92.8h6.3v-8.1h-6.3V92.8z M245.2,61.3h6.3v-8.1h-6.3V61.3z M231.3,92.8
		h6.3v-8.2h-6.3V92.8z M238.2,71.9h6.3v-8.2h-6.3V71.9z M238.2,30h6.3v-8.2h-6.3V30z M231.3,61.4h6.3v-8.2h-6.3V61.4z M231.3,71.9
		h6.3v-8.2h-6.3V71.9z M231.3,82.3h6.3v-8.2h-6.3V82.3z M238.2,61.3h6.3v-8.1h-6.3V61.3z M238.2,50.9h6.3v-8.1h-6.3V50.9z
		 M238.2,40.4h6.3v-8.1h-6.3V40.4z"/>
	<g id="ventana">
		<path class="st0" d="M3.4,154.5c0.5-2.9,1.2-5.9,1.9-8.9l13-8.1v-29.1c1.2-2.6,2.5-5.1,3.8-7.6v41.1l-3.8,2.6l-0.4,0.2L3.4,154.5z
			"/>
		<path class="st1" d="M21.9,101.8v40l-3.3,2.2l0,0l-0.8,0.5l-14,9.5c0.5-2.7,1.1-5.5,1.7-8.2l12.8-7.9l0.2-0.1v-29.2
			C19.6,106.2,20.7,104,21.9,101.8 M22.4,99.8c-1.5,2.8-2.9,5.7-4.3,8.6v29l-13,8c-0.7,3.1-1.4,6.5-2,9.6l15-10.1l0,0l4.3-2.9V99.8
			L22.4,99.8z"/>
		<path class="st0" d="M22.6,141.8V99.8c1.4-2.7,2.9-5.3,4.4-7.7V137h159.6V0.3h0.5h1.9h1.4h0.6v141.5H22.6z"/>
		<path class="st1" d="M189,0.5h1.4h0.3v141H22.9V99.9c1.3-2.4,2.6-4.7,3.9-6.9v44.2h160.1V0.5h0.3L189,0.5 M189,0
			c-0.9,0-1.8,0-2.7,0v136.8H27.2V91.2c-1.7,2.8-3.3,5.7-4.9,8.6V142h168.8V0H189z"/>
		<path class="st0" d="M360.3,141.9v-32.2c1.4,2.9,2.6,5.9,3.8,8.8v19.1l7.9,4.9c0.7,2.8,1.4,5.8,2,8.7L360.3,141.9z"/>
		<path class="st1" d="M360.5,110.8c1.2,2.5,2.3,5.1,3.3,7.7v19.3l0.2,0.1l7.7,4.7c0.7,2.6,1.3,5.3,1.8,8l-9-6.1l-4.1-2.8
			L360.5,110.8 M360,108.5V142l4.3,2.9l10,6.8c-0.6-3.2-1.4-6.3-2.1-9.4l-7.8-4.8v-19.1C363,115,361.6,111.7,360,108.5L360,108.5z"
			/>
		<path class="st3" d="M364.3,118.4v19l7.8,4.9C370.1,134.1,367.5,126.1,364.3,118.4z M18,137.4v-29c-5.6,11.9-10,24.3-13,37.1
			L18,137.4z"/>
		<path class="st0" d="M191.4,141.8V0.3c1.5,0,2.9,0,4.4,0.1V137h159.6V99.8c1.5,2.8,3,5.7,4.4,8.7v33.2H191.4z"/>
		<path class="st1" d="M191.7,0.5c1.3,0,2.6,0,3.9,0.1v136.6h160.1v-36.4c1.3,2.5,2.6,5.1,3.9,7.8v32.9H191.7V0.5 M191.2,0v142H360
			v-33.5c-1.5-3.3-3.2-6.5-4.9-9.7v37.9h-159V0.2C194.5,0.1,192.8,0,191.2,0L191.2,0z"/>
	</g>
	<g id="gato">
		<path class="st15" d="M294.6,24.8c-5.3-8.7-7-12.7-7-18.8s-5.4-8.7-7,3.9s5.1,11.2,8.1,32.6s-29,54-29,54h18.5c0,0,9-7.6,18.3-29
			S300,33.5,294.6,24.8z M300.4,199c-2.1-7.3-4.9-13.3-6.9-14.4c-2.3-1.2-4.2-3-5.4-5.2V205c2.6,3.9,4.8,8,6.6,12.4
			c3,7.3-0.2,7.9-2.2,8.2s-2.6,3.8-1.9,6.4s4.1,3.8,8.1,3.8s8.2-0.8,9-8.8S302.5,206.3,300.4,199z M67,206.3
			c-2.1-1.1-4.4-1.5-6.8-1.1c-6.2,0.9-6,7.1-5.2,11.2s11.8,3,14.8,2.1s20.8-14.1,20.8-14.1v-20.6C89.3,185.3,67,206.3,67,206.3z
			 M70.4,104.3c-2.1-3.2-5.4-0.9-5.4-0.9S64.2,98,60.2,97s-6.8,14.2-6.8,14.2c-9.4,4.8-15.2,14.1-15.2,18.6s-0.8,6-1.9,7.5
			s-3.8,4.7-1.1,6s0.8,3,6.8,5.4s10.9,0.8,15-0.6s6.9-1.9,17.8-0.8c6.4,0.6,12.2,4.1,15.8,9.5v-42.7c-2.2-2.1-14.8-3.8-16.5-4.1
			S72.4,107.5,70.4,104.3L70.4,104.3z"/>
		<path class="st16" d="M47.1,130.1c-0.3,0.8-0.4,1.7-0.3,2.5c0,0-0.9-0.5-1.3-2.6c-0.5,0-0.8,0-1.4,0.1c0,1.1,0.4,2.3,1.2,3.1
			c1.3,1.5,1.6,1.4,2.4,0s1.5-2.6,1.5-2.6C48.5,130.4,47.8,130.2,47.1,130.1z"/>
	</g>
	<g id="taza">
		<path class="st17" d="M50.5,176.9c-15.5,0-28.1,3-28.1,6.6c0,0.1,0,1.4,0.1,3.5c-1.6-0.5-3.3-0.9-5-1.1
			c-7.1-0.9-11.1,1.9-12.2,8.7c-0.9,5.4,0,17.7,4.8,28c3.9,8.5,8.7,13.4,14.2,14.5c0.1,3.3,0.2,5.3,0.2,5.4c0,3.1,11.8,5.6,26.4,5.6
			s26.4-2.5,26.4-5.6c0-0.8,1.5-57.8,1.5-59C78.6,179.9,66,176.9,50.5,176.9z M15.8,219.9c-3.9-8.6-5-19.6-4.2-24.3
			c0.5-3,1.2-3.8,5-3.3c2.1,0.3,4.1,0.9,6.1,1.7c0.3,10.1,0.9,25.5,1.2,36.3C21.1,228.8,18.4,225.4,15.8,219.9L15.8,219.9z"/>
		<path class="st18" d="M50.5,176.9c-15.5,0-28.1,3-28.1,6.6s12.6,6.6,28.1,6.6s28.1-3,28.1-6.6S66,176.9,50.5,176.9z M50.5,188.4
			c-14.3,0-25.9-2.3-25.9-5.1s11.6-5.1,25.9-5.1s25.9,2.3,25.9,5.1S64.8,188.4,50.5,188.4L50.5,188.4z"/>
		<ellipse class="st19" cx="50.5" cy="183.3" rx="25.9" ry="5.1"/>
		<path class="st20" d="M28.9,186.1c4.6,1.4,12.6,2.3,21.6,2.3s16.9-0.9,21.6-2.3c-4.6-1.4-12.6-2.3-21.6-2.3S33.5,184.8,28.9,186.1
			z"/>
		<path class="st21" d="M56.4,248c3.1-0.1,6.2-0.4,9.3-0.9l0.7-58.2c-3.3,0.5-6.7,0.8-10,1L56.4,248z"/>
	</g>
	<path class="st22" d="M342.6,131.6c0.2-0.3,0.4-0.6,0.6-0.8c1.3-1.5,4.4-4.4,8.7-1.8c0,0-4.4-4.9-10.5,1.6c0,0-0.7-7.2,7.9-8.2
		s10.3,5.5,10.3,5.5s-1-7-9.9-7.6s-9.8,7.2-9.8,7.2s1.4-18.1,15.9-13.8c0,0-3.7-4-10.8-0.5c0,0-3.7,2.5-4.9,5.2
		c0,0,0.4-14.1,14.5-9.6c0,0-10.1-6.9-15.6,3.5c0,0-0.4-11.4-14.1-9.4c0,0,9.1,0.8,11.7,7.7c-4.3-4.1-10.6-5.3-16.2-3.1
		c0,0,12-1.6,15.5,6c0,0-3.7-2.8-7.9-2.4c0,0,5.6,2.1,6,4.5c0,0-5.1-5.3-15.2-3.5c0,0,11.2,0,14.6,6.2c0,0-3-6.2-7.5-0.7
		c0,0,4.8-3.7,6.5,1.7c0,0-14.9-7.7-20.8,0.6c0,0,8.4-5.8,21.3,2.1c0,0-6.4-6.1-11.1,8.3c0,0,9.3-15.3,14.6-2.7
		c0,0-4.1-11.1-7.9-3.2c-1.9,4,1.8,5.3,1.8,5.3s-2.6-4,1.3-5.5c2.3-0.9-0.5,7-0.5,7L342.6,131.6z"/>
	<rect x="326.5" y="129.9" class="st23" width="21.8" height="4.8"/>
	<polygon class="st24" points="344,146.7 330.7,146.7 327.7,134.7 347,134.7 	"/>
	<path class="st25" d="M89.4,96.2h199.3c1.7,0,3,1.3,3,3v130.7c0,1.7-1.3,3-3,3H89.4c-1.7,0-3-1.3-3-3V99.2
		C86.4,97.5,87.7,96.2,89.4,96.2z"/>
	<path class="st26" d="M313.7,270.6H64.4L85.3,237c0.7-1.1,1.9-1.7,3.1-1.7h201.2c1.3,0,2.4,0.7,3.1,1.7L313.7,270.6z"/>
	<rect x="89.5" y="232.9" class="st27" width="199.1" height="2.4"/>
	<path class="st28" d="M64.4,270.6h249.3l0,0v6.4c0,1.1-0.9,1.9-1.9,1.9h0H66.3c-1.1,0-1.9-0.9-1.9-1.9c0,0,0,0,0,0V270.6
		L64.4,270.6z"/>
	<path class="st26" d="M87.5,232.1L290.6,96.9c-0.5-0.5-1.2-0.7-1.9-0.7H89.4c-1.7,0-3,1.3-3,3v130.7
		C86.4,230.7,86.8,231.6,87.5,232.1z"/>
	<g>
		<path class="st29" d="M99.1,220.8c-0.8,0-1.4-0.6-1.4-1.4V108.2c0-0.8,0.6-1.4,1.4-1.4h179.8c0.8,0,1.4,0.6,1.4,1.4v111.1
			c0,0.8-0.6,1.4-1.4,1.4H99.1z"/>
		<path class="st30" d="M278.8,108.3v111H99.2v-111H278.8 M278.9,105.3H99.2c-1.6,0-2.9,1.3-2.9,2.9v111.1c0,1.6,1.3,2.9,2.9,2.9
			h179.8c1.6,0,2.9-1.3,2.9-2.9V108.2C281.8,106.6,280.5,105.3,278.9,105.3L278.9,105.3z"/>
	</g>
	<path class="st25" d="M283.9,239.2H94.1l-2.1,3.4h194.1L283.9,239.2z M86.3,251.4l-2.7,4.2h210.8l-2.7-4.2H86.3z M287.5,244.9h-197
		l-2.4,3.8H290L287.5,244.9z"/>
	<path class="st31" d="M157.3,258.8l-4.9,8.6h73.3l-4.9-8.6H157.3z"/>
	<circle class="st32" cx="189" cy="101.3" r="1.9"/>
	<path d="M181.1,154.9c-0.2-0.2-0.4-0.4-0.7-0.5c-0.3-0.1-0.6-0.3-0.9-0.4l-1.8-0.7c-0.4-0.2-0.8-0.4-0.9-0.6s-0.3-0.5-0.3-0.9
		c0-0.5,0.2-0.9,0.6-1.1s0.9-0.4,1.5-0.4c0.4,0,0.9,0.1,1.3,0.2s0.7,0.3,1,0.5c0.1,0.1,0.2,0.1,0.3,0.1c0.1,0,0.3-0.1,0.4-0.2
		c0.1-0.1,0.1-0.3,0.1-0.4c0-0.1,0-0.3-0.1-0.4c-0.3-0.3-0.7-0.5-1.3-0.8c-0.5-0.2-1.1-0.3-1.7-0.3c-0.6,0-1.2,0.1-1.6,0.3
		c-0.5,0.2-0.9,0.5-1.2,0.9c-0.3,0.4-0.4,0.9-0.4,1.4c0,0.7,0.2,1.2,0.5,1.6s0.8,0.7,1.5,1l1.8,0.7c0.3,0.1,0.5,0.2,0.7,0.3
		c0.2,0.1,0.3,0.2,0.5,0.3c0.1,0.1,0.2,0.3,0.3,0.5s0.1,0.4,0.1,0.6c0,0.5-0.2,0.9-0.6,1.2c-0.4,0.3-0.9,0.4-1.5,0.4
		c-1,0-1.8-0.3-2.5-0.9c0,0-0.1-0.1-0.2-0.1c-0.1,0-0.3,0.1-0.4,0.2c-0.1,0.2-0.2,0.3-0.2,0.5c0,0.1,0,0.2,0.1,0.2
		c0.8,0.8,1.8,1.2,3.1,1.2c1.1,0,1.9-0.3,2.5-0.8c0.6-0.5,0.9-1.2,0.9-2.2c0-0.4-0.1-0.7-0.2-1C181.5,155.4,181.3,155.1,181.1,154.9
		z M187.8,158.2v0.6c0,0.2,0.1,0.3,0.2,0.4c0.1,0.1,0.2,0.2,0.4,0.2c0.2,0,0.3-0.1,0.4-0.2c0.1-0.1,0.2-0.3,0.2-0.4V153
		c0-0.2-0.1-0.3-0.2-0.5c-0.1-0.1-0.2-0.2-0.4-0.2c-0.2,0-0.3,0.1-0.4,0.2c-0.1,0.1-0.2,0.3-0.2,0.4v3.5c0,0.7-0.2,1.2-0.6,1.6
		c-0.3,0.4-0.8,0.6-1.3,0.6c-0.5,0-0.8-0.2-1.1-0.5s-0.4-0.8-0.4-1.4V153c0-0.2-0.1-0.3-0.2-0.5s-0.2-0.2-0.4-0.2s-0.3,0.1-0.4,0.2
		c-0.1,0.1-0.2,0.3-0.2,0.5v3.8c0,0.9,0.2,1.6,0.6,2.1s1,0.7,1.7,0.7c0.5,0,0.9-0.1,1.3-0.3S187.6,158.7,187.8,158.2z M193.9,155.4
		l-1.1-0.3c-0.5-0.1-0.8-0.2-0.9-0.4c-0.1-0.1-0.2-0.3-0.2-0.6c0-0.4,0.1-0.6,0.4-0.8c0.3-0.2,0.6-0.2,1.1-0.2c0.1,0,0.3,0,0.4,0
		s0.3,0.1,0.4,0.1c0.1,0,0.2,0.1,0.3,0.1s0.2,0.1,0.3,0.1c0.1,0.1,0.2,0.1,0.2,0.1c0.1,0,0.1,0,0.2,0c0.1,0,0.2,0,0.3-0.1
		s0.1-0.2,0.1-0.3c0-0.2-0.1-0.3-0.2-0.4c-0.2-0.1-0.5-0.3-0.9-0.4c-0.4-0.1-0.8-0.2-1.2-0.2c-0.3,0-0.7,0-1,0.1s-0.6,0.2-0.8,0.3
		c-0.2,0.1-0.4,0.4-0.6,0.6c-0.1,0.3-0.2,0.6-0.2,0.9c0,0.2,0,0.4,0.1,0.6c0,0.2,0.1,0.3,0.2,0.4c0.1,0.1,0.2,0.2,0.3,0.3
		c0.1,0.1,0.2,0.2,0.4,0.2c0.2,0.1,0.3,0.1,0.5,0.2c0.1,0,0.3,0.1,0.6,0.2l1.1,0.3c0.4,0.1,0.6,0.2,0.8,0.4c0.2,0.2,0.2,0.4,0.2,0.7
		c0,0.4-0.1,0.7-0.4,0.9s-0.7,0.3-1.1,0.3c-0.7,0-1.3-0.2-1.8-0.6c-0.1-0.1-0.2-0.1-0.3-0.1c-0.1,0-0.2,0-0.3,0.1
		c-0.1,0.1-0.1,0.2-0.1,0.3c0,0.2,0.1,0.3,0.2,0.4c0.3,0.2,0.6,0.4,1,0.5s0.9,0.2,1.3,0.2c0.5,0,0.9-0.1,1.3-0.2
		c0.4-0.1,0.7-0.4,0.9-0.7c0.2-0.3,0.3-0.7,0.3-1.2c0-0.5-0.1-0.9-0.4-1.3C195,155.8,194.5,155.6,193.9,155.4z M198.2,159
		c0.3,0.4,0.7,0.5,1.2,0.5h0.4c0.2,0,0.3,0,0.4,0c0.1,0,0.2,0,0.3-0.1c0.1,0,0.2-0.1,0.2-0.2c0-0.1,0.1-0.2,0.1-0.3
		c0-0.1,0-0.2-0.1-0.3c-0.1-0.1-0.2-0.1-0.3-0.1h0l-0.4,0h-0.1c-0.3,0-0.5-0.1-0.6-0.3c-0.1-0.2-0.2-0.6-0.2-1.1v-3.9h1.2
		c0.3,0,0.4-0.1,0.4-0.4c0-0.1,0-0.2-0.1-0.3s-0.2-0.1-0.3-0.1h-1.2v-2.1c0-0.2,0-0.3-0.1-0.4c-0.1-0.1-0.2-0.1-0.3-0.1
		c-0.1,0-0.3,0.1-0.4,0.2c-0.1,0.1-0.2,0.2-0.2,0.4l-0.2,2h-0.8c-0.1,0-0.2,0-0.3,0.1s-0.1,0.2-0.1,0.3c0,0.1,0,0.2,0.1,0.3
		c0.1,0.1,0.2,0.1,0.3,0.1h0.8v4.1C197.7,158.1,197.9,158.7,198.2,159z M203.1,159.1c0.5,0.3,1,0.4,1.6,0.4c1,0,1.8-0.3,2.4-1
		c0.1-0.1,0.2-0.3,0.2-0.4c0-0.1,0-0.2-0.1-0.3c-0.1-0.1-0.2-0.1-0.3-0.1c-0.1,0-0.2,0-0.2,0.1c-0.3,0.3-0.6,0.5-0.9,0.6
		c-0.3,0.2-0.6,0.2-1,0.2c-0.6,0-1.1-0.2-1.5-0.6c-0.4-0.4-0.6-1-0.6-1.9h4.4c0.1,0,0.2,0,0.3-0.1c0.1-0.1,0.1-0.2,0.1-0.3
		c0-0.5-0.1-0.9-0.2-1.3c-0.1-0.4-0.3-0.8-0.5-1.1c-0.2-0.3-0.5-0.6-0.9-0.8c-0.4-0.2-0.8-0.3-1.3-0.3c-0.6,0-1.2,0.2-1.7,0.5
		c-0.5,0.3-0.8,0.8-1.1,1.3c-0.2,0.5-0.4,1.1-0.4,1.8c0,0.7,0.1,1.4,0.4,2C202.3,158.4,202.7,158.9,203.1,159.1z M203,154.6
		c0.1-0.3,0.2-0.5,0.4-0.7c0.2-0.2,0.4-0.4,0.6-0.5c0.2-0.1,0.5-0.2,0.8-0.2c0.6,0,1,0.2,1.3,0.6c0.3,0.4,0.5,1,0.5,1.6h-3.8
		C202.8,155.1,202.9,154.8,203,154.6z M209.7,159.5c0.2,0,0.3-0.1,0.4-0.2c0.1-0.1,0.2-0.3,0.2-0.4v-3.5c0-0.7,0.2-1.2,0.5-1.6
		c0.3-0.4,0.7-0.6,1.2-0.6c0.5,0,0.8,0.2,1.1,0.5c0.3,0.3,0.4,0.8,0.4,1.4v3.9c0,0.2,0.1,0.3,0.2,0.5c0.1,0.1,0.2,0.2,0.4,0.2
		s0.3-0.1,0.4-0.2c0.1-0.1,0.2-0.3,0.2-0.5V155c0-0.9-0.2-1.6-0.6-2.1s-1-0.7-1.7-0.7c-0.5,0-0.9,0.1-1.3,0.3
		c-0.4,0.2-0.6,0.6-0.8,1V153c0-0.2-0.1-0.3-0.2-0.4c-0.1-0.1-0.2-0.2-0.4-0.2s-0.3,0.1-0.4,0.2c-0.1,0.1-0.2,0.3-0.2,0.4v5.8
		c0,0.2,0.1,0.3,0.2,0.5C209.4,159.4,209.5,159.5,209.7,159.5z M217,157.4c0,0.7,0.1,1.3,0.4,1.6s0.7,0.5,1.2,0.5h0.4
		c0.2,0,0.3,0,0.4,0c0.1,0,0.2,0,0.3-0.1c0.1,0,0.2-0.1,0.2-0.2c0-0.1,0.1-0.2,0.1-0.3c0-0.1,0-0.2-0.1-0.3
		c-0.1-0.1-0.2-0.1-0.3-0.1h0l-0.4,0h-0.1c-0.3,0-0.5-0.1-0.6-0.3c-0.1-0.2-0.2-0.6-0.2-1.1v-3.9h1.2c0.3,0,0.4-0.1,0.4-0.4
		c0-0.1,0-0.2-0.1-0.3s-0.2-0.1-0.3-0.1h-1.2v-2.1c0-0.2,0-0.3-0.1-0.4c-0.1-0.1-0.2-0.1-0.3-0.1c-0.1,0-0.3,0.1-0.4,0.2
		c-0.1,0.1-0.2,0.2-0.2,0.4l-0.2,2h-0.8c-0.1,0-0.2,0-0.3,0.1s-0.1,0.2-0.1,0.3c0,0.1,0,0.2,0.1,0.3c0.1,0.1,0.2,0.1,0.3,0.1h0.8
		V157.4z M225,158.2v0.7c0,0.2,0.1,0.3,0.2,0.4c0.1,0.1,0.2,0.2,0.4,0.2s0.3-0.1,0.4-0.2s0.2-0.3,0.2-0.4v-4.1
		c0-0.8-0.2-1.5-0.7-1.9c-0.4-0.4-1-0.6-1.8-0.6c-0.9,0-1.7,0.2-2.4,0.6c-0.1,0.1-0.2,0.2-0.2,0.3c0,0.1,0,0.2,0.1,0.3
		c0.1,0.1,0.2,0.2,0.3,0.2c0.1,0,0.1,0,0.2,0c0.2-0.1,0.4-0.2,0.5-0.3c0.1-0.1,0.4-0.1,0.6-0.2c0.3-0.1,0.5-0.1,0.8-0.1
		c0.4,0,0.8,0.1,1,0.4c0.2,0.2,0.4,0.6,0.4,1.1v0.8c-0.5,0-0.9,0-1.2,0s-0.7,0-1,0.1c-0.3,0-0.6,0.1-0.8,0.2
		c-0.2,0.1-0.4,0.2-0.6,0.3s-0.3,0.2-0.4,0.4s-0.2,0.3-0.2,0.5c-0.1,0.2-0.1,0.4-0.1,0.7c0,0.7,0.2,1.2,0.6,1.5
		c0.4,0.4,1,0.5,1.6,0.5C223.9,159.6,224.6,159.1,225,158.2z M223.1,158.7c-0.4,0-0.7-0.1-0.9-0.3c-0.2-0.2-0.3-0.5-0.3-0.9
		c0-0.2,0-0.4,0.1-0.6c0.1-0.2,0.2-0.3,0.3-0.4c0.1-0.1,0.3-0.2,0.6-0.2c0.3-0.1,0.5-0.1,0.9-0.1c0.3,0,0.8,0,1.3,0v0.2
		c0,0.7-0.2,1.3-0.6,1.7C224,158.5,223.6,158.7,223.1,158.7z M229,159.3c0.1-0.1,0.1-0.3,0.1-0.4v-0.6c0.2,0.5,0.5,0.8,0.9,1
		c0.4,0.2,0.8,0.3,1.3,0.3c0.4,0,0.8-0.1,1.2-0.3c0.4-0.2,0.6-0.5,0.9-0.8c0.2-0.3,0.4-0.7,0.5-1.2c0.1-0.4,0.2-0.9,0.2-1.4
		c0-0.5-0.1-1-0.2-1.4c-0.1-0.4-0.3-0.8-0.5-1.2c-0.2-0.3-0.5-0.6-0.9-0.8c-0.4-0.2-0.8-0.3-1.2-0.3c-0.5,0-0.9,0.1-1.3,0.3
		c-0.4,0.2-0.6,0.6-0.8,1v-3.7c0-0.2-0.1-0.3-0.2-0.4c-0.1-0.1-0.3-0.2-0.4-0.2c-0.2,0-0.3,0.1-0.4,0.2c-0.1,0.1-0.2,0.3-0.2,0.4
		v8.9c0,0.2,0.1,0.3,0.2,0.4c0.1,0.1,0.2,0.2,0.4,0.2C228.7,159.4,228.9,159.4,229,159.3z M229.2,154.9c0.1-0.3,0.2-0.6,0.3-0.9
		c0.1-0.3,0.3-0.5,0.6-0.6c0.3-0.2,0.5-0.2,0.9-0.2c0.3,0,0.6,0.1,0.9,0.2c0.2,0.2,0.4,0.4,0.6,0.7c0.1,0.3,0.2,0.6,0.3,0.9
		c0.1,0.3,0.1,0.6,0.1,1c0,0.3,0,0.6-0.1,1c-0.1,0.3-0.2,0.6-0.3,0.9c-0.1,0.3-0.3,0.5-0.6,0.7c-0.2,0.2-0.5,0.3-0.9,0.3
		c-1.3,0-2-0.9-2-2.8C229.1,155.5,229.2,155.2,229.2,154.9z M236.2,150.8c0.2,0,0.4-0.1,0.5-0.2c0.1-0.1,0.2-0.3,0.2-0.6
		c0-0.2-0.1-0.4-0.2-0.6c-0.1-0.1-0.3-0.2-0.5-0.2c-0.2,0-0.4,0.1-0.5,0.2c-0.1,0.1-0.2,0.3-0.2,0.6s0.1,0.4,0.2,0.6
		C235.8,150.7,236,150.8,236.2,150.8z M236.6,159.3c0.1-0.1,0.2-0.3,0.2-0.5V153c0-0.2-0.1-0.4-0.2-0.5c-0.1-0.1-0.2-0.2-0.4-0.2
		c-0.2,0-0.3,0.1-0.4,0.2s-0.2,0.3-0.2,0.5v5.8c0,0.2,0.1,0.4,0.2,0.5s0.2,0.2,0.4,0.2C236.3,159.5,236.5,159.4,236.6,159.3z
		 M239.4,149.3c-0.2,0-0.3,0.1-0.4,0.2c-0.1,0.1-0.2,0.3-0.2,0.5v8.9c0,0.2,0.1,0.4,0.2,0.5s0.2,0.2,0.4,0.2s0.3-0.1,0.4-0.2
		c0.1-0.1,0.2-0.3,0.2-0.5V150c0-0.2-0.1-0.4-0.2-0.5C239.6,149.4,239.5,149.3,239.4,149.3z M242.5,150.8c0.2,0,0.4-0.1,0.5-0.2
		c0.1-0.1,0.2-0.3,0.2-0.6c0-0.2-0.1-0.4-0.2-0.6c-0.1-0.1-0.3-0.2-0.5-0.2c-0.2,0-0.4,0.1-0.5,0.2c-0.1,0.1-0.2,0.3-0.2,0.6
		s0.1,0.4,0.2,0.6C242.1,150.7,242.3,150.8,242.5,150.8z M242.5,152.4c-0.2,0-0.3,0.1-0.4,0.2s-0.2,0.3-0.2,0.5v5.8
		c0,0.2,0.1,0.4,0.2,0.5s0.2,0.2,0.4,0.2c0.2,0,0.3-0.1,0.4-0.2c0.1-0.1,0.2-0.3,0.2-0.5V153c0-0.2-0.1-0.4-0.2-0.5
		C242.8,152.5,242.7,152.4,242.5,152.4z M248.6,159.2c0.4-0.2,0.7-0.6,0.9-1v0.6c0,0.2,0,0.3,0.1,0.4c0.1,0.1,0.2,0.2,0.4,0.2
		c0.2,0,0.3-0.1,0.4-0.2c0.1-0.1,0.2-0.3,0.2-0.4v-8.9c0-0.2-0.1-0.3-0.2-0.4c-0.1-0.1-0.2-0.2-0.4-0.2c-0.2,0-0.3,0.1-0.4,0.2
		c-0.1,0.1-0.2,0.3-0.2,0.4v3.7c-0.2-0.4-0.5-0.8-0.8-1c-0.4-0.2-0.8-0.3-1.3-0.3c-0.4,0-0.8,0.1-1.2,0.3s-0.7,0.4-0.9,0.8
		c-0.2,0.3-0.4,0.7-0.5,1.2c-0.1,0.4-0.2,0.9-0.2,1.4c0,0.5,0.1,1,0.2,1.4c0.1,0.4,0.3,0.8,0.5,1.2c0.2,0.3,0.5,0.6,0.9,0.8
		c0.4,0.2,0.8,0.3,1.2,0.3C247.8,159.6,248.2,159.5,248.6,159.2z M246.1,157.8c-0.1-0.3-0.2-0.6-0.3-0.9c-0.1-0.3-0.1-0.6-0.1-1
		c0-0.3,0-0.7,0.1-1c0.1-0.3,0.2-0.6,0.3-0.9c0.1-0.3,0.3-0.5,0.6-0.7s0.5-0.2,0.9-0.2c0.3,0,0.6,0.1,0.9,0.2
		c0.3,0.2,0.5,0.4,0.6,0.6c0.1,0.3,0.3,0.6,0.3,0.9c0.1,0.3,0.1,0.7,0.1,1c0,1.9-0.7,2.8-2,2.8c-0.3,0-0.6-0.1-0.9-0.3
		C246.4,158.3,246.2,158,246.1,157.8z M254.9,152.3c-0.9,0-1.7,0.2-2.4,0.6c-0.1,0.1-0.2,0.2-0.2,0.3c0,0.1,0,0.2,0.1,0.3
		c0.1,0.1,0.2,0.2,0.3,0.2c0.1,0,0.1,0,0.2,0c0.2-0.1,0.4-0.2,0.5-0.3c0.1-0.1,0.4-0.1,0.6-0.2c0.3-0.1,0.5-0.1,0.8-0.1
		c0.4,0,0.8,0.1,1,0.4c0.2,0.2,0.4,0.6,0.4,1.1v0.8c-0.5,0-0.9,0-1.2,0s-0.7,0-1,0.1c-0.3,0-0.6,0.1-0.8,0.2
		c-0.2,0.1-0.4,0.2-0.6,0.3s-0.3,0.2-0.4,0.4s-0.2,0.3-0.2,0.5c-0.1,0.2-0.1,0.4-0.1,0.7c0,0.7,0.2,1.2,0.6,1.5
		c0.4,0.4,1,0.5,1.6,0.5c0.9,0,1.6-0.5,2-1.4v0.7c0,0.2,0.1,0.3,0.2,0.4c0.1,0.1,0.2,0.2,0.4,0.2s0.3-0.1,0.4-0.2s0.2-0.3,0.2-0.4
		v-4.1c0-0.8-0.2-1.5-0.7-1.9C256.3,152.5,255.7,152.3,254.9,152.3z M256.3,156.3c0,0.7-0.2,1.3-0.6,1.7c-0.4,0.5-0.8,0.7-1.3,0.7
		c-0.4,0-0.7-0.1-0.9-0.3c-0.2-0.2-0.3-0.5-0.3-0.9c0-0.2,0-0.4,0.1-0.6c0.1-0.2,0.2-0.3,0.3-0.4c0.1-0.1,0.3-0.2,0.6-0.2
		c0.3-0.1,0.5-0.1,0.9-0.1c0.3,0,0.8,0,1.3,0V156.3z M264.8,149.5c-0.1-0.1-0.2-0.2-0.4-0.2c-0.2,0-0.3,0.1-0.4,0.2
		c-0.1,0.1-0.2,0.3-0.2,0.4v3.7c-0.2-0.4-0.5-0.8-0.8-1c-0.4-0.2-0.8-0.3-1.3-0.3c-0.4,0-0.8,0.1-1.2,0.3s-0.7,0.4-0.9,0.8
		c-0.2,0.3-0.4,0.7-0.5,1.2c-0.1,0.4-0.2,0.9-0.2,1.4c0,0.5,0.1,1,0.2,1.4c0.1,0.4,0.3,0.8,0.5,1.2c0.2,0.3,0.5,0.6,0.9,0.8
		c0.4,0.2,0.8,0.3,1.2,0.3c0.5,0,0.9-0.1,1.3-0.3c0.4-0.2,0.7-0.6,0.9-1v0.6c0,0.2,0,0.3,0.1,0.4c0.1,0.1,0.2,0.2,0.4,0.2
		c0.2,0,0.3-0.1,0.4-0.2c0.1-0.1,0.2-0.3,0.2-0.4v-8.9C264.9,149.7,264.9,149.6,264.8,149.5z M261.8,158.7c-0.3,0-0.6-0.1-0.9-0.3
		c-0.2-0.2-0.4-0.4-0.6-0.7c-0.1-0.3-0.2-0.6-0.3-0.9c-0.1-0.3-0.1-0.6-0.1-1c0-0.3,0-0.7,0.1-1c0.1-0.3,0.2-0.6,0.3-0.9
		c0.1-0.3,0.3-0.5,0.6-0.7s0.5-0.2,0.9-0.2c0.3,0,0.6,0.1,0.9,0.2c0.3,0.2,0.5,0.4,0.6,0.6c0.1,0.3,0.3,0.6,0.3,0.9
		c0.1,0.3,0.1,0.7,0.1,1C263.8,157.8,263.1,158.7,261.8,158.7z M181.1,167.9c-0.2-0.2-0.4-0.4-0.7-0.5c-0.3-0.1-0.6-0.3-0.9-0.4
		l-1.8-0.7c-0.4-0.2-0.8-0.4-0.9-0.6s-0.3-0.5-0.3-0.9c0-0.5,0.2-0.9,0.6-1.1s0.9-0.4,1.5-0.4c0.4,0,0.9,0.1,1.3,0.2s0.7,0.3,1,0.5
		c0.1,0.1,0.2,0.1,0.3,0.1c0.1,0,0.3-0.1,0.4-0.2c0.1-0.1,0.1-0.3,0.1-0.4c0-0.1,0-0.3-0.1-0.4c-0.3-0.3-0.7-0.5-1.3-0.8
		c-0.5-0.2-1.1-0.3-1.7-0.3c-0.6,0-1.2,0.1-1.6,0.3c-0.5,0.2-0.9,0.5-1.2,0.9c-0.3,0.4-0.4,0.9-0.4,1.4c0,0.7,0.2,1.2,0.5,1.6
		s0.8,0.7,1.5,1l1.8,0.7c0.3,0.1,0.5,0.2,0.7,0.3c0.2,0.1,0.3,0.2,0.5,0.3c0.1,0.1,0.2,0.3,0.3,0.5s0.1,0.4,0.1,0.6
		c0,0.5-0.2,0.9-0.6,1.2c-0.4,0.3-0.9,0.4-1.5,0.4c-1,0-1.8-0.3-2.5-0.9c0,0-0.1-0.1-0.2-0.1c-0.1,0-0.3,0.1-0.4,0.2
		c-0.1,0.2-0.2,0.3-0.2,0.5c0,0.1,0,0.2,0.1,0.2c0.8,0.8,1.8,1.2,3.1,1.2c1.1,0,1.9-0.3,2.5-0.8c0.6-0.5,0.9-1.2,0.9-2.2
		c0-0.4-0.1-0.7-0.2-1C181.5,168.4,181.3,168.1,181.1,167.9z M184.1,165.4c-0.2,0-0.3,0.1-0.4,0.2c-0.1,0.1-0.2,0.3-0.2,0.5v5.8
		c0,0.2,0.1,0.4,0.2,0.5s0.2,0.2,0.4,0.2c0.2,0,0.3-0.1,0.4-0.2c0.1-0.1,0.2-0.3,0.2-0.5V166c0-0.2-0.1-0.4-0.2-0.5
		S184.3,165.4,184.1,165.4z M184.1,162.2c-0.2,0-0.4,0.1-0.5,0.2c-0.1,0.1-0.2,0.3-0.2,0.6s0.1,0.4,0.2,0.6c0.1,0.1,0.3,0.2,0.5,0.2
		c0.2,0,0.4-0.1,0.5-0.2s0.2-0.3,0.2-0.6c0-0.2-0.1-0.4-0.2-0.6S184.3,162.2,184.1,162.2z M189.8,165.3c-0.5,0-0.9,0.1-1.3,0.3
		s-0.6,0.6-0.8,1V166c0-0.2-0.1-0.3-0.2-0.4c-0.1-0.1-0.2-0.2-0.4-0.2c-0.2,0-0.3,0.1-0.4,0.2c-0.1,0.1-0.2,0.3-0.2,0.4v5.8
		c0,0.2,0.1,0.3,0.2,0.5c0.1,0.1,0.2,0.2,0.4,0.2c0.2,0,0.3-0.1,0.4-0.2c0.1-0.1,0.2-0.3,0.2-0.4v-3.5c0-0.7,0.2-1.2,0.5-1.6
		c0.3-0.4,0.7-0.6,1.2-0.6c0.5,0,0.8,0.2,1.1,0.5c0.3,0.3,0.4,0.8,0.4,1.4v3.9c0,0.2,0.1,0.3,0.2,0.5c0.1,0.1,0.2,0.2,0.4,0.2
		c0.2,0,0.3-0.1,0.4-0.2c0.1-0.1,0.2-0.3,0.2-0.5V168c0-0.9-0.2-1.6-0.6-2.1C191.1,165.5,190.5,165.3,189.8,165.3z M202.9,162.3
		h-4.5c-0.2,0-0.3,0.1-0.4,0.2s-0.2,0.3-0.2,0.5v8.8c0,0.2,0.1,0.4,0.2,0.5s0.3,0.2,0.5,0.2c0.2,0,0.3-0.1,0.5-0.2
		c0.1-0.1,0.2-0.3,0.2-0.5v-4h3.6c0.2,0,0.3-0.1,0.4-0.2s0.1-0.2,0.1-0.4c0-0.2,0-0.3-0.1-0.4s-0.2-0.2-0.4-0.2h-3.6v-3.2h3.8
		c0.2,0,0.3-0.1,0.4-0.2c0.1-0.1,0.1-0.2,0.1-0.4s0-0.3-0.1-0.4C203.2,162.4,203.1,162.3,202.9,162.3z M207.5,165.3
		c-0.5,0-0.8,0.1-1.2,0.4s-0.5,0.7-0.6,1.1l0-0.9c0-0.2-0.1-0.3-0.2-0.4c-0.1-0.1-0.2-0.2-0.4-0.2s-0.3,0.1-0.4,0.2
		c-0.1,0.1-0.2,0.2-0.2,0.4v5.9c0,0.2,0.1,0.3,0.2,0.4s0.2,0.2,0.4,0.2s0.3-0.1,0.4-0.2c0.1-0.1,0.2-0.3,0.2-0.4v-3.7
		c0-0.6,0.2-1,0.5-1.3c0.3-0.3,0.8-0.5,1.3-0.5c0.1,0,0.2-0.1,0.3-0.2c0.1-0.1,0.1-0.2,0.1-0.4c0-0.2,0-0.3-0.1-0.4
		C207.7,165.3,207.6,165.3,207.5,165.3z M211.9,165.3c-1,0-1.8,0.3-2.3,1c-0.6,0.7-0.9,1.6-0.9,2.6c0,1.1,0.3,1.9,0.9,2.6
		c0.6,0.7,1.4,1,2.3,1c1,0,1.8-0.3,2.3-1c0.6-0.7,0.9-1.6,0.9-2.6c0-1.1-0.3-2-0.9-2.6C213.7,165.6,212.9,165.3,211.9,165.3z
		 M213.5,171c-0.4,0.5-0.9,0.7-1.5,0.7c-0.6,0-1.1-0.2-1.5-0.7c-0.4-0.5-0.5-1.2-0.5-2c0-0.9,0.2-1.5,0.5-2c0.4-0.5,0.9-0.7,1.5-0.7
		c0.6,0,1.1,0.3,1.5,0.8c0.4,0.5,0.5,1.2,0.5,2C214,169.8,213.8,170.5,213.5,171z M219.8,165.3c-0.5,0-0.9,0.1-1.3,0.3
		c-0.4,0.2-0.6,0.6-0.8,1V166c0-0.2-0.1-0.3-0.2-0.4c-0.1-0.1-0.2-0.2-0.4-0.2s-0.3,0.1-0.4,0.2c-0.1,0.1-0.2,0.3-0.2,0.4v5.8
		c0,0.2,0.1,0.3,0.2,0.5c0.1,0.1,0.2,0.2,0.4,0.2s0.3-0.1,0.4-0.2c0.1-0.1,0.2-0.3,0.2-0.4v-3.5c0-0.7,0.2-1.2,0.5-1.6
		c0.3-0.4,0.7-0.6,1.2-0.6c0.5,0,0.8,0.2,1.1,0.5c0.3,0.3,0.4,0.8,0.4,1.4v3.9c0,0.2,0.1,0.3,0.2,0.5c0.1,0.1,0.2,0.2,0.4,0.2
		s0.3-0.1,0.4-0.2c0.1-0.1,0.2-0.3,0.2-0.5V168c0-0.9-0.2-1.6-0.6-2.1S220.5,165.3,219.8,165.3z M226.9,171.5L226.9,171.5l-0.5,0
		h-0.1c-0.3,0-0.5-0.1-0.6-0.3c-0.1-0.2-0.2-0.6-0.2-1.1v-3.9h1.2c0.3,0,0.4-0.1,0.4-0.4c0-0.1,0-0.2-0.1-0.3s-0.2-0.1-0.3-0.1h-1.2
		v-2.1c0-0.2,0-0.3-0.1-0.4c-0.1-0.1-0.2-0.1-0.3-0.1c-0.1,0-0.3,0.1-0.4,0.2c-0.1,0.1-0.2,0.2-0.2,0.4l-0.2,2h-0.8
		c-0.1,0-0.2,0-0.3,0.1s-0.1,0.2-0.1,0.3c0,0.1,0,0.2,0.1,0.3c0.1,0.1,0.2,0.1,0.3,0.1h0.8v4.1c0,0.7,0.1,1.3,0.4,1.6
		s0.7,0.5,1.2,0.5h0.4c0.2,0,0.3,0,0.4,0c0.1,0,0.2,0,0.3-0.1c0.1,0,0.2-0.1,0.2-0.2c0-0.1,0.1-0.2,0.1-0.3c0-0.1,0-0.2-0.1-0.3
		C227.2,171.6,227,171.5,226.9,171.5z M233.6,166.3c-0.2-0.3-0.5-0.6-0.9-0.8c-0.4-0.2-0.8-0.3-1.3-0.3c-0.6,0-1.2,0.2-1.7,0.5
		c-0.5,0.3-0.8,0.8-1.1,1.3c-0.2,0.5-0.4,1.1-0.4,1.8c0,0.7,0.1,1.4,0.4,2c0.3,0.6,0.7,1,1.1,1.3c0.5,0.3,1,0.4,1.6,0.4
		c1,0,1.8-0.3,2.4-1c0.1-0.1,0.2-0.3,0.2-0.4c0-0.1,0-0.2-0.1-0.3c-0.1-0.1-0.2-0.1-0.3-0.1c-0.1,0-0.2,0-0.2,0.1
		c-0.3,0.3-0.6,0.5-0.9,0.6c-0.3,0.2-0.6,0.2-1,0.2c-0.6,0-1.1-0.2-1.5-0.6c-0.4-0.4-0.6-1-0.6-1.9h4.4c0.1,0,0.2,0,0.3-0.1
		c0.1-0.1,0.1-0.2,0.1-0.3c0-0.5-0.1-0.9-0.2-1.3C234,167,233.8,166.6,233.6,166.3z M229.5,168.4c0-0.3,0.1-0.6,0.2-0.8
		c0.1-0.3,0.2-0.5,0.4-0.7c0.2-0.2,0.4-0.4,0.6-0.5c0.2-0.1,0.5-0.2,0.8-0.2c0.6,0,1,0.2,1.3,0.6c0.3,0.4,0.5,1,0.5,1.6H229.5z
		 M238.8,165.3c-0.5,0-0.8,0.1-1.2,0.4s-0.5,0.7-0.6,1.1l0-0.9c0-0.2-0.1-0.3-0.2-0.4c-0.1-0.1-0.2-0.2-0.4-0.2s-0.3,0.1-0.4,0.2
		c-0.1,0.1-0.2,0.2-0.2,0.4v5.9c0,0.2,0.1,0.3,0.2,0.4s0.2,0.2,0.4,0.2s0.3-0.1,0.4-0.2c0.1-0.1,0.2-0.3,0.2-0.4v-3.7
		c0-0.6,0.2-1,0.5-1.3c0.3-0.3,0.8-0.5,1.3-0.5c0.1,0,0.2-0.1,0.3-0.2c0.1-0.1,0.1-0.2,0.1-0.4c0-0.2,0-0.3-0.1-0.4
		C239,165.3,238.9,165.3,238.8,165.3z M242.8,165.3c-0.9,0-1.7,0.2-2.4,0.6c-0.1,0.1-0.2,0.2-0.2,0.3c0,0.1,0,0.2,0.1,0.3
		c0.1,0.1,0.2,0.2,0.3,0.2c0.1,0,0.1,0,0.2,0c0.2-0.1,0.4-0.2,0.5-0.3c0.1-0.1,0.4-0.1,0.6-0.2c0.3-0.1,0.5-0.1,0.8-0.1
		c0.4,0,0.8,0.1,1,0.4c0.2,0.2,0.4,0.6,0.4,1.1v0.8c-0.5,0-0.9,0-1.2,0s-0.7,0-1,0.1c-0.3,0-0.6,0.1-0.8,0.2
		c-0.2,0.1-0.4,0.2-0.6,0.3s-0.3,0.2-0.4,0.4s-0.2,0.3-0.2,0.5c-0.1,0.2-0.1,0.4-0.1,0.7c0,0.7,0.2,1.2,0.6,1.5
		c0.4,0.4,1,0.5,1.6,0.5c0.9,0,1.6-0.5,2-1.4v0.7c0,0.2,0.1,0.3,0.2,0.4c0.1,0.1,0.2,0.2,0.4,0.2s0.3-0.1,0.4-0.2s0.2-0.3,0.2-0.4
		v-4.1c0-0.8-0.2-1.5-0.7-1.9C244.2,165.5,243.6,165.3,242.8,165.3z M244.2,169.3c0,0.7-0.2,1.3-0.6,1.7c-0.4,0.5-0.8,0.7-1.3,0.7
		c-0.4,0-0.7-0.1-0.9-0.3c-0.2-0.2-0.3-0.5-0.3-0.9c0-0.2,0-0.4,0.1-0.6c0.1-0.2,0.2-0.3,0.3-0.4c0.1-0.1,0.3-0.2,0.6-0.2
		c0.3-0.1,0.5-0.1,0.9-0.1c0.3,0,0.8,0,1.3,0V169.3z M250.2,168.4l-1.1-0.3c-0.5-0.1-0.8-0.2-0.9-0.4c-0.1-0.1-0.2-0.3-0.2-0.6
		c0-0.4,0.1-0.6,0.4-0.8c0.3-0.2,0.6-0.2,1.1-0.2c0.1,0,0.3,0,0.4,0s0.3,0.1,0.4,0.1c0.1,0,0.2,0.1,0.3,0.1c0.1,0,0.2,0.1,0.3,0.1
		c0.1,0.1,0.2,0.1,0.2,0.1c0.1,0,0.1,0,0.2,0c0.1,0,0.2,0,0.3-0.1c0.1-0.1,0.1-0.2,0.1-0.3c0-0.2-0.1-0.3-0.2-0.4
		c-0.2-0.1-0.5-0.3-0.9-0.4c-0.4-0.1-0.8-0.2-1.2-0.2c-0.3,0-0.7,0-1,0.1c-0.3,0.1-0.6,0.2-0.8,0.3c-0.2,0.1-0.4,0.4-0.6,0.6
		c-0.1,0.3-0.2,0.6-0.2,0.9c0,0.2,0,0.4,0.1,0.6c0,0.2,0.1,0.3,0.2,0.4s0.2,0.2,0.3,0.3c0.1,0.1,0.2,0.2,0.4,0.2
		c0.2,0.1,0.3,0.1,0.5,0.2c0.1,0,0.3,0.1,0.6,0.2l1.1,0.3c0.4,0.1,0.6,0.2,0.8,0.4c0.2,0.2,0.2,0.4,0.2,0.7c0,0.4-0.1,0.7-0.4,0.9
		s-0.7,0.3-1.1,0.3c-0.7,0-1.3-0.2-1.9-0.6c-0.1-0.1-0.2-0.1-0.3-0.1c-0.1,0-0.2,0-0.3,0.1c-0.1,0.1-0.1,0.2-0.1,0.3
		c0,0.2,0.1,0.3,0.2,0.4c0.3,0.2,0.6,0.4,1,0.5s0.9,0.2,1.3,0.2c0.5,0,0.9-0.1,1.3-0.2c0.4-0.1,0.7-0.4,0.9-0.7s0.3-0.7,0.3-1.2
		c0-0.5-0.1-0.9-0.4-1.3S250.9,168.6,250.2,168.4z M134.6,162.5c-0.5-0.5-1-0.9-1.6-1.2c-0.6-0.3-1.3-0.7-2.2-1c0,0-0.7-0.2-1.9-0.6
		s-1.8-0.6-1.9-0.6c-0.6-0.2-1.1-0.6-1.4-0.9s-0.5-0.9-0.5-1.5c0-0.5,0.1-0.9,0.3-1.2c0.2-0.3,0.5-0.6,0.9-0.8
		c0.4-0.2,0.8-0.3,1.2-0.4c0.4-0.1,0.9-0.1,1.4-0.1c1.6,0,3.1,0.4,4.5,1.3c0.2,0.1,0.4,0.2,0.6,0.2c0.4,0,0.7-0.2,0.9-0.5
		c0.3-0.4,0.4-0.8,0.4-1.2c0-0.4-0.1-0.8-0.4-1c-0.6-0.6-1.5-1.1-2.7-1.5s-2.3-0.6-3.6-0.6c-2.1,0-3.8,0.5-5.1,1.6
		c-1.3,1.1-2,2.6-2,4.4c0,1.4,0.3,2.6,1,3.4c0.6,0.8,1.7,1.5,3.2,2.1l4.2,1.6c0.8,0.3,1.4,0.6,1.8,1.1c0.4,0.4,0.6,1,0.6,1.7
		c0,0.9-0.3,1.6-1,2c-0.7,0.5-1.6,0.7-2.7,0.7c-1.8,0-3.4-0.5-5-1.6c-0.1-0.1-0.3-0.1-0.4-0.1c-0.4,0-0.7,0.2-1,0.7
		c-0.3,0.5-0.5,0.9-0.5,1.4c0,0.4,0.1,0.6,0.3,0.8c1.6,1.5,3.9,2.2,6.7,2.2c2.2,0,4-0.6,5.4-1.7c1.3-1.1,2-2.7,2-4.7
		c0-0.8-0.1-1.6-0.3-2.2C135.4,163.6,135,163,134.6,162.5z M151.5,162.5c-0.5-0.5-1-0.9-1.6-1.2c-0.6-0.3-1.3-0.7-2.2-1
		c0,0-0.7-0.2-1.9-0.6s-1.8-0.6-1.9-0.6c-0.6-0.2-1.1-0.6-1.4-0.9s-0.5-0.9-0.5-1.5c0-0.5,0.1-0.9,0.3-1.2c0.2-0.3,0.5-0.6,0.9-0.8
		c0.4-0.2,0.8-0.3,1.2-0.4c0.4-0.1,0.9-0.1,1.4-0.1c1.6,0,3.1,0.4,4.5,1.3c0.2,0.1,0.4,0.2,0.6,0.2c0.4,0,0.7-0.2,0.9-0.5
		c0.3-0.4,0.4-0.8,0.4-1.2c0-0.4-0.1-0.8-0.4-1c-0.6-0.6-1.5-1.1-2.7-1.5s-2.3-0.6-3.6-0.6c-2.1,0-3.8,0.5-5.1,1.6
		c-1.3,1.1-2,2.6-2,4.4c0,1.4,0.3,2.6,1,3.4c0.6,0.8,1.7,1.5,3.2,2.1l4.2,1.6c0.8,0.3,1.4,0.6,1.8,1.1c0.4,0.4,0.6,1,0.6,1.7
		c0,0.9-0.3,1.6-1,2c-0.7,0.5-1.6,0.7-2.7,0.7c-1.8,0-3.4-0.5-5-1.6c-0.1-0.1-0.3-0.1-0.4-0.1c-0.4,0-0.7,0.2-1,0.7
		c-0.3,0.5-0.5,0.9-0.5,1.4c0,0.4,0.1,0.6,0.3,0.8c1.6,1.5,3.9,2.2,6.7,2.2c2.2,0,4-0.6,5.4-1.7c1.3-1.1,2-2.7,2-4.7
		c0-0.8-0.1-1.6-0.3-2.2C152.3,163.6,152,163,151.5,162.5z M166.7,151.4h-8.7c-0.5,0-1,0.2-1.4,0.6s-0.6,0.9-0.6,1.6v16.7
		c0,0.7,0.2,1.2,0.5,1.6c0.4,0.4,0.8,0.6,1.3,0.6s0.9-0.2,1.3-0.6s0.6-0.9,0.6-1.6v-7h6.6c0.4,0,0.7-0.2,1-0.5
		c0.2-0.3,0.4-0.7,0.4-1.1c0-0.4-0.1-0.8-0.4-1.1c-0.2-0.3-0.6-0.5-1-0.5h-6.6v-5.3h6.9c0.4,0,0.7-0.2,1-0.5
		c0.2-0.3,0.4-0.7,0.4-1.2c0-0.4-0.1-0.8-0.4-1.2C167.5,151.6,167.1,151.4,166.7,151.4z"/>
	<path class="st33" d="M171.8,138.7c1.4,1.7,2.7,4.1,3.3,5.2s-0.3,2.3-1.9-0.2c-1.6-2.5-8.9-11.7-18.2-14.3c-12-3.4-28.4-2-43,17.9
		c0,0,4.7-14.8,23.2-20.3C151.2,122.3,164.5,129.6,171.8,138.7z"/>
	<path class="st34" d="M118.3,141.4c-0.7,0.8-5.2,6.9-6.5,8.9s-2.1,4-2.3,10.2s1,15.7,9.5,25.1s19.3,11.2,27.8,11.2
		c0,0-13-1.1-23.3-11.6c-10.3-10.5-11.5-16.7-10.9-27.5C112.9,150.8,118.3,141.4,118.3,141.4z"/>
	<path class="st35" d="M175.5,177.3c-2.1-1.6-3.3,0.1-4.4,1.7c-1.1,1.6-5.1,7.1-11.6,10.4c-6.5,3.3-16.2,5.3-26.7,1.6
		c0,0,6.8,4.1,14.2,4.7c7.4,0.6,9.8-0.2,14.7-2.9c4.9-2.7,9.9-7,12.1-10.1C176,179.5,176.7,178.2,175.5,177.3z"/>
</g>
<g id="Capa_2">
</g>
</svg>
