<?xml version="1.0" encoding="utf-8"?>
<!-- Generator: Adobe Illustrator 24.1.2, SVG Export Plug-In . SVG Version: 6.00 Build 0)  -->
<svg version="1.1" id="Capa_1" xmlns="http://www.w3.org/2000/svg" xmlns:xlink="http://www.w3.org/1999/xlink" x="0px" y="0px"
	 viewBox="0 0 323.2 129.1" style="enable-background:new 0 0 323.2 129.1;" xml:space="preserve">
<style type="text/css">
	.st0{fill:#F7C148;}
	.st1{fill:#68A6D6;}
	.st2{fill:#367838;}
	.st3{fill:#494949;}
</style>
<path class="st0" d="M76.9,121c0,0-10.3-27.7-50.2-26.1c0,0-15-18-15.4-37.9C11.3,57,67.7,59.7,76.9,121z"/>
<path class="st1" d="M74.3,121c0,0-18-33.7-68.6-19.3C5.7,101.7,28.4,136.9,74.3,121z"/>
<path class="st2" d="M41.9,62.5C63,72.4,68.1,86.8,68.1,86.8V5.3C41.3,34.5,41.9,62.5,41.9,62.5z M214.4,75.9V59.4
	c0-7.3-3.1-14.2-13.6-14c-10.5,0.2-14.8,4.2-14.8,4.2l2.2,7.5c0,0,1.5-0.9,7.6-2.5c6-1.6,8.5,1.5,8.5,2.8s0,4.2,0,4.2
	c-15.6,0.2-19,5.4-19.8,11.4c-0.8,6,2.7,12.4,10.6,12.4c7,0,10.1-4.2,10.1-4.2s2.5,4.3,7.1,4.3s6.5-2.4,6.5-2.4v-4.2
	C215.1,79.9,214.4,77.5,214.4,75.9z M204.2,76.6c-4.7,4.3-11.2,0.4-9.4-4.7c2-5.4,9.4-4.8,9.4-4.8V76.6z M109,60.6
	c5.5-1.2,9.7-5.8,9.7-11.3c0-6.1-5.1-10.6-11.6-11.1l-22.8,0v46.2h22.8c7.1,0,12.8-5.3,12.8-11.9C119.9,66.4,115.1,61.4,109,60.6z
	 M96,46.5h5.5c3,0,5.5,2.5,5.5,5.5s-2.5,5.5-5.5,5.5H96V46.5z M102.4,75.5c-0.1,0-6.4,0-6.4,0v-11c0,0,6.3,0,6.4,0
	c3,0,5.5,2.5,5.5,5.5S105.5,75.5,102.4,75.5z M140.6,45.4c-13,0-17,10.2-17,20.4c0,10.2,4.8,19.9,16.5,19.9
	c11.7,0,13.7-4.4,13.7-4.4l-2.7-6.1c0,0-4,2.3-9.5,2.3c-8.1,0-7-9.1-7-9.1h20.2c0,0,0.2-4.6,0-8.6C154.5,55.7,152.2,45.4,140.6,45.4
	z M145.3,61.5h-10.5c0,0,0-1.3,0-2c0-1.7,0.3-5.8,5.2-5.8c4.5,0,5.2,3.7,5.2,5.5S145.3,61.5,145.3,61.5z M172.1,73.2l0-19.9h8.1
	v-7.2h-8.1l0-9.9h-4l-10.9,13.4v4h4.6c0,0,0,13.4,0,21c0,7.6,4.4,11,10.3,11s9.1-1.8,9.1-1.8v-6.2c0,0-1.5,0.5-5.3,0.5
	S172.1,75.3,172.1,73.2z"/>
<path class="st3" d="M87,102.8L87,102.8c0.7-0.2,1.2-0.9,1.2-1.9c0-1.6-1.1-2.2-2.5-2.2H83v8.4h2.6c2.2,0,3-1.1,3-2.4
	C88.6,103.5,87.9,102.9,87,102.8z M84.2,99.8h1.3c1,0,1.5,0.4,1.5,1.3c0,0.9-0.5,1.3-1.5,1.3h-1.3V99.8z M85.8,106.1h-1.6v-2.7h1.5
	c0.9,0,1.7,0.3,1.7,1.4C87.4,105.7,86.9,106.1,85.8,106.1z M92.1,98.8h-1.2v8.4h1.2V98.8z M97.5,107.3c2,0,3.4-1.3,3.4-4.4
	c0-3.1-1.3-4.3-3.3-4.3c-2,0-3.4,1.3-3.4,4.4C94.3,106.1,95.5,107.3,97.5,107.3z M97.6,99.7c1.3,0,2.1,0.8,2.1,3.3
	c0,2.4-0.8,3.2-2.1,3.2c-1.3,0-2.1-0.8-2.1-3.3C95.5,100.5,96.3,99.7,97.6,99.7z M109.1,102.9c0-2.8-1.2-4.1-3.8-4.1H103v8.4h2.3
	C108,107.2,109.1,105.4,109.1,102.9z M104.2,106.1v-6.3h1c1.7,0,2.6,0.8,2.6,3.2c0,2.2-0.8,3.1-2.6,3.1H104.2z M112.5,98.8h-1.2v8.4
	h1.2V98.8z M120.1,98.8l-1.8,5.6c-0.1,0.4-0.4,1.5-0.5,1.8h0c-0.1-0.3-0.4-1.5-0.5-1.8l-1.8-5.6h-1.3l2.7,8.4h1.7l2.7-8.4H120.1z
	 M124.1,103.4h3v-1h-3v-2.6h3.4v-1h-4.6v8.4h4.8v-1h-3.6V103.4z M130.8,103.8h0.5c0.6,0,0.9,0.2,1.2,0.7l1.5,2.7h1.5l-1.5-2.5
	c-0.4-0.7-0.7-1-1-1.1v0c1-0.1,1.9-0.9,1.9-2.3c0-1.7-1.1-2.4-2.8-2.4h-2.3v8.4h1.2V103.8z M130.8,99.8h0.9c1.1,0,1.8,0.4,1.8,1.5
	c0,1.1-0.6,1.5-1.7,1.5h-1V99.8z M138.1,100.9c0-0.7,0.5-1.2,1.4-1.2c0.8,0,1.3,0.3,1.6,0.6l0.7-0.9c-0.4-0.4-1.2-0.8-2.3-0.8
	c-1.6,0-2.7,1-2.7,2.3c0,2.7,4,2.3,4,4c0,0.7-0.5,1.2-1.5,1.2s-1.7-0.5-2.1-0.9l-0.7,1c0.4,0.4,1.3,0.9,2.7,0.9
	c1.9,0,2.9-1.1,2.9-2.4C142.1,102.3,138.1,102.7,138.1,100.9z M145.3,98.8h-1.2v8.4h1.2V98.8z M152.6,98.8H147v1h2.2v7.4h1.2v-7.4
	h2.2V98.8z M154.5,104.9h3.2l0.7,2.3h1.3l-2.7-8.4h-1.8l-2.7,8.4h1.2L154.5,104.9z M155.6,101.5c0.1-0.5,0.5-1.5,0.5-1.8h0
	c0.1,0.3,0.4,1.4,0.5,1.9l0.7,2.3h-2.6L155.6,101.5z M165.3,98.8h-5.6v1h2.2v7.4h1.2v-7.4h2.2V98.8z M166.1,108.4l0.4,0.6
	c0.8-0.3,1.7-1.2,1.7-2.3c0-0.7-0.4-1.2-1-1.2c-0.5,0-0.8,0.4-0.8,0.8v0.1c0.4,0.2,0.7,0.4,0.7,0.9
	C167.1,107.8,166.7,108.2,166.1,108.4z M178.7,106.1h-3.6v-2.7h3v-1h-3v-2.6h3.4v-1H174v8.4h4.8V106.1z M185.5,105.7
	c-0.3,0.3-0.8,0.6-1.6,0.6c-1.5,0-2.3-1.2-2.3-3.3c0-2.2,0.8-3.2,2.2-3.2c0.9,0,1.3,0.3,1.7,0.6l0.8-0.9c-0.3-0.2-1-0.8-2.4-0.8
	c-2.3,0-3.5,1.7-3.5,4.4c0,2.6,1,4.3,3.4,4.3c1.3,0,2.1-0.4,2.4-0.8L185.5,105.7z M190.8,98.6c-2,0-3.4,1.3-3.4,4.4
	c0,3.1,1.2,4.3,3.3,4.3c2,0,3.4-1.3,3.4-4.4C194.1,99.8,192.8,98.6,190.8,98.6z M190.8,106.2c-1.3,0-2.1-0.8-2.1-3.3
	c0-2.5,0.8-3.2,2.1-3.2c1.3,0,2.1,0.8,2.1,3.3C192.8,105.5,192,106.2,190.8,106.2z M197.4,98.8h-1.2v8.4h4.7v-1h-3.5V98.8z
	 M205.1,107.3c2,0,3.4-1.3,3.4-4.4c0-3.1-1.3-4.3-3.3-4.3c-2,0-3.4,1.3-3.4,4.4C201.8,106.1,203.1,107.3,205.1,107.3z M205.1,99.7
	c1.3,0,2.1,0.8,2.1,3.3c0,2.4-0.8,3.2-2.1,3.2c-1.3,0-2.1-0.8-2.1-3.3C203.1,100.5,203.9,99.7,205.1,99.7z M213.6,107.3
	c1.4,0,2.2-0.3,2.7-0.8v-3.7h-1.2v3.1c-0.3,0.2-0.8,0.3-1.3,0.3c-1.6,0-2.4-1-2.4-3.4c0-2.5,1.2-3.2,2.4-3.2c0.8,0,1.3,0.3,1.7,0.6
	l0.8-0.9c-0.3-0.3-0.9-0.8-2.4-0.8c-2.1,0-3.7,1.3-3.7,4.4C210.2,105.9,211.3,107.3,213.6,107.3z M219.9,98.8h-1.2v8.4h1.2V98.8z
	 M227.4,107.2h1.3l-2.7-8.4h-1.8l-2.7,8.4h1.2l0.7-2.3h3.2L227.4,107.2z M223.8,103.8l0.7-2.4c0.1-0.5,0.5-1.5,0.5-1.8h0
	c0.1,0.3,0.4,1.4,0.5,1.9l0.7,2.3H223.8z M83.2,121.6h1.2v-8.4h-1.2V121.6z M89.7,114.2h2.2v7.4h1.2v-7.4h2.2v-1h-5.6V114.2z
	 M98.1,117.8h3v-1h-3v-2.6h3.4v-1h-4.6v8.4h4.8v-1h-3.6V117.8z M106.7,114.1c0.9,0,1.3,0.3,1.7,0.6l0.8-0.9c-0.3-0.2-1-0.8-2.4-0.8
	c-2.3,0-3.5,1.7-3.5,4.4c0,2.6,1,4.3,3.4,4.3c1.3,0,2.1-0.4,2.4-0.8l-0.7-0.9c-0.3,0.3-0.8,0.6-1.6,0.6c-1.5,0-2.3-1.2-2.3-3.3
	C104.5,115.1,105.3,114.1,106.7,114.1z M116.1,117.5c0,0.4,0,2,0,2.5H116c-0.1-0.4-0.9-1.7-1-2.1l-2.5-4.7h-1.6v8.4h1.2v-4.5
	c0-0.6,0-2.1-0.1-2.4h0.1c0.2,0.4,0.8,1.7,1,2.1l2.6,4.8h1.6v-8.4h-1.1V117.5z M122.7,113c-2,0-3.4,1.3-3.4,4.4
	c0,3.1,1.2,4.3,3.3,4.3c2,0,3.4-1.3,3.4-4.4C125.9,114.2,124.7,113,122.7,113z M122.6,120.6c-1.3,0-2.1-0.8-2.1-3.3
	c0-2.5,0.8-3.2,2.1-3.2c1.3,0,2.1,0.8,2.1,3.3C124.7,119.9,123.9,120.6,122.6,120.6z M129.2,113.2H128v8.4h4.7v-1h-3.5V113.2z
	 M137.1,113c-2,0-3.4,1.3-3.4,4.4c0,3.1,1.2,4.3,3.3,4.3c2,0,3.4-1.3,3.4-4.4C140.4,114.2,139.1,113,137.1,113z M137.1,120.6
	c-1.3,0-2.1-0.8-2.1-3.3c0-2.5,0.8-3.2,2.1-3.2c1.3,0,2.1,0.8,2.1,3.3C139.1,119.9,138.3,120.6,137.1,120.6z M147,120.4
	c-0.3,0.2-0.8,0.3-1.3,0.3c-1.6,0-2.4-1-2.4-3.4c0-2.5,1.2-3.2,2.4-3.2c0.8,0,1.3,0.3,1.7,0.6l0.8-0.9c-0.3-0.3-0.9-0.8-2.4-0.8
	c-2.1,0-3.7,1.3-3.7,4.4c0,2.9,1.2,4.3,3.4,4.3c1.4,0,2.2-0.3,2.7-0.8v-3.7H147V120.4z M150.6,121.6h1.2v-8.4h-1.2V121.6z
	 M156.1,113.2l-2.7,8.4h1.2l0.7-2.3h3.2l0.7,2.3h1.3l-2.7-8.4H156.1z M155.7,118.2l0.7-2.4c0.1-0.5,0.5-1.5,0.5-1.8h0
	c0.1,0.3,0.4,1.4,0.5,1.9l0.7,2.3H155.7z M167.6,113.2l-2.7,8.4h1.2l0.7-2.3h3.2l0.7,2.3h1.3l-2.7-8.4H167.6z M167.2,118.2l0.7-2.4
	c0.1-0.5,0.5-1.5,0.5-1.8h0c0.1,0.3,0.4,1.4,0.5,1.9l0.7,2.3H167.2z M177.7,118.7L177.7,118.7l-2.2-5.6h-1.9v8.4h1.1v-7h0.1l2.3,5.8
	h1.2c0.5-1.2,1.8-4.7,2.3-5.8h0.1v7h1.2v-8.4h-1.9L177.7,118.7z M188.3,117.2L188.3,117.2c0.7-0.2,1.2-0.9,1.2-1.9
	c0-1.6-1.1-2.2-2.5-2.2h-2.7v8.4h2.6c2.2,0,3-1.1,3-2.4C189.9,117.9,189.1,117.3,188.3,117.2z M185.4,114.2h1.3c1,0,1.5,0.4,1.5,1.3
	c0,0.9-0.5,1.3-1.5,1.3h-1.3V114.2z M187,120.5h-1.6v-2.7h1.5c0.9,0,1.7,0.3,1.7,1.4C188.6,120.1,188.1,120.5,187,120.5z
	 M192.1,121.6h1.2v-8.4h-1.2V121.6z M197.1,117.8h3v-1h-3v-2.6h3.4v-1h-4.6v8.4h4.8v-1h-3.6V117.8z M207.9,117.5c0,0.4,0,2,0,2.5
	h-0.1c-0.1-0.4-0.9-1.7-1-2.1l-2.5-4.7h-1.6v8.4h1.2v-4.5c0-0.6,0-2.1-0.1-2.4h0.1c0.2,0.4,0.8,1.7,1,2.1l2.6,4.8h1.6v-8.4h-1.1
	V117.5z M216.1,113.2h-5.6v1h2.2v7.4h1.2v-7.4h2.2V113.2z M218.8,113.2l-2.7,8.4h1.2l0.7-2.3h3.2l0.7,2.3h1.3l-2.7-8.4H218.8z
	 M218.4,118.2l0.7-2.4c0.1-0.5,0.5-1.5,0.5-1.8h0c0.1,0.3,0.4,1.4,0.5,1.9l0.7,2.3H218.4z M226,113.2h-1.2v8.4h4.7v-1H226V113.2z
	 M234.9,121.6h1.2v-8.4h-1.2V121.6z M244.2,113.2l-2.7,8.4h1.2l0.7-2.3h3.2l0.7,2.3h1.3l-2.7-8.4H244.2z M243.8,118.2l0.7-2.4
	c0.1-0.5,0.5-1.5,0.5-1.8h0c0.1,0.3,0.4,1.4,0.5,1.9l0.7,2.3H243.8z M251.4,113.2h-1.2v8.4h4.7v-1h-3.5V113.2z M256.6,121.6h1.2
	v-8.4h-1.2V121.6z M264.6,118.7L264.6,118.7l-2.2-5.6h-1.9v8.4h1.1v-7h0.1l2.3,5.8h1.2c0.5-1.2,1.8-4.7,2.3-5.8h0.1v7h1.2v-8.4h-1.9
	L264.6,118.7z M272.3,117.8h3v-1h-3v-2.6h3.4v-1h-4.6v8.4h4.8v-1h-3.6V117.8z M283.1,117.5c0,0.4,0,2,0,2.5H283
	c-0.1-0.4-0.9-1.7-1-2.1l-2.5-4.7h-1.6v8.4h1.2v-4.5c0-0.6,0-2.1-0.1-2.4h0.1c0.2,0.4,0.8,1.7,1,2.1l2.6,4.8h1.6v-8.4h-1.1V117.5z
	 M291.4,113.2h-5.6v1h2.2v7.4h1.2v-7.4h2.2V113.2z M294,113.2l-2.7,8.4h1.2l0.7-2.3h3.2l0.7,2.3h1.3l-2.7-8.4H294z M293.6,118.2
	l0.7-2.4c0.1-0.5,0.5-1.5,0.5-1.8h0c0.1,0.3,0.4,1.4,0.5,1.9l0.7,2.3H293.6z M303.3,117.9L303.3,117.9c1-0.2,1.9-0.9,1.9-2.4
	c0-1.7-1.1-2.4-2.8-2.4H300v8.4h1.2v-3.4h0.5c0.6,0,0.9,0.2,1.2,0.7l1.5,2.7h1.5l-1.5-2.5C303.9,118.4,303.6,118.1,303.3,117.9z
	 M302.2,117.2h-1v-3h0.9c1.1,0,1.8,0.4,1.8,1.5C303.9,116.7,303.3,117.2,302.2,117.2z M307.6,121.6h1.2v-8.4h-1.2V121.6z
	 M314.9,113.2h-1.8l-2.7,8.4h1.2l0.7-2.3h3.2l0.7,2.3h1.3L314.9,113.2z M312.8,118.2l0.7-2.4c0.1-0.5,0.5-1.5,0.5-1.8h0
	c0.1,0.3,0.4,1.4,0.5,1.9l0.7,2.3H312.8z"/>
</svg>
