<?xml version="1.0" encoding="utf-8"?>
<!-- Generator: Adobe Illustrator 24.1.2, SVG Export Plug-In . SVG Version: 6.00 Build 0)  -->
<svg version="1.1" id="Capa_1" xmlns="http://www.w3.org/2000/svg" xmlns:xlink="http://www.w3.org/1999/xlink" x="0px" y="0px"
	 viewBox="0 0 60.2 60.2" style="enable-background:new 0 0 60.2 60.2;" xml:space="preserve">
<style type="text/css">
	.st0{fill:#B8CC6A;}
</style>
<path class="st0" d="M53.5,15L42.9,4.5c-0.3-0.3-0.6-0.4-1-0.4H19.4c-2.7,0-4.9,2.2-4.9,4.9v12.2c-0.7,0-1.6-0.1-2.4-0.4
	c-0.6-0.2-1.2,0-1.6,0.5c-0.1,0.1-1.5,1.9-4.6,2.7c-0.5,0.1-0.9,0.5-1,1c-0.4,1.5-1.4,3.9-2.4,4.5c-0.6,0.4-0.8,1.1-0.6,1.8
	c0,0,1.1,2.9,0,5.1c-0.3,0.6-0.1,1.3,0.3,1.7c0,0,2.5,2.2,2.6,4.4c0.1,0.7,0.6,1.2,1.2,1.3c0.1,0,0.3,0,0.5,0.1v10.7
	c0,0.5,0.3,1,0.7,1.2c0.4,0.3,1,0.3,1.4,0.1l6-3l6,3c0,0,0,0,0,0c0,0,0.1,0,0.1,0c0,0,0,0,0,0c0,0,0.1,0,0.1,0c0,0,0,0,0,0
	c0,0,0.1,0,0.1,0c0,0,0,0,0,0c0.1,0,0.1,0,0.2,0c0,0,0,0,0,0H49c2.7,0,4.9-2.2,4.9-4.9V16C53.9,15.7,53.7,15.3,53.5,15z M51,16.6
	v0.7H41c-0.1,0-0.2-0.1-0.2-0.2V7h0.6L51,16.6z M5.8,37.7c-0.3-0.4-0.7-0.8-0.9-1.1c0.6-2.1,0.3-4.2,0-5.4c0.7-0.7,1.4-1.7,1.9-3.1
	c0.3-0.6,0.5-1.2,0.6-1.6c2.3-0.8,3.9-2,4.7-2.8c1.5,0.4,2.9,0.4,4,0.3c0,0,0,0,0.1,0c0.4,0,0.7-0.1,1-0.1c1.4,1.4,3.5,2.2,4.7,2.6
	c0.6,2.3,1.8,3.9,2.6,4.8c-0.4,2-0.2,3.9,0,5c-1.5,1.4-2.3,3.6-2.6,4.9c-1.7,0.3-3.1,1.3-3.9,1.9c-1-0.4-2-0.5-3-0.5
	c-1.3,0-2.5,0.3-3.3,0.5c-1.2-1.2-2.9-1.8-3.9-2C7.3,40,6.7,38.9,5.8,37.7z M14.1,50l-4.6,2.3v-7.1c0.1,0.1,0.2,0.2,0.3,0.4
	c0.4,0.6,1.2,0.9,1.9,0.6c0,0,3.3-1.5,5.7-0.1c0.2,0.1,0.5,0.2,0.7,0.2c0.4,0,0.7-0.1,1-0.4c0,0,0.3-0.3,0.9-0.7v7.1L15.4,50
	C15,49.8,14.5,49.8,14.1,50z M49,53.2H22.8V44c0,0,0.1,0,0.1,0c0.7,0,1.3-0.5,1.4-1.2c0.2-1,1-3.9,2.4-4.8c0.5-0.3,0.8-1,0.6-1.6
	c0,0-0.8-2.8,0-5.1c0.2-0.6,0-1.2-0.4-1.5c0,0-2-1.8-2.5-4.7c-0.1-0.6-0.5-1-1.1-1.2c-0.9-0.2-3.6-1.1-4.5-2.4
	c-0.3-0.5-0.9-0.7-1.5-0.6V9c0-1.1,0.9-2,2-2h18.5v10.1c0,1.7,1.4,3.1,3.1,3.1h10v31C51,52.3,50.1,53.2,49,53.2z"/>
</svg>
