<?xml version="1.0" encoding="utf-8"?>
<!-- Generator: Adobe Illustrator 24.1.2, SVG Export Plug-In . SVG Version: 6.00 Build 0)  -->
<svg version="1.1" id="Capa_18" xmlns="http://www.w3.org/2000/svg" xmlns:xlink="http://www.w3.org/1999/xlink" x="0px" y="0px"
	 viewBox="0 0 703.1 394.4" style="enable-background:new 0 0 703.1 394.4;" xml:space="preserve">
<style type="text/css">
	.st0{fill:#CBA841;}
	.st1{fill:#997631;}
	.st2{fill:#356E37;}
	.st3{fill:#70A849;}
	.st4{fill:#4B9C40;}
	.st5{fill:#48873E;}
	.st6{fill:#6FA84A;}
</style>
<path class="st0" d="M467,102.6c-4.7,0.8-3.6,3.3-9.5,1.1c-5.8-2.2-9.2-5-12-5c-2.8,0-3.1,1.7-6.4,0c-3.3-1.7-7.2-1.4-11.1-2.5
	c-3.9-1.1-7-1.1-6.7,0s3,2,3.6,5.8c0.4,2.5-2.9,0.8-5.1-0.3c-1.8-0.9-4.1-0.7-6.6-1.1c-2.5-0.4-6.9-0.1-3.6,4s3.1,2.2,6.7,5.2
	c3.6,3.1,3.9,0.8,8.1,4.5c4.2,3.6,6.7,4.7,1.4,5c-5.3,0.3-7,2.8-8.1,3.6s7.8,4.2,5.3,5c-2.5,0.8-4.2,2.5-8.3,1.1
	c-4.2-1.4-10.3-1.8-7.2,0.9c3.1,2.8,1.9,1,4.7,3.5c2.8,2.5,7,2.8,7.5,4.2c0.6,1.4-5.8,1.7-7.5,2.2s-4.3,4.3-0.7,4.9s7.7,1.8,8.8,1.8
	s6.4,1.4,4.7,2.8c-1.7,1.4-10.3,0.8-12.8,1.1c-2.5,0.3-2.5,3.1-1.4,3.6s4.5,0.3,4.5,2.8s-0.3,3.9-1.9,4.2c-1.7,0.3-5.8-1.1-7,1.1
	s-1.6,6.7-2,7.5c-0.5,0.8-0.7,3.6-6.3,3.9c-5.6,0.3-15.9,1.4-17.5,3.9c-1.7,2.5,3.1,3.9,4.2,5c1.1,1.1,3.6,2.5,0.8,4.5
	c-2.8,1.9-10,3.3-10,3.3s-4.2-3.3-12.8-2.8s-13.4-0.6-16.4,0.6s-4.7,4.2-3.1,5c1.7,0.8,4.2,1.9,2.5,3.6c-1.7,1.7,0.3,3.1-8.9,2.5
	s-19.2-2-25.9,0.1s-6.7,3.2-12.8,3.5c-6.1,0.3-10.8,1.9-11.7,4.2c-0.8,2.2,4.7,2.8,5.8,4.5c1.1,1.7,4.7,5-3.1,4.2
	c-7.8-0.8-16.7,0.3-20.9-1.9c-4.2-2.2-5-3.9-8.9-3.1c-3.9,0.8-10.8,1.1-15.6,1.1s-16.1-0.3-19.8,0.3c-3.6,0.6-12.8,3.1-15.9,5
	c-1.9,1.2-3.5,5-4.5,7.9c-0.7,1.9-2.6,3.2-4.6,3.1c-3.4-0.2-8.4-0.5-10.6-0.6c-3.6-0.3-10.3,1.1-12.2,0.8c-1.9-0.3-2.7,2.2-4.1,2.5
	c-1.4,0.3-3.8,1.4-5.3,0.7c-1.4-0.6-2-2.1-3.4-1.6c-1.4,0.6-3.1,3.2-3.1,3.2s-5.3,1-4.5,2.4c0.8,1.4,0.5,1.8,4.1,2.6
	c3.6,0.8,4.7-1.1,5.2,0.3c0.6,1.4,0.1,4.9-1,5.5s-2.7,1-3.2,2.4c-0.6,1.4,1.3,2.9-0.6,4c-1.9,1.1-3.6,1.9-6.4,2.8
	c-2.8,0.8-10.8,2.5-14.5,2.2c-3.6-0.3-9.7,0.3-10.6,1.4c-0.8,1.1-9.5,6.7-12.2,6.7s-8.6-3.1-10-3.1s-5.8,0.6-12.8-1.7
	c-7-2.2-5-4.7-11.7-8.3s-7.2-5-10.6-4.2s3.6,2.5-8.6,1.9s-10.3,0.6-12.2-0.6c-1.9-1.1-5-5-6.8-3.9c-1.8,1.1-5.2,2.5-5.7,4.5
	c-0.6,1.9-2.8,8.3-4.5,8.6c-1.7,0.3-8.1-0.6-8.9,0.8c-0.8,1.4,1.4,3.9,3.1,4.7c1.7,0.8,2.2,3.1,7.8,6.1s6.4,1.9,10.3,4.7
	s14.7,13.4,19.5,18.9s8.1,8.6,10,9.5c1.9,0.8,3.1,1.4,3.1,2.5s-3.1,0.6-2.5,5.8c0.6,5.3,1.4,8.1,1.4,9.5s1.1,8.3,2.2,9.7
	c1.1,1.4,5.6,3.3,6.4,3.6c0.8,0.3,6.7-2.5,8.6,0c1.9,2.5,1.1,4.2,2.5,6.1c1.4,1.9,1.1,1.7,4.7,3.1s9.7,5.3,9.7,5.3s7.8-0.8,9.7,1.4
	s-2.5,2.8,1.9,3.6s12.8-1.7,15.9,0s0.8,4.5,4.2,5.8s8.3,1.9,9.2,1.9c0.8,0,4.7,0.3,4.7-1.4c0-1.7,1.9-3.6,4.2-4.5
	c2.2-0.8,10-1.1,10-1.1s-3.3-4.5,0.6-4.7c3.9-0.3,5-1.9,6.4-0.3c1.4,1.7-1.7,4.5,3.3,4.7c5,0.3,10-0.3,11.1-2.2
	c1.1-1.9,1.9-4.2,3.1-4.2s12.8-1.4,15-2.2c2.2-0.8,4.5-0.8,4.5-1.7c0-0.8-1.1-2.8-1.9-3.1c-0.8-0.3-3.1-3.9-1.4-4.2
	c1.7-0.3,7.2,0.3,9.5,0.6c2.2,0.3,4.2-0.6,3.9-1.7c-0.3-1.1,1.9-1.9,2.5-2.8c0.6-0.8-1.1-1.9,1.4-1.9s9.5,1.4,14.5,1.7
	c5,0.3,9.5-1.7,9.7-2.5c0.3-0.8,1.9-2.5,5.3-3.3s1.9-1.1,5.3-2.5c3.3-1.4,4.5-1.7,5.6-1.1s5,0.6,5.3,2.2c0.3,1.7,1.9,3.9,5.3,4.2
	c3.3,0.3,8.3,0.3,9.2-0.3c0.8-0.6-0.6-3.3,0-4.2c0.6-0.8,1.4-2.5,7.2-2.2s1.7,3.1,6.1,3.6c4.5,0.6,15,0.8,15.9,0
	c0.8-0.8-5.6-4.5-6.4-4.5c-0.8,0-5.3-2.5-6.7-3.1c-1.4-0.6-4.2-4.5-2.5-4.7c1.7-0.3,7-1.1,9.2,0.3s3.3,4.2,5.6,4.2s5.3-0.6,7.8-0.6
	c2.5,0,3.3-1.4,7.8-1.9c4.5-0.6,18.6-1.4,20.3-2.2c1.7-0.8,3.6-3.9,5.3-4.2c1.7-0.3,2.5-3.3,1.1-3.6c-1.4-0.3-2.8-2.2-2.8-2.2
	s-1.9-5.3,0-6.4c1.9-1.1-1.1-0.6,6.7-0.6c7.8,0,10.6-1.4,10.6-2.5s-1.7-1.1,0.8-4.5s3.6-5,5.3-4.5c1.7,0.6,1.1,3.3,4.7,5.6
	s8.6,3.3,11.7,1.9c3.1-1.4,4.7-4.2,5.6-3.6c0.8,0.6,0.3,3.3,3.9,3.3s10.3,0.8,10.8,0c0.6-0.8,0.6-5.3,2.2-5.3c1.7,0,6.1,3.6,6.1,3.6
	s6.1,0.3,7.2-0.6c1.1-0.8,0.3-0.8,4.2-3.9c3.9-3.1,1.9-5,3.1-5.6c1.1-0.6,5-1.9,6.1-1.1c1.1,0.8-1.7,2.5,5.6,4.7
	c7.2,2.2,8.3,3.9,9.5,3.3c1.1-0.6-5-3.6,8.1-3.1c13.1,0.6,8.9,1.9,13.1,0.6c4.2-1.4,0-4.7,0-4.7s-3.9-2.5,0.6-2.2s7.2-3.9,10.6-2.2
	c3.3,1.7,1.4,4.2,6.4,5.3c5,1.1,7.8,3.3,9.2,3.6c1.4,0.3,4.5,1.4,4.5,0.3s-1.9-4.7,0-6.4c1.9-1.7,2.8-2.5,4.2-0.8
	c1.4,1.7,2.8,4.2,5.6,5c2.8,0.8,5.6,1.9,8.3,1.1s0.8-5.3,3.9-6.1c3.1-0.8,10.8-0.8,12.2-1.7c1.4-0.8,0.3-3.3,1.4-5
	c1.1-1.7,2.8-6.4,3.9-7.5c1.1-1.1,5.3-1.7,6.1,0.6c0.8,2.2,1.7,2.8,6.4,3.3c4.7,0.6,2.2,1.9,7.5,2.5c5.3,0.6,10.8-1.4,11.4-2.5
	s0.3-3.3,5.3-4.2c5-0.8,9.7-1.7,9.7-1.7s-2.8-4.2,3.9-4.5c6.7-0.3,8.9,0.8,8.6-0.3c-0.3-1.1-4.1-6.4,0-5.6c4.1,0.8,5.8,3.3,6.9,3.6
	c1.1,0.3,7,1.1,9.2,0.8c2.2-0.3,1.9-3.3,3.1-4.5c1.1-1.1,2.8-1.7,4.2,0.3c1.4,1.9-0.8,0.3,1.4,1.9s5.6,2.2,6.7,2.2
	c1.1,0,2.5-3.9,6.1-4.5c3.6-0.6,6.7-1.9,8.3-5.3c1.7-3.3,3.9-7.2,7.8-8.6c3.9-1.4,9.7-6.7,11.1-7c1.4-0.3,5.6,0.9,3.3-1.7
	c-2.2-2.5-0.6-3.1-3.6-5c-3.1-1.9-5.3-1.4-7.5-5s-1.9-6.4-4.5-7.2c-2.5-0.8-4.5,1.1-7.2-1.4c-2.8-2.5-4.7-3.1-2.5-3.6
	s4.7-1.1,4.5-2.2s-1.1-1.7-1.9-2.2s-3.3-1.4-4.2-5c-0.8-3.6,0-4.2,0-6.1c0-1.9,4.5-4.5,4.7-5.6s2.8-3.3,0.8-5s-4.7-3.9-4.5-5.8
	s9.7-7.2,9.7-8.9s-1.9-4.5-4.2-5.8c-2.2-1.4-8.9-2.8-12-4.7c-3.1-1.9-10.3-2.8-11.7-4.2c-1.4-1.4-0.8-6.1-4.2-7
	c-3.3-0.8-8.3-3.6-9.2-4.2c-0.8-0.6-4.5-1.9-9.5-3.6c-5-1.7-8.3-1.7-8.9-2.8c-0.6-1.1,0.3-3.6-0.6-4.5c-0.8-0.8-3.9-2.8-1.9-3.9
	c1.9-1.1,5.3-2.2,5-3.1s-3.9-3.1-6.7-5.3c-2.8-2.2-3.9-3.9-6.4-5.6c-2.5-1.7-18.6-5.6-20.3-5.6c-1.7,0-8.6,0.3-13.1-1.1
	c-4.5-1.4-10-1.4-13.4-2.8c-3.3-1.4-7.8-2.8-8.6-1.7c-0.8,1.1,2.5,4.2,0,4.5s-5.6,0-6.4-1.7s-1.1-3.9-0.6-4.7s2.8-1.9,1.9-2.8
	c-0.8-0.8-0.8-0.3-5.8,0c-5,0.3-4.7,1.4-9.5,1.7s-6.4-0.8-8.9,0.6c-2.5,1.4-1.9,4.2-5.8,3.9c-3.9-0.3-4.5,0-5.8-1.1
	c-1.4-1.1-6.4-3.3-6.4-3.3s-5,1.1-9.2,2.8c-4.2,1.7-6.4,1.1-8.1,1.1C472.5,99.5,467,102.6,467,102.6z"/>
<g>
	<rect x="160.2" y="241.3" class="st1" width="10.1" height="33.3"/>
	<rect x="202.8" y="241.3" class="st1" width="6.2" height="33.3"/>
	<rect x="254.6" y="241.3" class="st1" width="6.2" height="33.3"/>
	<rect x="304.4" y="241.3" class="st1" width="11.2" height="33.3"/>
	<rect x="354.6" y="241.3" class="st1" width="11.2" height="33.3"/>
	<rect x="454.5" y="241.3" class="st1" width="7.3" height="33.3"/>
	<rect x="553.7" y="241.3" class="st1" width="9.6" height="33.3"/>
	<rect x="509.2" y="161.2" class="st1" width="7.3" height="113.5"/>
	
		<rect x="497.5" y="196.7" transform="matrix(0.4573 -0.8893 0.8893 0.4573 82.5149 559.0689)" class="st1" width="3.7" height="30.4"/>
	
		<rect x="525.4" y="196.7" transform="matrix(-0.4573 -0.8893 0.8893 -0.4573 579.8615 777.7007)" class="st1" width="3.7" height="30.4"/>
	
		<rect x="497.5" y="167.3" transform="matrix(0.4573 -0.8893 0.8893 0.4573 108.6443 543.1238)" class="st1" width="3.7" height="30.4"/>
	
		<rect x="525.4" y="167.3" transform="matrix(-0.4573 -0.8893 0.8893 -0.4573 605.991 734.8818)" class="st1" width="3.7" height="30.4"/>
	<polygon class="st2" points="582.1,231 587.5,225 579.3,224.3 579.1,223.8 587.5,213.7 574.4,212.6 574.3,212.4 587.5,196.5 
		566.9,194.8 558.6,174.8 550.2,194.8 529.6,196.5 542.8,212.4 542.7,212.6 529.6,213.7 538,223.8 537.8,224.3 529.6,225 535,231 
		526.6,251 558.6,258.7 590.5,251 	"/>
	<polygon class="st3" points="558.6,258.7 558.6,174.8 550.2,194.8 529.6,196.5 542.8,212.4 542.7,212.6 529.6,213.7 538,223.8 
		537.8,224.3 529.6,225 535,231 526.6,251 	"/>
	<ellipse class="st2" cx="205.9" cy="176.2" rx="20.9" ry="83.3"/>
	<path class="st3" d="M205.9,92.9c-11.6,0-20.9,37.3-20.9,83.3s9.4,83.3,20.9,83.3V92.9z"/>
	<ellipse class="st2" cx="310.1" cy="188.3" rx="26.7" ry="66.5"/>
	<path class="st2" d="M392.5,244.2l-24.6,15.6c-4.7,3-10.6,3-15.3,0l-24.6-15.6c-4.7-3-6.4-8.9-4.1-13.9l30.4-65.2
		c2.4-5.1,9.6-5.1,12,0l30.4,65.2C398.9,235.3,397.1,241.2,392.5,244.2z"/>
	<path class="st2" d="M494.6,218.9l7.3-3.9c1.8-1.1,2.4-3.4,1.5-5.3l-37.6-35c-4.4-4.1-11.2-4.1-15.6,0l-37.6,35
		c-0.9,1.9-0.2,4.2,1.5,5.3l7.3,3.9l-8.9,11c-0.9,1.9-0.2,4.2,1.5,5.3l39.6,20.8c2.6,1.7,5.9,1.7,8.5,0l39.6-20.8
		c1.8-1.1,2.4-3.4,1.5-5.3L494.6,218.9z"/>
	<path class="st2" d="M533.5,143.9c0-11.4-9.2-20.6-20.6-20.6c-11.4,0-20.6,9.2-20.6,20.6c0,11.4,9.2,20.6,20.6,20.6
		C524.2,164.5,533.5,155.2,533.5,143.9z M491.7,195.6c-6.9,0-12.5,5.6-12.5,12.5s5.6,12.5,12.5,12.5s12.5-5.6,12.5-12.5
		S498.6,195.6,491.7,195.6z M534,195.6c-6.9,0-12.5,5.6-12.5,12.5s5.6,12.5,12.5,12.5s12.5-5.6,12.5-12.5S540.9,195.6,534,195.6z
		 M537.7,159.9c-8.9,0-16.2,7.3-16.2,16.2c0,8.9,7.3,16.2,16.2,16.2s16.2-7.3,16.2-16.2C553.9,167.1,546.6,159.9,537.7,159.9z
		 M488,159.9c-8.9,0-16.2,7.3-16.2,16.2c0,8.9,7.3,16.2,16.2,16.2c8.9,0,16.2-7.3,16.2-16.2C504.2,167.1,497,159.9,488,159.9z"/>
	<path class="st3" d="M310.1,121.8c-14.7,0-26.7,29.8-26.7,66.5s11.9,66.5,26.7,66.5V121.8z"/>
	<circle class="st2" cx="150.9" cy="210.2" r="22.3"/>
	<circle class="st4" cx="147.2" cy="229.6" r="16.2"/>
	<circle class="st5" cx="165.6" cy="219.8" r="29.9"/>
	<path class="st6" d="M165.6,189.9c-16.5,0-29.9,13.4-29.9,29.9s13.4,29.9,29.9,29.9V189.9z"/>
	<circle class="st2" cx="159.5" cy="191.8" r="22.3"/>
	<path class="st4" d="M165.6,170.4c-1.9-0.5-4-0.8-6.1-0.8c-12.3,0-22.3,10-22.3,22.3s10,22.3,22.3,22.3c2.1,0,4.1-0.3,6.1-0.8
		V170.4z"/>
	<circle class="st2" cx="176.3" cy="204.2" r="22.3"/>
	<path class="st3" d="M360.2,161.2c-2.4,0-4.8,1.3-6,3.8l-30.4,65.2c-2.3,5-0.6,11,4.1,13.9l24.6,15.6c2.3,1.5,5,2.2,7.7,2.2V161.2z
		"/>
	<path class="st3" d="M458.1,171.7c-2.8,0-5.6,1-7.8,3.1l-37.6,35c-0.9,1.9-0.2,4.2,1.5,5.3l7.3,3.9l-8.9,11
		c-0.9,1.9-0.2,4.2,1.5,5.3l39.6,20.8c1.3,0.8,2.8,1.2,4.3,1.2V171.7z"/>
	<path class="st3" d="M488,159.9c-8.9,0-16.2,7.3-16.2,16.2c0,8.9,7.3,16.2,16.2,16.2c8.9,0,16.2-7.3,16.2-16.2
		C504.2,167.1,497,159.9,488,159.9z M492.2,143.9c0,11.4,9.2,20.6,20.6,20.6v-41.2C501.5,123.2,492.2,132.5,492.2,143.9z
		 M491.7,195.6c-6.9,0-12.5,5.6-12.5,12.5s5.6,12.5,12.5,12.5s12.5-5.6,12.5-12.5S498.6,195.6,491.7,195.6z"/>
	<path class="st2" d="M274.8,145.8c-1.9-7.7-8.8-13.4-17.1-13.4c-8.3,0-15.2,5.7-17.1,13.4c-0.3,1.4-27.5,70.3-28,71.7
		c-0.8,2.3-1.2,4.8-1.2,7.4c0,9.7,6.1,17.9,14.6,21.1c2.5,0.9,8.4,5.3,31.8,5.3s30.7-4.7,33.6-6.1c7.5-3.7,12.7-11.4,12.7-20.3
		c0-2.7-0.5-5.2-1.3-7.6C302.4,216.2,275.1,147.1,274.8,145.8z"/>
	<path class="st3" d="M257.7,132.4L257.7,132.4c-8.3,0-15.2,5.7-17.1,13.4c-0.3,1.4-27.5,70.3-28,71.7c-0.8,2.3-1.2,4.8-1.2,7.4
		c0,9.7,6.1,17.9,14.6,21.1c2.5,0.9,8.4,5.3,31.8,5.3V132.4z"/>
	<path class="st5" d="M366,225.3l42.3-66.9c1.3-2.1,4.3-2.1,5.6,0l42.3,66.9c1.4,2.2-0.2,5.1-2.8,5.1h-84.5
		C366.2,230.3,364.6,227.5,366,225.3z"/>
	<path class="st3" d="M411.1,156.8c-1.1,0-2.2,0.5-2.8,1.5L366,225.3c-1.4,2.2,0.2,5.1,2.8,5.1h42.3V156.8z"/>
	<path class="st5" d="M165.6,184.6c-6.9,3.8-11.6,11.1-11.6,19.6c0,8.4,4.7,15.8,11.6,19.6V184.6z"/>
	<polygon class="st1" points="435.7,220.1 412.8,220.1 412.8,210.8 431.2,210.8 431.2,207.4 412.8,207.4 412.8,199.1 426.3,199.1 
		426.3,195.7 412.8,195.7 412.8,189.2 422.9,189.2 422.9,185.7 412.8,185.7 412.8,180.7 418.9,180.7 418.9,177.2 412.8,177.2 
		412.8,170.3 409.4,170.3 409.4,177.2 403.3,177.2 403.3,180.7 409.4,180.7 409.4,185.7 399.3,185.7 399.3,189.2 409.4,189.2 
		409.4,195.7 395.9,195.7 395.9,199.1 409.4,199.1 409.4,207.4 391,207.4 391,210.8 409.4,210.8 409.4,220.1 386.5,220.1 
		386.5,223.5 409.4,223.5 409.4,274.7 412.8,274.7 412.8,223.5 435.7,223.5 	"/>
</g>
</svg>
