<?xml version="1.0" encoding="utf-8"?>
<!-- Generator: Adobe Illustrator 24.1.2, SVG Export Plug-In . SVG Version: 6.00 Build 0)  -->
<svg version="1.1" id="Capa_18" xmlns="http://www.w3.org/2000/svg" xmlns:xlink="http://www.w3.org/1999/xlink" x="0px" y="0px"
	 viewBox="0 0 640.8 394.4" style="enable-background:new 0 0 640.8 394.4;" xml:space="preserve">
<style type="text/css">
	.st0{fill:#CBA841;}
	.st1{fill:#54381A;}
	.st2{fill:#8A9D34;}
	.st3{fill:#43712C;}
	.st4{fill:#41682C;}
	.st5{fill:#678E2E;}
	.st6{fill:#81A636;}
	.st7{fill:#48873E;}
	.st8{fill:#6FA84A;}
	.st9{fill:#588E3D;}
	.st10{fill:#ADBD40;}
	.st11{fill:#B4BF41;}
</style>
<path class="st0" d="M343.8,192.8c-8.3-1.2-15.6-2.3-19.8,0s0.5,2.3-11,2.3c-11.5,0-10.1-0.5-13.8-1.8c-3.7-1.4-4.6-2.3-11.5-1.8
	c-6.9,0.5-6.9,3.2-12.4,3.7c-5.5,0.5-9.2,0.9-12,0c-2.8-0.9-8.3,1.1-9.7,0.5c-1.4-0.5-5.1,3.6-7.8,6.8c-2.8,3.2-4.1,6-5.1,7.8
	c-0.9,1.8,0.5,4.1-4.1,4.1s-17.5,0.9-27.1,0c-9.7-0.9-34.5-5.5-40-6.4c-5.5-0.9-12-6.2-13.8-4.9c-1.8,1.2-10.6-1.7-12.4,0
	c-1.8,1.7-6,4.5-8.3,6.8c-2.3,2.3-2.3,7.8-7.4,8.7s-8.7-2.3-10.6,2.3c-1.8,4.6-7.4,11-8.7,13.3c-1.4,2.3,6,4.1,10.1,3.7
	s27.6,0.9,34.5,2.8c6.9,1.8,10.1,3.7,17.5,4.6s16.6,0.9,17.5,3.7c0.9,2.8,3.2,2.8-4.1,4.6c-7.4,1.8-6.4,3.7-9.7,5.1s2.8,2.8,4.6,3.2
	s3.7-1.1,2.8,2c-0.9,3.1,7.8,1.7-4.1,4.4s-14.7,5.5-21.6,7.4c-6.9,1.8-12.9,3.7-15.2,4.6c-2.3,0.9-9.2,0.9-15.6,4.6
	c-6.4,3.7-23,9.2-23,9.2s-13.8,2.8-16.6,5.1c-2.8,2.3,12.4,3.2,19.8,3.7c7.4,0.5,15.2-2.8,17.9,0c2.8,2.8,7.4,3.7,9.2,6.9
	s2.3,6.9-0.5,9.2c-2.8,2.3-6,3.7-5.1,7.4c0.9,3.7-1.4,9.7,0.5,11s8.7,3.2,9.2,5.5c0.5,2.3-1.4,6,0.9,7.4s15.2,0.5,16.6,1.8
	s5.1,6,5.1,8.3c0,2.3-1.8,8.7-0.9,11c0.9,2.3,7.4,5.1,10.1,1.8s7.4-9.7,11.5-9.7c4.1,0,15.2,0,15.2,0s4.1,3.7,7.4,7.8
	c3.2,4.1,2.3,6.4,7.4,11.5c5.1,5.1,10.6,6.9,10.6,6.9s6.9-2.8,10.6,0s6.4,4.1,12.4,3.7c6-0.5,6.9,4.1,17-2.3
	c10.1-6.4,1.8-7.4,17.9-10.1c16.1-2.8,27.6-8.7,27.6-8.7s6.9-3.2,19.3,0c12.4,3.2,29.4,6.9,35.9,8.7c6.4,1.8,6,4.1,12.4,2.3
	c6.4-1.8,7.8-0.9,12.4-5.1c4.6-4.1,2.3-4.1,8.7-4.1s4.1,1.4,6,2.8s-1.4,1.8,9.2,0.9c10.6-0.9,10.6-3.7,12.9-5.1
	c2.3-1.4,0-11,13.3-11c13.3,0,18.5,1.5,12.1-4c-6.4-5.5-12.9-6-16.1-9.2s-10.2-8.9-5.6-8.9s18.9-0.5,19.8-2.8
	c0.9-2.3-1.8-4.1-3.2-4.1s-13.3-2.8-13.3-2.8s-6-2.3-3.7-4.6c2.3-2.3,6-8.3,6-11.5c0-3.2-4.1-4.1,5.1-4.1s22.1-1.4,24.8-2.3
	c2.8-0.9,5.5,0.9,13.3-4.1c7.8-5.1,12-11.5,15.2-15.2c3.2-3.7,12-12.9,13.8-18.9s-6-9.2,3.2-10.6s16.6-2.8,18.4-3.7
	c1.8-0.9,11.5,0.5,12.4-0.9c0.9-1.4,0.9-12.4,4.6-12.4c3.7,0,21.6,2.8,24.4,0.9c2.8-1.8-1.8-2.8-4.1-10.6s-6.4-8.7-6.9-12
	c-0.5-3.2,2.8-6.4,5.1-7.8c2.3-1.4,6.9-4.6,2.8-6c-4.1-1.4-11.5-3.7-12.9-3.2c-1.4,0.5-13.8,1.4-27.6,2.3c-13.8,0.9-24.8,2.3-28.5,0
	c-3.7-2.3-0.5-4.1-14.3-3.7c-13.8,0.5-9.2,1.8-21.2,4.1s-18.4,6-20.2,4.6c-1.8-1.4-1.8-3.7-5.1-4.6s-35.4-0.5-42.8-0.9
	c-7.4-0.5-29,0-32.6-1.8C354.8,201,350,193.7,343.8,192.8z"/>
<g>
	<path class="st1" d="M299.3,152.4c0,0,9,19.6,9.6,23.9c0.6,4.3,1.4,19.8,0,21.3s-29.4-20.2-35.2-25.1c0,0,0.4,8,1.4,8.4
		s22.5,16.1,27.4,21.7s5.7,8.2,5.5,20c-0.2,11.9,0.4,18.8-4.5,15.7s-19-14.7-19-14.7l-11.9,5.3c0,0,14.7,1.6,21.7,7.4
		c6.9,5.7,11.6,9.4,11.6,17c0,7.6-0.4,38.6-1.8,46.2h35.8c0,0-6.3-26.2-7.6-43.5c-1.2-17.4,0.6-30.5,6.5-36.8s15.1-13.5,18.4-15.1
		c3.3-1.6,14.5-1.4,14.5-1.4l-2.7-2.7c0,0-9.4-0.5-13.1,0c0,0,6.9-5,8.2-5.7c1.2-0.6-4.3-6.9-4.3-6.9s-15.3,15.1-20,19.6
		c-4.7,4.5-5.9,0-5.9,0l1.7-33.3c0,0,6.2-6.9,8.5-8.5c2.2-1.6-4.7-2-4.7-2s-5.2,2.1-11,10.2c-3.5,4.9-5.8,6.2-5.3-3
		c0.5-9.2,3.9-21.2,3.9-21.2l-9.9-1.4c0,0,2.9,24.3-1,25.7s-11.1-26.6-11.1-26.6L299.3,152.4z"/>
	<path class="st2" d="M293.3,213.7c0-3.7-3-6.6-6.6-6.6c-1.6,0-3.1,0.6-4.3,1.6c-0.7-1.1-1.7-2-2.9-2.6c0.3-0.8,0.5-1.7,0.5-2.7
		c0-3.9-3.2-7.1-7.1-7.1c-1.2,0-2.4,0.3-3.4,0.9c0.5-1.2,0.7-2.4,0.7-3.8c0-5.5-4.5-10-10-10c-1.2,0-2.3,0.2-3.3,0.6
		c-2.3-1-4.9-1.6-7.6-1.6c-7.5,0-14,4.4-17,10.7c-0.4-0.1-0.8-0.1-1.2-0.1c-4.4,0-7.9,3.5-7.9,7.9c0,1.1,0.2,2.1,0.6,3
		c-0.2,0-0.4,0-0.6,0c-3.7,0-6.7,3-6.7,6.7c0,3.5,2.7,6.4,6.1,6.7c-0.5,1-0.8,2-0.8,3.2c0,1.8,0.7,3.5,1.8,4.7
		c-0.1,0.4-0.1,0.9-0.1,1.3c0,3.3,2.7,6,6,6c0.9,0,1.7-0.2,2.4-0.5c1.1,2,3.2,3.4,5.7,3.4c1.2,0,2.4-0.4,3.4-1
		c1.7,2.3,4.5,3.8,7.5,3.8c3.9,0,7.3-2.4,8.7-5.8c1.9,3.2,5.4,5.3,9.4,5.3c4.6,0,8.6-2.9,10.2-6.9c0.8,0.2,1.6,0.3,2.4,0.3
		c4.9,0,8.8-3.9,8.8-8.8c0-0.7-0.1-1.4-0.2-2C290.9,219.7,293.3,216.9,293.3,213.7z"/>
	<path class="st3" d="M287.8,156.8c0.9-1.4,1.4-3,1.4-4.7c0-5-4-9-9-9c-5,0-39.4-19.6-39.4-26.1c0-6.5-5.3-11.9-11.9-11.9
		c-5.1,0-9.5,3.3-11.2,7.9c-2.2-4.1-6.6-7-11.6-7c-7.3,0-13.2,5.9-13.2,13.2c0,1.1,0.1,2.2,0.4,3.2c-0.8-0.3-1.8-0.4-2.7-0.4
		c-4.6,0-8.4,3.4-9,7.9c-0.7-0.1-1.5-0.2-2.2-0.2c-6.2,0-11.2,5-11.2,11.2c0,2.9,1.1,5.5,2.9,7.5c-1.7,1.5-2.7,3.7-2.7,6.1
		c0,2.9,1.5,5.5,3.8,7c-0.7,1.1-1,2.3-1,3.6c0,2.2,1.1,4.2,2.7,5.5c-1,1.4-1.6,3-1.6,4.9c0,4.4,3.6,8,8,8c1.5,0,3-0.4,4.2-1.2
		c1.6,2.7,4.6,4.5,8,4.5c0.9,0,1.7-0.1,2.5-0.4c-0.1,0.6-0.2,1.3-0.2,1.9c0,6,4.9,10.9,10.9,10.9c3.2,0,6.1-1.4,8.1-3.6
		c2.7,2.6,6.4,4.3,10.5,4.3c6.8,0,12.6-4.5,14.4-10.7c1,0.3,2,0.5,3.1,0.5c1.7,0,3.3-0.4,4.7-1.1c2,3.3,5.6,5.5,9.7,5.5
		c4.5,0,8.4-2.6,10.3-6.4c0.7,0.1,1.4,0.2,2.1,0.2c6.3,0,11.5-5.1,11.5-11.5c0-0.4,0-0.8-0.1-1.1c0.5,0.1,0.9,0.1,1.4,0.1
		c5.7,0,10.3-4.6,10.3-10.3C291.6,161.6,290.1,158.7,287.8,156.8z"/>
	<path class="st4" d="M444.8,165.2c1.5-1.3,2.5-3.3,2.5-5.5c0-3.1-1.9-5.8-4.7-6.8c1-1.6,1.6-3.5,1.6-5.6c0-5.8-4.7-10.4-10.4-10.4
		c-2.3,0-4.5,0.8-6.2,2.1c-1.5-2.9-4.4-4.9-7.7-5.1c0.1-0.5,0.1-0.9,0.1-1.4c0-6.7-5.4-12.1-12.1-12.1c-6.7,0-12.1,5.4-12.1,12.1
		c0,6.7-40.2,16.7-47.2,16.7c-7,0-12.7,5.7-12.7,12.7c0,5.8,3.8,10.6,9.1,12.2c0,0.2,0,0.4,0,0.6c0,5,4.1,9.1,9.1,9.1
		c0.4,0,0.8,0,1.2-0.1c0.4,8.1,5.8,14.8,13.2,17.1c0.5,4.3,4.1,7.7,8.6,7.7c3.5,0,6.5-2.1,7.8-5c1,0.3,2,0.4,3.1,0.4
		c1.2,0,2.4-0.2,3.5-0.5c1.9,1.6,4.4,2.5,7,2.5c2.6,0,5-0.9,6.9-2.4c1.6,3.7,5.3,6.2,9.6,6.2c5.8,0,10.5-4.7,10.5-10.5
		c0-0.2,0-0.4,0-0.7c2.6-1.1,4.4-3.6,4.7-6.5c0.2,0,0.4,0,0.5,0c3.8,0,6.9-2.8,7.5-6.4c0.8,0.2,1.7,0.3,2.5,0.3
		c6,0,10.8-4.8,10.8-10.8C451.4,170.7,448.7,166.8,444.8,165.2z"/>
	<path class="st5" d="M360.4,153.2c0,0-16.6,17.5-30.3,0c0,0-8.3,6.5-14.7,3.3c0,0-14.7,7.3-17.9-6c0,0-9.2,6.9-13.8,0
		c0,0-5.5,7.3-16.6,5.3c-11-2-9.7-12.2-9.2-14c0,0-18.4-2.8-14.7-20.2c0,0-8.7,0-11-8.3s6.4-12.9,6.4-12.9s-12.4-10.6,2.8-18.9
		c0,0-13.8-5.3-9.6-16.1c4.7-11.8,17.4-5.1,17.4-5.1s-3.2-11.5,8.7-13.8c0,0-10.1-4.1-6.9-15.6s18.9-5.5,21.2,0
		c0,0,0.5-12,14.7-10.6c0,0-2.3-10.1,7.8-15.2c10.1-5.1,18.9,5.1,18.9,5.1s9.2-6.4,14.3,0.5c0,0,9.2-5.1,13.8,3.7c0,0,6-4.6,11,0.9
		c0,0,10.1-1.4,12.4,5.1c0,0,11-11,24.8-0.5s4.6,21.6,4.6,21.6s18.4-3.2,15.2,22.5c0,0,16.6-3.7,21.6,12.4
		c5.1,16.1-5.5,21.2-5.5,21.2s7.8,8.3,0.9,21.2c-6.9,12.9-21.6,7.8-21.6,7.8s0.9,9.2-8.7,12.9C396.3,139.4,389.4,166.5,360.4,153.2z
		"/>
	<path class="st6" d="M415.6,93.4c1.4-1,2.3-2.6,2.3-4.5c0-3.1-2.5-5.6-5.6-5.6c-2.2,0-4.1,1.3-5,3.2c-1.3-2.6-3.9-4.5-7-4.9
		c1.6-1.3,2.6-3.3,2.6-5.6c0-4-3.3-7.3-7.3-7.3c-1,0-2,0.2-2.8,0.6c0.5-0.9,0.7-1.9,0.7-2.9c0-0.6-0.1-1.2-0.3-1.8
		c1.6-1.1,2.7-2.9,2.7-5c0-3.3-2.7-6-6-6c-1.8,0-3.4,0.8-4.5,2c-1.2-1.3-2.9-2.1-4.8-2.1c-1,0-2,0.3-2.9,0.7
		c-0.8-1.5-2.4-2.6-4.1-2.8l0-0.1c0.2,0,0.5,0,0.7,0c3.4,0,6.2-2.5,6.7-5.8c0.3,0,0.6,0.1,0.9,0.1c3.6,0,6.5-2.9,6.5-6.5
		c0-2.1-1-4-2.5-5.2c0.4-1.3,0.6-2.8,0.6-4.2c0-6.8-4.5-12.5-10.7-14.3c-6.5,0.7-10.8,4.9-10.8,4.9c-2.3-6.4-12.4-5.1-12.4-5.1
		c-5.1-5.5-11-0.9-11-0.9c-4.6-8.7-13.8-3.7-13.8-3.7c-5.1-6.9-14.3-0.5-14.3-0.5S304.8,0,294.7,5.1c-10.1,5.1-7.8,15.2-7.8,15.2
		c-14.3-1.4-14.7,10.6-14.7,10.6c-2.3-5.5-17.9-11.5-21.2,0s6.9,15.6,6.9,15.6c-12,2.3-8.7,13.8-8.7,13.8s-12.7-6.7-17.4,5.1
		c-4.3,10.8,9.6,16.1,9.6,16.1c-15.2,8.3-2.8,18.9-2.8,18.9s-6.2,3.3-6.8,9.3l2.8,0.6c-0.1,0.5-0.2,1-0.2,1.6c0,3.9,3.2,7.1,7.1,7.1
		c2.9,0,5.4-1.7,6.5-4.2c0.8,1.3,2,2.3,3.3,3c-0.8,1.3-1.2,2.8-1.2,4.5c0,4.8,3.9,8.7,8.7,8.7c0.1,0,0.2,0,0.3,0
		c0.4,4.4,4,7.8,8.4,7.8c1,0,2-0.2,3-0.5c0.9,4.4,4.8,7.7,9.5,7.7c5.4,0,9.7-4.3,9.7-9.7c0-0.6-0.1-1.2-0.2-1.7
		c1.4,1.1,3.1,1.7,5,1.7c0.5,0,1-0.1,1.5-0.1c0,0.2,0,0.3,0,0.5c0,4.6,3.7,8.3,8.3,8.3c0.4,0,0.7,0,1.1-0.1c1,1.6,2.7,2.8,4.8,2.8
		c2.5,0,4.7-1.7,5.3-4c0.5,0.1,1.1,0.2,1.7,0.2c0.7,0,1.4-0.1,2-0.3c0,0.1,0,0.2,0,0.3c0,3.2,2.6,5.8,5.8,5.8c3.1,0,5.7-2.4,5.8-5.5
		c1.6,2.3,4.2,3.8,7.2,3.8c1.1,0,2.1-0.2,3-0.6c0,0.2,0,0.3,0,0.5c0,4,3.2,7.3,7.3,7.3c4,0,7.3-3.2,7.3-7.3c0-0.4,0-0.8-0.1-1.1
		c0,0,0.1,0,0.1,0c1.9,0,3.7-0.8,5-2c1.5,2.2,4,3.6,6.8,3.6c4.6,0,8.4-3.8,8.4-8.4c0-0.7-0.1-1.4-0.3-2c0.9,0.4,1.9,0.6,2.9,0.6
		c4.2,0,7.6-3.4,7.6-7.6c0-0.8-0.1-1.5-0.3-2.2c1.2,0.4,2.5,0.6,3.9,0.6c7.1,0,13-5.4,13.7-12.4c0.7,0.2,1.5,0.4,2.2,0.4
		c3.8,0,6.9-3.1,6.9-6.9c0-0.5-0.1-1-0.1-1.4c0.8,0.3,1.7,0.5,2.7,0.5c4.3,0,7.9-3.5,7.9-7.9C422.7,97.2,419.6,93.8,415.6,93.4z
		 M286.4,127.9c0,0.3,0,0.6,0.1,0.9c-1.7-1.5-4-2.5-6.5-2.5c-1.6,0-3.1,0.4-4.4,1.1c-1-3-3.6-5.2-6.7-5.7c0.9-1.1,1.4-2.4,1.4-3.9
		c0,0,0,0,0-0.1c0.3,0,0.5,0.1,0.8,0.1c1.8,0,3.4-0.8,4.4-2.1c0.9,0.3,1.8,0.4,2.8,0.4c1.7,0,3.3-0.5,4.6-1.3
		c1.2,1.3,2.9,2.1,4.9,2.1c0.7,0,1.3-0.1,1.9-0.3c0.1,1.5,0.5,2.8,1.1,4C288.2,122.1,286.4,124.8,286.4,127.9z M379.4,68.5
		c-2.3,0-4.1,1.8-4.1,4.1c0,0.5,0.1,0.9,0.2,1.3c-1.2,0.1-2.3,0.7-3.2,1.5c-0.3,0.3-0.5,0.6-0.7,0.9c-0.9-0.5-1.9-0.8-3-0.8
		c-0.6,0-1.3,0.1-1.8,0.3c-0.1-1.8-1.5-3.2-3.3-3.2c-1.8,0-3.3,1.5-3.3,3.3c0,0.2,0,0.5,0.1,0.7c0,0,0,0-0.1,0c-1.1,0-2.1,0.4-2.9,1
		c-0.6-1.2-1.8-2-3.2-2c-2,0-3.6,1.6-3.6,3.6c0,1.1,0.5,2.1,1.3,2.8c0,0,0,0,0,0c-0.9-0.9-2.2-1.5-3.6-1.5c-2.8,0-5.1,2.3-5.1,5.1
		c0,0.3,0,0.7,0.1,1c-0.6-0.2-1.2-0.3-1.8-0.3c-1,0-2,0.3-2.8,0.7c-0.6-2.4-2.8-4.3-5.4-4.3c-2.8,0-5,2-5.5,4.7
		c-0.5-0.2-1-0.3-1.6-0.3c-2.4,0-4.3,1.9-4.3,4.3c0,0.5,0.1,1.1,0.3,1.5c-0.7-0.2-1.5-0.4-2.3-0.4c-1.1,0-2.1,0.2-3,0.6
		c-0.4-1.5-1.7-2.6-3.3-2.6c-1.4,0-2.5,0.8-3.1,2c-1.2-0.5-2.6-0.6-3.9-0.2c0.3-0.8,0.5-1.8,0.5-2.7c0-1.2-0.3-2.3-0.8-3.3
		c1.9-0.4,3.5-1.4,4.6-2.9c1,0.8,2.2,1.2,3.5,1.2c3.1,0,5.6-2.4,5.8-5.4c0.1,0,0.3,0,0.4,0c3,0,5.5-2.5,5.5-5.5
		c0-0.9-0.2-1.7-0.6-2.5c2.4-0.4,4.3-2.2,4.8-4.6c1,1.5,2.6,2.7,4.4,3.2c-0.1,0.3-0.1,0.7-0.1,1c0,2.1,1.7,3.7,3.7,3.7
		c2.1,0,3.7-1.7,3.7-3.7c0-0.2,0-0.5-0.1-0.7c1.3,0.1,2.6-0.3,3.6-1.3c0.9-0.9,1.3-2,1.3-3.2c0.8,0.5,1.8,0.8,2.9,0.8
		c1,0,2-0.3,2.8-0.8c1.1,0.9,2.5,1.4,4.1,1.4c3.7,0,6.7-3,6.7-6.7c0-0.2,0-0.3,0-0.5c0.3,0.1,0.6,0.1,1,0.1c1.2,0,2.3-0.4,3.2-1.1
		c0.9,2,2.8,3.4,5.1,3.4c0.6,0,1.2-0.1,1.7-0.3c0.9,2.5,3.3,4.3,6.1,4.3c0.2,0,0.3,0,0.5,0c0,0,0,0,0,0c0,1,0.2,1.9,0.6,2.7
		C381,68.8,380.3,68.5,379.4,68.5z"/>
	<path class="st7" d="M442,166.8c2.4-2.9,2.3-7.2-0.4-9.9c-0.6-0.6-1.3-1.1-2.1-1.4c0.6-1.2,1-2.5,1-3.9c0-4.6-3.7-8.3-8.3-8.3
		c-1.7,0-3.3,0.5-4.6,1.4c-1.7-3.1-5-5.1-8.8-5.1c-0.6,0-1.3,0.1-1.9,0.2c0.1-0.9,0.2-1.9,0.2-2.8c0-1.4-0.2-2.7-0.5-4
		c-1.3,0.3-2.6,0.5-3.9,0.5c-1.1,0-2.1-0.1-3.1-0.3c-1,5.2-4.8,9.5-9.9,11c-2.9,10.2-12.3,17.6-23.4,17.6c-4.4,0-8.5-1.2-12.1-3.2
		c-2.1,1.9-6.9,4.8-6.7,5.1c-3,1.6-5.1,4.7-5.1,8.4c0,5.2,4.2,9.4,9.4,9.4c0.1,0,0.3,0,0.4,0c0,0.1,0,0.1,0,0.2
		c0,7.3,4.8,13.5,11.4,15.7c0.8,2.9,3.4,5.1,6.6,5.1c3.4,0,6.3-2.6,6.7-5.9c0.5,0.1,0.9,0.1,1.4,0.1c1.6,0,3.1-0.5,4.4-1.2
		c1.5,2.8,4.4,4.6,7.7,4.6c2.2,0,4.2-0.8,5.8-2.2c0.7,0.2,1.4,0.3,2.1,0.3c0.4,0,0.7,0,1.1-0.1c0.8,2.7,3.2,4.6,6.2,4.6
		c3.5,0,6.4-2.9,6.4-6.4c0-0.6-0.1-1.2-0.2-1.7c0.9-0.4,1.6-1,2.1-1.8c0.5,0.2,1.1,0.3,1.7,0.3c2.4,0,4.4-2,4.4-4.4c0,0,0-0.1,0-0.1
		c2.2-0.9,3.9-2.9,4.4-5.3c1,0.4,2.1,0.6,3.3,0.6c4.9,0,8.9-4,8.9-8.9C446.9,171.2,444.9,168.2,442,166.8z"/>
	<path class="st8" d="M388.4,180.4c0,3.7,3,6.6,6.6,6.6c2,0,3.7-0.9,5-2.2c0.8,1,2.1,1.6,3.4,1.6c0.2,0,0.5,0,0.7-0.1
		c0.3,2.4,2.3,4.2,4.8,4.2c2.7,0,4.8-2.2,4.8-4.8c0,0,0-0.1,0-0.1c2-1.1,3.3-3.2,3.3-5.6c0-1-0.3-2-0.7-2.9c2-0.6,3.5-2.3,3.9-4.4
		c1,1,2.3,1.6,3.7,1.6c2.9,0,5.3-2.4,5.3-5.3c0-2.9-2.4-5.3-5.3-5.3c-0.1,0-0.1,0-0.2,0c0.2-0.8,0.4-1.6,0.4-2.5
		c0-2.4-1-4.6-2.5-6.2c0.2-0.5,0.3-1,0.3-1.6c0-2.7-2.2-4.9-4.9-4.9c-2.6,0-4.7,2-4.9,4.6c-1.3,0.6-2.5,1.4-3.4,2.5
		c-0.3-0.1-0.6-0.1-1-0.1c-2.4,0-4.3,1.9-4.3,4.3c0,0.1,0,0.2,0,0.3c-3.4,0.4-6.3,2.9-7.2,6.1c-3.2,0.6-5.5,3.4-5.5,6.8
		c0,0.7,0.1,1.3,0.3,1.9C389.4,176.4,388.4,178.3,388.4,180.4z"/>
	<path class="st9" d="M199.3,153.8c1.2,0.6,2.6,0.9,4,0.9c2.6,0,4.9-1,6.6-2.7c4.6-0.9,8.3-4.2,9.8-8.5c2.6-1.4,4.6-3.9,5.3-6.8
		c0.8,0.3,1.7,0.4,2.6,0.4c4.4,0,8-3.6,8-8c0-4.2-3.2-7.7-7.4-8c0.1-0.4,0.2-0.8,0.2-1.3c0-2.6-2.1-4.8-4.8-4.8
		c-2.6,0-4.8,2.1-4.8,4.8c0,0.5,0.1,0.9,0.2,1.4c0,0-0.1,0-0.1,0c-1.4,0-2.7,0.7-3.6,1.7c-0.4,0-0.7-0.1-1.1-0.1
		c-0.8,0-1.5,0.1-2.2,0.2c0.9-1.3,1.5-2.8,1.5-4.5c0-4.2-3.4-7.7-7.7-7.7c-4.2,0-7.7,3.4-7.7,7.7c0,0.9,0.2,1.8,0.5,2.6
		c-1.6,0.8-2.7,2.5-2.7,4.4c0,0.4,0.1,0.8,0.2,1.2c-1-0.5-2-0.7-3.2-0.7c-3.3,0-6.1,2.2-7,5.2c-1.7,0.3-3.1,1.5-3.7,3.2
		c-0.8-0.4-1.6-0.6-2.5-0.6c-3.3,0-5.9,2.6-5.9,5.9c0,3.3,2.6,5.9,5.9,5.9c0,0,0.1,0,0.1,0c-0.1,0.5-0.1,0.9-0.1,1.4
		c0,0.6,0.1,1.2,0.2,1.7c-3.3,0.3-5.8,3.1-5.8,6.5c0,2.7,1.7,5,4,6c-0.5,0.7-0.7,1.5-0.7,2.4c0,2.4,2,4.4,4.4,4.4
		c2.4,0,4.4-2,4.4-4.4c0-0.4-0.1-0.7-0.1-1.1c2.1-0.4,3.9-1.8,4.7-3.8c0.6,0.2,1.2,0.3,1.9,0.3C195.9,159.2,198.6,156.9,199.3,153.8
		z M248,164.3c-0.4,0-0.8,0.1-1.2,0.2c-1-1.5-2.7-2.6-4.7-2.6c-0.9,0-1.7,0.2-2.5,0.6c-0.7-0.6-1.6-1-2.6-1c-0.9,0-1.7,0.3-2.4,0.8
		c-1.3-1.9-3.5-3.1-6-3.1c-3.7,0-6.7,2.8-7.2,6.3c-0.4-0.1-0.8-0.1-1.2-0.1c-2.3,0-4.3,1-5.6,2.6c-0.7-1-1.8-1.6-3-1.6
		c-2,0-3.6,1.6-3.6,3.6c0,2,1.6,3.6,3.6,3.6c0.2,0,0.5,0,0.7-0.1c-0.6,0.9-0.9,1.9-0.9,3.1c0,0.2,0,0.4,0,0.6
		c-2.4,0.1-4.4,1.6-5.2,3.7c-0.8-1.6-2.5-2.7-4.4-2.7c-2.7,0-4.9,2.2-4.9,4.9c0,2,1.2,3.8,3,4.5c-0.1,0.3-0.1,0.6-0.1,1
		c0,3.2,2.6,5.7,5.7,5.7c3.2,0,5.7-2.6,5.7-5.7c0,0,0-0.1,0-0.1c0.1,0,0.1,0,0.2,0c0.7,0,1.4-0.1,2.1-0.4c0,0,0,0.1,0,0.1
		c0,3.1,2.5,5.5,5.5,5.5c1.2,0,2.4-0.4,3.3-1.1c0.9,1.2,2.4,2,4.1,2c2.8,0,5.1-2.3,5.1-5.1c0,0,0,0,0,0c2.7-0.2,4.8-2.4,4.8-5.1
		c0-0.4,0-0.7-0.1-1c0.9-0.5,1.6-1.2,2.1-2c0.9,0.7,2.1,1.1,3.3,1.1c3.1,0,5.6-2.5,5.6-5.6c0-2-1-3.7-2.6-4.7c0.8-0.5,1.5-1.2,2-2
		c0.3,0.1,0.7,0.2,1.1,0.2c1.7,0,3.1-1.4,3.1-3.1C251,165.7,249.7,164.3,248,164.3z"/>
	<path class="st10" d="M267.2,200.5c0-2.2-1.8-4-4-4c-0.7,0-1.3,0.2-1.9,0.5c-0.8-1.1-2.1-1.8-3.5-1.8c-1.1,0-2.1,0.4-2.9,1.1
		c-0.9-0.9-2.2-1.5-3.6-1.5c-0.4,0-0.8,0.1-1.2,0.1c-1.2-2.2-3.6-3.6-6.2-3.6c-4,0-7.2,3.2-7.2,7.2c0,0.4,0,0.7,0.1,1.1
		c-1.2,0.4-2.3,1.3-2.8,2.4c-0.8-0.8-1.9-1.2-3.1-1.2c-2.4,0-4.3,1.9-4.4,4.2c0,0,0,0,0,0c-2.2,0-4,1.8-4,4c0,2.2,1.8,4,4,4
		c1.2,0,2.4-0.6,3.1-1.5c0.4,0.9,1.1,1.6,2.1,2c-0.3,0.7-0.5,1.4-0.5,2.2c0,0.9,0.3,1.8,0.7,2.6c-0.2,0-0.5-0.1-0.7-0.1
		c-2.3,0-4.1,1.8-4.1,4.1c0,2.3,1.8,4.1,4.1,4.1c1.2,0,2.3-0.6,3.1-1.4c0.6,0.5,1.4,0.8,2.2,0.8c0.5,0,0.9-0.1,1.4-0.3
		c0.8,1.6,2.4,2.7,4.3,2.7c1.9,0,3.5-1.1,4.2-2.7c0.5,0.2,1.1,0.3,1.8,0.3c2.8,0,5.1-2.3,5.1-5.1c0-0.8-0.2-1.6-0.5-2.2
		c0.6-0.9,0.9-2,0.9-3.2c0-0.8-0.2-1.6-0.4-2.3c3-0.2,5.3-2.7,5.3-5.8c0-0.1,0-0.1,0-0.2c0.5,0.2,1.1,0.3,1.7,0.3
		c2.3,0,4.2-1.5,4.9-3.5C266.3,203.3,267.2,202,267.2,200.5z"/>
	<path class="st11" d="M394.3,107.9c1.3-0.9,2.2-2.5,2.2-4.2c0-2.5-1.8-4.6-4.1-5.1c-0.5-3.2-3.3-5.7-6.7-5.7
		c-2.9,0-5.4,1.8-6.4,4.4c-1-0.4-2.1-0.7-3.2-0.7c-0.6,0-1.1,0.1-1.7,0.2c-0.5-2-1.7-3.8-3.5-4.8c0.4-0.9,0.7-2,0.7-3.1
		c0-3.9-3.2-7.1-7.1-7.1c-3.9,0-7,3.1-7,7c-0.6-0.2-1.3-0.3-2-0.3c-3.7,0-6.7,2.7-7.1,6.3c-1.1-0.7-2.4-1.1-3.7-1.1
		c-0.8,0-1.7,0.2-2.4,0.4c-1.7-2.6-4.5-4.3-7.8-4.3c-4.6,0-8.4,3.3-9.2,7.6c-0.7-0.3-1.5-0.4-2.3-0.4c-2.4,0-4.5,1.3-5.6,3.2
		c-1.3-0.8-2.8-1.2-4.4-1.2c-4.8,0-8.7,3.9-8.7,8.7c0,0.1,0,0.2,0,0.3c-1-0.5-2.1-0.7-3.2-0.7c-4.1,0-7.5,3.4-7.5,7.5
		c0,4.1,3.4,7.5,7.5,7.5c0.1,0,0.1,0,0.2,0c0.7,1.7,2.1,3,3.9,3.7c-0.1,0.5-0.1,0.9-0.1,1.4c0,4.3,3.5,7.8,7.8,7.8
		c3.9,0,7.2-2.9,7.7-6.7c2.1,4.6,6.7,7.8,12,7.8c1.7,0,3.3-0.3,4.7-0.9c1.8,2.8,4.9,4.7,8.5,4.7c3.7,0,6.9-2,8.7-5
		c1.4,1.2,3.2,2,5.2,2c3.8,0,6.9-2.7,7.5-6.3c0,0,0.1,0,0.1,0c4.2,0,7.6-3.4,7.6-7.6c0-0.8-0.1-1.6-0.4-2.4c1-0.3,1.8-0.8,2.6-1.4
		c1.4,2.7,4.2,4.5,7.4,4.5c3.8,0,7-2.6,8-6.1c2.4-0.7,4.2-3,4.2-5.6C396.4,110.6,395.6,109,394.3,107.9z M294.1,87.1
		c1,0.5,2.2,0.8,3.4,0.8c4.1,0,7.3-3.3,7.4-7.3c0.9,0.3,1.9,0.5,2.9,0.5c4.7,0,8.5-3.8,8.5-8.5c0-2.8-1.3-5.2-3.4-6.8
		c0.9-0.8,1.4-2,1.4-3.3c0-0.2,0-0.4,0-0.5c0.1,0,0.3,0,0.4,0c3,0,5.5-2.4,5.5-5.5c0-0.3,0-0.6-0.1-0.8c0.7,0.2,1.4,0.3,2.1,0.3
		c0.6,0,1.2-0.1,1.8-0.2c0,0.2,0,0.4,0,0.7c0,3.5,2.8,6.3,6.3,6.3c0.1,0,0.2,0,0.3,0c0.9,1.8,2.7,3.1,4.9,3.1c2.7,0,4.9-1.9,5.3-4.5
		c1.1,0.4,2.2,0.7,3.5,0.7c4.5,0,8.3-3.1,9.3-7.3c0.5,0.1,1.1,0.2,1.6,0.2c4.5,0,8.2-3.7,8.2-8.2c0-0.3,0-0.6,0-0.9
		c0.2,0,0.3,0,0.5,0c2.6,0,4.7-2.1,4.7-4.7c0-0.5-0.1-0.9-0.2-1.4c0.9,0.4,1.9,0.7,3,0.7c3.7,0,6.6-3,6.6-6.6s-3-6.6-6.6-6.6
		c-3.1,0-5.7,2.1-6.4,5c-1.1-1.1-2.6-1.8-4.3-1.8c-0.4,0-0.9,0.1-1.3,0.1c0.5-0.9,0.8-2,0.8-3.2c0-3.6-2.9-6.5-6.5-6.5
		s-6.5,2.9-6.5,6.5c0,0.5,0.1,0.9,0.1,1.4c-0.8-0.2-1.7-0.3-2.5-0.3c-0.1,0-0.3,0-0.4,0c-1.1-3.4-4.3-5.8-8-5.8c-0.3,0-0.5,0-0.8,0
		c0.5-0.9,0.8-1.9,0.8-3c0-3.4-2.7-6.1-6.1-6.1c-1.7,0-3.2,0.7-4.3,1.8c-0.6-0.1-1.2-0.2-1.8-0.2c-3.8,0-7,2.4-8.2,5.7
		c-1.6-1.6-3.9-2.7-6.4-2.7c-5,0-9,4-9,9c0,0.4,0,0.8,0.1,1.1c-0.9-0.2-1.8-0.3-2.7-0.3c-0.7,0-1.4,0.1-2,0.2
		c-1.1-3.8-4.6-6.6-8.8-6.6c-5.1,0-9.2,4.1-9.2,9.2c0,0.8,0.1,1.5,0.3,2.3c-2.9,0.4-5.6,1.7-7.5,3.7c-0.5-3.9-3.8-6.8-7.8-6.8
		c-4.4,0-7.9,3.5-7.9,7.9c0,4,3,7.3,6.8,7.8c-1.6,2-2.7,4.4-3.1,7.1c-0.4-0.1-0.9-0.1-1.3-0.1c-4.5,0-8.1,3.6-8.1,8.1
		c0,2,0.7,3.9,2,5.3c-0.5,0.1-0.9,0.3-1.3,0.5c-1.2-2.7-3.8-4.5-6.9-4.5c-4.1,0-7.5,3.4-7.5,7.5s3.4,7.5,7.5,7.5
		c0.9,0,1.8-0.2,2.6-0.5c0.5,1.4,1.3,2.6,2.4,3.5c-0.8,0.9-1.5,2-1.8,3.3h0c-4.8,0-8.7,3.9-8.7,8.7c0,4.1,2.8,7.5,6.6,8.4
		c-1.6,1.1-2.6,2.9-2.6,4.9c0,3.3,2.7,5.9,5.9,5.9c2.9,0,5.3-2.1,5.8-4.8c1.3,0.6,2.7,0.9,4.2,0.9c1,0,1.9-0.1,2.8-0.4
		c0.8,2.8,3.3,4.8,6.3,4.8c2.3,0,4.3-1.2,5.4-2.9c1.5,1.5,3.6,2.4,5.9,2.4c4.7,0,8.5-3.8,8.5-8.5c0-1.8-0.6-3.5-1.6-4.9
		c1.1-1.3,1.7-3,1.7-4.8c0-0.6-0.1-1.3-0.2-1.9C289.3,91.4,292.2,89.7,294.1,87.1z"/>
</g>
</svg>
