<?xml version="1.0" encoding="utf-8"?>
<!-- Generator: Adobe Illustrator 24.1.2, SVG Export Plug-In . SVG Version: 6.00 Build 0)  -->
<svg version="1.1" id="Capa_1" xmlns="http://www.w3.org/2000/svg" xmlns:xlink="http://www.w3.org/1999/xlink" x="0px" y="0px"
	 viewBox="0 0 60.2 60.2" style="enable-background:new 0 0 60.2 60.2;" xml:space="preserve">
<style type="text/css">
	.st0{fill:#B8CC6A;}
</style>
<path class="st0" d="M49.3,15.5L38.8,5c-0.3-0.3-0.6-0.4-1-0.4H15.3c-2.7,0-4.9,2.2-4.9,4.9v42.2c0,2.7,2.2,4.9,4.9,4.9h29.6
	c2.7,0,4.9-2.2,4.9-4.9V16.6C49.8,16.2,49.6,15.8,49.3,15.5z M46.9,51.7c0,1.1-0.9,2-2,2H15.3c-1.1,0-2-0.9-2-2V9.5c0-1.1,0.9-2,2-2
	h18.5v10.1c0,1.7,1.4,3.1,3.1,3.1h10V51.7z M46.9,17.8h-10c-0.1,0-0.2-0.1-0.2-0.2V7.5h0.6l9.7,9.7V17.8z M18.2,20.5h10.1
	c0.8,0,1.5-0.7,1.5-1.5s-0.7-1.5-1.5-1.5H18.2c-0.8,0-1.5,0.7-1.5,1.5S17.4,20.5,18.2,20.5z M41.3,46.9h-6.6c-0.8,0-1.5,0.7-1.5,1.5
	s0.7,1.5,1.5,1.5h6.6c0.8,0,1.5-0.7,1.5-1.5S42.2,46.9,41.3,46.9z M18.2,13.9h10.1c0.8,0,1.5-0.7,1.5-1.5s-0.7-1.5-1.5-1.5H18.2
	c-0.8,0-1.5,0.7-1.5,1.5S17.4,13.9,18.2,13.9z M16.7,28.5v10.3c0,0.8,0.7,1.5,1.5,1.5h23.5c0.8,0,1.5-0.7,1.5-1.5V28.5
	c0-0.8-0.7-1.5-1.5-1.5H18.2C17.4,27,16.7,27.7,16.7,28.5z M19.7,30h20.5v7.3H19.7V30z"/>
</svg>
