<?xml version="1.0" encoding="utf-8"?>
<!-- Generator: Adobe Illustrator 24.1.2, SVG Export Plug-In . SVG Version: 6.00 Build 0)  -->
<svg version="1.1" id="Capa_18" xmlns="http://www.w3.org/2000/svg" xmlns:xlink="http://www.w3.org/1999/xlink" x="0px" y="0px"
	 viewBox="0 0 723.9 394.4" style="enable-background:new 0 0 723.9 394.4;" xml:space="preserve">
<style type="text/css">
	.st0{fill:#81A636;}
	.st1{fill:#997631;}
	.st2{fill:#DF4846;}
	.st3{fill:#EE675F;}
	.st4{fill:#EE8281;}
	.st5{fill:#E24647;}
	.st6{fill:#194649;}
	.st7{fill:#358D96;}
	.st8{fill:#E5F5F1;}
	.st9{fill:#B9E5DE;}
	.st10{fill:#ADBD40;}
</style>
<g>
	<path class="st0" d="M107.9,154.5c-24.7,0.7-31.6,14.2-38.9,27.9S57.1,202.6,45.2,208c-11.9,5.5-21.5,14.2-18.7,23.3
		s11.4,12.8,20.6,17.4c9.1,4.6,13.3,5.9,17.4,16.9c4.1,11,8.2,29.7,24.2,32.9s14.2-4.1,33.4-5.5c19.2-1.4,36.1,5,53-4.1
		s24.7-30.6,19.7-52.1s6.4-38-4.1-50.3s-23.4-15.5-37.7-18.7S125.2,154.1,107.9,154.5z"/>
	<path class="st0" d="M528.6,99.7c-4.8-19.5-0.9-26.1-8.2-37.5c-7.3-11.4-15.7-10.5-23.4-0.9s-15.5,21-23.7,28.4s-19.7,19.7-22.9,37
		s-1.8,29.7,5,39.8c6.9,10.1,8.7,19.2,2.3,26.1c-6.4,6.9-17,11.4-10.3,24.7s12.2,19.7,10.3,28.8s-9.1,27,3.7,34.3
		c12.8,7.3,24.1,2.7,30.1-0.5s12.4,0.1,19.3,3.9c6.9,3.9,21.5,4.3,28.4-10.3c6.9-14.6,16.9-22.4,11.4-39.3
		c-5.5-16.9-16.5-42.5-8.7-57.6c7.8-15.1,9.6-34.8,2.7-48C537.7,115.2,530.9,109.1,528.6,99.7z"/>
	<path class="st1" d="M150.2,242.7c-1-0.9-2.5-0.8-3.4,0.2L122,269.9v-85.8c0-1.3-1.1-2.4-2.4-2.4c-1.3,0-2.4,1.1-2.4,2.4v50.8
		l-17.3-22.2c-0.8-1.1-2.4-1.3-3.4-0.4c-1.1,0.8-1.3,2.4-0.4,3.4l21.1,27.1v87.6c0,1.3,1.1,2.4,2.4,2.4c1.3,0,2.4-1.1,2.4-2.4v-53.3
		l28.3-31C151.3,245.1,151.2,243.6,150.2,242.7z"/>
	<path class="st1" d="M529.8,145.9c-1-0.9-2.5-0.9-3.4,0.1l-26.4,28v-53.8c0-1.3-1.1-2.4-2.4-2.4c-1.3,0-2.4,1.1-2.4,2.4v114.3
		L475.9,215c-0.9-1-2.5-1-3.4,0c-1,0.9-1,2.5,0,3.4l22.6,23.1v87.7c0,1.3,1.1,2.4,2.4,2.4c1.3,0,2.4-1.1,2.4-2.4V181.1l30-31.8
		C530.8,148.4,530.8,146.8,529.8,145.9z"/>
</g>
<g>
	<path class="st2" d="M338,327.6c0-17.2-24.7-31.1-55.5-31.5l1.5,8.8c0,0,19.3,4.9,22.6,23.9H338C338,328.4,338,328,338,327.6z"/>
	<path class="st3" d="M284.1,304.8l-1.5-8.8c-0.4,0-0.9,0-1.3,0c-31.4,0-56.9,14.1-56.9,31.6c0,0.4,0,0.8,0.1,1.2h82.3
		C303.4,309.7,284.1,304.8,284.1,304.8z"/>
	<path class="st4" d="M263.8,304.5c0,2.6,7.6,4.8,17,4.8c9.4,0,17-2.1,17-4.8v-23.6l-34.1-15.6V304.5z"/>
	<polygon class="st5" points="263.8,252.4 263.8,265.2 297.9,280.9 297.9,252.4 	"/>
	<polygon class="st6" points="385.4,259.7 111.4,259.7 110.6,252.4 465.5,112.5 466.3,119.8 	"/>
	<polygon class="st7" points="384.5,252.4 110.6,252.4 189.7,112.5 465.5,112.5 	"/>
	<polygon class="st8" points="380,247.9 118.8,247.9 192.8,117 455.7,117 	"/>
	<path class="st9" d="M384.9,129.8h-20.5l-11.1,18.8C366.9,140.6,378.2,133.8,384.9,129.8z M211.6,178.8h32.1l17.4-29.8L211.6,178.8
		z M333.3,129.8h-40.5l-17.3,10.4l-21.9,37.1L333.3,129.8z M171.1,187l-5.6,3.4l-8.9,15.2l30.1-18.6H171.1z M303.1,235.9h12L396,187
		H332L303.1,235.9z M403.7,129.8l-59.8,34.9l-8.3,14.1h69.6l31.3-48.9H403.7z M200,178.8l68.3-42.2l3.9-6.7h-8.2l-79.6,48.9H200z
		 M302.8,178.8c13.5-8.1,27.2-16.2,39.6-23.6l14.9-25.3h-13.8l-81.4,48.9H302.8z M200.2,129.8l-15.8,26.8l41.6-26.8H200.2z M198,187
		l-47.1,28.4l-12.1,20.5h16.9l81.9-48.9H198z M167,235.9h44l23.8-40.7L167,235.9z M288.9,187h-40l-21.4,36.4
		C238,217.2,262.3,202.9,288.9,187z M333.1,171l-13.3,7.8h8.7L333.1,171z M305.7,187l-83.9,48.9h74l28.8-48.9H305.7z"/>
</g>
<g>
	<path class="st2" d="M601.8,327.8c0-13.1-18.9-23.7-42.3-24l1.2,6.7c0,0,14.7,3.7,17.2,18.2h23.9
		C601.7,328.5,601.8,328.2,601.8,327.8z"/>
	<path class="st3" d="M560.6,310.5l-1.2-6.7c-0.3,0-0.7,0-1,0c-23.9,0-43.3,10.8-43.3,24.1c0,0.3,0,0.6,0,0.9h62.7
		C575.4,314.3,560.6,310.5,560.6,310.5z"/>
	<path class="st4" d="M545.2,310.2c0,2,5.8,3.7,13,3.7c7.2,0,13-1.6,13-3.7v-18l-26-11.9V310.2z"/>
	<polygon class="st5" points="545.2,270.5 545.2,280.3 571.1,292.3 571.1,270.5 	"/>
	<polygon class="st6" points="637.8,276.1 429,276.1 428.4,270.5 698.9,163.9 699.5,169.4 	"/>
	<polygon class="st7" points="637.2,270.5 428.4,270.5 488.7,163.9 698.9,163.9 	"/>
	<polygon class="st8" points="633.7,267.1 434.6,267.1 491,167.3 691.4,167.3 	"/>
	<path class="st9" d="M637.5,177.1h-15.6l-8.5,14.4C623.8,185.3,632.4,180.2,637.5,177.1z M505.4,214.4h24.5l13.3-22.7L505.4,214.4z
		 M598.1,177.1h-30.8l-13.2,7.9l-16.7,28.3L598.1,177.1z M474.5,220.7l-4.2,2.6l-6.8,11.6l22.9-14.2H474.5z M575.1,258h9.1
		l61.7-37.3h-48.9L575.1,258z M651.8,177.1l-45.6,26.6l-6.3,10.7H653l23.8-37.3H651.8z M496.5,214.4l52.1-32.2l3-5.1h-6.2
		l-60.7,37.3H496.5z M574.9,214.4c10.3-6.1,20.7-12.3,30.2-18l11.4-19.3h-10.5l-62,37.3H574.9z M496.7,177.1l-12,20.4l31.7-20.4
		H496.7z M495,220.7L459,242.3l-9.2,15.6h12.9l62.5-37.3H495z M471.4,258h33.5l18.1-31.1L471.4,258z M564.3,220.7h-30.5l-16.3,27.7
		C525.5,243.7,544,232.8,564.3,220.7z M598,208.5l-10.2,5.9h6.7L598,208.5z M577.1,220.7l-64,37.3h56.4l22-37.3H577.1z"/>
</g>
<path class="st10" d="M633.3,272.4c-14.1-0.2-22.5-2.4-28.4,2.4c-5.9,4.8-11.8,7.9-17.7,4.8c-5.9-3.1-9.6-5.5-13.3-2.7
	s-8.3,13.6-14.2,18.6c-5.9,5-16.6,6.1-14.2,16.8c2.4,10.7,4.8,19.6,15.3,19.6s93.9,0,104.8,0c10.9,0,16.6-16.6,14.2-26
	C677.4,296.6,656.8,272.8,633.3,272.4z"/>
</svg>
