<?xml version="1.0" encoding="utf-8"?>
<!-- Generator: Adobe Illustrator 24.1.2, SVG Export Plug-In . SVG Version: 6.00 Build 0)  -->
<svg version="1.1" id="Capa_1" xmlns="http://www.w3.org/2000/svg" xmlns:xlink="http://www.w3.org/1999/xlink" x="0px" y="0px"
	 viewBox="0 0 162.3 136.7" style="enable-background:new 0 0 162.3 136.7;" xml:space="preserve">
<style type="text/css">
	.st0{fill:#B8CC6A;}
	.st1{fill:#B77647;}
	.st2{fill:#E2AF8A;}
</style>
<path class="st0" d="M141.2,27.7c-5.7-4.2-26.2,1.4-32.1,10.5c-2.2,3.4-3.2,7.5-2.5,11.3c3.2-4.2,10.4-11.8,22.2-14.3
	c0.8-0.2,1.6,0.4,1.8,1.2c0.2,0.8-0.4,1.6-1.2,1.8c-14.7,3.3-23,16.9-23.8,17.9c-1,1.5-1.9,2.9-2.7,4.2c-1-4.4-3.3-8.4-5.5-11.4l0,0
	c-3.3-4.8-16.8-23.2-31.9-27c-0.8-0.2-1.3-1-1.1-1.8c0.2-0.8,1-1.3,1.8-1.1c15.1,3.8,28.1,20.4,32.7,26.9c2.1-5.6,0.8-12.5-2.8-18.1
	c-8-12.3-33.7-23.2-41.3-17.7c-4.7,3.4,5,30.1,14.9,39.7c6.9,6.4,17.4,8.2,24.7,2.3l0.1-0.1c2.8,4,5.6,9.8,4.5,15.4
	c-0.2,1,0.4,2,1.4,2.3c0.2,0.1,0.4,0.1,0.6,0.1c0.8,0,1.5-0.4,1.8-1.2c1.3-2.9,4.1-8.1,7.6-12.5l0,0c5.5,4.4,13.4,3.2,18.4-1.5
	C136.3,47.7,144.7,30.3,141.2,27.7z"/>
<path class="st1" d="M122.2,78.3c-2.9,0-5.7,0.7-8.1,2.1c-1-9.1-8.7-16.1-18.1-16.1c-6.3,0-11.9,3.2-15.1,8.1
	c-1.8-1.1-3.9-1.8-6.2-1.8c-6.5,0-11.8,5.3-11.8,11.8c0,3.5,1.5,6.7,4,8.8l-4,12.8l44.4,13.4l10.3-5.6c1.5,0.4,3,0.7,4.6,0.7
	c9.4,0,17.1-7.6,17.1-17.1S131.7,78.3,122.2,78.3z"/>
<path class="st2" d="M146.7,101.4c-1.6-3.6-5.9-5.2-9.5-3.6l-26.8,11.3c0,0-0.6,0.4-2.5,0.9s-5-0.5-5-0.5l-28.2-5.4
	c-2-0.5-3.1-2.6-2.6-4.6l0,0c0.5-2,2.6-3.1,4.6-2.6l17.7,3.7c3.8,1.1,7.5,1.3,8.6-2.5s-1.3-6.4-5.2-7.5l-32.5-9
	c-0.5-0.1-1-0.2-1.4-0.2c-9.9-1.7-15.8-0.1-27,4.4l-23.5-3.4V111h13.3l67,18.5c0,0,4.3,1,7.3-0.2c2.3-0.9,42.1-18.4,42.1-18.4
	C146.7,109.3,148.3,105,146.7,101.4z"/>
</svg>
