<?xml version="1.0" encoding="utf-8"?>
<!-- Generator: Adobe Illustrator 24.1.2, SVG Export Plug-In . SVG Version: 6.00 Build 0)  -->
<svg version="1.1" id="Capa_1" xmlns="http://www.w3.org/2000/svg" xmlns:xlink="http://www.w3.org/1999/xlink" x="0px" y="0px"
	 viewBox="0 0 1330.3 1226.2" style="enable-background:new 0 0 1330.3 1226.2;" xml:space="preserve">
<style type="text/css">
	.st0{fill:#A4A6AE;}
	.st1{fill:#C3C3C2;}
	.st2{fill:#814850;}
	.st3{fill:#D1D1D0;}
	.st4{fill:#6C6D6D;}
	.st5{fill:#C99F79;}
	.st6{fill:#5E534D;}
	.st7{fill:#D2E6F2;}
	.st8{fill:#99806B;}
	.st9{fill:#3E3938;}
	.st10{fill:#FFFFFF;}
	.st11{fill:#CB5540;}
	.st12{fill:#883631;}
	.st13{fill:#93ACB4;}
	.st14{fill:#B9B5B8;}
	.st15{fill:#41454B;}
	.st16{fill:#DDD8D6;}
	.st17{fill:#EDEAE6;}
	.st18{fill:#ED7657;}
	.st19{fill:#DDD8D5;}
	.st20{fill:#C3C2C1;}
	.st21{fill:#6E92BB;}
	.st22{fill:#887062;}
	.st23{fill:#DED1D2;}
	.st24{fill:#A59699;}
	.st25{fill:#B7ABAC;}
	.st26{fill:#439FB9;}
	.st27{fill:#51545D;}
	.st28{fill:#797E80;}
	.st29{fill:#AE7567;}
	.st30{fill:#8C6459;}
	.st31{fill:#494A4F;}
	.st32{fill:#6096E3;}
	.st33{fill:#4575C4;}
	.st34{fill:#ECECED;}
	.st35{opacity:0.3;fill:#3E3E40;}
	.st36{fill:#BFC1CA;}
	.st37{fill:#73737D;}
	.st38{fill:#754B41;}
	.st39{fill:#463125;}
	.st40{fill:#747271;}
	.st41{fill:#949494;}
	.st42{fill:#253339;}
	.st43{fill:#2D4148;}
	.st44{fill:#36515E;}
	.st45{fill:#44656F;}
	.st46{fill:#839FB1;}
	.st47{fill:#221F1A;}
	.st48{opacity:0.5;fill:#446571;}
	.st49{opacity:0.5;fill:#849FB0;}
</style>
<g>
	<g>
		<g>
			<polygon class="st0" points="821.9,621.5 821.9,735 446.9,735 446.9,525.6 362.1,525.6 362.1,624.8 302,624.8 302,587.2 
				225.8,587.2 225.8,656.8 148.8,656.8 148.8,828.6 821.9,828.6 821.9,828.8 919,828.8 919,621.5 			"/>
			<path class="st1" d="M400.3,630.1h8.4v-13.6h-8.4V630.1z M400.3,604.9h8.4v-13.6h-8.4V604.9z M400.3,655.4h8.4v-13.6h-8.4V655.4z
				 M400.3,680.6h8.4v-13.6h-8.4V680.6z M400.3,579.6h8.4v-13.6h-8.4V579.6z M400.3,731.1h8.4v-13.6h-8.4V731.1z M400.3,705.9h8.4
				v-13.6h-8.4V705.9z M413,604.9h8.4v-13.6H413V604.9z M413,655.4h8.4v-13.6H413V655.4z M413,630.1h8.4v-13.6H413V630.1z
				 M375,756.4h8.4v-13.6H375V756.4z M400.3,756.4h8.4v-13.6h-8.4V756.4z M400.3,554.4h8.4v-13.6h-8.4V554.4z M413,705.9h8.4v-13.6
				H413V705.9z M413,756.4h8.4v-13.6H413V756.4z M413,731.1h8.4v-13.6H413V731.1z M387.7,655.4h8.4v-13.6h-8.4V655.4z M375,655.4
				h8.4v-13.6H375V655.4z M375,630.1h8.4v-13.6H375V630.1z M375,604.9h8.4v-13.6H375V604.9z M375,579.6h8.4v-13.6H375V579.6z
				 M375,680.6h8.4v-13.6H375V680.6z M375,554.4h8.4v-13.6H375V554.4z M375,731.1h8.4v-13.6H375V731.1z M375,705.9h8.4v-13.6H375
				V705.9z M387.7,731.1h8.4v-13.6h-8.4V731.1z M387.7,604.9h8.4v-13.6h-8.4V604.9z M387.7,756.4h8.4v-13.6h-8.4V756.4z
				 M387.7,579.6h8.4v-13.6h-8.4V579.6z M413,579.6h8.4v-13.6H413V579.6z M387.7,630.1h8.4v-13.6h-8.4V630.1z M387.7,554.4h8.4
				v-13.6h-8.4V554.4z M387.7,680.6h8.4v-13.6h-8.4V680.6z M387.7,705.9h8.4v-13.6h-8.4V705.9z M413,680.6h8.4v-13.6H413V680.6z
				 M425.6,604.9h8.4v-13.6h-8.4V604.9z M425.6,655.4h8.4v-13.6h-8.4V655.4z M425.6,630.1h8.4v-13.6h-8.4V630.1z M425.6,554.4h8.4
				v-13.6h-8.4V554.4z M413,554.4h8.4v-13.6H413V554.4z M425.6,579.6h8.4v-13.6h-8.4V579.6z M425.6,680.6h8.4v-13.6h-8.4V680.6z
				 M425.6,756.4h8.4v-13.6h-8.4V756.4z M425.6,705.9h8.4v-13.6h-8.4V705.9z M425.6,731.1h8.4v-13.6h-8.4V731.1z M247.1,662.4h8.4
				v-13.6h-8.4V662.4z M247.1,637.1h8.4v-13.6h-8.4V637.1z M247.1,687.6h8.4V674h-8.4V687.6z M247.1,611.8h8.4v-13.6h-8.4V611.8z
				 M259.7,712.9h8.4v-13.6h-8.4V712.9z M259.7,687.6h8.4V674h-8.4V687.6z M234.4,611.8h8.4v-13.6h-8.4V611.8z M234.4,712.9h8.4
				v-13.6h-8.4V712.9z M234.4,687.6h8.4V674h-8.4V687.6z M234.4,637.1h8.4v-13.6h-8.4V637.1z M234.4,662.4h8.4v-13.6h-8.4V662.4z
				 M247.1,712.9h8.4v-13.6h-8.4V712.9z M285,712.9h8.4v-13.6H285V712.9z M272.4,611.8h8.4v-13.6h-8.4V611.8z M272.4,637.1h8.4
				v-13.6h-8.4V637.1z M285,687.6h8.4V674H285V687.6z M285,637.1h8.4v-13.6H285V637.1z M285,662.4h8.4v-13.6H285V662.4z
				 M259.7,637.1h8.4v-13.6h-8.4V637.1z M259.7,611.8h8.4v-13.6h-8.4V611.8z M259.7,662.4h8.4v-13.6h-8.4V662.4z M272.4,662.4h8.4
				v-13.6h-8.4V662.4z M272.4,712.9h8.4v-13.6h-8.4V712.9z M272.4,687.6h8.4V674h-8.4V687.6z M285,611.8h8.4v-13.6H285V611.8z
				 M880,651h9.4v-15.3H880V651z M880,679.5h9.4v-15.3H880V679.5z M865.7,679.5h9.4v-15.3h-9.4V679.5z M880,707.9h9.4v-15.3H880
				V707.9z M865.7,651h9.4v-15.3h-9.4V651z M880,764.8h9.4v-15.3H880V764.8z M880,736.4h9.4v-15.3H880V736.4z M894.2,635.7V651h9.4
				v-15.3H894.2z M894.2,764.8h9.4v-15.3h-9.4V764.8z M894.2,679.5h9.4v-15.3h-9.4V679.5z M894.2,736.4h9.4v-15.3h-9.4V736.4z
				 M894.2,707.9h9.4v-15.3h-9.4V707.9z M851.5,679.5h9.4v-15.3h-9.4V679.5z M837.2,679.5h9.4v-15.3h-9.4V679.5z M865.7,707.9h9.4
				v-15.3h-9.4V707.9z M851.5,764.8h9.4v-15.3h-9.4V764.8z M837.2,707.9h9.4v-15.3h-9.4V707.9z M851.5,736.4h9.4v-15.3h-9.4V736.4z
				 M837.2,736.4h9.4v-15.3h-9.4V736.4z M837.2,651h9.4v-15.3h-9.4V651z M865.7,764.8h9.4v-15.3h-9.4V764.8z M865.7,736.4h9.4v-15.3
				h-9.4V736.4z M851.5,707.9h9.4v-15.3h-9.4V707.9z M851.5,651h9.4v-15.3h-9.4V651z M837.2,764.8h9.4v-15.3h-9.4V764.8z"/>
		</g>
		<g id="fabrica">
			<path class="st2" d="M93.9,709.4H76.6l-0.3,4.7h17.9L93.9,709.4z M94.5,718.8H76l-0.3,4.7h19L94.5,718.8z M92.8,690.7H77.7
				l-0.3,4.7h15.6L92.8,690.7z M93.3,700H77.1l-0.3,4.7h16.8L93.3,700z M92.2,681.3h-14L78,686h14.5L92.2,681.3z"/>
			<path class="st3" d="M91.9,676.6H78.5l-0.3,4.7h14L91.9,676.6z M93.6,704.7H76.9l-0.3,4.7h17.3L93.6,704.7z M94.2,714.1H76.3
				l-0.3,4.7h18.4L94.2,714.1z M92.5,686H78l-0.3,4.7h15.1L92.5,686z M93.1,695.3H77.4l-0.3,4.7h16.2L93.1,695.3z M94.7,723.5h-19
				l-0.3,4.7H95L94.7,723.5z"/>
			<path class="st4" d="M186.2,638.8c0,0,0.5-2.3,3.5-1.9c3.3,0.4,3.1,4.7-0.6,5.2c-3.6,0.5-0.7,4.6-4.3,5.3
				c-3.7,0.7-2.6-2.1-5.5-1.5c-2.2,0.5-1.1,2.7-4.5,2.9c-3.7,0.3-3.6-2.7-6.3-4s-1.7,1.3-6.8,1.7c0,0-0.1,4.4-6.3,4.2
				s-5.2-5.8-5.2-5.8c-1.3-2-3.8-1.5-4.1,0.7c-0.3,1.8-0.6,3.7-4.5,4.9c-3.3,0.9-5-2.4-5.8,1.1c-0.8,3.3-1.4,6.5-7.5,7.1
				c-5.2,0.6-8.5-3.2-8.6-6.6c-0.1-3.1-1.5-4.2-3.5-3.4c-2.3,0.9-1.2,4-4.8,5.2c-3.4,1.1-5-0.6-5-0.6s2.2,4.4-1.8,7
				c-4,2.6-7.4-1.1-7.4-1.1s-1.3,6.2-6.5,6.6c0,0,3,1.7,2.3,5.5c-0.6,3.3-3.8,2.4-3.7,5.2h-8.7c0,0-3.3-4.2,0.9-6.2
				c0,0-1.3-4.6,3.6-6.2c0,0-4.9-1.7-4.2-7.6c0.7-5.9,5.8-6.9,5.8-6.9s-3.5-7.8,2.7-11.7c6.4-4,11,1,11,1s0.6-4.6,6.1-4.8
				c0,0-3.7-2.7-0.9-7.1c2.1-3.2,8.4-2.7,8.7,1c0,0,6.5-3.5,10.1,2.6c0,0,5,1,3.3-2.7c-1.7-3.7-0.9-6.9,2.6-9.2
				c3.5-2.3,11.3-1,10.2,7.3c0,0,1.9,2.1,4.3-0.3c1.8-1.7,5.5-3.1,8.1,0.2c1.7,2.1,1.7,5.5-1.7,7.2c0,0,4,1.2,4,4.2
				c0,0,0.9-7.8,9.7-8.1c8.1-0.2,9.5,6.6,9.5,6.6s4.9-2.2,6.8,3.3C180.8,639.2,183,636.7,186.2,638.8z"/>
			<polygon class="st5" points="220.8,709.2 168.3,730.2 168.3,709.2 115.7,730.2 115.7,709.2 63.2,730.2 63.2,828.6 357.7,828.6 
				357.7,709.2 			"/>
			<path class="st6" d="M359.6,707.2H220.4l-52.9,21.2c-1.1,0.4-1.6,1.6-1.1,2.7c0.3,0.8,1.1,1.3,1.9,1.3c0.3,0,0.5,0,0.8-0.1
				l52.2-20.9h138.4c1.1,0,2.1-0.9,2.1-2.1S360.7,707.2,359.6,707.2z M173.6,707.1c-0.4-1.1-1.6-1.6-2.7-1.1l-56,22.4
				c-1.1,0.4-1.6,1.6-1.1,2.7c0.3,0.8,1.1,1.3,1.9,1.3c0.3,0,0.5,0,0.8-0.1l56-22.4C173.5,709.3,174,708.1,173.6,707.1z
				 M120.7,706.5c-0.4-1-1.6-1.5-2.7-1.1l-55.6,22.9c-1,0.4-1.5,1.6-1.1,2.7c0.3,0.8,1.1,1.3,1.9,1.3c0.3,0,0.5-0.1,0.8-0.2
				l55.6-22.9C120.6,708.8,121.1,707.6,120.7,706.5z"/>
			<path class="st7" d="M221.6,751.8h24.2v-19.6h-24.2V751.8z M251.6,751.8h24.2v-19.6h-24.2V751.8z M281.5,751.8h24.2v-19.6h-24.2
				V751.8z M311.5,732.3v19.6h24.2v-19.6H311.5z"/>
			<rect x="85.5" y="753.9" class="st8" width="83.1" height="74.7"/>
		</g>
		<g id="camion">
			<rect x="119.7" y="814.7" class="st9" width="189.8" height="2.5"/>
			<rect x="113.7" y="781.6" class="st10" width="100" height="33.1"/>
			<rect x="219.1" y="781.6" class="st10" width="90.4" height="33.1"/>
			<path class="st11" d="M313.6,784.6v-3h-4.1v39.8H331v-16.7c0,0,0-3.3-5.4-10.5S313.6,784.6,313.6,784.6z"/>
			<path class="st12" d="M311.7,814.3c-0.8,0-1.6,0.1-2.3,0.3v6.8h10.8C319.5,817.4,316,814.3,311.7,814.3z"/>
			<path class="st7" d="M323.9,804.5c0,0-4.4,0.1-10.7,0.1v-9.1h7.5c1.8,0,3.2,1.4,3.2,3.2V804.5z"/>
			<rect x="320.6" y="817.4" class="st13" width="13.7" height="5.6"/>
			<rect x="327.4" y="814.6" class="st14" width="3.6" height="2.8"/>
			<path d="M119.7,819.6h3c-0.7,0.9-1.2,2.1-1.2,3.4c0,3.1,2.5,5.6,5.6,5.6c3.1,0,5.6-2.5,5.6-5.6c0-1.3-0.4-2.4-1.2-3.4h4.5
				c-0.7,0.9-1.2,2.1-1.2,3.4c0,3.1,2.5,5.6,5.6,5.6c3.1,0,5.6-2.5,5.6-5.6c0-1.3-0.4-2.4-1.2-3.4h37.7c-0.7,0.9-1.2,2.1-1.2,3.4
				c0,3.1,2.5,5.6,5.6,5.6s5.6-2.5,5.6-5.6c0-1.3-0.4-2.4-1.2-3.4h4.5c-0.7,0.9-1.2,2.1-1.2,3.4c0,3.1,2.5,5.6,5.6,5.6
				c3.1,0,5.6-2.5,5.6-5.6c0-1.3-0.4-2.4-1.2-3.4h3.5v-2.5h-88.5V819.6z M311.7,817.4c-0.8,0-1.6,0.2-2.3,0.5v-0.8h-69.1v2.5h4.8
				c-0.7,0.9-1.2,2.1-1.2,3.4c0,3.1,2.5,5.6,5.6,5.6s5.6-2.5,5.6-5.6c0-1.3-0.4-2.4-1.2-3.4h4.5c-0.7,0.9-1.2,2.1-1.2,3.4
				c0,3.1,2.5,5.6,5.6,5.6c3.1,0,5.6-2.5,5.6-5.6c0-1.3-0.4-2.4-1.2-3.4h40c-0.7,0.9-1.2,2.1-1.2,3.4c0,3.1,2.5,5.6,5.6,5.6
				c3.1,0,5.6-2.5,5.6-5.6C317.3,819.9,314.8,817.4,311.7,817.4z"/>
			<path class="st14" d="M140.4,819c-2.2,0-4,1.8-4,4c0,2.2,1.8,4,4,4c2.2,0,4-1.8,4-4C144.5,820.8,142.7,819,140.4,819z M127.1,819
				c-2.2,0-4,1.8-4,4c0,2.2,1.8,4,4,4c2.2,0,4-1.8,4-4C131.1,820.8,129.3,819,127.1,819z M200.3,819c-2.2,0-4,1.8-4,4
				c0,2.2,1.8,4,4,4c2.2,0,4-1.8,4-4C204.4,820.8,202.6,819,200.3,819z M187,819c-2.2,0-4,1.8-4,4c0,2.2,1.8,4,4,4c2.2,0,4-1.8,4-4
				C191,820.8,189.2,819,187,819z M262.9,819c-2.2,0-4,1.8-4,4c0,2.2,1.8,4,4,4c2.2,0,4-1.8,4-4C266.9,820.8,265.1,819,262.9,819z
				 M249.6,819c-2.2,0-4,1.8-4,4c0,2.2,1.8,4,4,4c2.2,0,4-1.8,4-4C253.6,820.8,251.8,819,249.6,819z M311.7,819c-2.2,0-4,1.8-4,4
				c0,2.2,1.8,4,4,4s4-1.8,4-4C315.8,820.8,314,819,311.7,819z"/>
		</g>
		<g id="tanque">
			<path class="st15" d="M428.5,828.6h3.4l-3.5-32.2h1.4v-3.7h-60.9v3.7h1.4l-3.5,32.2h3.4l1.9-17.3h25.5v17.3h3.4v-17.3h25.5
				L428.5,828.6z M372.5,808.8l1.4-12.4h23.9v12.4H372.5z M401.1,808.8v-12.4H425l1.4,12.4H401.1z"/>
			<rect x="415.8" y="727.7" class="st1" width="14.5" height="65"/>
			<rect x="391.4" y="727.7" class="st16" width="24.3" height="65"/>
			<rect x="368.9" y="727.7" class="st17" width="22.5" height="65"/>
			<path class="st18" d="M368.9,738.9v3h61.3v-3H368.9z M368.9,756.2h61.3v-3h-61.3V756.2z"/>
			<polygon class="st19" points="368.9,727.7 399.6,710.1 430.3,727.7 			"/>
			<polygon class="st20" points="391.4,727.7 399.6,710.1 430.3,727.7 			"/>
		</g>
		<g id="grua">
			<path class="st5" d="M787,529.6l-28.8-21.1c0,0-0.1,0-0.1-0.1c0,0-0.1,0-0.1-0.1c-0.1,0-0.2-0.1-0.3-0.1c0,0,0,0-0.1,0
				c0,0,0,0,0,0h-74l-87.2-56.6c-0.2-0.1-0.4-0.2-0.6-0.2h-6.9l-4-22c-0.1-0.5-0.5-0.8-1-0.8h0c-0.5,0-0.9,0.4-1,0.9l-3.8,22h-6.1
				c-0.2,0-0.4,0.1-0.6,0.2c-23.3,15.2-83.9,54.6-87.7,56.6h-9.4c-0.1,0-0.1,0-0.2,0c-0.1,0-0.1,0-0.2,0c-0.1,0-0.2,0.1-0.3,0.2
				c0,0-0.1,0-0.1,0c0,0,0,0,0,0c0,0,0,0,0,0l-21.9,21.1c-0.3,0.3-0.4,0.7-0.2,1.1c0.2,0.4,0.5,0.6,1,0.6h118v297.5c0,0,0,0,0,0
				c0,0.1,0,0.3,0.1,0.4c0.1,0.1,0.1,0.2,0.2,0.3c0,0,0,0,0,0c0,0,0,0,0.1,0c0.1,0.1,0.2,0.1,0.3,0.2c0.1,0.1,0.3,0.1,0.4,0.1h23.4
				c0.1,0,0.3,0,0.4-0.1c0.1,0,0.2-0.1,0.3-0.2c0,0,0,0,0.1,0c0,0,0,0,0,0c0.1-0.1,0.2-0.2,0.2-0.3c0.1-0.1,0.1-0.3,0.1-0.4
				c0,0,0,0,0,0V531.5h189.6c0.4,0,0.8-0.3,1-0.7C787.5,530.3,787.4,529.9,787,529.6z M475.2,510.8l8.4,8.9l-9.5,9.2l-8.8-8.7
				L475.2,510.8z M493.3,510.4l-8.2,7.9l-7.5-7.9H493.3z M568.6,519.1l-9.7,9.9l-9.1-9l9.2-9.2L568.6,519.1z M548.3,518.5l-8.1-8.1
				h16.2L548.3,518.5z M546.9,519.9l-9.1,9.1l-9.3-9.1l9.2-9L546.9,519.9z M527.1,518.4l-8.2-8h16.3L527.1,518.4z M525.6,519.9
				l-9.3,9.1l-9-9.2l9-9L525.6,519.9z M505.9,518.3l-7.7-7.9h15.7L505.9,518.3z M504.5,519.7l-9.3,9.2l-8.6-9.1l9.3-9L504.5,519.7z
				 M485.1,521.2l7.7,8.2h-16.1L485.1,521.2z M505.9,521.2l8,8.2h-16.2L505.9,521.2z M527.1,521.3l8.3,8.1h-16.5L527.1,521.3z
				 M548.3,521.4l8.1,8h-16.1L548.3,521.4z M570.2,520.4l10.5,9h-19.3L570.2,520.4z M589.8,519.6l-3.8-2.2l8.9-4.9L589.8,519.6z
				 M594.4,510.4l-10.5,5.8l-10-5.8H594.4z M572.8,508.4l11.2-10.2l11.7,10.2H572.8z M585.5,496.8l8.2-7.5l3.2,17.4L585.5,496.8z
				 M583.9,495.4l-8.6-7.5l8.6-8.8l8.9,8.2L583.9,495.4z M585.4,477.6l5.2-5.3l2.2,12.2L585.4,477.6z M583.9,476.2l-5.7-5.3l6-6.8
				l5.6,6L583.9,476.2z M585.5,462.6l2.7-3.1l1.3,7.4L585.5,462.6z M587.8,457l-3.7,4.1l-3.9-4.2l0.6-3.3h6.4L587.8,457z
				 M579.8,459.5l3,3.2l-4.4,5L579.8,459.5z M577.4,473.1l5,4.6l-7,7.2L577.4,473.1z M574.5,489.9l7.9,6.9l-10.8,9.8L574.5,489.9z
				 M581.8,517.4l-4.1,2.2l-4.6-7.3L581.8,517.4z M583.9,518.6l4.7,2.7l-5.2,7.3l-4.6-7.2L583.9,518.6z M593.2,531.5l-9.1,8.7
				l-9.2-8.7H593.2z M582.6,541.5l-9.3,8.8v-17.5L582.6,541.5z M573.4,562.1v-7.7l7.9,3.9L573.4,562.1z M583.7,559.4l10,4.9l-9,5.3
				l-10.1-5.9L583.7,559.4z M573.4,565.5l9.2,5.4l-9.2,5.5V565.5z M584.7,572l9.4,5.5l-10.3,9.7l-9.7-8.9L584.7,572z M586.7,570.8
				l8.1-4.8v9.5L586.7,570.8z M594.8,562.6l-8.7-4.3l8.7-4.2V562.6z M583.7,557.2l-9.6-4.7l10-9.5l9.9,9.3L583.7,557.2z
				 M573.4,580.4l8.9,8.2l-8.9,8.4V580.4z M583.8,590l10.5,9.6l-10,9.7l-10.5-9.9L583.8,590z M582.9,610.8l-9.5,9.2v-18.1
				L582.9,610.8z M584.4,612.2l10,9.4l-10.5,10.7l-10.1-10L584.4,612.2z M582.5,633.8l-9.1,9.3v-18.3L582.5,633.8z M583.9,635.2
				l10.4,10.3l-10.3,9.5l-10.2-9.5L583.9,635.2z M582.5,656.5l-9.1,8.5v-17L582.5,656.5z M584,657.9l10.3,9.6l-10.3,10.1l-10.2-10.3
				L584,657.9z M582.6,679.1l-9.2,9v-18.3L582.6,679.1z M584,680.5l10.3,10.4l-10.2,9.8l-10.4-10.2L584,680.5z M582.7,702.2l-9.3,9
				V693L582.7,702.2z M584.2,703.6l10.1,10l-10.2,9.2l-10.2-9.2L584.2,703.6z M582.6,724.2l-9.2,8.2V716L582.6,724.2z M584.1,725.6
				l10.2,9.2l-10.2,10.6l-10.3-10.6L584.1,725.6z M573.4,737.3l9.3,9.6l-9.3,9.6V737.3z M584.1,748.3l10.3,10.6l-10.2,9.8l-10.3-9.8
				L584.1,748.3z M582.6,770.2l-9.2,8.9v-17.7L582.6,770.2z M584.1,771.6l10.2,9.7L584,791.8l-10.2-10.3L584.1,771.6z M582.6,793.3
				l-9.2,9.3V784L582.6,793.3z M584,794.7l10.3,10.4l-10.3,10.4l-10.3-10.4L584,794.7z M573.4,807.6l9.3,9.4l-9.3,9.4V807.6z
				 M584.1,818.5l9.3,9.4h-18.5L584.1,818.5z M585.5,817l9.3-9.4v18.8L585.5,817z M585.5,793.3l9.3-9.4v18.8L585.5,793.3z
				 M585.6,770.2l9.2-8.8v17.5L585.6,770.2z M585.5,746.9l9.3-9.6v19.2L585.5,746.9z M594.8,732.4l-9.2-8.2l9.2-8.2V732.4z
				 M585.7,702.2l9.1-8.8v17.8L585.7,702.2z M585.5,679.1l9.3-9.1v18.5L585.5,679.1z M585.5,656.5l9.2-8.6v17.2L585.5,656.5z
				 M585.3,633.8l9.4-9.7v19L585.3,633.8z M585.8,610.7l9-8.7v17.1L585.8,610.7z M585.3,588.6l9.4-8.9v17.6L585.3,588.6z
				 M585.6,541.5l9.2-8.7v17.3L585.6,541.5z M586.3,529.4l12-9.5l9.6,9.5H586.3z M609.9,510.7l9.5,9.2l-9,9l-10.4-10.4L609.9,510.7z
				 M691.3,510.4l-7.7,8l-7.7-8H691.3z M738.3,510.4H755l-8.3,8L738.3,510.4z M745.3,519.8l-9.6,9.2l-8.7-9l8.7-9.1L745.3,519.8z
				 M725.6,518.5l-7.7-8.1h15.4L725.6,518.5z M724.2,519.9l-8.6,9l-9.5-9.1l9.3-9.1L724.2,519.9z M704.7,518.5l-8.4-8.1H713
				L704.7,518.5z M703.2,519.9l-9.3,9.1l-8.9-9.1l8.8-9L703.2,519.9z M682.1,519.8l-8.9,9.1l-9.1-9l9.3-9.1L682.1,519.8z
				 M662.6,518.5l-8.2-8.1h16.5L662.6,518.5z M661.2,520l-9.1,9l-8.9-9l8.7-9.1L661.2,520z M641.8,518.5l-7.9-8.1h15.6L641.8,518.5z
				 M640.3,519.9l-8.7,9l-9.4-9l9.1-9.1L640.3,519.9z M620.8,518.5l-8.4-8.1h16.5L620.8,518.5z M620.9,521.4l8.3,8h-16.3
				L620.9,521.4z M641.8,521.4l7.8,8h-15.5L641.8,521.4z M662.6,521.4l8.1,8h-16.2L662.6,521.4z M683.5,521.3l7.9,8.1h-15.8
				L683.5,521.3z M704.7,521.3l8.4,8.1h-16.7L704.7,521.3z M725.6,521.4l7.7,8H718L725.6,521.4z M746.8,521.2l8.8,8.2h-17.3
				L746.8,521.2z M748.2,519.8l9.4-9.1l10.3,7.6l-9.9,10.7L748.2,519.8z M595.5,453.6l84.3,54.8h-69.9c0,0,0,0,0,0c0,0-0.1,0-0.1,0
				c-0.1,0-0.2,0-0.3,0.1c0,0-0.1,0-0.1,0.1c-0.1,0-0.1,0-0.2,0.1l-20.9,16.6l10.8-15.2c0,0,0,0,0,0c0,0,0.1-0.1,0.1-0.1
				c0,0,0,0,0-0.1c0,0,0-0.1,0-0.1c0,0,0,0,0-0.1c0,0,0-0.1,0-0.1c0,0,0-0.1,0-0.1c0,0,0,0,0,0c0,0,0,0,0,0c0,0,0-0.1,0-0.1
				c0,0,0,0,0,0l-10.1-55.6H595.5z M583.9,435.6l2.9,16h-5.7L583.9,435.6z M573.2,453.6h5.5l-9.6,55.6c0,0,0,0,0,0c0,0,0,0.1,0,0.1
				c0,0,0,0,0,0c0,0,0,0,0,0c0,0,0,0,0,0.1c0,0,0,0,0,0c0,0.1,0,0.1,0,0.2c0,0.1,0,0.1,0.1,0.2c0,0,0,0.1,0,0.1l0,0c0,0,0,0,0,0
				l9.6,15.3l-19.3-16.6c-0.1-0.1-0.1-0.1-0.2-0.1c0,0-0.1,0-0.1-0.1c-0.1,0-0.2-0.1-0.4-0.1h-70.4
				C495.3,504.2,514.9,491.6,573.2,453.6z M463.8,521.8l7.8,7.6h-15.7L463.8,521.8z M760.5,529.4l9.2-9.9l13.6,9.9H760.5z"/>
			<rect x="564.4" y="540.8" class="st11" width="36.8" height="38.2"/>
			<rect x="584.2" y="547.4" class="st21" width="16.9" height="16"/>
			<path class="st5" d="M657.8,531.5v5.9h30.6v-5.9H657.8z M662.5,618.9h5v2.6h11.2v-2.6h5v-2.6h-21.1V618.9z"/>
			<path class="st15" d="M664.4,616.2h1v-78.9h-1V616.2z M680.7,537.4v78.9h1v-78.9H680.7z"/>
			<path class="st22" d="M658.8,642v28.5h28.5V642H658.8z M679.7,662.9h-13.2v-13.2h13.2V662.9z"/>
			<polygon class="st15" points="661.6,642 661.5,642 673.1,625.8 684.7,642 684.6,642 686,642 673.1,624 660.2,642 			"/>
			<rect x="672" y="621.5" width="2.1" height="5"/>
		</g>
		<g id="edificio">
			<polygon class="st23" points="566.7,658.5 566.7,633.7 522.4,633.7 478.1,643.8 478.1,658.5 464.6,658.5 464.6,828.9 
				580.2,828.9 580.2,658.5 			"/>
			<rect x="478.1" y="643.8" class="st24" width="48.7" height="14.7"/>
			<rect x="464.6" y="658.5" class="st25" width="48.7" height="170.4"/>
			<path class="st26" d="M464.6,676.9V687h115.6v-10.1H464.6z M464.6,704.6h115.6v-10.1H464.6V704.6z M464.6,722.2h115.6v-10.1
				H464.6V722.2z M464.6,739.8h115.6v-10.1H464.6V739.8z M464.6,757.4h115.6v-10.1H464.6V757.4z M464.6,775h115.6v-10.1H464.6V775z
				 M464.6,792.6h115.6v-10.1H464.6V792.6z M464.6,810.2h115.6v-10.1H464.6V810.2z"/>
		</g>
		<g>
			<rect x="647.1" y="693.1" class="st27" width="170.1" height="14.4"/>
			<path class="st28" d="M669.2,693.1h23.1v-7.8h-23.1V693.1z M720.6,693.1h23.1v-7.8h-23.1V693.1z M772.1,685.3v7.8h23.1v-7.8
				H772.1z"/>
			<rect x="652.1" y="707.5" class="st29" width="160.1" height="121.2"/>
			<path class="st30" d="M697.6,744.4h31.3v-29.1h-31.3V744.4z M659.7,744.4H691v-29.1h-31.3V744.4z M735.5,744.4h31.3v-29.1h-31.3
				V744.4z M773.3,715.3v29.1h31.3v-29.1H773.3z M735.5,781.3h31.3v-29.1h-31.3V781.3z M659.7,781.3H691v-29.1h-31.3V781.3z
				 M697.6,781.3h31.3v-29.1h-31.3V781.3z M773.3,781.3h31.3v-29.1h-31.3V781.3z M697.6,818.3h31.3v-29.1h-31.3V818.3z M659.7,818.3
				H691v-29.1h-31.3V818.3z M735.5,818.3h31.3v-29.1h-31.3V818.3z M773.3,818.3h31.3v-29.1h-31.3V818.3z"/>
			<path class="st31" d="M706.6,744.4h13.6v-20.7h-13.6V744.4z M669.1,744.4h13.6v-20.7h-13.6V744.4z M744,744.4h13.6v-20.7H744
				V744.4z M781.7,723.7v20.7h13.6v-20.7H781.7z M706.6,781.3h13.6v-20.7h-13.6V781.3z M669.1,781.3h13.6v-20.7h-13.6V781.3z
				 M744,781.3h13.6v-20.7H744V781.3z M781.7,781.3h13.6v-20.7h-13.6V781.3z M669.1,818.3h13.6v-20.7h-13.6V818.3z M706.6,818.3
				h13.6v-20.7h-13.6V818.3z M744,818.3h13.6v-20.7H744V818.3z M781.7,818.3h13.6v-20.7h-13.6V818.3z"/>
			<rect x="640.2" y="801.9" class="st28" width="139.8" height="26.9"/>
			<path class="st32" d="M640.2,828.8h1.7v-26.9h-1.7V828.8z M643.7,828.8h1.7v-26.9h-1.7V828.8z M654.1,828.8h1.7v-26.9h-1.7V828.8
				z M657.5,828.8h1.7v-26.9h-1.7V828.8z M647.1,828.8h1.7v-26.9h-1.7V828.8z M650.6,828.8h1.7v-26.9h-1.7V828.8z M661,828.8h1.7
				v-26.9H661V828.8z M664.4,828.8h1.7v-26.9h-1.7V828.8z M674.8,828.8h1.7v-26.9h-1.7V828.8z M678.3,828.8h1.7v-26.9h-1.7V828.8z
				 M667.9,828.8h1.7v-26.9h-1.7V828.8z M671.4,828.8h1.7v-26.9h-1.7V828.8z M681.7,828.8h1.7v-26.9h-1.7V828.8z M685.2,828.8h1.7
				v-26.9h-1.7V828.8z M695.6,828.8h1.7v-26.9h-1.7V828.8z M699,828.8h1.7v-26.9H699V828.8z M688.7,828.8h1.7v-26.9h-1.7V828.8z
				 M692.1,828.8h1.7v-26.9h-1.7V828.8z M702.5,828.8h1.7v-26.9h-1.7V828.8z M706,828.8h1.7v-26.9H706V828.8z M716.3,828.8h1.7
				v-26.9h-1.7V828.8z M719.8,828.8h1.7v-26.9h-1.7V828.8z M709.4,828.8h1.7v-26.9h-1.7V828.8z M712.9,828.8h1.7v-26.9h-1.7V828.8z
				 M723.3,828.8h1.7v-26.9h-1.7V828.8z M726.7,828.8h1.7v-26.9h-1.7V828.8z M737.1,828.8h1.7v-26.9h-1.7V828.8z M740.6,828.8h1.7
				v-26.9h-1.7V828.8z M730.2,828.8h1.7v-26.9h-1.7V828.8z M733.6,828.8h1.7v-26.9h-1.7V828.8z M744,828.8h1.7v-26.9H744V828.8z
				 M747.5,828.8h1.7v-26.9h-1.7V828.8z M757.9,828.8h1.7v-26.9h-1.7V828.8z M761.3,828.8h1.7v-26.9h-1.7V828.8z M750.9,828.8h1.7
				v-26.9h-1.7V828.8z M754.4,828.8h1.7v-26.9h-1.7V828.8z M764.8,828.8h1.7v-26.9h-1.7V828.8z M768.2,828.8h1.7v-26.9h-1.7V828.8z
				 M778.6,801.9v26.9h1.7v-26.9H778.6z M771.7,828.8h1.7v-26.9h-1.7V828.8z M775.2,828.8h1.7v-26.9h-1.7V828.8z"/>
			<path class="st33" d="M641.9,828.8h1.7v-26.9h-1.7V828.8z M645.4,828.8h1.7v-26.9h-1.7V828.8z M655.8,828.8h1.7v-26.9h-1.7V828.8
				z M659.2,828.8h1.7v-26.9h-1.7V828.8z M648.9,828.8h1.7v-26.9h-1.7V828.8z M652.3,828.8h1.7v-26.9h-1.7V828.8z M662.7,828.8h1.7
				v-26.9h-1.7V828.8z M666.2,828.8h1.7v-26.9h-1.7V828.8z M676.5,828.8h1.7v-26.9h-1.7V828.8z M680,828.8h1.7v-26.9H680V828.8z
				 M669.6,828.8h1.7v-26.9h-1.7V828.8z M673.1,828.8h1.7v-26.9h-1.7V828.8z M683.5,828.8h1.7v-26.9h-1.7V828.8z M686.9,828.8h1.7
				v-26.9h-1.7V828.8z M697.3,828.8h1.7v-26.9h-1.7V828.8z M700.8,828.8h1.7v-26.9h-1.7V828.8z M690.4,828.8h1.7v-26.9h-1.7V828.8z
				 M693.8,828.8h1.7v-26.9h-1.7V828.8z M704.2,828.8h1.7v-26.9h-1.7V828.8z M707.7,828.8h1.7v-26.9h-1.7V828.8z M718.1,828.8h1.7
				v-26.9h-1.7V828.8z M721.5,828.8h1.7v-26.9h-1.7V828.8z M711.1,828.8h1.7v-26.9h-1.7V828.8z M714.6,828.8h1.7v-26.9h-1.7V828.8z
				 M725,828.8h1.7v-26.9H725V828.8z M728.5,828.8h1.7v-26.9h-1.7V828.8z M738.8,828.8h1.7v-26.9h-1.7V828.8z M742.3,828.8h1.7
				v-26.9h-1.7V828.8z M731.9,828.8h1.7v-26.9h-1.7V828.8z M735.4,828.8h1.7v-26.9h-1.7V828.8z M745.8,828.8h1.7v-26.9h-1.7V828.8z
				 M749.2,828.8h1.7v-26.9h-1.7V828.8z M759.6,828.8h1.7v-26.9h-1.7V828.8z M763.1,828.8h1.7v-26.9h-1.7V828.8z M752.7,828.8h1.7
				v-26.9h-1.7V828.8z M756.1,828.8h1.7v-26.9h-1.7V828.8z M766.5,828.8h1.7v-26.9h-1.7V828.8z M770,828.8h1.7v-26.9H770V828.8z
				 M773.4,828.8h1.7v-26.9h-1.7V828.8z M776.9,801.9v26.9h1.7v-26.9H776.9z"/>
			<path class="st15" d="M779.7,801v28.1H840V801H779.7z M784.4,801.5h1.6v27.1h-1.6V801.5z M783.9,828.6h-1.6v-27.1h1.6V828.6z
				 M786.6,801.5h1.6v27.1h-1.6V801.5z M788.7,801.5h1.6v27.1h-1.6V801.5z M790.9,801.5h1.6v27.1h-1.6V801.5z M793,801.5h1.6v27.1
				H793V801.5z M795.1,801.5h1.6v27.1h-1.6V801.5z M797.3,801.5h1.6v27.1h-1.6V801.5z M799.4,801.5h1.6v27.1h-1.6V801.5z
				 M801.6,801.5h1.6v27.1h-1.6V801.5z M803.7,801.5h1.6v27.1h-1.6V801.5z M805.8,801.5h1.6v27.1h-1.6V801.5z M808,801.5h1.6v27.1
				H808V801.5z M810.1,801.5h1.6v27.1h-1.6V801.5z M812.3,801.5h1.6v27.1h-1.6V801.5z M814.4,801.5h1.6v27.1h-1.6V801.5z
				 M816.5,801.5h1.6v27.1h-1.6V801.5z M818.7,801.5h1.6v27.1h-1.6V801.5z M820.8,801.5h1.6v27.1h-1.6V801.5z M823,801.5h1.6v27.1
				H823V801.5z M825.1,801.5h1.6v27.1h-1.6V801.5z M827.2,801.5h1.6v27.1h-1.6V801.5z M829.4,801.5h1.6v27.1h-1.6V801.5z
				 M831.5,801.5h1.6v27.1h-1.6V801.5z M833.7,801.5h1.6v27.1h-1.6V801.5z M835.8,801.5h1.6v27.1h-1.6V801.5z M780.2,801.5h1.6v27.1
				h-1.6V801.5z M839.5,828.6h-1.6v-27.1h1.6V828.6z"/>
		</g>
		<g id="chimenea">
			<polygon class="st34" points="992,828.8 939.2,828.8 952.6,511.8 978.7,511.8 			"/>
			<path class="st11" d="M982.6,605h-34l-0.4,10.4h34.9L982.6,605z M984.4,646.4h-37.5l-0.4,10.4h38.3L984.4,646.4z M983.5,625.7
				h-35.7l-0.4,10.4h36.6L983.5,625.7z M979.1,522.2h-27l-0.4,10.4h27.9L979.1,522.2z M981.8,584.3h-32.2l-0.4,10.4h33.1
				L981.8,584.3z M980,542.9h-28.8l-0.4,10.4h29.6L980,542.9z M980.9,563.6h-30.5l-0.4,10.4h31.4L980.9,563.6z"/>
			<polygon class="st35" points="992,828.8 978.7,511.8 969.5,511.8 975.7,660.2 946.3,660.2 946,668 976,668 982.8,828.8 			"/>
			<path class="st34" d="M984.8,660.2h-38.3c-0.9,0-1.7-0.7-1.7-1.7v-0.1c0-0.9,0.7-1.7,1.7-1.7h38.3c0.9,0,1.7,0.7,1.7,1.7v0.1
				C986.5,659.5,985.7,660.2,984.8,660.2z"/>
			<path class="st4" d="M1169.9,436.1c0,0,1-4.6,7-3.9c6.6,0.9,6.3,9.4-1.3,10.5c-7.1,1-1.5,9.3-8.6,10.6c-7.3,1.3-5.3-4.2-11.1-3
				c-4.3,0.9-2.3,5.4-9,5.9c-7.4,0.6-7.2-5.4-12.7-8c-5.5-2.6-3.5,2.6-13.6,3.5c0,0-0.3,8.8-12.7,8.4c-12.4-0.4-10.4-11.6-10.4-11.6
				c-2.6-4-7.5-3.1-8.2,1.3c-0.6,3.6-1.2,7.5-9.1,9.7c-6.7,1.9-10-4.9-11.7,2.2c-1.6,6.6-2.9,13-15,14.3
				c-10.4,1.1-17.1-6.5-17.3-13.3c-0.2-6.2-3-8.3-7.1-6.8c-4.6,1.7-2.3,8.1-9.5,10.4c-6.8,2.2-10.1-1.2-10.1-1.2s4.5,8.8-3.6,14
				c-8.1,5.2-14.9-2.2-14.9-2.2s-2.6,12.4-13,13.3c0,0,6.1,3.5,4.6,11c-1.3,6.6-7.7,4.8-7.5,10.4H958c0,0-6.6-8.4,1.7-12.4
				c0,0-2.6-9.2,7.2-12.4c0,0-9.8-3.5-8.4-15.3s11.6-13.9,11.6-13.9s-6.9-15.7,5.3-23.4c12.9-8.1,22.1,2,22.1,2s1.2-9.2,12.1-9.5
				c0,0-7.5-5.5-1.7-14.2c4.3-6.5,16.8-5.3,17.3,2c0,0,13-7.1,20.2,5.2c0,0,10.1,2,6.6-5.5s-1.7-13.9,5.2-18.5
				c6.9-4.6,22.7-2.1,20.4,14.6c0,0,3.8,4.2,8.5-0.6c3.6-3.5,11-6.2,16.2,0.4c3.4,4.3,3.5,11-3.5,14.4c0,0,8.1,2.3,8.1,8.4
				c0,0,1.7-15.7,19.3-16.2c16.3-0.5,19.1,13.3,19.1,13.3s9.8-4.4,13.6,6.6C1159,437,1163.4,432,1169.9,436.1z"/>
		</g>
		<g>
			<rect x="926.6" y="780.7" class="st0" width="83.9" height="48.1"/>
			<rect x="957.7" y="748.9" class="st36" width="52.8" height="31.9"/>
			<rect x="926.6" y="741.5" class="st33" width="83.9" height="7.4"/>
			<path class="st31" d="M965.5,769.2h16.7v-16.7h-16.7V769.2z M985.7,752.5v16.7h16.7v-16.7H985.7z"/>
			<path class="st32" d="M904.9,828.8h1.7v-26.9h-1.7V828.8z M915.3,828.8h1.7v-26.9h-1.7V828.8z M918.8,828.8h1.7v-26.9h-1.7V828.8
				z M908.4,828.8h1.7v-26.9h-1.7V828.8z M911.9,828.8h1.7v-26.9h-1.7V828.8z M922.2,828.8h1.7v-26.9h-1.7V828.8z M925.7,828.8h1.7
				v-26.9h-1.7V828.8z M936.1,828.8h1.7v-26.9h-1.7V828.8z M939.5,828.8h1.7v-26.9h-1.7V828.8z M929.2,828.8h1.7v-26.9h-1.7V828.8z
				 M932.6,828.8h1.7v-26.9h-1.7V828.8z M943,828.8h1.7v-26.9H943V828.8z M946.5,828.8h1.7v-26.9h-1.7V828.8z M956.9,828.8h1.7
				v-26.9h-1.7V828.8z M960.3,828.8h1.7v-26.9h-1.7V828.8z M949.9,828.8h1.7v-26.9h-1.7V828.8z M953.4,828.8h1.7v-26.9h-1.7V828.8z
				 M963.8,828.8h1.7v-26.9h-1.7V828.8z M967.2,828.8h1.7v-26.9h-1.7V828.8z M977.6,828.8h1.7v-26.9h-1.7V828.8z M981.1,828.8h1.7
				v-26.9h-1.7V828.8z M970.7,828.8h1.7v-26.9h-1.7V828.8z M974.2,828.8h1.7v-26.9h-1.7V828.8z M984.5,828.8h1.7v-26.9h-1.7V828.8z
				 M988,828.8h1.7v-26.9H988V828.8z M998.4,828.8h1.7v-26.9h-1.7V828.8z M1001.8,828.8h1.7v-26.9h-1.7V828.8z M991.5,828.8h1.7
				v-26.9h-1.7V828.8z M994.9,828.8h1.7v-26.9h-1.7V828.8z M1005.3,828.8h1.7v-26.9h-1.7V828.8z M1008.8,828.8h1.7v-26.9h-1.7V828.8
				z M1019.1,801.9v26.9h1.7v-26.9H1019.1z M1012.2,828.8h1.7v-26.9h-1.7V828.8z M1015.7,828.8h1.7v-26.9h-1.7V828.8z"/>
			<path class="st33" d="M906.7,828.8h1.7v-26.9h-1.7V828.8z M917.1,828.8h1.7v-26.9h-1.7V828.8z M920.5,828.8h1.7v-26.9h-1.7V828.8
				z M910.1,828.8h1.7v-26.9h-1.7V828.8z M913.6,828.8h1.7v-26.9h-1.7V828.8z M924,828.8h1.7v-26.9H924V828.8z M927.4,828.8h1.7
				v-26.9h-1.7V828.8z M937.8,828.8h1.7v-26.9h-1.7V828.8z M941.3,828.8h1.7v-26.9h-1.7V828.8z M930.9,828.8h1.7v-26.9h-1.7V828.8z
				 M934.4,828.8h1.7v-26.9h-1.7V828.8z M944.7,828.8h1.7v-26.9h-1.7V828.8z M948.2,828.8h1.7v-26.9h-1.7V828.8z M958.6,828.8h1.7
				v-26.9h-1.7V828.8z M962,828.8h1.7v-26.9H962V828.8z M951.7,828.8h1.7v-26.9h-1.7V828.8z M955.1,828.8h1.7v-26.9h-1.7V828.8z
				 M965.5,828.8h1.7v-26.9h-1.7V828.8z M969,828.8h1.7v-26.9H969V828.8z M979.3,828.8h1.7v-26.9h-1.7V828.8z M982.8,828.8h1.7
				v-26.9h-1.7V828.8z M972.4,828.8h1.7v-26.9h-1.7V828.8z M975.9,828.8h1.7v-26.9h-1.7V828.8z M986.3,828.8h1.7v-26.9h-1.7V828.8z
				 M989.7,828.8h1.7v-26.9h-1.7V828.8z M1000.1,828.8h1.7v-26.9h-1.7V828.8z M1003.6,828.8h1.7v-26.9h-1.7V828.8z M993.2,828.8h1.7
				v-26.9h-1.7V828.8z M996.6,828.8h1.7v-26.9h-1.7V828.8z M1007,828.8h1.7v-26.9h-1.7V828.8z M1010.5,828.8h1.7v-26.9h-1.7V828.8z
				 M1014,828.8h1.7v-26.9h-1.7V828.8z M1017.4,801.9v26.9h1.7v-26.9H1017.4z"/>
		</g>
		<g>
			<rect x="1197.9" y="631.4" class="st37" width="103.2" height="197.4"/>
			<rect x="1197.9" y="794.8" class="st38" width="103.2" height="34"/>
			<path class="st31" d="M1245.2,673.9h8.7v-12.4h-8.7V673.9z M1259.5,654.1h8.7v-12.4h-8.7V654.1z M1245.2,654.1h8.7v-12.4h-8.7
				V654.1z M1259.5,673.9h8.7v-12.4h-8.7V673.9z M1216.6,673.9h8.7v-12.4h-8.7V673.9z M1230.9,654.1h8.7v-12.4h-8.7V654.1z
				 M1216.6,654.1h8.7v-12.4h-8.7V654.1z M1202.3,673.9h8.7v-12.4h-8.7V673.9z M1202.3,654.1h8.7v-12.4h-8.7V654.1z M1230.9,673.9
				h8.7v-12.4h-8.7V673.9z M1288.1,673.9h8.7v-12.4h-8.7V673.9z M1273.8,654.1h8.7v-12.4h-8.7V654.1z M1273.8,673.9h8.7v-12.4h-8.7
				V673.9z M1288.1,641.7v12.4h8.7v-12.4H1288.1z M1273.8,714.9h8.7v-12.4h-8.7V714.9z M1288.1,714.9h8.7v-12.4h-8.7V714.9z
				 M1245.2,714.9h8.7v-12.4h-8.7V714.9z M1230.9,714.9h8.7v-12.4h-8.7V714.9z M1202.3,714.9h8.7v-12.4h-8.7V714.9z M1216.6,714.9
				h8.7v-12.4h-8.7V714.9z M1202.3,695.1h8.7v-12.4h-8.7V695.1z M1216.6,695.1h8.7v-12.4h-8.7V695.1z M1288.1,695.1h8.7v-12.4h-8.7
				V695.1z M1230.9,695.1h8.7v-12.4h-8.7V695.1z M1259.5,714.9h8.7v-12.4h-8.7V714.9z M1245.2,695.1h8.7v-12.4h-8.7V695.1z
				 M1273.8,695.1h8.7v-12.4h-8.7V695.1z M1259.5,695.1h8.7v-12.4h-8.7V695.1z M1273.8,755.8h8.7v-12.4h-8.7V755.8z M1202.3,755.8
				h8.7v-12.4h-8.7V755.8z M1288.1,736h8.7v-12.4h-8.7V736z M1245.2,736h8.7v-12.4h-8.7V736z M1273.8,736h8.7v-12.4h-8.7V736z
				 M1216.6,736h8.7v-12.4h-8.7V736z M1216.6,755.8h8.7v-12.4h-8.7V755.8z M1245.2,755.8h8.7v-12.4h-8.7V755.8z M1259.5,736h8.7
				v-12.4h-8.7V736z M1288.1,755.8h8.7v-12.4h-8.7V755.8z M1202.3,736h8.7v-12.4h-8.7V736z M1259.5,755.8h8.7v-12.4h-8.7V755.8z
				 M1230.9,755.8h8.7v-12.4h-8.7V755.8z M1230.9,736h8.7v-12.4h-8.7V736z M1202.3,777h8.7v-12.4h-8.7V777z M1273.8,777h8.7v-12.4
				h-8.7V777z M1288.1,777h8.7v-12.4h-8.7V777z M1259.5,777h8.7v-12.4h-8.7V777z M1245.2,777h8.7v-12.4h-8.7V777z M1230.9,777h8.7
				v-12.4h-8.7V777z M1216.6,777h8.7v-12.4h-8.7V777z"/>
		</g>
		<g>
			<rect x="1020.9" y="743.3" class="st29" width="253.8" height="85.6"/>
			<path class="st31" d="M1046.6,777.5h50.4v-25h-50.4V777.5z M1122.6,777.5h50.4v-25h-50.4V777.5z M1198.5,752.5v25h50.4v-25
				H1198.5z M1046.6,824.4h50.4v-25h-50.4V824.4z M1141.6,828.8h12.3v-18.6h-12.3V828.8z M1198.5,824.4h50.4v-25h-50.4V824.4z"/>
			<rect x="1122.6" y="799.4" class="st10" width="50.4" height="10.8"/>
			<polygon class="st38" points="1091.2,743.3 1059.9,743.3 1065,555.8 1086,555.8 			"/>
			<polygon class="st39" points="1086.4,569.9 1086,555.8 1065,555.8 1064.6,569.9 			"/>
			<rect x="1098.1" y="688.5" class="st34" width="99.6" height="41"/>
			<path class="st31" d="M1100.9,743.3h1.7v-13.8h-1.7V743.3z M1193.1,729.4v13.8h1.7v-13.8H1193.1z M1147,743.3h1.7v-13.8h-1.7
				V743.3z"/>
			<circle class="st5" cx="1147.9" cy="708.7" r="15.4"/>
			<path class="st31" d="M1153.3,698.5h-5.6c-0.6,0-1.1,0.5-1.1,1.1v2.1h-1.2h-0.9v-1.4h-2.4v1.4h-0.9v17.2h13.2v-19.3
				C1154.5,699,1154,698.5,1153.3,698.5z M1147.6,701.7v-2.1c0-0.1,0-0.1,0.1-0.1h5.6c0.1,0,0.1,0,0.1,0.1v2.1H1147.6z"/>
		</g>
		<path class="st40" d="M1309.7,871.5H54.4c-11.4,0-20.6-9.2-20.6-20.6v-1.7c0-11.4,9.2-20.6,20.6-20.6h1255.3
			c11.4,0,20.6,9.2,20.6,20.6v1.7C1330.3,862.3,1321.1,871.5,1309.7,871.5z"/>
		<path class="st41" d="M37.3,838.1h1289.4c-3.8-5.8-10.4-9.6-17.9-9.6H55.2C47.8,828.6,41.2,832.4,37.3,838.1z"/>
		<path class="st42" d="M172.7,871.5c84.3,197.9,280.6,336.6,509.2,336.6s424.9-138.7,509.2-336.6H172.7z"/>
		<path class="st43" d="M1107.1,1009c14.6-17.5,28-35.8,40.4-55h-931c12.3,19.2,25.8,37.5,40.4,55H1107.1z"/>
		<path class="st44" d="M1164.1,926.5H199.9c5.3,9.3,10.8,18.5,16.6,27.5h931C1153.3,945,1158.8,935.8,1164.1,926.5z"/>
		<path class="st45" d="M1164.1,926.5c5.1-9,9.9-18.2,14.5-27.5H185.4c4.6,9.3,9.4,18.5,14.5,27.5H1164.1z"/>
		<path class="st46" d="M1178.6,899c4.4-9,8.7-18.2,12.6-27.5H172.7c4,9.3,8.2,18.5,12.6,27.5H1178.6z"/>
		<path class="st40" d="M1309.7,871.5H54.4c-11.4,0-20.6-9.2-20.6-20.6v-1.7c0-11.4,9.2-20.6,20.6-20.6h1255.3
			c11.4,0,20.6,9.2,20.6,20.6v1.7C1330.3,862.3,1321.1,871.5,1309.7,871.5z"/>
		<path class="st41" d="M37.3,838.1h1289.4c-3.8-5.8-10.4-9.6-17.9-9.6H55.2C47.8,828.6,41.2,832.4,37.3,838.1z"/>
		<g id="cloacas">
			<g>
				<circle class="st47" cx="269.9" cy="855.9" r="10.9"/>
				<path class="st48" d="M263.9,864.5h11.9c0.4,0,0.7,0.3,0.7,0.6l4.4,36.1c0,0,0.9,0.1,2.8,0.5c4.1,1,3.1,5-4.7,5.5
					c-7.8,0.5-10.8,0-16.9-0.1c-6.1,0-12-2.3-12-3.7s0.5-1.8,4.4-2.2c2-0.2,4.5-0.4,4.5-0.4l4.1-35.8
					C263.3,864.8,263.6,864.5,263.9,864.5z"/>
				<path class="st49" d="M254.6,901.3c0,0-9.7,1-6.9,3.7c2.7,2.7,14.6,2.2,14.6,2.2C245.4,906,254.6,901.3,254.6,901.3z
					 M281.6,901.3c0,0,2.6,0.9,2.5,3s-4.9,3-4.9,3s10.5-0.5,10.4-2.9C289.4,901.9,281.6,901.3,281.6,901.3z M271.2,896.3
					c-0.7-0.9-3.3-0.6-6.3,0.7s-4.6-1.3-4.6-1.3s0,1.3,2,2.8s4.2,0.4,6.2-0.1c2.1-0.5,2.4,1.4,3.9,2.6c1.4,1.2,3.3-0.7,3.9-2.2
					c0.6-1.4,2.9-3,2.9-3C278.8,893.6,274.2,900,271.2,896.3z M265.9,872.1c1.7,0.3,1.8-0.8,2.9-0.6c1.1,0.1,1.2,1.3,3.1,1.3
					c1.9,0,4.1-1.8,4.6-2.7c0.5-1-1.5,0.2-2.4,0.4c-0.9,0.2-1.9,0.6-3.4-0.2c-1.4-0.8-2.3-0.2-3.6,0c-1.3,0.3-4-1.2-3.7-0.6
					C263.5,870.1,264.1,871.8,265.9,872.1z"/>
			</g>
			<g>
				<circle class="st47" cx="461.4" cy="855.9" r="10.9"/>
				<path class="st48" d="M455.4,864.5h11.9c0.4,0,0.7,0.3,0.7,0.6l4.4,36.1c0,0,0.9,0.1,2.8,0.5c4.1,1,3.1,5-4.7,5.5
					c-7.8,0.5-10.8,0-16.9-0.1c-6.1,0-12-2.3-12-3.7s0.5-1.8,4.4-2.2c2-0.2,4.5-0.4,4.5-0.4l4.1-35.8
					C454.8,864.8,455.1,864.5,455.4,864.5z"/>
				<path class="st49" d="M446.1,901.3c0,0-9.7,1-6.9,3.7c2.7,2.7,14.6,2.2,14.6,2.2C436.9,906,446.1,901.3,446.1,901.3z
					 M473.1,901.3c0,0,2.6,0.9,2.5,3s-4.9,3-4.9,3s10.5-0.5,10.4-2.9C480.9,901.9,473.1,901.3,473.1,901.3z M462.7,896.3
					c-0.7-0.9-3.3-0.6-6.3,0.7s-4.6-1.3-4.6-1.3s0,1.3,2,2.8s4.2,0.4,6.2-0.1c2.1-0.5,2.4,1.4,3.9,2.6c1.4,1.2,3.3-0.7,3.9-2.2
					c0.6-1.4,2.9-3,2.9-3C470.3,893.6,465.7,900,462.7,896.3z M457.3,872.1c1.7,0.3,1.8-0.8,2.9-0.6c1.1,0.1,1.2,1.3,3.1,1.3
					c1.9,0,4.1-1.8,4.6-2.7c0.5-1-1.5,0.2-2.4,0.4s-1.9,0.6-3.4-0.2c-1.4-0.8-2.3-0.2-3.6,0s-4-1.2-3.7-0.6
					C455,870.1,455.6,871.8,457.3,872.1z"/>
			</g>
			<g>
				<circle class="st47" cx="606.4" cy="855.9" r="10.9"/>
				<path class="st48" d="M600.5,864.5h11.9c0.4,0,0.7,0.3,0.7,0.6l4.4,36.1c0,0,0.9,0.1,2.8,0.5c4.1,1,3.1,5-4.7,5.5
					c-7.8,0.5-10.8,0-16.9-0.1c-6.1,0-12-2.3-12-3.7s0.5-1.8,4.4-2.2c2-0.2,4.5-0.4,4.5-0.4l4.1-35.8
					C599.8,864.8,600.1,864.5,600.5,864.5z"/>
				<path class="st49" d="M591.1,901.3c0,0-9.7,1-6.9,3.7c2.7,2.7,14.6,2.2,14.6,2.2C581.9,906,591.1,901.3,591.1,901.3z
					 M618.1,901.3c0,0,2.6,0.9,2.5,3c-0.1,2.1-4.9,3-4.9,3s10.5-0.5,10.4-2.9C625.9,901.9,618.1,901.3,618.1,901.3z M607.7,896.3
					c-0.7-0.9-3.3-0.6-6.3,0.7s-4.6-1.3-4.6-1.3s0,1.3,2,2.8s4.2,0.4,6.2-0.1c2.1-0.5,2.4,1.4,3.9,2.6c1.4,1.2,3.3-0.7,3.9-2.2
					c0.6-1.4,2.9-3,2.9-3C615.3,893.6,610.7,900,607.7,896.3z M602.4,872.1c1.7,0.3,1.8-0.8,2.9-0.6c1.1,0.1,1.2,1.3,3.1,1.3
					c1.9,0,4.1-1.8,4.6-2.7c0.5-1-1.5,0.2-2.4,0.4c-0.9,0.2-1.9,0.6-3.4-0.2c-1.4-0.8-2.3-0.2-3.6,0s-4-1.2-3.7-0.6
					C600,870.1,600.7,871.8,602.4,872.1z"/>
			</g>
			<g>
				<circle class="st47" cx="759.8" cy="855.9" r="10.9"/>
				<path class="st48" d="M753.9,864.5h11.9c0.4,0,0.7,0.3,0.7,0.6l4.4,36.1c0,0,0.9,0.1,2.8,0.5c4.1,1,3.1,5-4.7,5.5
					c-7.8,0.5-10.8,0-16.9-0.1c-6.1,0-12-2.3-12-3.7s0.5-1.8,4.4-2.2c2-0.2,4.5-0.4,4.5-0.4l4.1-35.8
					C753.2,864.8,753.5,864.5,753.9,864.5z"/>
				<path class="st49" d="M744.5,901.3c0,0-9.7,1-6.9,3.7c2.7,2.7,14.6,2.2,14.6,2.2C735.3,906,744.5,901.3,744.5,901.3z
					 M771.5,901.3c0,0,2.6,0.9,2.5,3c-0.1,2.1-4.9,3-4.9,3s10.5-0.5,10.4-2.9C779.3,901.9,771.5,901.3,771.5,901.3z M761.1,896.3
					c-0.7-0.9-3.3-0.6-6.3,0.7s-4.6-1.3-4.6-1.3s0,1.3,2,2.8s4.2,0.4,6.2-0.1c2.1-0.5,2.4,1.4,3.9,2.6c1.4,1.2,3.3-0.7,3.9-2.2
					c0.6-1.4,2.9-3,2.9-3C768.7,893.6,764.2,900,761.1,896.3z M755.8,872.1c1.7,0.3,1.8-0.8,2.9-0.6c1.1,0.1,1.2,1.3,3.1,1.3
					c1.9,0,4.1-1.8,4.6-2.7c0.5-1-1.5,0.2-2.4,0.4c-0.9,0.2-1.9,0.6-3.4-0.2c-1.4-0.8-2.3-0.2-3.6,0s-4-1.2-3.7-0.6
					C753.4,870.1,754.1,871.8,755.8,872.1z"/>
			</g>
			<g>
				<circle class="st47" cx="904.8" cy="855.9" r="10.9"/>
				<path class="st48" d="M898.8,864.5h11.9c0.4,0,0.7,0.3,0.7,0.6l4.4,36.1c0,0,0.9,0.1,2.8,0.5c4.1,1,3.1,5-4.7,5.5
					c-7.8,0.5-10.8,0-16.9-0.1c-6.1,0-12-2.3-12-3.7s0.5-1.8,4.4-2.2c2-0.2,4.5-0.4,4.5-0.4l4.1-35.8
					C898.2,864.8,898.5,864.5,898.8,864.5z"/>
				<path class="st49" d="M889.5,901.3c0,0-9.7,1-6.9,3.7c2.7,2.7,14.6,2.2,14.6,2.2C880.3,906,889.5,901.3,889.5,901.3z
					 M916.5,901.3c0,0,2.6,0.9,2.5,3c-0.1,2.1-4.9,3-4.9,3s10.5-0.5,10.4-2.9C924.3,901.9,916.5,901.3,916.5,901.3z M906.1,896.3
					c-0.7-0.9-3.3-0.6-6.3,0.7s-4.6-1.3-4.6-1.3s0,1.3,2,2.8s4.2,0.4,6.2-0.1c2.1-0.5,2.4,1.4,3.9,2.6c1.4,1.2,3.3-0.7,3.9-2.2
					c0.6-1.4,2.9-3,2.9-3C913.7,893.6,909.1,900,906.1,896.3z M900.8,872.1c1.7,0.3,1.8-0.8,2.9-0.6c1.1,0.1,1.2,1.3,3.1,1.3
					c1.9,0,4.1-1.8,4.6-2.7c0.5-1-1.5,0.2-2.4,0.4c-0.9,0.2-1.9,0.6-3.4-0.2c-1.4-0.8-2.3-0.2-3.6,0s-4-1.2-3.7-0.6
					C898.4,870.1,899,871.8,900.8,872.1z"/>
			</g>
			<g>
				<circle class="st47" cx="1096.6" cy="855.9" r="10.9"/>
				<path class="st48" d="M1090.7,864.5h11.9c0.4,0,0.7,0.3,0.7,0.6l4.4,36.1c0,0,0.9,0.1,2.8,0.5c4.1,1,3.1,5-4.7,5.5
					c-7.8,0.5-10.8,0-16.9-0.1c-6.1,0-12-2.3-12-3.7s0.5-1.8,4.4-2.2c2-0.2,4.5-0.4,4.5-0.4l4.1-35.8
					C1090,864.8,1090.3,864.5,1090.7,864.5z"/>
				<path class="st49" d="M1081.4,901.3c0,0-9.7,1-6.9,3.7c2.7,2.7,14.6,2.2,14.6,2.2C1072.2,906,1081.4,901.3,1081.4,901.3z
					 M1108.3,901.3c0,0,2.6,0.9,2.5,3c-0.1,2.1-4.9,3-4.9,3s10.5-0.5,10.4-2.9C1116.1,901.9,1108.3,901.3,1108.3,901.3z M1098,896.3
					c-0.7-0.9-3.3-0.6-6.3,0.7c-3,1.3-4.6-1.3-4.6-1.3s0,1.3,2,2.8s4.2,0.4,6.2-0.1c2.1-0.5,2.4,1.4,3.9,2.6
					c1.4,1.2,3.3-0.7,3.9-2.2c0.6-1.4,2.9-3,2.9-3C1105.6,893.6,1101,900,1098,896.3z M1092.6,872.1c1.7,0.3,1.8-0.8,2.9-0.6
					c1.1,0.1,1.2,1.3,3.1,1.3c1.9,0,4.1-1.8,4.6-2.7c0.5-1-1.5,0.2-2.4,0.4s-1.9,0.6-3.4-0.2c-1.4-0.8-2.3-0.2-3.6,0
					c-1.3,0.3-4-1.2-3.7-0.6C1090.3,870.1,1090.9,871.8,1092.6,872.1z"/>
			</g>
		</g>
	</g>
</g>
</svg>
