<?xml version="1.0" encoding="utf-8"?>
<!-- Generator: Adobe Illustrator 24.1.2, SVG Export Plug-In . SVG Version: 6.00 Build 0)  -->
<svg version="1.1" id="Capa_1" xmlns="http://www.w3.org/2000/svg" xmlns:xlink="http://www.w3.org/1999/xlink" x="0px" y="0px"
	 viewBox="0 0 110.4 105.5" style="enable-background:new 0 0 110.4 105.5;" xml:space="preserve">
<style type="text/css">
	.st0{fill:#949494;}
</style>
<path class="st0" d="M101.6,2.4H8.8C5.6,2.4,3.1,5,3.1,8.2v68.9c0,3.2,2.6,5.8,5.8,5.8h27.9L33.8,100H22.1c-0.8,0-1.5,0.7-1.5,1.5
	s0.7,1.5,1.5,1.5h66.2c0.8,0,1.5-0.7,1.5-1.5s-0.7-1.5-1.5-1.5H75.8L73,82.9h28.6c3.2,0,5.8-2.6,5.8-5.8V8.2
	C107.3,5,104.7,2.4,101.6,2.4z M36.9,100l2.9-17.2h30.2l2.9,17.2H36.9z M104.3,77.1c0,1.5-1.2,2.8-2.8,2.8H8.8
	c-1.5,0-2.8-1.2-2.8-2.8v-6.4h98.2V77.1z M104.3,67.7H6.1V8.2c0-1.5,1.2-2.8,2.8-2.8h92.7c1.5,0,2.8,1.2,2.8,2.8V67.7z M87.1,51.7
	h-5.5V21.9c0-0.8-0.7-1.5-1.5-1.5H31.4v-5.5c0-0.8-0.7-1.5-1.5-1.5s-1.5,0.7-1.5,1.5v5.5h-5.5c-0.8,0-1.5,0.7-1.5,1.5
	s0.7,1.5,1.5,1.5h5.5v29.9c0,0.8,0.7,1.5,1.5,1.5h48.7v5.5c0,0.8,0.7,1.5,1.5,1.5s1.5-0.7,1.5-1.5v-5.5h5.5c0.8,0,1.5-0.7,1.5-1.5
	S87.9,51.7,87.1,51.7z M78.6,51.7H31.4V23.4h47.2V51.7z"/>
</svg>
