<?xml version="1.0" encoding="utf-8"?>
<!-- Generator: Adobe Illustrator 24.1.2, SVG Export Plug-In . SVG Version: 6.00 Build 0)  -->
<svg version="1.1" id="Capa_1" xmlns="http://www.w3.org/2000/svg" xmlns:xlink="http://www.w3.org/1999/xlink" x="0px" y="0px"
	 viewBox="0 0 69.4 60.2" style="enable-background:new 0 0 69.4 60.2;" xml:space="preserve">
<style type="text/css">
	.st0{fill:#B8CC6A;}
</style>
<path class="st0" d="M59.1,7.1h-42c-2.8,0-5,2.2-5,5v1.8h-1.8c-2.8,0-5,2.2-5,5v29.1c0,2.8,2.2,5,5,5h42c2.8,0,5-2.2,5-5v-1.8h1.8
	c2.8,0,5-2.2,5-5V12.1C64.1,9.4,61.9,7.1,59.1,7.1z M54.1,48.1c0,1-0.8,1.8-1.8,1.8h-42c-1,0-1.8-0.8-1.8-1.8V18.9
	c0-1,0.8-1.8,1.8-1.8h1.8v24.1c0,2.8,2.2,5,5,5h37V48.1z M60.9,41.3c0,1-0.8,1.8-1.8,1.8h-42c-1,0-1.8-0.8-1.8-1.8V12.1
	c0-1,0.8-1.8,1.8-1.8h42c1,0,1.8,0.8,1.8,1.8V41.3z M23.5,24.1c3.2,0,5.7-2.6,5.7-5.7s-2.6-5.7-5.7-5.7s-5.7,2.6-5.7,5.7
	S20.3,24.1,23.5,24.1z M23.5,15.9c1.4,0,2.5,1.1,2.5,2.5s-1.1,2.5-2.5,2.5S21,19.8,21,18.4S22.1,15.9,23.5,15.9z M47.4,18.1
	c-0.6-0.6-1.6-0.6-2.3,0L34.8,28.3L31,24.6c-0.6-0.6-1.6-0.6-2.2,0l-9.9,9.5c-0.3,0.3-0.5,0.7-0.5,1.2v2.9c0,0.9,0.7,1.6,1.6,1.6
	h36.2c0.9,0,1.6-0.7,1.6-1.6v-9.3c0-0.4-0.2-0.9-0.5-1.2L47.4,18.1z M54.5,36.6H21.6V36l8.3-7.9l3.9,3.7c0.6,0.6,1.6,0.6,2.3,0
	l10.3-10.2l8.3,8V36.6z"/>
</svg>
