<?xml version="1.0" encoding="utf-8"?>
<!-- Generator: Adobe Illustrator 24.1.2, SVG Export Plug-In . SVG Version: 6.00 Build 0)  -->
<svg version="1.1" id="Capa_1" xmlns="http://www.w3.org/2000/svg" xmlns:xlink="http://www.w3.org/1999/xlink" x="0px" y="0px"
	 viewBox="0 0 42.24 42.24" style="enable-background:new 0 0 42.24 42.24;" xml:space="preserve">
<style type="text/css">
	.st0{fill:#80B754;}
</style>
<path class="st0" d="M20.57,7.84c-3.9,0.18-7.45,2.89-8.84,6.75c-1.77,4.91,1.07,8.43,2.59,10.32c0.25,0.31,0.47,0.58,0.63,0.82
	c0.8,1.17,1.24,2.14,1.46,2.74c0.08,0.22,0.12,0.46,0.12,0.71v4.25l1.73,2.98h5.53l1.73-2.98v-4.25c0-0.25,0.04-0.49,0.12-0.71
	c0.22-0.6,0.65-1.57,1.46-2.74c0.16-0.23,0.38-0.51,0.63-0.82c1.18-1.46,3.15-3.91,3.15-7.22c0-2.72-1.08-5.25-3.05-7.13
	C25.87,8.68,23.29,7.72,20.57,7.84z M22.64,34.41h-3.23l-0.88-1.52h4.98L22.64,34.41z M23.52,29.18v1.71h-4.98v-1.71
	c0-0.02,0-0.04,0-0.06h4.99C23.53,29.14,23.52,29.16,23.52,29.18z M26.18,23.66c-0.29,0.36-0.54,0.67-0.73,0.94
	c-0.67,0.99-1.12,1.85-1.42,2.52h-6.01c-0.3-0.67-0.74-1.54-1.42-2.52c-0.18-0.27-0.44-0.58-0.73-0.94
	c-1.45-1.81-3.65-4.53-2.27-8.39c1.12-3.11,3.95-5.29,7.05-5.43c2.17-0.1,4.23,0.67,5.8,2.17c1.57,1.5,2.43,3.52,2.43,5.68
	C28.89,20.3,27.26,22.32,26.18,23.66z M21.1,11.45c-3.46,0-6.27,2.81-6.27,6.27c0,0.55,0.45,1,1,1s1-0.45,1-1
	c0-2.36,1.92-4.27,4.27-4.27c0.55,0,1-0.45,1-1S21.65,11.45,21.1,11.45z M5.47,9.73l3.66,1.78c0.14,0.07,0.29,0.1,0.44,0.1
	c0.37,0,0.73-0.21,0.9-0.56c0.24-0.5,0.04-1.1-0.46-1.34L6.35,7.93C5.85,7.69,5.26,7.9,5.01,8.39C4.77,8.89,4.98,9.49,5.47,9.73z
	 M8.74,17.73c0-0.55-0.45-1-1-1H4.27c-0.55,0-1,0.45-1,1s0.45,1,1,1h3.47C8.29,18.73,8.74,18.28,8.74,17.73z M9.17,23.82l-3.61,1.78
	c-0.5,0.24-0.7,0.84-0.45,1.34c0.17,0.35,0.53,0.56,0.9,0.56c0.15,0,0.3-0.03,0.44-0.1l3.61-1.78c0.5-0.24,0.7-0.84,0.45-1.34
	C10.27,23.78,9.67,23.58,9.17,23.82z M32.67,11.61c0.15,0,0.3-0.03,0.44-0.1l3.66-1.78c0.5-0.24,0.7-0.84,0.46-1.34
	c-0.24-0.5-0.84-0.7-1.34-0.46l-3.66,1.78c-0.5,0.24-0.7,0.84-0.46,1.34C31.95,11.41,32.3,11.61,32.67,11.61z M37.97,16.73H34.5
	c-0.55,0-1,0.45-1,1s0.45,1,1,1h3.47c0.55,0,1-0.45,1-1S38.52,16.73,37.97,16.73z M36.68,25.61l-3.61-1.78
	c-0.49-0.24-1.09-0.04-1.34,0.45c-0.24,0.5-0.04,1.09,0.45,1.34l3.61,1.78c0.14,0.07,0.29,0.1,0.44,0.1c0.37,0,0.72-0.2,0.9-0.56
	C37.37,26.45,37.17,25.85,36.68,25.61z"/>
</svg>
