<?xml version="1.0" encoding="utf-8"?>
<!-- Generator: Adobe Illustrator 24.1.2, SVG Export Plug-In . SVG Version: 6.00 Build 0)  -->
<svg version="1.1" id="Capa_1" xmlns="http://www.w3.org/2000/svg" xmlns:xlink="http://www.w3.org/1999/xlink" x="0px" y="0px"
	 viewBox="0 0 42.24 42.24" style="enable-background:new 0 0 42.24 42.24;" xml:space="preserve">
<style type="text/css">
	.st0{fill:#80B754;}
</style>
<path class="st0" d="M37.25,18.95l-3.64-2.81v-4.91c0-0.55-0.45-1-1-1s-1,0.45-1,1v3.36l-9.87-7.62c-0.36-0.28-0.86-0.28-1.22,0
	L4.99,18.95c-0.44,0.34-0.52,0.97-0.18,1.4c0.2,0.25,0.49,0.39,0.79,0.39c0.21,0,0.43-0.07,0.61-0.21l2.27-1.75v15.7
	c0,0.55,0.45,1,1,1h8.5c0.55,0,1-0.45,1-1v-7.87h4.28v7.87c0,0.55,0.45,1,1,1h8.34c0.55,0,1-0.45,1-1V18.66l2.42,1.87
	c0.44,0.34,1.07,0.26,1.4-0.18C37.76,19.91,37.68,19.29,37.25,18.95z M31.6,33.48h-6.34v-7.87c0-0.55-0.45-1-1-1h-6.28
	c-0.55,0-1,0.45-1,1v7.87h-6.5V17.24l10.64-8.21l10.48,8.1V33.48z"/>
</svg>
