<?xml version="1.0" encoding="utf-8"?>
<!-- Generator: Adobe Illustrator 24.1.2, SVG Export Plug-In . SVG Version: 6.00 Build 0)  -->
<svg version="1.1" id="Capa_1" focusable="false" xmlns="http://www.w3.org/2000/svg" xmlns:xlink="http://www.w3.org/1999/xlink"
	 x="0px" y="0px" viewBox="0 0 512 512" style="enable-background:new 0 0 512 512;" xml:space="preserve">
<style type="text/css">
	.st0{fill:#61ACF8;}
</style>
<path class="st0" d="M256,8C119,8,8,119.1,8,256c0,137,111,248,248,248s248-111,248-248C504,119.1,393,8,256,8z M256,118
	c23.2,0,42,18.8,42,42s-18.8,42-42,42s-42-18.8-42-42S232.8,118,256,118z M312,372c0,6.6-5.4,12-12,12h-88c-6.6,0-12-5.4-12-12v-24
	c0-6.6,5.4-12,12-12h12v-64h-12c-6.6,0-12-5.4-12-12v-24c0-6.6,5.4-12,12-12h64c6.6,0,12,5.4,12,12v100h12c6.6,0,12,5.4,12,12V372z"
	/>
</svg>
