<?xml version="1.0" encoding="utf-8"?>
<!-- Generator: Adobe Illustrator 24.1.2, SVG Export Plug-In . SVG Version: 6.00 Build 0)  -->
<svg version="1.1" id="Capa_1" xmlns="http://www.w3.org/2000/svg" xmlns:xlink="http://www.w3.org/1999/xlink" x="0px" y="0px"
	 viewBox="0 0 42.24 42.24" style="enable-background:new 0 0 42.24 42.24;" xml:space="preserve">
<style type="text/css">
	.st0{fill:#80B754;}
</style>
<path class="st0" d="M21.12,8.18c3.08,0,5.57,2.49,5.57,5.57s-2.49,5.57-5.57,5.57s-5.57-2.49-5.57-5.57S18.04,8.18,21.12,8.18
	 M26.27,24.87c3.25,0,5.89,2.64,5.89,5.89v2.47c0,0.46-0.37,0.83-0.83,0.83H10.91c-0.46,0-0.83-0.37-0.83-0.83v-2.47
	c0-3.25,2.64-5.89,5.89-5.89h0.07c0.42,0,0.83,0.09,1.22,0.23c1.21,0.43,2.51,0.67,3.87,0.67c1.36,0,2.66-0.24,3.87-0.67
	c0.39-0.14,0.8-0.23,1.22-0.23H26.27 M21.12,6.18c-4.18,0-7.57,3.4-7.57,7.57s3.4,7.57,7.57,7.57s7.57-3.4,7.57-7.57
	S25.29,6.18,21.12,6.18L21.12,6.18z M26.27,22.87h-0.07c-0.61,0-1.25,0.12-1.89,0.34c-1.02,0.36-2.1,0.55-3.2,0.55
	s-2.17-0.18-3.2-0.55c-0.64-0.23-1.28-0.34-1.89-0.34h-0.07c-4.35,0-7.89,3.54-7.89,7.89v2.47c0,1.56,1.27,2.83,2.83,2.83h20.42
	c1.56,0,2.83-1.27,2.83-2.83v-2.47C34.16,26.41,30.62,22.87,26.27,22.87L26.27,22.87z"/>
</svg>
