<?xml version="1.0" encoding="utf-8"?>
<!-- Generator: Adobe Illustrator 24.1.2, SVG Export Plug-In . SVG Version: 6.00 Build 0)  -->
<svg version="1.1" id="Capa_1" xmlns="http://www.w3.org/2000/svg" xmlns:xlink="http://www.w3.org/1999/xlink" x="0px" y="0px"
	 viewBox="0 0 42.24 42.24" style="enable-background:new 0 0 42.24 42.24;" xml:space="preserve">
<style type="text/css">
	.st0{fill:#80B754;}
</style>
<path class="st0" d="M12.12,20.61c-0.99-0.29-2.06-0.14-2.86,0.42C8.51,21.55,8.06,22.36,8,23.3c-0.05,0.83,0.2,1.56,0.73,2.13
	c0.66,0.7,1.7,1.09,2.94,1.09c2.71,0,3.68-1.44,3.68-2.79C15.35,22.35,14.17,21.21,12.12,20.61z M11.67,24.53
	c-0.66,0-1.21-0.17-1.48-0.46c-0.09-0.1-0.22-0.28-0.19-0.63c0.02-0.33,0.16-0.59,0.41-0.77c0.2-0.14,0.45-0.21,0.71-0.21
	c0.14,0,0.29,0.02,0.43,0.06c1.04,0.31,1.8,0.82,1.8,1.21C13.35,24.45,12.18,24.53,11.67,24.53z M32.97,21.03
	c-0.8-0.56-1.87-0.71-2.86-0.42c-2.05,0.61-3.23,1.75-3.23,3.13c0,1.35,0.97,2.79,3.68,2.79c1.24,0,2.28-0.39,2.94-1.09
	c0.53-0.57,0.78-1.3,0.73-2.13C34.17,22.36,33.73,21.55,32.97,21.03z M32.04,24.07c-0.27,0.29-0.82,0.46-1.48,0.46
	c-0.5,0-1.68-0.08-1.68-0.79c0-0.39,0.76-0.9,1.8-1.21c0,0,0,0,0,0c0.14-0.04,0.29-0.06,0.43-0.06c0.26,0,0.51,0.07,0.71,0.21
	c0.25,0.18,0.39,0.43,0.41,0.77C32.26,23.79,32.14,23.97,32.04,24.07z M39.39,16.94c0.29-0.84,0.17-1.7-0.34-2.41
	c-0.55-0.77-1.52-1.27-2.47-1.27h-3.81l-0.58-1.75c-0.81-2.42-3.06-4.05-5.62-4.05h-11.1c-2.55,0-4.81,1.63-5.62,4.05l-0.58,1.75
	H5.66c-0.95,0-1.91,0.5-2.47,1.27c-0.51,0.71-0.63,1.57-0.34,2.41c0.37,1.08,1.03,1.92,1.83,2.42c-0.52,0.84-0.83,1.83-0.83,2.9
	v9.35c0,1.75,1.42,3.17,3.17,3.17h1.43c1.75,0,3.17-1.42,3.17-3.17v-1.19h19v1.19c0,1.75,1.42,3.17,3.17,3.17h1.43
	c1.75,0,3.17-1.42,3.17-3.17v-2.19c0-0.21-0.08-0.39-0.19-0.55v-6.61c0-1.03-0.29-1.99-0.78-2.81C38.28,18.96,39,18.08,39.39,16.94z
	 M11.76,12.14c0.53-1.6,2.03-2.68,3.72-2.68h11.1c1.69,0,3.18,1.08,3.72,2.68l1.53,4.6h-21.6L11.76,12.14z M4.75,16.3
	c-0.08-0.23-0.05-0.42,0.08-0.6c0.18-0.25,0.53-0.44,0.84-0.44h2.95l-0.55,1.65c-0.72,0.18-1.38,0.49-1.96,0.92
	C5.54,17.68,5.02,17.11,4.75,16.3z M9.62,31.61c0,0.64-0.52,1.17-1.17,1.17H7.02c-0.64,0-1.17-0.52-1.17-1.17v-1.19h3.77V31.61z
	 M5.85,28.42v-6.16c0-1.94,1.57-3.51,3.51-3.51h23.32c1.94,0,3.51,1.57,3.51,3.51v6.16H5.85z M36.39,31.61
	c0,0.64-0.52,1.17-1.17,1.17h-1.43c-0.64,0-1.17-0.52-1.17-1.17v-1.19h3.77V31.61z M37.49,16.3c-0.3,0.89-0.89,1.48-1.51,1.55
	c-0.59-0.44-1.26-0.76-2-0.94l-0.55-1.65h3.14c0.31,0,0.66,0.18,0.84,0.44C37.55,15.88,37.57,16.07,37.49,16.3z"/>
</svg>
