<?xml version="1.0" encoding="utf-8"?>
<!-- Generator: Adobe Illustrator 24.1.2, SVG Export Plug-In . SVG Version: 6.00 Build 0)  -->
<svg version="1.1" id="Capa_1" xmlns="http://www.w3.org/2000/svg" xmlns:xlink="http://www.w3.org/1999/xlink" x="0px" y="0px"
	 viewBox="0 0 42.24 42.24" style="enable-background:new 0 0 42.24 42.24;" xml:space="preserve">
<style type="text/css">
	.st0{fill:#80B754;}
</style>
<path class="st0" d="M31.7,9.1c0.31,0,0.58,0.25,0.58,0.58v23.01c0,0.25-0.2,0.45-0.45,0.45H28.9c-0.26,0-0.47-0.22-0.45-0.49
	l0.79-9.26c0.03-0.33-0.15-0.64-0.44-0.81c-2.02-1.17-3.37-3.35-3.37-5.85c0-3.14,2.99-7.12,6.18-7.63C31.63,9.1,31.66,9.1,31.7,9.1
	 M18.89,9.21c0.36,0,0.66,0.27,0.7,0.62l0.71,5.78c0,2.27-1.65,4.16-3.88,4.71l0.66,12.83h-3.9l0.66-12.83
	c-2.23-0.54-3.88-2.43-3.88-4.71l0.71-5.78c0.04-0.35,0.34-0.62,0.7-0.62h0.52c0.23,0,0.42,0.19,0.42,0.42v6.36
	c0,0.33,0.27,0.6,0.6,0.6h0.44c0.32,0,0.58-0.25,0.6-0.57l0.4-6.36c0.02-0.26,0.23-0.46,0.49-0.46h0.62c0.26,0,0.48,0.2,0.49,0.46
	l0.32,6.35c0.02,0.32,0.28,0.57,0.6,0.57h0.44c0.33,0,0.6-0.27,0.6-0.6V9.63c0-0.23,0.19-0.42,0.42-0.42H18.89 M31.7,7.1
	c-0.14,0-0.27,0.01-0.41,0.03c-4.04,0.65-7.86,5.31-7.86,9.6c0,2.87,1.43,5.56,3.76,7.19l-0.73,8.55c-0.06,0.68,0.17,1.36,0.64,1.86
	s1.12,0.79,1.8,0.79h2.93c1.35,0,2.45-1.1,2.45-2.45V9.68C34.28,8.26,33.12,7.1,31.7,7.1L31.7,7.1z M18.89,7.21h-0.52
	c-0.53,0-1.03,0.17-1.43,0.47c-0.41-0.29-0.91-0.47-1.45-0.47h-0.62c-0.56,0-1.08,0.19-1.49,0.5c-0.41-0.31-0.92-0.5-1.47-0.5h-0.52
	c-1.36,0-2.52,1.02-2.68,2.37l-0.71,5.78c-0.01,0.08-0.02,0.16-0.02,0.24c0,2.58,1.5,4.89,3.81,6.06l-0.59,11.37
	c-0.03,0.55,0.17,1.08,0.55,1.48c0.38,0.4,0.9,0.62,1.45,0.62h3.9c0.55,0,1.07-0.23,1.45-0.62c0.38-0.4,0.58-0.93,0.55-1.48
	l-0.59-11.37c2.3-1.17,3.81-3.48,3.81-6.06c0-0.08-0.01-0.16-0.02-0.24l-0.71-5.78C21.4,8.23,20.25,7.21,18.89,7.21L18.89,7.21z"/>
</svg>
