<?xml version="1.0" encoding="utf-8"?>
<!-- Generator: Adobe Illustrator 24.1.2, SVG Export Plug-In . SVG Version: 6.00 Build 0)  -->
<svg version="1.1" id="Capa_1" xmlns="http://www.w3.org/2000/svg" xmlns:xlink="http://www.w3.org/1999/xlink" x="0px" y="0px"
	 viewBox="0 0 687 136.8" style="enable-background:new 0 0 687 136.8;" xml:space="preserve">
<style type="text/css">
	.st0{fill:#D2811C;}
	.st1{fill:#B8CC6A;}
	.st2{fill:#61ACFB;}
	.st3{fill:none;stroke:#949494;stroke-width:7;stroke-linecap:round;stroke-linejoin:round;stroke-miterlimit:10;}
	.st4{fill:#69BC48;}
	.st5{fill:#B77647;}
	.st6{fill:#E2AF8A;}
	.st7{fill:#B7B7B7;}
</style>
<path class="st0" d="M49.8,119.8H30.1c-1.3,0-2.4-1.1-2.4-2.4V87.4c0-0.6,0.2-1.2,0.7-1.6l19.7-20.6c1.5-1.5,4.1-0.5,4.1,1.6v50.6
	C52.2,118.8,51.1,119.8,49.8,119.8z"/>
<path class="st1" d="M87.3,119.8H67.6c-1.3,0-2.4-1.1-2.4-2.4V61.2c0-2.1,2.5-3.2,4-1.7L89,79.2c0.4,0.4,0.7,1,0.7,1.7v36.6
	C89.7,118.8,88.6,119.8,87.3,119.8z"/>
<path class="st2" d="M124.8,119.8h-19.7c-1.3,0-2.4-1.1-2.4-2.4V72.6c0-0.6,0.2-1.2,0.7-1.6l19.7-20.6c1.5-1.5,4.1-0.5,4.1,1.6v65.4
	C127.2,118.8,126.1,119.8,124.8,119.8z"/>
<polyline class="st3" points="24,76.1 61.9,38.8 91.9,67.9 131.6,28.7 "/>
<polyline class="st3" points="115,26.5 133.7,26.5 133.7,45.3 "/>
<path class="st4" d="M355.4,65.8l-4.4,2.7l19.7,9.6l1.9-22.8l-5.2,3.2l-21.1-37.2c-1.2-2.2-3.6-3.6-6.1-3.6s-4.8,1.4-6.1,3.6
	l-16.5,29.1l12.2,6.9L340.2,39L355.4,65.8z M317,80l3.8,2.2l-1.2-21.4l-20.8,8.9l6,3.4l-20.9,37c-1.2,2.2-1.2,4.8,0,7
	c1.3,2.2,3.6,3.5,6,3.5h32.3v-14H302L317,80z M396.6,110.1l-16.8-29.7l-12.2,6.9l10.9,19.3h-30.2l0-5.6l-18,12.6l18,12.6l0-5.6h42.2
	c2.5,0,4.8-1.3,6-3.5C397.8,114.9,397.8,112.3,396.6,110.1z"/>
<path class="st1" d="M658,23.5c-5.7-4.2-26.2,1.4-32.1,10.5c-2.2,3.4-3.2,7.5-2.5,11.3c3.2-4.2,10.4-11.8,22.2-14.3
	c0.8-0.2,1.6,0.4,1.8,1.2s-0.4,1.6-1.2,1.8c-14.7,3.3-23,16.9-23.8,17.9c-1,1.5-1.9,2.9-2.7,4.2c-1-4.4-3.3-8.4-5.5-11.4
	c0,0,0,0,0,0c-3.3-4.8-16.8-23.2-31.9-27c-0.8-0.2-1.3-1-1.1-1.8c0.2-0.8,1-1.3,1.8-1.1c15.1,3.8,28.1,20.4,32.7,26.9
	c2.1-5.6,0.8-12.5-2.8-18.1c-8-12.3-33.7-23.2-41.3-17.7c-4.7,3.4,5,30.1,14.9,39.7c6.9,6.4,17.4,8.2,24.7,2.3c0,0,0.1-0.1,0.1-0.1
	c2.8,4,5.6,9.8,4.5,15.4c-0.2,1,0.4,2,1.4,2.3c0.2,0.1,0.4,0.1,0.6,0.1c0.8,0,1.5-0.4,1.8-1.2c1.3-2.9,4.1-8.1,7.6-12.5c0,0,0,0,0,0
	c5.5,4.4,13.4,3.2,18.4-1.5C653.1,43.5,661.5,26.1,658,23.5z"/>
<path class="st5" d="M639.1,74.1c-2.9,0-5.7,0.7-8.1,2.1c-1-9.1-8.7-16.1-18.1-16.1c-6.3,0-11.9,3.2-15.1,8.1
	c-1.8-1.1-3.9-1.8-6.2-1.8c-6.5,0-11.8,5.3-11.8,11.8c0,3.5,1.5,6.7,4,8.8l-4,12.8l44.4,13.4l10.3-5.6c1.5,0.4,3,0.7,4.6,0.7
	c9.4,0,17.1-7.6,17.1-17.1S648.5,74.1,639.1,74.1z"/>
<path class="st6" d="M663.5,97.2c-1.6-3.6-5.9-5.2-9.5-3.6l-26.8,11.3c0,0-0.6,0.4-2.5,0.9c-1.9,0.5-5-0.5-5-0.5l-28.2-5.4
	c-2-0.5-3.1-2.6-2.6-4.6l0,0c0.5-2,2.6-3.1,4.6-2.6l17.7,3.7c3.8,1.1,7.5,1.3,8.6-2.5c1.1-3.8-1.3-6.4-5.2-7.5l-32.5-9
	c-0.5-0.1-1-0.2-1.4-0.2c-9.9-1.7-15.8-0.1-27,4.4l-23.5-3.4v28.6h13.3l67,18.5c0,0,4.3,1,7.3-0.2c2.3-0.9,42.1-18.4,42.1-18.4
	C663.5,105,665.1,100.8,663.5,97.2z"/>
<path class="st7" d="M273,74.6H159c-1.9,0-3.5,1.6-3.5,3.5s1.6,3.5,3.5,3.5h114c1.9,0,3.5-1.6,3.5-3.5S274.9,74.6,273,74.6z
	 M507.9,74.6h-97c-1.9,0-3.5,1.6-3.5,3.5s1.6,3.5,3.5,3.5h97c1.9,0,3.5-1.6,3.5-3.5S509.8,74.6,507.9,74.6z"/>
</svg>
