<?xml version="1.0" encoding="utf-8"?>
<!-- Generator: Adobe Illustrator 24.1.2, SVG Export Plug-In . SVG Version: 6.00 Build 0)  -->
<svg version="1.1" id="Capa_1" xmlns="http://www.w3.org/2000/svg" xmlns:xlink="http://www.w3.org/1999/xlink" x="0px" y="0px"
	 viewBox="0 0 322.3 129.9" style="enable-background:new 0 0 322.3 129.9;" xml:space="preserve">
<style type="text/css">
	.st0{fill:#F7C148;}
	.st1{fill:#68A6D6;}
	.st2{fill:#367838;}
	.st3{fill:#494949;}
</style>
<path class="st0" d="M76.1,121.2c0,0-10.3-27.7-50.2-26.1c0,0-15-18-15.4-37.9C10.5,57.3,67,59.9,76.1,121.2z"/>
<path class="st1" d="M73.5,121.2c0,0-18-33.7-68.6-19.3C4.9,101.9,27.6,137.2,73.5,121.2z"/>
<path class="st2" d="M41.1,62.7c21.2,9.9,26.2,24.4,26.2,24.4V5.5C40.5,34.8,41.1,62.7,41.1,62.7z M213.6,76.1V59.6
	c0-7.3-3.1-14.2-13.6-14c-10.5,0.2-14.8,4.2-14.8,4.2l2.2,7.5c0,0,1.5-0.9,7.6-2.5c6-1.6,8.5,1.5,8.5,2.8s0,4.2,0,4.2
	c-15.6,0.2-19,5.4-19.8,11.4c-0.8,6,2.7,12.4,10.6,12.4c7,0,10.1-4.2,10.1-4.2s2.5,4.3,7.1,4.3s6.5-2.4,6.5-2.4V79
	C214.3,80.2,213.6,77.7,213.6,76.1z M203.4,76.9c-4.7,4.3-11.2,0.4-9.4-4.7c2-5.4,9.4-4.8,9.4-4.8V76.9z M108.2,60.8
	c5.5-1.2,9.7-5.8,9.7-11.3c0-6.1-5.1-10.6-11.6-11.1l-22.8,0v46.2h22.8c7.1,0,12.8-5.3,12.8-11.9C119.1,66.6,114.3,61.7,108.2,60.8z
	 M95.2,46.7h5.5c3,0,5.5,2.5,5.5,5.5s-2.5,5.5-5.5,5.5h-5.5V46.7z M101.6,75.7c-0.1,0-6.4,0-6.4,0v-11c0,0,6.3,0,6.4,0
	c3,0,5.5,2.5,5.5,5.5S104.7,75.7,101.6,75.7z M139.8,45.6c-13,0-17,10.2-17,20.4c0,10.2,4.8,19.9,16.5,19.9
	c11.7,0,13.7-4.4,13.7-4.4l-2.7-6.1c0,0-4,2.3-9.5,2.3c-8.1,0-7-9.1-7-9.1H154c0,0,0.2-4.6,0-8.6C153.8,56,151.4,45.6,139.8,45.6z
	 M144.5,61.7H134c0,0,0-1.3,0-2c0-1.7,0.3-5.8,5.2-5.8c4.5,0,5.2,3.7,5.2,5.5S144.5,61.7,144.5,61.7z M171.3,73.5l0-19.9h8.1v-7.2
	h-8.1l0-9.9h-4l-10.9,13.4v4h4.6c0,0,0,13.4,0,21c0,7.6,4.4,11,10.3,11s9.1-1.8,9.1-1.8v-6.2c0,0-1.5,0.5-5.3,0.5
	S171.3,75.6,171.3,73.5z"/>
<path class="st3" d="M86.2,103.1L86.2,103.1c0.7-0.2,1.2-0.9,1.2-1.9c0-1.6-1.1-2.2-2.5-2.2h-2.7v8.4h2.6c2.2,0,3-1.1,3-2.4
	C87.8,103.8,87.1,103.2,86.2,103.1z M83.4,100h1.3c1,0,1.5,0.4,1.5,1.3c0,0.9-0.5,1.3-1.5,1.3h-1.3V100z M85,106.4h-1.6v-2.7h1.5
	c0.9,0,1.7,0.3,1.7,1.4C86.6,105.9,86.1,106.4,85,106.4z M91.3,99h-1.2v8.4h1.2V99z M96.7,107.5c2,0,3.4-1.3,3.4-4.4
	c0-3.1-1.3-4.3-3.3-4.3c-2,0-3.4,1.3-3.4,4.4C93.5,106.4,94.7,107.5,96.7,107.5z M96.8,100c1.3,0,2.1,0.8,2.1,3.3
	c0,2.4-0.8,3.2-2.1,3.2c-1.3,0-2.1-0.8-2.1-3.3C94.7,100.7,95.5,100,96.8,100z M108.3,103.1c0-2.8-1.2-4.1-3.8-4.1h-2.3v8.4h2.3
	C107.3,107.4,108.3,105.7,108.3,103.1z M103.4,106.4v-6.3h1c1.7,0,2.6,0.8,2.6,3.2c0,2.2-0.8,3.1-2.6,3.1H103.4z M111.7,99h-1.2v8.4
	h1.2V99z M119.3,99l-1.8,5.6c-0.1,0.4-0.4,1.5-0.5,1.8h0c-0.1-0.3-0.4-1.5-0.5-1.8l-1.8-5.6h-1.3l2.7,8.4h1.7l2.7-8.4H119.3z
	 M123.3,103.7h3v-1h-3v-2.6h3.4v-1h-4.6v8.4h4.8v-1h-3.6V103.7z M130.1,104h0.5c0.6,0,0.9,0.2,1.2,0.7l1.5,2.7h1.5l-1.5-2.5
	c-0.4-0.7-0.7-1-1-1.1v0c1-0.1,1.9-0.9,1.9-2.3c0-1.7-1.1-2.4-2.8-2.4h-2.3v8.4h1.2V104z M130.1,100.1h0.9c1.1,0,1.8,0.4,1.8,1.5
	c0,1.1-0.6,1.5-1.7,1.5h-1V100.1z M137.3,101.1c0-0.7,0.5-1.2,1.4-1.2c0.8,0,1.3,0.3,1.6,0.6l0.7-0.9c-0.4-0.4-1.2-0.8-2.3-0.8
	c-1.6,0-2.7,1-2.7,2.3c0,2.7,4,2.3,4,4c0,0.7-0.5,1.2-1.5,1.2s-1.7-0.5-2.1-0.9l-0.7,1c0.4,0.4,1.3,0.9,2.7,0.9
	c1.9,0,2.9-1.1,2.9-2.4C141.3,102.6,137.3,102.9,137.3,101.1z M144.6,99h-1.2v8.4h1.2V99z M151.8,99h-5.6v1h2.2v7.4h1.2v-7.4h2.2V99
	z M153.7,105.1h3.2l0.7,2.3h1.3l-2.7-8.4h-1.8l-2.7,8.4h1.2L153.7,105.1z M154.8,101.7c0.1-0.5,0.5-1.5,0.5-1.8h0
	c0.1,0.3,0.4,1.4,0.5,1.9l0.7,2.3H154L154.8,101.7z M164.5,99h-5.6v1h2.2v7.4h1.2v-7.4h2.2V99z M165.4,108.7l0.4,0.6
	c0.8-0.3,1.7-1.2,1.7-2.3c0-0.7-0.4-1.2-1-1.2c-0.5,0-0.8,0.4-0.8,0.8v0.1c0.4,0.2,0.7,0.4,0.7,0.9C166.4,108,166,108.4,165.4,108.7
	z M177.9,106.4h-3.6v-2.7h3v-1h-3v-2.6h3.4v-1h-4.6v8.4h4.8V106.4z M184.7,105.9c-0.3,0.3-0.8,0.6-1.6,0.6c-1.5,0-2.3-1.2-2.3-3.3
	c0-2.2,0.8-3.2,2.2-3.2c0.9,0,1.3,0.3,1.7,0.6l0.8-0.9c-0.3-0.2-1-0.8-2.4-0.8c-2.3,0-3.5,1.7-3.5,4.4c0,2.6,1,4.3,3.4,4.3
	c1.3,0,2.1-0.4,2.4-0.8L184.7,105.9z M190,98.9c-2,0-3.4,1.3-3.4,4.4c0,3.1,1.2,4.3,3.3,4.3c2,0,3.4-1.3,3.4-4.4
	C193.3,100.1,192,98.9,190,98.9z M190,106.5c-1.3,0-2.1-0.8-2.1-3.3c0-2.5,0.8-3.2,2.1-3.2c1.3,0,2.1,0.8,2.1,3.3
	C192,105.7,191.3,106.5,190,106.5z M196.6,99h-1.2v8.4h4.7v-1h-3.5V99z M204.3,107.5c2,0,3.4-1.3,3.4-4.4c0-3.1-1.3-4.3-3.3-4.3
	c-2,0-3.4,1.3-3.4,4.4C201.1,106.4,202.3,107.5,204.3,107.5z M204.3,100c1.3,0,2.1,0.8,2.1,3.3c0,2.4-0.8,3.2-2.1,3.2
	c-1.3,0-2.1-0.8-2.1-3.3C202.3,100.7,203.1,100,204.3,100z M212.8,107.5c1.4,0,2.2-0.3,2.7-0.8v-3.7h-1.2v3.1
	c-0.3,0.2-0.8,0.3-1.3,0.3c-1.6,0-2.4-1-2.4-3.4c0-2.5,1.2-3.2,2.4-3.2c0.8,0,1.3,0.3,1.7,0.6l0.8-0.9c-0.3-0.3-0.9-0.8-2.4-0.8
	c-2.1,0-3.7,1.3-3.7,4.4C209.4,106.1,210.6,107.5,212.8,107.5z M219.2,99h-1.2v8.4h1.2V99z M226.7,107.4h1.3l-2.7-8.4h-1.8l-2.7,8.4
	h1.2l0.7-2.3h3.2L226.7,107.4z M223.1,104.1l0.7-2.4c0.1-0.5,0.5-1.5,0.5-1.8h0c0.1,0.3,0.4,1.4,0.5,1.9l0.7,2.3H223.1z M82.4,121.8
	h1.2v-8.4h-1.2V121.8z M89,114.5h2.2v7.4h1.2v-7.4h2.2v-1H89V114.5z M97.3,118.1h3v-1h-3v-2.6h3.4v-1h-4.6v8.4h4.8v-1h-3.6V118.1z
	 M105.9,114.4c0.9,0,1.3,0.3,1.7,0.6l0.8-0.9c-0.3-0.2-1-0.8-2.4-0.8c-2.3,0-3.5,1.7-3.5,4.4c0,2.6,1,4.3,3.4,4.3
	c1.3,0,2.1-0.4,2.4-0.8l-0.7-0.9c-0.3,0.3-0.8,0.6-1.6,0.6c-1.5,0-2.3-1.2-2.3-3.3C103.7,115.4,104.5,114.4,105.9,114.4z
	 M115.3,117.7c0,0.4,0,2,0,2.5h-0.1c-0.1-0.4-0.9-1.7-1-2.1l-2.5-4.7h-1.6v8.4h1.2v-4.5c0-0.6,0-2.1-0.1-2.4h0.1
	c0.2,0.4,0.8,1.7,1,2.1l2.6,4.8h1.6v-8.4h-1.1V117.7z M121.9,113.3c-2,0-3.4,1.3-3.4,4.4c0,3.1,1.2,4.3,3.3,4.3c2,0,3.4-1.3,3.4-4.4
	C125.2,114.5,123.9,113.3,121.9,113.3z M121.9,120.9c-1.3,0-2.1-0.8-2.1-3.3c0-2.5,0.8-3.2,2.1-3.2c1.3,0,2.1,0.8,2.1,3.3
	C123.9,120.1,123.1,120.9,121.9,120.9z M128.5,113.4h-1.2v8.4h4.7v-1h-3.5V113.4z M136.3,113.3c-2,0-3.4,1.3-3.4,4.4
	c0,3.1,1.2,4.3,3.3,4.3c2,0,3.4-1.3,3.4-4.4C139.6,114.5,138.3,113.3,136.3,113.3z M136.3,120.9c-1.3,0-2.1-0.8-2.1-3.3
	c0-2.5,0.8-3.2,2.1-3.2c1.3,0,2.1,0.8,2.1,3.3C138.3,120.1,137.5,120.9,136.3,120.9z M146.2,120.6c-0.3,0.2-0.8,0.3-1.3,0.3
	c-1.6,0-2.4-1-2.4-3.4c0-2.5,1.2-3.2,2.4-3.2c0.8,0,1.3,0.3,1.7,0.6l0.8-0.9c-0.3-0.3-0.9-0.8-2.4-0.8c-2.1,0-3.7,1.3-3.7,4.4
	c0,2.9,1.2,4.3,3.4,4.3c1.4,0,2.2-0.3,2.7-0.8v-3.7h-1.2V120.6z M149.8,121.8h1.2v-8.4h-1.2V121.8z M155.3,113.4l-2.7,8.4h1.2
	l0.7-2.3h3.2l0.7,2.3h1.3l-2.7-8.4H155.3z M154.9,118.5l0.7-2.4c0.1-0.5,0.5-1.5,0.5-1.8h0c0.1,0.3,0.4,1.4,0.5,1.9l0.7,2.3H154.9z
	 M166.8,113.4l-2.7,8.4h1.2l0.7-2.3h3.2l0.7,2.3h1.3l-2.7-8.4H166.8z M166.4,118.5l0.7-2.4c0.1-0.5,0.5-1.5,0.5-1.8h0
	c0.1,0.3,0.4,1.4,0.5,1.9l0.7,2.3H166.4z M176.9,119L176.9,119l-2.2-5.6h-1.9v8.4h1.1v-7h0.1l2.3,5.8h1.2c0.5-1.2,1.8-4.7,2.3-5.8
	h0.1v7h1.2v-8.4h-1.9L176.9,119z M187.5,117.5L187.5,117.5c0.7-0.2,1.2-0.9,1.2-1.9c0-1.6-1.1-2.2-2.5-2.2h-2.7v8.4h2.6
	c2.2,0,3-1.1,3-2.4C189.1,118.2,188.4,117.6,187.5,117.5z M184.7,114.4h1.3c1,0,1.5,0.4,1.5,1.3c0,0.9-0.5,1.3-1.5,1.3h-1.3V114.4z
	 M186.2,120.8h-1.6v-2.7h1.5c0.9,0,1.7,0.3,1.7,1.4C187.8,120.3,187.4,120.8,186.2,120.8z M191.3,121.8h1.2v-8.4h-1.2V121.8z
	 M196.3,118.1h3v-1h-3v-2.6h3.4v-1h-4.6v8.4h4.8v-1h-3.6V118.1z M207.1,117.7c0,0.4,0,2,0,2.5H207c-0.1-0.4-0.9-1.7-1-2.1l-2.5-4.7
	h-1.6v8.4h1.2v-4.5c0-0.6,0-2.1-0.1-2.4h0.1c0.2,0.4,0.8,1.7,1,2.1l2.6,4.8h1.6v-8.4h-1.1V117.7z M215.4,113.4h-5.6v1h2.2v7.4h1.2
	v-7.4h2.2V113.4z M218,113.4l-2.7,8.4h1.2l0.7-2.3h3.2l0.7,2.3h1.3l-2.7-8.4H218z M217.6,118.5l0.7-2.4c0.1-0.5,0.5-1.5,0.5-1.8h0
	c0.1,0.3,0.4,1.4,0.5,1.9l0.7,2.3H217.6z M225.2,113.4H224v8.4h4.7v-1h-3.5V113.4z M234.2,121.8h1.2v-8.4h-1.2V121.8z M243.4,113.4
	l-2.7,8.4h1.2l0.7-2.3h3.2l0.7,2.3h1.3l-2.7-8.4H243.4z M243,118.5l0.7-2.4c0.1-0.5,0.5-1.5,0.5-1.8h0c0.1,0.3,0.4,1.4,0.5,1.9
	l0.7,2.3H243z M250.6,113.4h-1.2v8.4h4.7v-1h-3.5V113.4z M255.8,121.8h1.2v-8.4h-1.2V121.8z M263.8,119L263.8,119l-2.2-5.6h-1.9v8.4
	h1.1v-7h0.1l2.3,5.8h1.2c0.5-1.2,1.8-4.7,2.3-5.8h0.1v7h1.2v-8.4H266L263.8,119z M271.5,118.1h3v-1h-3v-2.6h3.4v-1h-4.6v8.4h4.8v-1
	h-3.6V118.1z M282.3,117.7c0,0.4,0,2,0,2.5h-0.1c-0.1-0.4-0.9-1.7-1-2.1l-2.5-4.7h-1.6v8.4h1.2v-4.5c0-0.6,0-2.1-0.1-2.4h0.1
	c0.2,0.4,0.8,1.7,1,2.1l2.6,4.8h1.6v-8.4h-1.1V117.7z M290.6,113.4H285v1h2.2v7.4h1.2v-7.4h2.2V113.4z M293.2,113.4l-2.7,8.4h1.2
	l0.7-2.3h3.2l0.7,2.3h1.3l-2.7-8.4H293.2z M292.8,118.5l0.7-2.4c0.1-0.5,0.5-1.5,0.5-1.8h0c0.1,0.3,0.4,1.4,0.5,1.9l0.7,2.3H292.8z
	 M302.5,118.2L302.5,118.2c1-0.2,1.9-0.9,1.9-2.4c0-1.7-1.1-2.4-2.8-2.4h-2.3v8.4h1.2v-3.4h0.5c0.6,0,0.9,0.2,1.2,0.7l1.5,2.7h1.5
	l-1.5-2.5C303.2,118.6,302.9,118.3,302.5,118.2z M301.4,117.4h-1v-3h0.9c1.1,0,1.8,0.4,1.8,1.5C303.1,117,302.5,117.4,301.4,117.4z
	 M306.9,121.8h1.2v-8.4h-1.2V121.8z M314.2,113.4h-1.8l-2.7,8.4h1.2l0.7-2.3h3.2l0.7,2.3h1.3L314.2,113.4z M312,118.5l0.7-2.4
	c0.1-0.5,0.5-1.5,0.5-1.8h0c0.1,0.3,0.4,1.4,0.5,1.9l0.7,2.3H312z"/>
</svg>
