<?xml version="1.0" encoding="utf-8"?>
<!-- Generator: Adobe Illustrator 24.1.2, SVG Export Plug-In . SVG Version: 6.00 Build 0)  -->
<svg version="1.1" id="Capa_1" xmlns="http://www.w3.org/2000/svg" xmlns:xlink="http://www.w3.org/1999/xlink" x="0px" y="0px"
	 viewBox="0 0 370.5 182.3" style="enable-background:new 0 0 370.5 182.3;" xml:space="preserve">
<style type="text/css">
	.st0{fill:#61ACFB;}
</style>
<path class="st0" d="M76.8,38.7c-11.9,0-21.1,3.9-27.8,11.6c-6.5,7.5-9.7,17.9-9.7,31.2c0,14,3.3,24.7,10,32.2
	c6.7,7.7,15.9,11.6,27.8,11.6c9.8,0,17.9-2.4,24.4-7.2c6.5-4.6,10.8-11.2,13.1-20H99c-2.5,0-4.5,0.5-5.8,1.6c-1,0.9-1.6,1.6-2.3,2.5
	c-0.5,0.7-2.1,2.1-3.4,2.8c-2.5,1.4-5.5,2.2-9.1,2.2c-5.4,0-9.5-1.7-12.2-5c-2.9-3.1-4.5-7.9-4.7-14.4h54c0.2-0.4,0.3-1.1,0.3-2.2
	v-3.4c0-13.7-3.3-24.5-10-32.2C99,42.4,89.3,38.7,76.8,38.7z M61.5,73.6c0.2-5.4,1.8-9.6,4.7-12.5c2.9-2.9,6.7-4.4,11.2-4.4
	c5,0,8.8,1.5,11.6,4.4c2.5,2.7,4,6.9,4.4,12.5H61.5z M149.8,42.7c-5.3,1.5-9.9,3.7-13.9,6.9c-4.2,3.3-7.4,7.8-9.8,13.3
	c-2.4,5.5-3.6,12.3-3.6,20.5v40.3h21.9V80.8c0-6.3,1.5-10.8,4.4-13.7c2.9-2.9,7.1-4.2,13-4.4l7.3-22.2c0,0-2.4,0-2.9,0
	C160.6,40.5,155.2,41.3,149.8,42.7z M233.5,40.5c-5.4,0-8.7,2.5-10,7.5l-14.7,51.2l-16.9-58.7l-22.8,0l27.7,83.2
	c1.6,3.9,1.1,7.1-1.3,9.1c-2.4,2-5.7,3-9.8,3h-5.9v17.4c0.6,0.1,3.3,0.3,4.7,0.4c0.6,0,1.3,0,2.2,0h2.2c8.5,0,14.7-1.2,18.4-3.7
	c3.7-2.9,6.9-7.8,9.4-14.7l31.9-94.7H233.5z M299.7,81.1L326,40.6h-18.2c-4.4,0-7.3,2-9.4,5.6l-11.5,19.3l-14.4-25h-24.1l25.6,40.3
	l-27.2,42.8h25.3l15.3-26.2l14.7,26.2h25L299.7,81.1z"/>
</svg>
