<?xml version="1.0" encoding="utf-8"?>
<!-- Generator: Adobe Illustrator 24.1.2, SVG Export Plug-In . SVG Version: 6.00 Build 0)  -->
<svg version="1.1" id="Capa_1" xmlns="http://www.w3.org/2000/svg" xmlns:xlink="http://www.w3.org/1999/xlink" x="0px" y="0px"
	 viewBox="0 0 162.3 136.7" style="enable-background:new 0 0 162.3 136.7;" xml:space="preserve">
<style type="text/css">
	.st0{fill:#61ACFB;}
	.st1{fill:#949494;}
	.st2{fill:#B8CC6A;}
	.st3{fill:#B77647;}
</style>
<path class="st0" d="M127.3,124h-19.7c-1.3,0-2.4-1.1-2.4-2.4V76.8c0-0.6,0.2-1.2,0.7-1.6l19.7-20.6c1.5-1.5,4.1-0.5,4.1,1.6v65.4
	C129.6,123,128.6,124,127.3,124z"/>
<path class="st1" d="M136.1,27.2h-18.8c-1.9,0-3.5,1.6-3.5,3.5s1.6,3.5,3.5,3.5h10.3l-33.4,33L66.7,40.5c-1.4-1.3-3.5-1.3-4.9,0
	L24,77.9c-1.4,1.4-1.4,3.6,0,4.9c0.7,0.7,1.6,1,2.5,1s1.8-0.3,2.5-1l35.4-34.9l27.5,26.7c1.4,1.3,3.5,1.3,4.9,0l35.9-35.4v10.3
	c0,1.9,1.6,3.5,3.5,3.5s3.5-1.6,3.5-3.5V30.7C139.6,28.8,138.1,27.2,136.1,27.2z"/>
<path class="st2" d="M71.7,63.7c-1.5-1.5-4-0.4-4,1.7v56.2c0,1.3,1.1,2.4,2.4,2.4h19.7c1.3,0,2.4-1.1,2.4-2.4V85.1
	c0-0.6-0.3-1.2-0.7-1.7L71.7,63.7z"/>
<path class="st3" d="M50.6,69.4L30.8,90c-0.4,0.4-0.7,1-0.7,1.6v30.1c0,1.3,1.1,2.4,2.4,2.4h19.7c1.3,0,2.4-1.1,2.4-2.4V71
	C54.7,68.9,52.1,67.9,50.6,69.4z"/>
</svg>
