<?xml version="1.0" encoding="utf-8"?>
<!-- Generator: Adobe Illustrator 24.1.2, SVG Export Plug-In . SVG Version: 6.00 Build 0)  -->
<svg version="1.1" id="Capa_2" xmlns="http://www.w3.org/2000/svg" xmlns:xlink="http://www.w3.org/1999/xlink" x="0px" y="0px"
	 viewBox="0 0 416.6 416.6" style="enable-background:new 0 0 416.6 416.6;" xml:space="preserve">
<style type="text/css">
	.st0{fill:#808080;}
</style>
<path class="st0" d="M389.9,48.8H26.7c-5.4,0-9.8,4.4-9.8,9.8v27.7c0,5.4,4.4,9.8,9.8,9.8h363.2c5.4,0,9.8-4.4,9.8-9.8V58.6
	C399.8,53.2,395.4,48.8,389.9,48.8z M389.9,184.6H26.7c-5.4,0-9.8,4.4-9.8,9.8v27.7c0,5.4,4.4,9.8,9.8,9.8h363.2
	c5.4,0,9.8-4.4,9.8-9.8v-27.7C399.8,189,395.4,184.6,389.9,184.6z M389.9,320.5H26.7c-5.4,0-9.8,4.4-9.8,9.8V358
	c0,5.4,4.4,9.8,9.8,9.8h363.2c5.4,0,9.8-4.4,9.8-9.8v-27.7C399.8,324.9,395.4,320.5,389.9,320.5z"/>
</svg>
