<?xml version="1.0" encoding="utf-8"?>
<!-- Generator: Adobe Illustrator 24.1.2, SVG Export Plug-In . SVG Version: 6.00 Build 0)  -->
<svg version="1.1" id="Capa_1" xmlns="http://www.w3.org/2000/svg" xmlns:xlink="http://www.w3.org/1999/xlink" x="0px" y="0px"
	 viewBox="0 0 1330.3 1226.2" style="enable-background:new 0 0 1330.3 1226.2;" xml:space="preserve">
<style type="text/css">
	.st0{fill:#347A97;}
	.st1{fill:#348BBE;}
	.st2{fill:#3DA0DB;}
	.st3{fill:#4AB6EB;}
	.st4{fill:#B4E7F9;}
	.st5{fill:#807F31;}
	.st6{fill:#8EBA66;}
	.st7{fill:#718F91;}
	.st8{fill:#C1B4B1;}
	.st9{fill:#A5A69F;}
	.st10{fill:#FFFFFF;}
	.st11{fill:#D3D3D3;}
	.st12{fill:#C0B5B1;}
	.st13{fill:#797F70;}
	.st14{fill:#FFFFFD;}
	.st15{fill:#77A67F;}
	.st16{fill:#5F9367;}
	.st17{fill:#98AAB4;}
	.st18{fill:#B6C9D3;}
	.st19{fill:#D2E0E9;}
	.st20{fill:#E6F2F6;}
	.st21{fill:#357A99;}
	.st22{fill:#52A5DC;}
	.st23{fill:#7CC3EA;}
	.st24{fill:#FAF0F6;}
	.st25{fill:#D4CBCA;}
	.st26{fill:#AA9A98;}
	.st27{fill:#F0F3F1;}
	.st28{fill:#DFD3D4;}
	.st29{fill:#9C908F;}
	.st30{fill:#275C92;}
	.st31{fill:#709728;}
	.st32{fill:#899F3D;}
	.st33{fill:#8FA73A;}
	.st34{fill:#769829;}
	.st35{fill:#D9D859;}
	.st36{fill:#90BC6C;}
	.st37{fill:#BDD170;}
	.st38{fill:#BFD070;}
	.st39{fill:#634119;}
	.st40{fill:#459857;}
	.st41{fill:#449A63;}
	.st42{fill:#429369;}
	.st43{fill:#4EAA54;}
	.st44{fill:#65594D;}
	.st45{fill:#DA6A40;}
	.st46{fill:#EC9A44;}
</style>
<g>
	<path class="st0" d="M172.8,871.5c84.3,197.9,280.6,336.6,509.2,336.6s424.9-138.7,509.2-336.6H172.8z"/>
	<path class="st1" d="M1107.1,1009c14.6-17.5,28-35.8,40.4-55h-931c12.3,19.2,25.8,37.5,40.4,55H1107.1z"/>
	<path class="st2" d="M1164.2,926.5H200c5.3,9.3,10.8,18.5,16.6,27.5h931C1153.3,945,1158.9,935.8,1164.2,926.5z"/>
	<path class="st3" d="M1164.2,926.5c5.1-9,9.9-18.2,14.5-27.5H185.4c4.6,9.3,9.4,18.5,14.5,27.5H1164.2z"/>
	<path class="st4" d="M1178.7,899c4.4-9,8.7-18.2,12.6-27.5H172.8c4,9.3,8.2,18.5,12.6,27.5H1178.7z"/>
	<path class="st5" d="M1309.7,871.5H54.4c-11.4,0-20.6-9.2-20.6-20.6v-1.7c0-11.4,9.2-20.6,20.6-20.6h1255.3
		c11.4,0,20.6,9.2,20.6,20.6v1.7C1330.3,862.3,1321.1,871.5,1309.7,871.5z"/>
	<path class="st6" d="M37.3,838.1h1289.4c-3.8-5.8-10.4-9.6-17.9-9.6H55.2C47.8,828.6,41.2,832.4,37.3,838.1z"/>
	<path class="st7" d="M201.2,829.3c0,0,100.3-131.3,108-142.7s15-23.7,32.3,5.1c0,0,44-58.4,50.8-66.5s14.2-9.2,23.2,1.5
		s15.6,20.8,15.6,20.8s13.5-17.2,19.6-24.2c6.2-7,15.4-12.3,36.1,23c0,0,92.3-106.9,102.7-118.4c10.4-11.5,15-17.7,31.7,3.8
		c16.7,21.5,178.1,243.3,178.1,243.3S926.5,640.4,937,629.4c7-7.3,14.8-19.2,32.8,3.8c18,23.1,56,75.4,56,75.4s15-22.3,19.2-27.3
		c4.2-5,12.6-3.4,20.2,7.1c7.5,10.6,100.7,140.3,100.7,140.3L201.2,829.3z"/>
	<g id="montaña_1_">
		<path class="st8" d="M318.9,828.8c0,0,213.4-254.4,224.6-268.2c11.3-13.8,21.7-15.6,41.3,8.1c19.6,23.6,206.1,260.6,206.1,260.6
			L318.9,828.8z"/>
		<path class="st9" d="M699.3,713c-0.5,2.9-2.2,5-5.2,5c-6.5-0.1-16.9-5.3-21.1,1.9s-9.6-2.6-25-8.5c-15.4-5.9-16.4,4.5-23.8-8.9
			c-7.4-13.5-9.7-13.6-20.8-14.3c-11.2-0.7-13.8,1.6-18.8-4.7c-5-6.3-11.5-13.7-17.3-11.3s-2.2,17.7-9,22c-6.8,4.3-13.7,7-18.7,1.3
			c-5-5.7-12.3-11.4-22.1-7.1c-9.8,4.2-4.3,7.7-16.3,8.9c-12,1.2-16.6,2.1-23.9,11.4c-7.3,9.3-7.3,11-15.2,14.4
			c-7.9,3.4-18.7-3.6-24-7.8c-2.9-2.3-11.7-3.6-20.3-4.1c-51.3,61.2-98.7,117.7-98.7,117.7l472,0.5
			C790.9,829.3,746.8,773.3,699.3,713z"/>
		<path class="st10" d="M527.5,605.6c4.1-3.8,7.8-3.5,11.2,1.9s-0.3,11.2,7.7,11.2c8.1,0,12.3-6.2,14.2-12.7s-1.2-11.9,3.2-11.2
			c4.3,0.8,5.7,5,7.9,17.7c2.2,12.7,16.6,12.3,22,8.5c5.4-3.8,2.7-11.5,3.5-14.7c0.8-3.2,8.1,4,18.7,7.4c2.3,0.7,3.8,0.6,4.9,0
			c-18-22.7-31.4-39.5-36-45c-19.6-23.6-30-21.9-41.3-8.1c-2.9,3.6-19.5,23.5-42.5,50.9C512.4,621.6,523.6,609.2,527.5,605.6z"/>
		<path class="st11" d="M560.9,829.1l230,0.2c0,0-186.5-237-206.1-260.6c-9.9-11.9-17.4-17.4-23.9-18.1V829.1z"/>
	</g>
	<g id="montaña">
		<path class="st12" d="M1083.9,829.3c0,0-293.7-343.7-303.8-354.1c-10.1-10.4-18.7-31.1-44.7,0c-26,31.1-302.5,353.9-302.5,353.9
			L1083.9,829.3z"/>
		<path class="st13" d="M919,636.7c-4.3-1.3-8.2-2.2-10.6-2.8c-7.5-1.7-14.8-2.9-13.1,4.6c1.6,7.5,3.7,30.7-7.7,32.7
			c-11.4,1.9-19.5-6.5-29.3-19.6c-9.8-13.1-18.7-24.9-34.7-18.4c-16,6.5-13.3,23.2-9.5,27.8c3.8,4.6,28.6,34.8,2.4,28.9
			c-26.2-5.9-35.7-22.6-49.4-26.1c-13.7-3.5-27.6,0.6-25.2,19.6c0,0-6.9-26.5-23.6-33.5s-27.4-0.6-30.1,8.1
			c-2.8,8.7-8,31.2-26.4,37.5c-18.4,6.3-38.8,2.1-45.6-5.9c-3.5-4.1-27.6-10.6-50-15.9c-69.2,80.8-132.9,155.3-132.9,155.3l651,0.2
			C1083.9,829.3,999.1,730.1,919,636.7z"/>
		<path class="st14" d="M709,534.1c-1.2,3.8-3.8,17.3,5.8,19.2s15.4-8.5,22.3-11.2c6.9-2.7,7.7,0,8.5,6.5c0.8,6.5,8.8,13.1,18.3,10
			c9.4-3.1,13.6-18.1,16.8-23.1c3.2-5,5.7-3.1,8,0c2.3,3.1,11.5,11.2,18.5,13.7c6.9,2.6,3.8-5.6,4.6-10.6c0.8-5,6.5-5.4,10.8-3.8
			c2.7,1,8.4,3.9,15.1,6.8c-32-37.2-54.8-63.6-57.5-66.4c-10.1-10.4-18.7-31.1-44.7,0c-5.7,6.9-23.6,27.8-47.9,56.4
			C707,523.1,710,530.7,709,534.1z"/>
		<path class="st11" d="M758.8,829.2l325,0.1c0,0-293.7-343.7-303.8-354.1c-6.2-6.4-11.8-16.6-21.2-16.4V829.2z"/>
	</g>
	<g id="monte">
		<path class="st15" d="M86.5,828.8c0,0,76-51.2,122.4-67.2c46.4-16,58.7-19.3,71.9-20.1c13.3-0.9,26.7-3.5,36.1-8s34.8-15,64-3
			s33.5,21.2,39.6,21.8c6.2,0.6,85.6-28.3,104.5-30.9c18.9-2.7,55.6-6.5,101.3,10.2c0,0,84.1-36.7,147.6-20.5
			c0,0,93.2-36.7,130.1-24.7s45.7,16.2,45.7,16.2s36.3-9.2,60.3,2.3c23.9,11.5,79.3,37.9,113.5,47.6s111.1,22.4,149.6,76.4H86.5z"/>
		<path class="st16" d="M95.5,828.8c0,0,34.9-25.7,66.3-34.3c31.4-8.7,83.1-27.5,90.6-30.7c7.5-3.3,20-5.5,38.4-9.7
			c18.4-4.2,71.8-9.4,74.1-9.4c2.3,0,21.2-1.7,16.2,0c-5,1.7-51.6,8.6-72.3,13.1c-20.7,4.5-33.6,8.2-41.4,9.4
			c-7.8,1.2-24.8,5.7-32.3,9.9c-7.5,4.2-22.6,11.4,10.3,2.2s59.8-15.4,74.4-17.6c14.6-2.2,61.1-13,91.7-13.5s86.2,25.6,127.9,23.1
			c41.7-2.4,91.3-12.8,107.7-19s77.9-27.3,86.2-29.2s19.3,1,27.7,4.8c8.4,3.7,79.9-8.3,86.5-10.5c6.6-2.2,40.6-8.5,53-11.1
			c12.4-2.6,42.5-6.5,42.5-6.5l6.6,2.7c0,0-74.2,11.3-89.5,14.6s-75,20-9.8,15.7c65.2-4.3,127.4-8.1,137.9-6.6s19.2,9.3,46.9,13.7
			c27.7,4.4,27.7,6.2,16.8,6.2s-25.7-2.3-49.6,1.5c-23.9,3.7-32,6.4,4,5.1c36-1.3,53.9,1.6,86.8,7c32.9,5.5,132.1,34,153.7,69.2
			H95.5z"/>
	</g>
	<g>
		<rect x="479.5" y="689.7" class="st17" width="30.7" height="139.1"/>
		<rect x="510.2" y="689.7" class="st18" width="66.8" height="139.1"/>
		<path class="st19" d="M551.3,689.7v139.1h13.6V689.7H551.3z M525.8,828.8h13.6V689.7h-13.6V828.8z"/>
		<path class="st20" d="M479.5,683.5v6.3H577v-6.3H479.5z M479.5,698.5H577v-3.1h-97.5V698.5z M479.5,711.6H577v-3.1h-97.5V711.6z
			 M479.5,724.8H577v-3.1h-97.5V724.8z M479.5,738H577v-3.1h-97.5V738z M479.5,751.2H577v-3.1h-97.5V751.2z M479.5,764.4H577v-3.1
			h-97.5V764.4z M479.5,777.5H577v-3.1h-97.5V777.5z M479.5,790.7H577v-3.1h-97.5V790.7z M479.5,803.9H577v-3.1h-97.5V803.9z
			 M479.5,817.1H577V814h-97.5V817.1z"/>
	</g>
	<g>
		<rect x="462" y="726.4" class="st21" width="19.9" height="102.4"/>
		<rect x="481.9" y="726.4" class="st22" width="43.3" height="102.4"/>
		<path class="st23" d="M508.5,726.4v102.4h8.8V726.4H508.5z M492,828.8h8.8V726.4H492V828.8z"/>
		<path class="st20" d="M462,721.8v4.6h63.2v-4.6H462z M462,732.9h63.2v-2.2H462V732.9z M462,742.6h63.2v-2.2H462V742.6z M462,752.3
			h63.2V750H462V752.3z M462,762h63.2v-2.2H462V762z M462,771.7h63.2v-2.2H462V771.7z M462,781.4h63.2v-2.2H462V781.4z M462,791.1
			h63.2v-2.2H462V791.1z M462,800.8h63.2v-2.2H462V800.8z M462,810.5h63.2v-2.2H462V810.5z M462,820.2h63.2v-2.2H462V820.2z"/>
	</g>
	<g>
		<rect x="620.6" y="754.7" class="st24" width="127.8" height="74.1"/>
		<rect x="622" y="748.1" class="st25" width="124.9" height="6.6"/>
		<rect x="620.6" y="738.7" class="st24" width="127.8" height="9.4"/>
		<rect x="627.2" y="734" class="st26" width="114.5" height="4.7"/>
		<rect x="624.1" y="729.3" class="st24" width="120.7" height="4.7"/>
		<path class="st23" d="M718.1,803.4h25.1v-6.7h-25.1V803.4z M718.1,790.9h25.1v-6.7h-25.1V790.9z M718.1,815.9h25.1v-6.7h-25.1
			V815.9z M718.1,759.3v6.7h25.1v-6.7H718.1z M718.1,778.4h25.1v-6.7h-25.1V778.4z M627.7,803.4h25.1v-6.7h-25.1V803.4z
			 M627.7,790.9h25.1v-6.7h-25.1V790.9z M627.7,765.9h25.1v-6.7h-25.1V765.9z M627.7,815.9h25.1v-6.7h-25.1V815.9z M627.7,778.4
			h25.1v-6.7h-25.1V778.4z M688,778.4H713v-6.7H688V778.4z M688,765.9H713v-6.7H688V765.9z M688,803.4H713v-6.7H688V803.4z
			 M688,790.9H713v-6.7H688V790.9z M688,815.9H713v-6.7H688V815.9z M657.8,803.4h25.1v-6.7h-25.1V803.4z M657.8,778.4h25.1v-6.7
			h-25.1V778.4z M657.8,765.9h25.1v-6.7h-25.1V765.9z M657.8,790.9h25.1v-6.7h-25.1V790.9z M657.8,815.9h25.1v-6.7h-25.1V815.9z"/>
	</g>
	<g>
		<rect x="755.4" y="684" class="st27" width="116.1" height="144.8"/>
		<rect x="753.6" y="670" class="st27" width="119.7" height="14"/>
		<rect x="755.4" y="684" class="st28" width="16.9" height="144.8"/>
		<rect x="755.4" y="684" class="st29" width="116.1" height="4.4"/>
		<path class="st30" d="M780.6,694.1v8.4h83.6v-8.4H780.6z M780.6,816.8h83.6v-8.4h-83.6V816.8z M780.6,724.4h83.6v-14.1h-83.6
			V724.4z M780.6,743.5h83.6v-14.1h-83.6V743.5z M780.6,762.5h83.6v-14.1h-83.6V762.5z M780.6,781.6h83.6v-14.1h-83.6V781.6z
			 M780.6,800.6h83.6v-14.1h-83.6V800.6z"/>
	</g>
	<g>
		<rect x="836.7" y="754.7" class="st24" width="127.8" height="74.1"/>
		<rect x="838.1" y="748.1" class="st25" width="124.9" height="6.6"/>
		<rect x="836.7" y="738.7" class="st24" width="127.8" height="9.4"/>
		<path class="st23" d="M934.2,803.4h25.1v-6.7h-25.1V803.4z M934.2,790.9h25.1v-6.7h-25.1V790.9z M934.2,815.9h25.1v-6.7h-25.1
			V815.9z M934.2,759.3v6.7h25.1v-6.7H934.2z M934.2,778.4h25.1v-6.7h-25.1V778.4z M843.8,803.4h25.1v-6.7h-25.1V803.4z
			 M843.8,790.9h25.1v-6.7h-25.1V790.9z M843.8,765.9h25.1v-6.7h-25.1V765.9z M843.8,815.9h25.1v-6.7h-25.1V815.9z M843.8,778.4
			h25.1v-6.7h-25.1V778.4z M904,778.4h25.1v-6.7H904V778.4z M904,765.9h25.1v-6.7H904V765.9z M904,803.4h25.1v-6.7H904V803.4z
			 M904,790.9h25.1v-6.7H904V790.9z M904,815.9h25.1v-6.7H904V815.9z M873.9,803.4H899v-6.7h-25.1V803.4z M873.9,778.4H899v-6.7
			h-25.1V778.4z M873.9,765.9H899v-6.7h-25.1V765.9z M873.9,790.9H899v-6.7h-25.1V790.9z M873.9,815.9H899v-6.7h-25.1V815.9z"/>
	</g>
	<g id="arbustos">
		<path class="st31" d="M1183.8,828.8c0,0,0-8.1-9.5-8.8c0,0-2.1-5.6-7-4c0,0,1.8-8.9-8.7-8.1c0,0-0.3-4.7-5.2-3.1
			c0,0-1.1-7.2-8.8-5.6c0,0-8.1-5.8-10.4,1c0,0-11.7-3.3-12.2,4.6c0,0-11.1-4.2-12.5,5.6c0,0-7.3-3.1-8.5,4.1c0,0-6.4,2-3.4,5.9
			c0,0-5.8-5.6-8.4-3.2c0,0-1.4-6.4-5.1-4c0,0-3.1-7.5-9.2-3.1c0,0-7.6-2.3-8.8,3.8c0,0-3.8-2.1-5.5,0.3c0,0-3.4-3.4-6.4-0.7
			c-3.1,2.7-1.7,4.5-1.7,4.5s-5.2-1.2-6.4,2.4c0,0-7-2.1-8.8,3.1c0,0-8.5-2.1-9.8,5.2H1183.8z"/>
		<path class="st32" d="M911.5,828.8c0,0,0-5.1,6-5.6c0,0,1.3-3.6,4.4-2.5c0,0-1.2-5.6,5.5-5.1c0,0,0.2-3,3.3-2c0,0,0.7-4.6,5.6-3.5
			c0,0,5.1-3.6,6.5,0.6c0,0,7.4-2.1,7.7,2.9c0,0,7-2.6,7.9,3.5c0,0,4.6-1.9,5.4,2.6c0,0,4,1.2,2.1,3.7c0,0,3.7-3.6,5.3-2
			c0,0,0.9-4,3.2-2.5c0,0,2-4.7,5.8-1.9c0,0,4.8-1.4,5.6,2.4c0,0,2.4-1.3,3.5,0.2c0,0,2.1-2.1,4-0.4s1.1,2.8,1.1,2.8s3.3-0.8,4,1.5
			c0,0,4.4-1.3,5.6,1.9c0,0,5.4-1.3,6.2,3.3H911.5z"/>
		<path class="st33" d="M148.6,828.8c1.1-1.2,1.8-2.8,1.8-4.6c0-3.7-2.4-6.8-6.8-6.8c-4.4,0-7.4,2.8-7.4-0.5c0-7.4-6-13.3-13.3-13.3
			c-4.8,0-9.1,2.6-11.4,6.5c-1.3-0.5-2.7-0.8-4.1-0.8c-1.3,0-2.5,0.2-3.7,0.6c-2.2-8.9-10.2-15.4-19.7-15.4
			c-9.6,0-17.6,6.6-19.7,15.6c-0.4,1.5-0.3,2.3-0.9,3.7c-0.6,1.4-2,1.5-3.3,1.5c-4.4,0-8,3.6-8,8c0,2.1,0.8,4.1,2.2,5.5H148.6z"/>
		<path class="st34" d="M966.1,828.8c-0.6-0.7-1-1.5-1-2.5c0-2,1.3-3.7,3.7-3.7c2.4,0,4,1.5,4-0.3c0-4,3.3-7.3,7.3-7.3
			c2.7,0,5,1.4,6.2,3.5c0.7-0.3,1.5-0.4,2.3-0.4c0.7,0,1.4,0.1,2,0.3c1.2-4.8,5.6-8.4,10.8-8.4c5.2,0,9.6,3.6,10.8,8.5
			c0.2,0.8,0.2,1.3,0.5,2c0.3,0.8,1.1,0.8,1.8,0.8c2.4,0,4.4,2,4.4,4.4c0,1.2-0.5,2.2-1.2,3H966.1z"/>
		<path class="st32" d="M1031.7,828.8c-0.5-0.5-0.8-1.2-0.8-2c0-1.6,1-2.9,2.9-2.9s3.2,1.2,3.2-0.2c0-3.2,2.6-5.7,5.7-5.7
			c2.1,0,3.9,1.1,4.9,2.8c0.5-0.2,1.1-0.3,1.8-0.3c0.6,0,1.1,0.1,1.6,0.3c0.9-3.8,4.4-6.6,8.5-6.6c4.1,0,7.6,2.9,8.5,6.7
			c0.2,0.7,0.1,1,0.4,1.6s0.9,0.6,1.4,0.6c1.9,0,3.5,1.5,3.5,3.5c0,0.9-0.4,1.8-1,2.4H1031.7z"/>
		<path class="st34" d="M580.5,828.8c-0.6-0.7-1-1.5-1-2.5c0-2,1.3-3.7,3.7-3.7c2.4,0,4,1.5,4-0.3c0-4,3.3-7.3,7.3-7.3
			c2.7,0,5,1.4,6.2,3.5c0.7-0.3,1.5-0.4,2.3-0.4c0.7,0,1.4,0.1,2,0.3c1.2-4.8,5.6-8.4,10.8-8.4c5.2,0,9.6,3.6,10.8,8.5
			c0.2,0.8,0.2,1.3,0.5,2c0.3,0.8,1.1,0.8,1.8,0.8c2.4,0,4.4,2,4.4,4.4c0,1.2-0.5,2.2-1.2,3H580.5z"/>
		<path class="st32" d="M480.5,828.8c0,0,0-5.1,6-5.6c0,0,1.3-3.6,4.4-2.5c0,0-1.2-5.6,5.5-5.1c0,0,0.2-3,3.3-2c0,0,0.7-4.6,5.6-3.5
			c0,0,5.1-3.6,6.5,0.6c0,0,7.4-2.1,7.7,2.9c0,0,7-2.6,7.9,3.5c0,0,4.6-1.9,5.4,2.6c0,0,4,1.2,2.1,3.7c0,0,3.7-3.6,5.3-2
			c0,0,0.9-4,3.2-2.5c0,0,2-4.7,5.8-1.9c0,0,4.8-1.4,5.6,2.4c0,0,2.4-1.3,3.5,0.2c0,0,2.1-2.1,4-0.4s1.1,2.8,1.1,2.8s3.3-0.8,4,1.5
			c0,0,4.4-1.3,5.6,1.9c0,0,5.4-1.3,6.2,3.3H480.5z"/>
		<path class="st32" d="M303.3,828.8c0,0,0-8.5,10-9.3c0,0,2.2-5.9,7.4-4.2c0,0-1.9-9.4,9.2-8.5c0,0,0.3-5,5.5-3.3
			c0,0,1.1-7.6,9.3-5.8c0,0,8.5-6.1,10.9,1.1c0,0,12.4-3.5,12.8,4.8c0,0,11.7-4.4,13.2,5.9c0,0,7.7-3.2,9,4.3c0,0,6.7,2.1,3.5,6.3
			c0,0,6.1-5.9,8.8-3.4c0,0,1.5-6.7,5.4-4.2c0,0,3.3-7.9,9.7-3.2c0,0,8-2.4,9.3,4c0,0,4-2.2,5.8,0.3c0,0,3.5-3.5,6.7-0.7
			c3.2,2.8,1.8,4.7,1.8,4.7s5.5-1.3,6.7,2.6c0,0,7.4-2.2,9.3,3.2c0,0,9-2.2,10.3,5.5H303.3z"/>
		<path class="st32" d="M668.4,828.8c0,0,0-5.1,6-5.6c0,0,1.3-3.6,4.4-2.5c0,0-1.2-5.6,5.5-5.1c0,0,0.2-3,3.3-2c0,0,0.7-4.6,5.6-3.5
			c0,0,5.1-3.6,6.5,0.6c0,0,7.4-2.1,7.7,2.9c0,0,7-2.6,7.9,3.5c0,0,4.6-1.9,5.4,2.6c0,0,4,1.2,2.1,3.7c0,0,3.7-3.6,5.3-2
			c0,0,0.9-4,3.2-2.5c0,0,2-4.7,5.8-1.9c0,0,4.8-1.4,5.6,2.4c0,0,2.4-1.3,3.5,0.2c0,0,2.1-2.1,4-0.4s1.1,2.8,1.1,2.8s3.3-0.8,4,1.5
			c0,0,4.4-1.3,5.6,1.9c0,0,5.4-1.3,6.2,3.3H668.4z"/>
		<path class="st32" d="M796.7,828.8c0,0,0-5.1,6-5.6c0,0,1.3-3.6,4.4-2.5c0,0-1.2-5.6,5.5-5.1c0,0,0.2-3,3.3-2c0,0,0.7-4.6,5.6-3.5
			c0,0,5.1-3.6,6.5,0.6c0,0,7.4-2.1,7.7,2.9c0,0,7-2.6,7.9,3.5c0,0,4.6-1.9,5.4,2.6c0,0,4,1.2,2.1,3.7c0,0,3.7-3.6,5.3-2
			c0,0,0.9-4,3.2-2.5c0,0,2-4.7,5.8-1.9c0,0,4.8-1.4,5.6,2.4c0,0,2.4-1.3,3.5,0.2c0,0,2.1-2.1,4-0.4s1.1,2.8,1.1,2.8s3.3-0.8,4,1.5
			c0,0,4.4-1.3,5.6,1.9c0,0,5.4-1.3,6.2,3.3H796.7z"/>
		<path class="st32" d="M1289.9,828.8c0,0,0-6.4-7.5-7c0,0-1.7-4.5-5.6-3.1c0,0,1.5-7.1-6.9-6.4c0,0-0.2-3.7-4.1-2.5
			c0,0-0.8-5.7-7-4.4c0,0-6.4-4.6-8.2,0.8c0,0-9.3-2.6-9.7,3.6c0,0-8.8-3.3-9.9,4.4c0,0-5.8-2.4-6.8,3.3c0,0-5.1,1.6-2.7,4.7
			c0,0-4.6-4.5-6.7-2.5c0,0-1.1-5.1-4.1-3.1c0,0-2.5-5.9-7.3-2.4c0,0-6-1.8-7,3c0,0-3-1.7-4.4,0.2c0,0-2.7-2.7-5.1-0.5
			c-2.4,2.1-1.3,3.6-1.3,3.6s-4.1-1-5.1,1.9c0,0-5.6-1.7-7,2.4c0,0-6.8-1.7-7.7,4.1H1289.9z"/>
	</g>
	<g id="arboles">
		<g>
			<path class="st35" d="M147.1,765.8c-0.9-1.2-1.3-2.6-1.2-4.1c0-0.4,0-0.8,0-1.2c0-9.6-8.7-17.4-19.3-17.4s-19.3,7.8-19.3,17.4
				c0,0.4,0,0.8,0,1.2c0.1,1.5-0.3,2.9-1.2,4.1c-2.8,3.7-4.5,8.2-4.5,13.1c0,12.7,11.2,23,24.9,23c13.8,0,24.9-10.3,24.9-23
				C151.6,774.1,149.9,769.5,147.1,765.8z"/>
			<path class="st5" d="M135.5,778.7c-2.1,1.8-5.1,3.6-6.9,4.5l-0.3-9.1l-0.7-12.3c0-0.3-0.4-0.3-0.5,0l-0.7,12.3v0.1
				c-1.2-0.6-4-2-5.5-3.1c-2-1.5-5.1-3.7-1.6,0c2.9,3.1,6,4.9,7,5.4l-0.1,11.6c-1.5-0.8-5.1-2.7-7.6-4.7c-3-2.6-5.2-4.3-4.3-2.7
				c0.8,1.5,5.9,7.6,11.8,9.4v38.9h2.6v-43.7c5.7-2.1,10.5-7.7,11.2-9.2C140.7,774.3,138.5,776.1,135.5,778.7z"/>
		</g>
		<g>
			<path class="st35" d="M228.5,769.4c-0.8-1.1-1.2-2.5-1.1-3.9c0-0.4,0-0.7,0-1.1c0-9.1-8.2-16.4-18.3-16.4
				c-10.1,0-18.3,7.4-18.3,16.4c0,0.4,0,0.7,0,1.1c0.1,1.4-0.3,2.8-1.1,3.9c-2.7,3.5-4.2,7.8-4.2,12.4c0,12,10.5,21.7,23.6,21.7
				c13,0,23.6-9.7,23.6-21.7C232.7,777.2,231.2,772.9,228.5,769.4z"/>
			<path class="st5" d="M217.5,781.6c-2,1.7-4.8,3.4-6.5,4.3l-0.3-8.6l-0.7-11.6c0-0.3-0.4-0.3-0.4,0l-0.7,11.6v0.1
				c-1.2-0.6-3.8-1.9-5.2-3c-1.9-1.4-4.8-3.5-1.5,0c2.8,2.9,5.6,4.6,6.6,5.1l-0.1,10.9c-1.4-0.7-4.9-2.5-7.1-4.5
				c-2.9-2.4-4.9-4.1-4.1-2.6c0.8,1.5,5.6,7.1,11.2,8.9v36.6h2.4v-41.2c5.4-2,9.9-7.3,10.6-8.7C222.4,777.5,220.4,779.1,217.5,781.6
				z"/>
		</g>
		<g>
			<path class="st36" d="M188.2,747.2c-1.1-1.5-1.6-3.3-1.5-5.2c0-0.5,0.1-1,0.1-1.5c0-12.1-10.9-21.9-24.4-21.9
				s-24.4,9.8-24.4,21.9c0,0.5,0,1,0.1,1.5c0.1,1.9-0.4,3.7-1.5,5.2c-3.6,4.7-5.6,10.4-5.6,16.6c0,16,14.1,29,31.4,29
				c17.4,0,31.4-13,31.4-29C193.9,757.6,191.8,751.9,188.2,747.2z"/>
			<path class="st5" d="M173.6,763.4c-2.7,2.3-6.4,4.5-8.7,5.7l-0.4-11.5l-0.9-15.5c0-0.4-0.6-0.4-0.6,0l-0.9,15.5v0.1
				c-1.6-0.7-5.1-2.5-7-4c-2.5-1.9-6.4-4.7-2,0c3.7,3.9,7.5,6.1,8.8,6.7v14.8c-1.9-1-6.6-3.5-9.7-6.1c-3.8-3.3-6.5-5.5-5.5-3.5
				c1,1.9,7.7,9.5,15.1,11.9v51.2h3v-57.2c7.1-2.6,13.1-9.7,14.1-11.6C180.1,758,177.5,760.2,173.6,763.4z"/>
		</g>
		<g>
			<path class="st37" d="M763.8,785c-0.6-0.8-0.9-1.9-0.8-2.9c0-0.3,0-0.5,0-0.8c0-6.8-6.1-12.2-13.6-12.2s-13.6,5.5-13.6,12.2
				c0,0.3,0,0.5,0,0.8c0.1,1-0.2,2.1-0.8,2.9c-2,2.6-3.1,5.8-3.1,9.2c0,8.9,7.9,16.2,17.5,16.2c9.7,0,17.5-7.2,17.5-16.2
				C767,790.8,765.8,787.6,763.8,785z"/>
			<path class="st5" d="M755.7,794.1c-1.5,1.3-3.6,2.5-4.9,3.2l-0.2-6.4l-0.5-8.7c0-0.2-0.3-0.2-0.3,0l-0.5,8.7v0.1
				c-0.9-0.4-2.8-1.4-3.9-2.2c-1.4-1.1-3.6-2.6-1.1,0c2.1,2.2,4.2,3.4,4.9,3.8l-0.1,8.1c-1.1-0.5-3.6-1.9-5.3-3.3
				c-2.1-1.8-3.6-3.1-3.1-1.9c0.6,1.1,4.1,5.3,8.3,6.6v26.8h1.8v-30.2c4-1.5,7.4-5.4,7.9-6.5C759.3,791,757.8,792.2,755.7,794.1z"/>
		</g>
		<g>
			<path class="st35" d="M821.1,787.5c-0.6-0.8-0.9-1.8-0.8-2.7c0-0.3,0-0.5,0-0.8c0-6.4-5.8-11.6-12.8-11.6
				c-7.1,0-12.8,5.2-12.8,11.6c0,0.3,0,0.5,0,0.8c0.1,1-0.2,2-0.8,2.7c-1.9,2.5-3,5.5-3,8.7c0,8.4,7.4,15.3,16.6,15.3
				s16.6-6.8,16.6-15.3C824.1,793,823,790,821.1,787.5z"/>
			<path class="st5" d="M813.4,796.1c-1.4,1.2-3.4,2.4-4.6,3l-0.2-6.1l-0.5-8.2c0-0.2-0.3-0.2-0.3,0l-0.5,8.2v0.1
				c-0.8-0.4-2.7-1.3-3.7-2.1c-1.3-1-3.4-2.5-1.1,0c1.9,2.1,4,3.2,4.6,3.6l-0.1,7.7c-1-0.5-3.4-1.8-5-3.1c-2-1.7-3.4-2.9-2.9-1.8
				c0.5,1,3.9,5,7.9,6.3v25.3h1.7v-28.4c3.8-1.4,7-5.1,7.5-6.1C816.8,793.2,815.4,794.4,813.4,796.1z"/>
		</g>
		<g>
			<path class="st36" d="M792.8,771.9c-0.8-1-1.1-2.3-1-3.6c0-0.3,0-0.7,0-1c0-8.5-7.7-15.4-17.1-15.4c-9.5,0-17.1,6.9-17.1,15.4
				c0,0.3,0,0.7,0,1c0.1,1.3-0.2,2.6-1,3.6c-2.5,3.3-4,7.3-4,11.7c0,11.3,9.9,20.4,22.1,20.4c12.2,0,22.1-9.1,22.1-20.4
				C796.7,779.2,795.3,775.2,792.8,771.9z"/>
			<path class="st5" d="M782.5,783.3c-1.9,1.6-4.5,3.2-6.1,4l-0.3-8.1l-0.7-10.9c0-0.3-0.4-0.3-0.4,0l-0.7,10.9v0.1
				c-1.1-0.5-3.6-1.8-4.9-2.8c-1.8-1.4-4.5-3.3-1.4,0c2.6,2.8,5.3,4.3,6.2,4.7v10.4c-1.3-0.7-4.6-2.5-6.8-4.3
				c-2.7-2.3-4.6-3.9-3.9-2.4c0.7,1.4,5.4,6.7,10.7,8.4v36h2.1v-40.3c5-1.8,9.3-6.8,9.9-8.2C787.1,779.5,785.2,781,782.5,783.3z"/>
		</g>
		<g>
			<path class="st38" d="M937.3,765.4c-0.9-1.2-1.3-2.7-1.2-4.1c0-0.4,0-0.8,0-1.2c0-9.7-8.7-17.5-19.4-17.5s-19.4,7.8-19.4,17.5
				c0,0.4,0,0.8,0,1.2c0.1,1.5-0.3,3-1.2,4.1c-2.8,3.7-4.5,8.3-4.5,13.2c0,12.8,11.2,23.1,25.1,23.1s25.1-10.4,25.1-23.1
				C941.8,773.7,940.1,769.2,937.3,765.4z"/>
			<path class="st5" d="M925.6,778.4c-2.1,1.8-5.1,3.6-6.9,4.6l-0.3-9.2l-0.7-12.4c0-0.3-0.4-0.3-0.5,0l-0.7,12.4v0.1
				c-1.3-0.6-4.1-2-5.6-3.2c-2-1.5-5.1-3.8-1.6,0c2.9,3.1,6,4.9,7,5.4l-0.1,11.6c-1.5-0.8-5.2-2.7-7.6-4.8c-3.1-2.6-5.2-4.4-4.4-2.8
				c0.8,1.6,5.9,7.6,11.9,9.5v39.1h2.6v-43.9c5.7-2.1,10.5-7.8,11.3-9.3C930.9,774,928.7,775.8,925.6,778.4z"/>
		</g>
		<g>
			<path class="st35" d="M1019.2,769c-0.8-1.1-1.2-2.5-1.1-3.9c0-0.4,0-0.7,0-1.1c0-9.1-8.2-16.5-18.4-16.5s-18.4,7.4-18.4,16.5
				c0,0.4,0,0.7,0,1.1c0.1,1.4-0.3,2.8-1.1,3.9c-2.7,3.5-4.3,7.8-4.3,12.5c0,12.1,10.6,21.8,23.7,21.8c13.1,0,23.7-9.8,23.7-21.8
				C1023.5,776.9,1021.9,772.6,1019.2,769z"/>
			<path class="st5" d="M1008.2,781.3c-2,1.7-4.9,3.4-6.6,4.3l-0.3-8.7l-0.7-11.7c0-0.3-0.4-0.3-0.4,0l-0.7,11.7v0.1
				c-1.2-0.6-3.8-1.9-5.3-3c-1.9-1.4-4.9-3.6-1.5,0c2.8,3,5.7,4.6,6.6,5.1l-0.1,11c-1.4-0.7-4.9-2.5-7.2-4.5
				c-2.9-2.5-4.9-4.1-4.1-2.6c0.8,1.5,5.6,7.2,11.2,8.9v36.9h2.4v-41.4c5.4-2,9.9-7.3,10.7-8.7
				C1013.1,777.1,1011.1,778.8,1008.2,781.3z"/>
		</g>
		<g>
			<path class="st36" d="M978.7,746.7c-1.1-1.5-1.6-3.3-1.5-5.2c0-0.5,0.1-1,0.1-1.5c0-12.2-11-22.1-24.5-22.1s-24.5,9.9-24.5,22.1
				c0,0.5,0,1,0.1,1.5c0.1,1.9-0.4,3.7-1.5,5.2c-3.6,4.7-5.7,10.5-5.7,16.7c0,16.1,14.2,29.2,31.6,29.2s31.6-13.1,31.6-29.2
				C984.4,757.2,982.3,751.4,978.7,746.7z"/>
			<path class="st5" d="M964,763c-2.7,2.3-6.4,4.6-8.7,5.7l-0.4-11.6l-0.9-15.6c0-0.4-0.6-0.4-0.6,0l-0.9,15.6v0.1
				c-1.6-0.8-5.1-2.5-7-4c-2.5-1.9-6.5-4.7-2,0c3.7,3.9,7.6,6.1,8.8,6.8V775c-1.9-1-6.6-3.6-9.7-6.2c-3.9-3.3-6.6-5.5-5.5-3.5
				c1,2,7.7,9.6,15.2,11.9v51.5h3v-57.6c7.2-2.6,13.2-9.8,14.2-11.7C970.6,757.5,967.9,759.7,964,763z"/>
		</g>
		<g>
			<path class="st6" d="M586.5,728.7c-3.3-7.2-7.6-11.5-12.4-11.5c-4.9,0-9.3,4.5-12.6,12c-3.7,8.3-18.2,38.8-18.2,57.4
				c0,15,13.5,27.1,30.2,27.1s30.2-12.1,30.2-27.1C603.8,767.8,590.4,737.1,586.5,728.7z"/>
			<path class="st39" d="M587.3,789.5c-0.2-1.1-1.2,0.8-4.3,3.9c-2.2,2.2-5.6,3.4-7.3,3.9l-1.6-25.6c0-0.7-1-0.7-1.1,0l-0.8,14.4
				c-1.3-0.1-4-0.5-6.7-2.8c-3.8-3.2-4-3.3-2.9-1.2c1,2,5,5.5,9.6,6.1l-0.8,15.1c-1.8-0.6-6.2-2.4-9.6-5.7c-4.4-4.2-4.6-5.3-5.5-6
				c-0.9-0.7-0.1,2.3,2,5.2c2,2.6,7.6,7.3,13,8.7l-1.3,23.2h7.8l-1.9-29.6C583.1,797.5,587.4,790.6,587.3,789.5z"/>
		</g>
		<g>
			<path class="st40" d="M635.3,699.3c-4.3-9.3-9.9-14.9-16-14.9c-6.3,0-12,5.9-16.3,15.5c-4.8,10.8-23.5,50.1-23.5,74.2
				c0,19.4,17.5,35.1,39.1,35.1c21.6,0,39.1-15.7,39.1-35.1C657.8,749.8,640.3,710.1,635.3,699.3z"/>
			<path class="st39" d="M636.3,777.9c-0.2-1.5-1.6,1.1-5.6,5.1c-2.9,2.9-7.2,4.4-9.5,5.1l-2.1-33.1c-0.1-0.9-1.3-0.9-1.4,0l-1,18.7
				c-1.7-0.1-5.2-0.7-8.7-3.6c-4.9-4.2-5.2-4.3-3.8-1.6c1.3,2.5,6.5,7.2,12.4,7.8l-1.1,19.5c-2.3-0.8-8-3.2-12.5-7.4
				c-5.7-5.4-5.9-6.9-7.1-7.7s-0.2,3,2.6,6.8c2.6,3.4,9.8,9.4,16.8,11.2l-1.6,30.1h10.1l-2.5-38.3
				C631,788.3,636.5,779.3,636.3,777.9z"/>
		</g>
		<g>
			<path class="st40" d="M1040.4,731.2c3.2-7,7.4-11.2,12.1-11.2c4.7,0,9,4.4,12.3,11.7c3.6,8.1,17.7,37.8,17.7,56
				c0,14.6-13.2,26.4-29.5,26.4c-16.3,0-29.5-11.8-29.5-26.4C1023.5,769.3,1036.6,739.4,1040.4,731.2z"/>
			<path class="st39" d="M1039.6,790.4c0.2-1.1,1.2,0.8,4.2,3.8c2.2,2.2,5.4,3.3,7.1,3.8l1.6-24.9c0-0.7,1-0.6,1,0l0.8,14.1
				c1.2-0.1,3.9-0.5,6.6-2.7c3.7-3.1,3.9-3.2,2.9-1.2c-1,1.9-4.9,5.4-9.3,5.9l0.8,14.7c1.7-0.6,6-2.4,9.4-5.5
				c4.3-4.1,4.5-5.2,5.3-5.8c0.9-0.6,0.1,2.2-2,5.1c-1.9,2.5-7.4,7.1-12.6,8.4l1.2,22.7h-7.6l1.9-28.9
				C1043.7,798.3,1039.5,791.5,1039.6,790.4z"/>
		</g>
		<g>
			<path class="st6" d="M1077.2,753.4c2.5-5.4,5.8-8.7,9.3-8.7c3.7,0,7,3.4,9.5,9c2.8,6.3,13.7,29.2,13.7,43.3
				c0,11.3-10.2,20.4-22.8,20.4s-22.8-9.1-22.8-20.4C1064.1,782.8,1074.3,759.7,1077.2,753.4z"/>
			<path class="st39" d="M1076.6,799.2c0.1-0.9,0.9,0.6,3.3,3c1.7,1.7,4.2,2.6,5.5,3l1.2-19.3c0-0.5,0.8-0.5,0.8,0l0.6,10.9
				c1-0.1,3-0.4,5.1-2.1c2.8-2.4,3-2.5,2.2-0.9c-0.8,1.5-3.8,4.2-7.2,4.6l0.6,11.4c1.3-0.5,4.7-1.8,7.3-4.3c3.3-3.1,3.4-4,4.1-4.5
				c0.7-0.5,0.1,1.7-1.5,4c-1.5,2-5.7,5.5-9.8,6.5l1,17.5h-5.9l1.4-22.3C1079.7,805.2,1076.5,800,1076.6,799.2z"/>
		</g>
		<g>
			<path class="st41" d="M467.8,740.3c-2.9-6.4-6.7-10.3-10.9-10.4c-4.3-0.1-8.3,3.9-11.3,10.5c-3.4,7.4-16.5,34.3-16.7,50.8
				c-0.2,13.3,11.8,24.2,26.6,24.4c14.8,0.2,27-10.5,27.2-23.8C482.8,775.1,471.1,747.7,467.8,740.3z"/>
			<path class="st39" d="M467.8,794.3c-0.1-1-1.1,0.7-3.9,3.4c-2,1.9-5,3-6.6,3.4l-1.2-22.7c0-0.6-0.9-0.6-0.9,0l-0.8,12.8
				c-1.1-0.1-3.6-0.5-5.9-2.6c-3.3-2.9-3.6-3-2.6-1.1c0.9,1.8,4.4,5,8.4,5.5l-0.9,13.4c-1.6-0.6-5.5-2.2-8.5-5.2
				c-3.9-3.7-4-4.8-4.8-5.4s-0.1,2,1.7,4.7c1.7,2.3,6.7,6.6,11.4,7.8l-1.4,20.6l7,0.1l-1.4-26.3C464.1,801.3,468,795.2,467.8,794.3z
				"/>
		</g>
		<g>
			<path class="st42" d="M386.2,728.7c-3.3-7.2-7.6-11.5-12.4-11.5c-4.9,0-9.3,4.5-12.6,12c-3.7,8.3-18.2,38.8-18.2,57.4
				c0,15,13.5,27.1,30.2,27.1c16.7,0,30.2-12.1,30.2-27.1C403.6,767.8,390.1,737.1,386.2,728.7z"/>
			<path class="st39" d="M387,789.5c-0.2-1.1-1.2,0.8-4.3,3.9c-2.2,2.2-5.6,3.4-7.3,3.9l-1.6-25.6c0-0.7-1-0.7-1.1,0l-0.8,14.4
				c-1.3-0.1-4-0.5-6.7-2.8c-3.8-3.2-4-3.3-2.9-1.2c1,2,5,5.5,9.6,6.1l-0.8,15.1c-1.8-0.6-6.2-2.4-9.6-5.7c-4.4-4.2-4.6-5.3-5.5-6
				c-0.9-0.7-0.1,2.3,2,5.2c2,2.6,7.6,7.3,13,8.7l-1.3,23.2h7.8l-1.9-29.6C382.9,797.5,387.1,790.6,387,789.5z"/>
		</g>
		<g>
			<path class="st43" d="M432.6,711c-3.8-8.5-8.8-13.7-14.4-13.7c-5.7-0.1-11,5.2-15,13.9c-4.5,9.8-21.9,45.4-22.2,67.3
				c-0.2,17.6,15.6,32.1,35.2,32.3c19.7,0.2,35.8-13.9,36-31.5C452.5,757.2,437,720.9,432.6,711z"/>
			<path class="st39" d="M432.9,782.5c-0.2-1.3-1.4,1-5.1,4.6c-2.6,2.6-6.6,4-8.6,4.6l-1.9-30.1c-0.1-0.8-1.2-0.8-1.3,0l-0.9,17
				c-1.5-0.1-4.7-0.6-7.9-3.3c-4.4-3.8-4.8-3.9-3.5-1.4c1.2,2.3,5.9,6.5,11.3,7.1l-1,17.8c-2.1-0.8-7.3-2.9-11.3-6.7
				c-5.2-4.9-5.4-6.2-6.4-7c-1.1-0.8-0.1,2.7,2.4,6.2c2.3,3.1,9,8.6,15.3,10.2l-1.5,27.4h9.2l-2.2-34.8
				C428,791.9,433.1,783.8,432.9,782.5z"/>
		</g>
		<g>
			<path class="st35" d="M357.9,756c-1-1.4-1.5-3-1.3-4.7c0-0.4,0-0.9,0-1.3c0-11.1-10-20-22.3-20c-12.3,0-22.3,9-22.3,20
				c0,0.5,0,0.9,0,1.3c0.1,1.7-0.3,3.4-1.3,4.7c-3.2,4.3-5.2,9.5-5.2,15.1c0,14.6,12.9,26.5,28.7,26.5c15.9,0,28.7-11.9,28.7-26.5
				C363,765.5,361.1,760.3,357.9,756z"/>
			<path class="st5" d="M344.5,770.8c-2.4,2.1-5.9,4.1-7.9,5.2l-0.3-10.5l-0.8-14.2c0-0.3-0.5-0.3-0.5,0l-0.8,14.2v0.1
				c-1.4-0.7-4.6-2.3-6.4-3.6c-2.3-1.8-5.9-4.3-1.8,0c3.4,3.6,6.9,5.6,8,6.2l-0.1,13.3c-1.7-0.9-5.9-3.1-8.7-5.5c-3.5-3-6-5-5-3.2
				c0.9,1.8,6.8,8.7,13.6,10.8v45h2.9v-50.6c6.5-2.4,12.1-8.9,13-10.6C350.5,765.8,348,767.8,344.5,770.8z"/>
		</g>
		<g>
			<path class="st41" d="M1166,760.8c2.2-5,5.2-8,8.4-8c3.3,0,6.4,3,8.7,8.1c2.6,5.7,12.8,26.5,12.9,39.3
				c0.1,10.3-9.1,18.7-20.6,18.9s-20.9-8.1-21-18.4C1154.4,787.7,1163.4,766.5,1166,760.8z"/>
			<path class="st39" d="M1165.9,802.5c0.1-0.8,0.8,0.6,3,2.7c1.5,1.5,3.9,2.3,5.1,2.6l0.9-17.6c0-0.5,0.7-0.5,0.7,0l0.7,9.9
				c0.9-0.1,2.8-0.4,4.6-2c2.6-2.2,2.7-2.3,2-0.9c-0.7,1.4-3.4,3.8-6.5,4.2l0.7,10.4c1.2-0.5,4.2-1.7,6.6-4c3-2.9,3.1-3.7,3.7-4.1
				c0.6-0.5,0.1,1.6-1.3,3.6c-1.3,1.8-5.2,5.1-8.8,6l1.1,15.4h-5.4l1.1-19.7C1168.8,808,1165.8,803.3,1165.9,802.5z"/>
		</g>
		<g>
			<path class="st42" d="M1229,751.8c2.5-5.5,5.9-8.9,9.6-8.9c3.8,0,7.2,3.5,9.7,9.3c2.9,6.5,14,30,14,44.4
				c0,11.6-10.5,20.9-23.4,20.9s-23.4-9.4-23.4-20.9C1215.6,782,1226,758.3,1229,751.8z"/>
			<path class="st39" d="M1228.4,798.8c0.1-0.9,0.9,0.6,3.3,3c1.7,1.7,4.3,2.7,5.7,3l1.3-19.8c0-0.5,0.8-0.5,0.8,0l0.6,11.2
				c1-0.1,3.1-0.4,5.2-2.2c2.9-2.5,3.1-2.6,2.3-0.9c-0.8,1.5-3.9,4.3-7.4,4.7l0.6,11.7c1.4-0.5,4.8-1.9,7.4-4.4
				c3.4-3.2,3.5-4.1,4.2-4.6c0.7-0.5,0.1,1.8-1.6,4.1c-1.5,2-5.9,5.6-10,6.7l1,17.6h-6.1l1.5-22.5
				C1231.6,805,1228.3,799.6,1228.4,798.8z"/>
		</g>
		<g>
			<path class="st43" d="M1193.1,738.1c2.9-6.6,6.8-10.6,11.2-10.6c4.4-0.1,8.5,4,11.6,10.8c3.5,7.6,16.9,35.1,17.1,52
				c0.2,13.6-12,24.8-27.2,25c-15.2,0.2-27.7-10.7-27.8-24.3C1177.8,773.8,1189.7,745.8,1193.1,738.1z"/>
			<path class="st39" d="M1192.9,793.4c0.1-1,1.1,0.7,3.9,3.6c2,2,5.1,3.1,6.7,3.6l1.5-23.3c0-0.6,0.9-0.6,1,0l0.7,13.1
				c1.2-0.1,3.7-0.5,6.1-2.6c3.4-2.9,3.7-3,2.7-1.1c-0.9,1.8-4.6,5-8.7,5.5l0.7,13.7c1.6-0.6,5.6-2.2,8.8-5.2c4-3.8,4.2-4.8,5-5.4
				c0.8-0.6,0.1,2.1-1.8,4.8c-1.8,2.4-6.9,6.6-11.8,7.9l1.2,20.8h-7.1l1.7-26.5C1196.7,800.7,1192.8,794.4,1192.9,793.4z"/>
		</g>
		<g>
			<path class="st35" d="M1250.9,772.9c0.8-1,1.1-2.4,1-3.7c0-0.3,0-0.7,0-1c0-8.5,7.7-15.5,17.2-15.5c9.5,0,17.2,6.9,17.2,15.5
				c0,0.3,0,0.7,0,1c-0.1,1.3,0.3,2.6,1,3.7c2.5,3.3,4,7.3,4,11.7c0,11.3-9.9,20.5-22.2,20.5s-22.2-9.2-22.2-20.5
				C1247,780.3,1248.4,776.2,1250.9,772.9z"/>
			<path class="st5" d="M1261.3,784.4c1.9,1.6,4.5,3.2,6.1,4l0.2-8.1l0.7-11c0-0.3,0.4-0.3,0.4,0l0.7,11v0.1
				c1.1-0.5,3.6-1.8,4.9-2.8c1.8-1.4,4.5-3.3,1.4,0c-2.6,2.8-5.3,4.3-6.2,4.8l0.1,10.3c1.3-0.7,4.6-2.4,6.7-4.2
				c2.7-2.3,4.6-3.9,3.9-2.4c-0.7,1.4-5.2,6.7-10.5,8.4v34.4h-2.3v-38.7c-5-1.8-9.3-6.9-10-8.2
				C1256.6,780.5,1258.5,782.1,1261.3,784.4z"/>
		</g>
	</g>
	<g id="carpa">
		<polygon class="st44" points="256.9,777 235,777 235,832.1 256.9,835 		"/>
		<path class="st45" d="M254.1,771.1c0,0,19.1,41.2,53.5,63.9c0,0-28.8-21.9-52.3-65.4L254.1,771.1z"/>
		<path class="st46" d="M235,835c0,0,14.7-43.9,19.1-61.1c0,0,0.7,20.2,4.3,29.7c3.6,9.4,4.5,13.9,3.5,18.9c-1,5-1.2,10.3,3.9,12.5
			h17.2c0,0,0.5-11.4,7.8-13.5c0,0-29.3-33.1-36.6-50.3l-42.9,50.8c0,0,6.9,5,10.5,13.1H235z"/>
		<path class="st45" d="M160.1,819.6c0,0,2.6,11.3,1.6,15.4h60c0,0,1.9-6.7-6.9-13.9c0,0,36.1-40.8,39.3-50l-57,1.2
			C197.1,772.3,168.8,813.6,160.1,819.6z"/>
		<path class="st45" d="M252.5,835h25.1l-23.4-62.4c0,0-3.2,18-1.8,26.5s5.4,12.7,3.3,18.9C253.5,824.2,245.7,824.8,252.5,835z"/>
		<path class="st46" d="M141.1,834c0,0,39.2-28.8,55-63.4l59.2-1c0,0-47.9,60-61.9,67.3c0,0,12.7-12.1,17.7-17.9l-50.9,0.6
			C160.1,819.6,145.9,832.7,141.1,834z"/>
	</g>
</g>
</svg>
