<?xml version="1.0" encoding="utf-8"?>
<!-- Generator: Adobe Illustrator 24.1.2, SVG Export Plug-In . SVG Version: 6.00 Build 0)  -->
<svg version="1.1" id="Capa_1" xmlns="http://www.w3.org/2000/svg" xmlns:xlink="http://www.w3.org/1999/xlink" x="0px" y="0px"
	 viewBox="0 0 162.3 136.7" style="enable-background:new 0 0 162.3 136.7;" xml:space="preserve">
<style type="text/css">
	.st0{fill:#69BC48;}
</style>
<path class="st0" d="M40.1,65.4c0-2.2,0.2-4.4,0.5-6.5l4.8,2.1l-3.9-22.4L20.8,50.2l6.4,2.8c-0.9,4-1.4,8.2-1.4,12.4
	c0,23.1,13.7,43,33.4,52l4.1-13.9C49.5,96.3,40.1,82,40.1,65.4z M83,22.5c16.8,0,31.3,9.7,38.3,23.7l-5.8,1.6l18.5,15.4l7.4-22.4
	l-6.1,1.7c-8.9-20.1-29-34.2-52.4-34.2c-16.3,0-31.1,6.9-41.5,17.9l10.8,9.5C60.1,27.5,71,22.5,83,22.5z M90.1,107.7l0-6.1
	l-19.8,12.6L90,128.5l0-6.3c26-3.2,46.6-23.8,49.8-49.9l-14.2-1.6C123.2,89.5,108.7,104.6,90.1,107.7z"/>
</svg>
