<?xml version="1.0" encoding="utf-8"?>
<!-- Generator: Adobe Illustrator 25.2.3, SVG Export Plug-In . SVG Version: 6.00 Build 0)  -->
<svg version="1.1" id="Capa_2" xmlns="http://www.w3.org/2000/svg" xmlns:xlink="http://www.w3.org/1999/xlink" x="0px" y="0px"
	 viewBox="0 0 162.3 136.7" style="enable-background:new 0 0 162.3 136.7;" xml:space="preserve">
<style type="text/css">
	.st0{fill:#B8CC6A;}
	.st1{fill:#EFBF03;}
</style>
<path class="st0" d="M112.9,23.3C108.7,17.5,98.2,5,83.6,2.9C69,0.8,59.3,5.4,55.8,17.1c-0.1,0.4,12.9-8.2,24-6
	c11.1,2.1,13.9,5.6,14.9,6.6c1,1,0,2.8-2,1.8S82,12.8,71.4,15.2C60.9,17.7,48.2,25.4,39.5,32s-9.3,9.9-8.7,11.1
	c0.5,1.2,2.2,0.6,5.4-2.5s12.8-11.2,20.1-13.4c0,0,4.4,9.3,13.8,9.6s21.8-3.9,30.1-4.9s13.5-0.6,15.2-1
	C117,30.5,117.1,29,112.9,23.3z M144.8,81.1c-0.3-0.3,0.7,15.3-6.6,23.9c-7.3,8.6-11.8,9.3-13.1,9.7c-1.3,0.4-2.4-1.4-0.6-2.6
	s11.2-6.1,14.2-16.5s2.6-25.2,1.1-36c-1.5-10.8-4.1-12.9-5.4-13.1c-1.3-0.1-1.6,1.6-0.5,5.9c1.1,4.3,3.4,16.6,1.8,24.1
	c0,0-10.2-0.8-15.1,7.3c-4.9,8.1-7.4,20.9-10.6,28.6s-6.2,12-6.6,13.7c-0.5,1.7,0.7,2.5,7.8,1.7c7.1-0.8,23.2-3.8,32.2-15.4
	C152.4,100.7,153.2,90,144.8,81.1z M74.7,128.7c-4.4-0.9-16.4-4.4-22.3-9.2c0,0,5.3-8.8,0.3-16.8c-5-8-15.4-16-20.8-22.3
	c-5.4-6.3-8-10.9-9.3-12.1s-2.5-0.5-5,6.2c-2.5,6.7-7,22.4-0.7,35.7c6.3,13.3,15.5,18.8,27.3,15.2c0.4-0.1-14-6.2-18.4-16.6
	c-4.4-10.4-3.1-14.7-2.8-16.1c0.3-1.4,2.3-1.6,2.6,0.6c0.3,2.2,0.5,12.7,8.3,20.1c7.9,7.4,21.3,13.7,31.7,17.2s13.4,2.2,14.1,1.1
	C80.5,130.7,79.1,129.7,74.7,128.7z"/>
<path class="st1" d="M82.6,63.3c-7.3,0-13.3,5.9-13.3,13.3c0,7.3,5.9,13.3,13.3,13.3c7.3,0,13.3-5.9,13.3-13.3
	C95.8,69.3,89.9,63.3,82.6,63.3z M98,89.2c-0.8-0.8-2-0.8-2.8,0s-0.8,2,0,2.8l7,7c0.4,0.4,0.9,0.6,1.4,0.6s1-0.2,1.4-0.6
	c0.8-0.8,0.8-2,0-2.8L98,89.2z M67.1,64c0.4,0.4,0.9,0.6,1.4,0.6s1-0.2,1.4-0.6c0.8-0.8,0.8-2,0-2.8l-7-7c-0.8-0.8-2-0.8-2.8,0
	c-0.8,0.8-0.8,2,0,2.8L67.1,64z M64.7,76.6c0-1.1-0.9-2-2-2h-9.9c-1.1,0-2,0.9-2,2s0.9,2,2,2h9.9C63.8,78.6,64.7,77.7,64.7,76.6z
	 M96.6,64.6c0.5,0,1-0.2,1.4-0.6l7-7c0.8-0.8,0.8-2,0-2.8c-0.8-0.8-2-0.8-2.8,0l-7,7c-0.8,0.8-0.8,2,0,2.8
	C95.6,64.4,96.1,64.6,96.6,64.6z M82.6,58.8c1.1,0,2-0.9,2-2v-9.9c0-1.1-0.9-2-2-2s-2,0.9-2,2v9.9C80.6,57.9,81.5,58.8,82.6,58.8z
	 M67.1,89.2l-7,7c-0.8,0.8-0.8,2,0,2.8c0.4,0.4,0.9,0.6,1.4,0.6s1-0.2,1.4-0.6l7-7c0.8-0.8,0.8-2,0-2.8
	C69.2,88.5,67.9,88.5,67.1,89.2z M112.3,74.6h-9.9c-1.1,0-2,0.9-2,2s0.9,2,2,2h9.9c1.1,0,2-0.9,2-2S113.4,74.6,112.3,74.6z
	 M82.6,94.5c-1.1,0-2,0.9-2,2v9.9c0,1.1,0.9,2,2,2s2-0.9,2-2v-9.9C84.6,95.4,83.7,94.5,82.6,94.5z"/>
</svg>
