<?xml version="1.0" encoding="utf-8"?>
<!-- Generator: Adobe Illustrator 25.2.3, SVG Export Plug-In . SVG Version: 6.00 Build 0)  -->
<svg version="1.1" id="Capa_9" xmlns="http://www.w3.org/2000/svg" xmlns:xlink="http://www.w3.org/1999/xlink" x="0px" y="0px"
	 viewBox="0 0 378 378" style="enable-background:new 0 0 378 378;" xml:space="preserve">
<style type="text/css">
	.st0{fill:#E5E5E5;}
	.st1{fill:#AAD6FF;}
	.st2{fill:#45393F;}
	.st3{fill:#293035;}
	.st4{fill:#999EA1;}
	.st5{fill:#797979;}
	.st6{fill:#DCC252;}
	.st7{fill:#444D52;}
	.st8{fill:#323C42;}
	.st9{fill:#67727A;}
	.st10{fill:#2A2D30;}
	.st11{fill:#CC9B7D;}
	.st12{fill:#FFFFFF;}
	.st13{fill:#0FAFD1;}
	.st14{fill:#FF882B;}
	.st15{fill:#00AD44;}
	.st16{font-family:'MyriadPro-Regular';}
	.st17{font-size:12px;}
</style>
<path class="st0" d="M303.7,38.8H196.4v69h163.2C346.7,80.7,327.6,57,303.7,38.8z"/>
<path class="st1" d="M189,0c-2.8,0-5.5,0.1-8.2,0.2V39H304C271,13.6,230.6-0.1,189,0z"/>
<path class="st2" d="M349.5,89.1v6.8l3.7-0.6C352,93.2,350.7,91.2,349.5,89.1z"/>
<path class="st3" d="M356.9,102.1v13.7l6.2-0.5C361.2,110.8,359.1,106.4,356.9,102.1z"/>
<path class="st2" d="M356.9,102.1c-0.4-0.8-0.9-1.6-1.3-2.4l-37.6,4.9v14.9l38.9-5V102.1z"/>
<path class="st4" d="M362,112.8l-36.7-3.3l-11.5-8.5l35.7-5v-6.8c-5.2-8.4-11.1-16.4-17.6-23.9l-26.5,4.1l-2.5-19.7l12.5-1.3
	c-2-1.8-4-3.5-6-5.2H226v7.3h68.7l6.4-0.7c0.6,4.5,1.5,12.1,1.8,16.9c0.4,7-1.3,16.1-7.5,17.5c-3.6-5.8-4.9-12.8-3.6-19.5
	c0.9-4.7,1.6-8.3,2.2-11c-2.8,0-8.5-0.1-8.5-0.1l-4.8,8.9c-0.7,1.3-2,2.1-3.5,2.1h-35.1l0.9,1.8h44.2c0.6,0,1.1,0.5,1.1,1.1
	c0,0.1,0,0.2,0,0.3l-0.3,1.1c-0.3,1.4-1.6,2.3-3,2.4h-39.6l20.6,43.1l32.4,10l44.1,175.1C381.5,245,389,174,362,112.8z M301.3,37
	h-79.7v4.1h85C304.9,39.7,303.1,38.3,301.3,37z"/>
<path class="st5" d="M375.9,217l-55.3-95.1c-0.6-1.1-1.8-1.8-3.1-1.8h-27.2l41.9,192.3C355.5,285.4,370.7,252.3,375.9,217z"/>
<path class="st6" d="M287,27.4v6.4l-34.1-4.3c0.9-4.1,4.9-7.6,21.4-7.6h2.9c-2.6-1.3-5.1-2.6-7.8-3.9c-19.2,1-20.9,8.1-20.9,15.5
	v33.4h4V33.5l34.4,4.4v24h4v-9.7h3.6V32.2C292.1,30.5,289.6,28.9,287,27.4z"/>
<path class="st7" d="M286.5,38.5v1c0,0.2,0.2,0.4,0.4,0.5l4.1,0.4c0.2,0,0.5-0.2,0.5-0.4c0,0,0,0,0-0.1v-7.5c0-0.2-0.2-0.4-0.4-0.4
	l-4.1-0.4c-0.2,0-0.5,0.2-0.5,0.4c0,0,0,0,0,0.1v0.8c0,0.2-0.2,0.5-0.4,0.5c0,0,0,0-0.1,0l-1.7-0.3c-0.3,0-0.5,0.2-0.5,0.4
	c0,0,0,0,0,0v3.9c0,0.2,0.2,0.4,0.4,0.5l1.9,0.3C286.3,38.1,286.5,38.3,286.5,38.5z M291,61.8h-4.2c-0.2,0-0.4,0.2-0.5,0.4l-0.9,3.9
	h7l-0.9-3.9C291.5,61.9,291.2,61.8,291,61.8z M291,56.4h5.2l-0.9-3.9c-0.1-0.2-0.3-0.4-0.5-0.4H291V56.4z M256.8,29.6l-3.8-0.5
	c-0.2,0.7-0.3,1.3-0.3,2c-0.1,2-0.1,2.7-0.1,2.7l4.1,0.5c0.1,0,0.2-0.1,0.3-0.2c0,0,0,0,0-0.1v-4.3C257,29.7,256.9,29.6,256.8,29.6
	C256.8,29.6,256.8,29.6,256.8,29.6z"/>
<path class="st3" d="M303.1,101.1l-1,0.2c0,0.3,0.3,8.7,0.5,9.9l0,0c-1.2,0.2-2.3,0.2-3.5,0.3h-0.3c-4.3,0.2-24.3,0.9-24.5,0.9
	l0.1,2c0.2,0,20.2-0.7,24.6-0.9h0.3c3.4-0.2,4.5-0.2,5.1-1c0.3-0.5,0.4-1.1,0.3-1.6C304.4,109.6,303.1,101.2,303.1,101.1z
	 M349.1,88.5l-40.9,5.6l1,1.4l40.8-5.6L349.1,88.5z"/>
<path class="st8" d="M182.7,188.9V0.1C81.3,3.5,0.1,86.7,0,188.9H182.7z"/>
<path class="st6" d="M200.6,0.4v4.7h-17.9v3.9h17.9v25h3.9V0.6C203.1,0.5,201.9,0.4,200.6,0.4z"/>
<path class="st7" d="M204.5,2.7L204.5,2.7c-0.1,0.2-0.9,0.4-2,0.4s-1.9-0.2-1.9-0.4h-0.1c-0.3,0-0.5,0.2-0.5,0.5v1.3h-3
	c-0.3,0-0.5,0.2-0.5,0.5c0.2,0,0.4,0.9,0.4,1.9s-0.2,1.9-0.4,1.9v0.2c0,0.3,0.2,0.5,0.5,0.5h3V11c0,0.3,0.2,0.5,0.5,0.5h0.1
	c0-0.2,0.9-0.4,1.9-0.4s1.9,0.2,1.9,0.4h0.1c0.3,0,0.5-0.3,0.5-0.5V3.2C205,3,204.8,2.7,204.5,2.7z"/>
<path class="st9" d="M152.5,11.8c15.9,0.2,26,3,33.6,5.7c-0.1-1-0.4-1.9-0.7-2.9c-1.5-2.8-11.9-7-36.4-7.3c-5-0.1-9.4,0-13.1,0.2
	c-6.7,2-13.4,4.3-19.9,7C124.4,13.2,133.4,11.6,152.5,11.8z"/>
<path class="st7" d="M113.6,16c9.1-1.5,18-3.4,38.6-3.1c15.9,0.2,26.5,3,34.1,5.7c-0.1-1-0.4-1.9-0.7-2.9c-1.5-2.8-12.4-7-37-7.3
	c-6.9-0.1-12.5,0.1-17.1,0.5c-6,1.9-11.9,4.1-17.7,6.7C113.8,15.7,113.7,15.9,113.6,16z"/>
<path class="st7" d="M186.3,18.6c-4.2-1.5-8.6-2.7-13-3.6c1,0.8,1.3,3.1,1.5,4.7s0.4,3.4-2.1,3.3S158.3,22,148.6,22
	s-22.6,0.5-25.1,0.7s-0.9-5.6-0.5-6.8c0.2-0.8,0.9-1.5,1.8-1.7c-4.1,0.6-7.6,1.2-11.1,1.8c-2.2,6.3-6.5,26.6-9.4,82.8l91.4-0.8
	C195.7,83.8,188.7,31.8,186.3,18.6z"/>
<path class="st10" d="M113.6,16c9.1-1.5,18-3.4,38.6-3.1c15.9,0.2,26.5,3,34.1,5.7c-0.1-0.6-0.2-1.2-0.3-1.6
	c-3.6-1.3-7.2-2.4-10.9-3.1c-14.1-3-24.8-3.2-40.1-2c-6.1,0.5-12.2,1.3-18.2,2.4c-1,0.4-1.9,0.8-2.9,1.2
	C113.8,15.7,113.7,15.9,113.6,16z"/>
<path class="st9" d="M175.9,19.9c-0.1-1.8-0.3-3.6-1.4-4.7l-1.1-0.2c1,0.8,1.3,3.1,1.5,4.7s0.4,3.4-2.1,3.3s-14.4-1-24.1-1
	s-22.6,0.5-25.1,0.7c-0.2,0-0.5,0-0.7-0.1l-1.1,1c0.2,0.2,0.4,0.3,0.6,0.4c1.5,0.6,11.9-0.6,23.8-0.8s21.7,0.7,26,1
	S176,22.4,175.9,19.9z"/>
<path class="st10" d="M123,15.9c0.2-0.8,0.9-1.5,1.8-1.7c-0.9,0.1-1.5,0.2-2.3,0.3c-1.7,4.3-2,7.6-0.8,8.9l1.1-1
	C121.3,21.6,122.7,17,123,15.9z"/>
<path class="st9" d="M198.3,26.6c-2.2-4.2-17.8-10.5-54.7-10.9c-14.7-0.2-25.7,0.4-33.7,1.6c-6.3,2.9-12.4,6.1-18.3,9.7
	c13.5-2.2,26.8-5,57.3-4.6c23.9,0.3,39,4.5,50.4,8.5C199.1,29.5,198.8,28,198.3,26.6z"/>
<path class="st7" d="M198.6,28.2c-2.2-4.2-18.6-10.5-55.5-10.9c-17.6-0.2-29.9,0.7-38,2.4c-4.8,2.4-9.5,5-14.1,7.7
	c-0.1,0.4-0.3,0.8-0.4,1.3c13.6-2.3,27-5.1,57.9-4.7c23.9,0.3,39.8,4.5,51.2,8.6C199.4,31,199.1,29.6,198.6,28.2z"/>
<path class="st7" d="M199.6,32.5c-6.4-2.3-12.9-4.1-19.5-5.4c1.6,1.2,2,4.7,2.2,7c0.2,2.5,0.6,5.2-3.1,5s-21.6-1.4-36.1-1.4
	s-33.9,0.8-37.7,1s-1.3-8.4-0.7-10.1c0.3-1.3,1.3-2.3,2.6-2.5c-6.2,0.8-11.4,1.8-16.7,2.7c-3.3,9.5-9.7,39.9-14.1,124.1l137.2-1.1
	C213.7,130.3,203.2,52.3,199.6,32.5z"/>
<path class="st10" d="M199.1,30.1c-5.3-2-10.8-3.6-16.4-4.7c-21.2-4.5-37.3-4.8-60.2-3c-10.3,0.7-20.5,2.2-30.6,4.4L91,27.3
	c-0.1,0.4-0.3,0.8-0.4,1.3c13.6-2.3,27-5.1,57.9-4.7c23.9,0.3,39.8,4.5,51.2,8.6C199.4,31.6,199.3,30.8,199.1,30.1z"/>
<path class="st9" d="M183.9,34.5c-0.2-2.6-0.5-5.4-2.1-7.1l-1.7-0.4c1.6,1.2,2,4.7,2.2,7c0.2,2.5,0.6,5.2-3.1,5s-21.6-1.4-36.1-1.4
	s-33.9,0.8-37.7,1c-0.3,0-0.7-0.1-1-0.2l-1.7,1.5c0.3,0.3,0.6,0.5,0.9,0.6c2.2,0.9,17.9-1,35.7-1.2s32.5,1.1,39,1.5
	S184.1,38.2,183.9,34.5z"/>
<path class="st10" d="M104.7,28.5c0.3-1.3,1.3-2.3,2.6-2.5c-1.4,0.2-2.2,0.3-3.5,0.5c-2.6,6.5-3.1,11.4-1.2,13.4l1.7-1.5
	C102,37,104.1,30,104.7,28.5z"/>
<path class="st9" d="M158.4,37.4c34.5,0.5,56.3,6.4,72.7,12.4c-0.3-2.1-0.8-4.2-1.4-6.2c-3.2-6.2-25.8-15.2-79-15.8
	s-72.3,5.7-75.1,14.3c-0.2,0.6-0.4,1.3-0.7,2.1C94.6,41,113.8,36.9,158.4,37.4z"/>
<path class="st7" d="M157.7,39.7c34.5,0.5,57.5,6.4,73.9,12.4c-0.3-2.1-0.8-4.2-1.4-6.2c-3.2-6.1-26.9-15.2-80.1-15.8
	s-72.3,5.7-75.1,14.3c-0.2,0.6-0.4,1.3-0.7,2.1C93.8,43.3,113.1,39.2,157.7,39.7z"/>
<path class="st7" d="M231.6,52.1c-9.2-3.3-18.6-5.9-28.1-7.8c2.2,1.7,2.9,6.8,3.2,10.1c0.3,3.7,0.9,7.5-4.5,7.2s-31.2-2-52.2-2
	s-49,1.1-54.5,1.4s-1.9-12.1-1-14.6s2.5-3.5,3.8-3.6c-9,1.2-16.5,2.6-24.1,3.8c-4.8,13.7-14.1,57.7-20.4,179.3l198.1-1.7
	C251.9,193.4,236.8,80.7,231.6,52.1z"/>
<path class="st10" d="M230.9,48.6c-7.7-2.9-15.6-5.1-23.7-6.8c-30.6-6.5-53.8-7-86.9-4.3c-23.5,1.9-38.5,4.9-45.3,6.5
	c0,0.1-0.1,0.2-0.1,0.3c-0.2,0.6-0.4,1.3-0.7,2.1c19.7-3.3,38.9-7.4,83.6-6.8c34.5,0.5,57.5,6.4,73.9,12.3
	C231.3,50.7,231.1,49.6,230.9,48.6z"/>
<path class="st9" d="M208.9,55c-0.2-3.8-0.7-7.8-3-10.2c-0.8-0.2-1.6-0.3-2.4-0.5c2.2,1.7,2.9,6.8,3.2,10.1c0.3,3.7,0.9,7.5-4.5,7.2
	s-31.2-2-52.2-2s-49,1.1-54.5,1.4c-0.5,0-1-0.1-1.5-0.3l-2.4,2.1c0.4,0.4,0.8,0.7,1.3,0.9c3.2,1.3,25.9-1.4,51.6-1.8
	s47,1.6,56.3,2.1C210.2,64.5,209.1,60.4,208.9,55z"/>
<path class="st10" d="M94.4,46.3c0.9-2.5,2.5-3.5,3.8-3.6c-2,0.3-3.2,0.4-5,0.7c-3.7,9.4-4.4,16.5-1.7,19.3l2.4-2.1
	C90.7,58.6,93.7,48.5,94.4,46.3z"/>
<path class="st7" d="M215.7,42.7c-5.7-1.6-8.5-2.4-8.5-7.1V25.5c0-1,0.8-1.8,1.7-1.8h14.1c1,0,1.8,0.8,1.8,1.8V38
	C224.9,45.2,215.7,42.7,215.7,42.7z"/>
<path class="st9" d="M211.5,37.2V24.8c0-0.4,0.1-0.7,0.2-1.1H209c-1,0-1.8,0.8-1.8,1.8v10.1c0,3.7,1.7,5,5.2,6.1
	C211.7,40.3,211.4,38.8,211.5,37.2z"/>
<path class="st10" d="M223.1,23.7h-1.7c1,0,1.8,0.8,1.8,1.8V38c0,3.8-2.6,4.9-5,5.1c2.7,0.2,6.7-0.4,6.7-5.1V25.5
	C224.9,24.5,224.1,23.7,223.1,23.7z"/>
<path class="st6" d="M208.4,1v22.7c0,2.8,3.4,2.8,7.6,2.8s7.6,0,7.6-2.8V3.2C218.7,2.3,213.6,1.5,208.4,1z"/>
<path class="st9" d="M270.6,77.4c-5-9.6-40.4-23.8-123.8-24.8c-48.1-0.5-78.4,2.5-96.3,7.8C45.6,65.7,41,71.2,36.8,77
	c28.1-4.8,58.8-10,122.1-9.1c54.1,0.7,88.3,10.1,114,19.4C271.9,81.9,271.1,78.5,270.6,77.4z"/>
<path class="st7" d="M271.2,81.1c-5-9.6-42.2-23.8-125.6-24.8c-50.8-0.6-81.8,2.9-99.3,8.7C42,70.1,37.8,75.3,34,80.8
	c28.6-4.8,59.2-10.3,123.7-9.4c54.1,0.7,90.1,10.1,115.8,19.4C272.5,85.5,271.7,82.1,271.2,81.1z"/>
<path class="st7" d="M304.4,338.7c-4.4-66-23.7-208.2-30.9-247.9c-14.4-5.2-29.1-9.3-44.1-12.3c3.5,2.7,4.5,10.6,4.9,15.8
	c0.5,5.7,1.4,11.7-7,11.2s-48.8-3.2-81.8-3.2s-76.7,1.8-85.4,2.3s-3-19-1.6-22.9s3.9-5.4,5.9-5.7c-11.2,1.5-20.9,3.2-30.5,4.8
	c-4.7,6.7-8.9,13.7-12.7,21C16.2,124.2,10,163.1,4.1,228.2C16.7,287.7,57.3,337.6,113,362.1l154.8-1.3
	C280.8,354.8,293.1,347.4,304.4,338.7z"/>
<path class="st10" d="M272.4,85.3c-12.1-4.5-24.5-8-37.1-10.6C187.3,64.6,151,63.8,99,68.1c-20.7,1.6-41.3,4.3-61.7,8.2
	c-1.1,1.5-2.2,3-3.3,4.5c28.6-4.8,59.2-10.3,123.7-9.4c54.1,0.7,90.1,10.1,115.8,19.4C273.1,88.7,272.7,86.8,272.4,85.3z"/>
<path class="st9" d="M233.2,79.3c-1.3-0.3-2.5-0.5-3.8-0.8c3.5,2.7,4.5,10.6,4.9,15.8c0.5,5.7,1.4,11.7-7,11.2s-48.9-3.2-81.8-3.2
	s-76.7,1.8-85.4,2.3c-0.8,0.1-1.6-0.1-2.3-0.5l-3.8,3.3c0.6,0.6,1.3,1,2,1.4c5,2.1,40.6-2.2,80.9-2.8s73.7,2.4,88.3,3.4
	s13.1-5.5,12.8-14C237.6,89.4,236.8,83,233.2,79.3z"/>
<path class="st10" d="M54,107.4l3.8-3.3c-5.2-3.1-0.5-18.9,0.8-22.4c1.4-3.9,3.9-5.4,5.9-5.7c-3.1,0.4-5,0.7-7.9,1.1
	C50.8,91.9,49.7,103.1,54,107.4z"/>
<path class="st9" d="M328.3,139.4c-7.8-14.9-62.6-36.9-191.9-38.4c-51.4-0.6-89.6,1.5-117.6,5.5c-4,8.2-7.4,16.7-10.1,25.3
	c34.9-4.7,78.5-8.3,146.4-7.4c83.8,1.1,136.8,15.6,176.7,30C330.4,146.2,329.2,140.9,328.3,139.4z"/>
<path class="st7" d="M329.3,144.9C321.5,130,264,108,134.7,106.6c-51.9-0.6-90.4,1.6-118.4,5.6c-3.6,8.2-6.7,16.6-9.1,25.2
	c34.9-4.7,78.6-8.3,146.3-7.4c83.8,1.1,139.6,15.6,179.5,30C331.4,151.8,330.2,146.5,329.3,144.9z"/>
<path class="st7" d="M7.1,137.4l-0.1,0.2c0.6-0.2,1.2-0.4,1.9-0.5L7.1,137.4z M332.9,160c-22.3-8-45.1-14.4-68.4-19
	c5.5,4.2,7,16.5,7.7,24.5c0.7,8.9,2.1,18.1-10.8,17.4s-75.7-5-126.7-5s-118.9,2.9-132.4,3.6c-0.7,0-1.3,0-2-0.2
	C0.1,183.9,0,186.4,0,189c0,104.4,84.6,189,189,189c66.8,0,128.6-35.2,162.6-92.7C344.2,230.6,337.1,183.6,332.9,160z"/>
<path class="st10" d="M331.2,151.6c-14.3-5.5-33.1-11.3-57.5-16.4c-74.4-15.7-130.7-17-211.2-10.3c-20.3,1.7-38.1,3.7-53.2,5.8
	c-0.7,2.3-1.4,4.6-2.1,6.9c34.9-4.7,78.6-8.3,146.3-7.4c83.8,1.1,139.6,15.6,179.5,30C332.3,156.7,331.7,153.9,331.2,151.6z"/>
<path class="st9" d="M270.4,142.2c-2-0.4-3.9-0.9-6-1.2c5.5,4.2,7,16.5,7.7,24.5c0.7,8.9,2.1,18.1-10.8,17.4s-75.7-5-126.7-5
	s-118.9,2.9-132.4,3.6c-0.7,0-1.3,0-2-0.2c-0.1,2.4-0.2,4.8-0.2,7.3c15.7,1.1,65.5-4.2,121.2-5.1c62.5-0.9,114.1,3.8,136.9,5.2
	s20.3-8.6,19.8-21.7C277.2,157.8,276.1,148,270.4,142.2z"/>
<path class="st11" d="M324.6,320.6l-60.5-45.3l-23.3-110c-29-11.8-47.8,6.5-79.3,1.4c-30.4-4.9-45.9-2-49.9,2.2s-6.4,11,1.5,14.1
	s37.1,4.2,37.1,4.2s6.5,5.9-8.4,8.2s-26.5,0.8-33.6,8.1s-0.4,15,19.3,13.9s26.6,4.8,26.6,4.8s6.9,7.9-1.3,9.6s-34.7,2.1-34.7,11.1
	s11.4,8.7,40.7,5.1s15.9,14.2,19.8,22.1s6,22.5,26.6,46.1c20.8,23.4,23.8,16.3,40.4,31.2c5.4,4.9,11.3,12.6,14.4,16.9
	C284.3,354.3,306.3,339.5,324.6,320.6z"/>
<path class="st12" d="M141.7,65.7h83c5.8,0,10.5,4.7,10.5,10.5v198.5c0,5.8-4.7,10.5-10.5,10.5h-83c-5.8,0-10.5-4.7-10.5-10.5V76.2
	C131.2,70.4,135.9,65.7,141.7,65.7z"/>
<path d="M224.7,67.7c4.7,0,8.5,3.8,8.5,8.5v198.5c0,4.7-3.8,8.5-8.5,8.5h-83c-4.7,0-8.5-3.8-8.5-8.5V76.2c0-4.7,3.8-8.5,8.5-8.5
	H224.7 M224.7,63.7h-83c-6.9,0-12.5,5.6-12.5,12.5c0,0,0,0,0,0v198.5c0,6.9,5.6,12.5,12.5,12.5h83c6.9,0,12.5-5.6,12.5-12.5V76.2
	C237.2,69.3,231.6,63.7,224.7,63.7z"/>
<path class="st11" d="M177.8,264.5c-4.3-0.4-10.1,1.7-14.6,15.8s-24,61.3-28.3,72.6s-7.3,8.6-7.5,6.2c-0.4-8.7-1.2-17.4-2.4-26.1
	c-1.9-11.8-8.2-14.4-16.1-14.4s-11.4,5.2-12.6,9.4S93.8,341,93.8,341c-5.2-7.9-8.4-11.8-16.7-11.1c-5.2,0.5-7.5,2.3-8.7,4.6
	c25.8,21.5,56.9,35.6,90.1,41c5.3-14.9,26.8-76,28.3-89C188.4,271.8,182.1,264.8,177.8,264.5z M212.4,369.5
	c-3-4.5-15.8-7.5-26.8-3.6c-7.7,2.8-14.7,8-18.2,10.9c15.7,1.8,31.6,1.6,47.2-0.5C214.5,373.8,213.8,371.5,212.4,369.5z"/>
<path class="st11" d="M304.3,294.5c-9.8-12.7-16.3-33.5-16.9-45.3s-0.8-20-9.3-32.9s-13-16.3-18.9-36.8s-1.1-31.2-9.8-33.2
	c-5.8-1.3-16.6,14.3-15.8,32.3s9,29,9,29s-14.1,21.7-11.3,48.3l2.9,26.5l-3.2,10.1l87.8,33.8c2.2-2.1,4.4-4.3,6.6-6.5
	C320.4,314,311.1,303.2,304.3,294.5z"/>
<path d="M179.1,166.7c-0.1-0.1-0.3-0.2-0.4-0.3c-0.1-0.1-0.3-0.2-0.5-0.2l-1-0.4c-0.2-0.1-0.4-0.2-0.5-0.3c-0.1-0.1-0.2-0.3-0.2-0.5
	c0-0.3,0.1-0.5,0.3-0.6c0.2-0.1,0.5-0.2,0.9-0.2c0.3,0,0.5,0,0.7,0.1s0.4,0.2,0.6,0.3c0.1,0,0.1,0.1,0.2,0.1c0.1,0,0.1,0,0.2-0.1
	c0.1-0.1,0.1-0.1,0.1-0.2c0-0.1,0-0.1-0.1-0.2c-0.2-0.2-0.4-0.3-0.7-0.4c-0.3-0.1-0.6-0.2-1-0.2c-0.3,0-0.7,0.1-0.9,0.2
	c-0.3,0.1-0.5,0.3-0.7,0.5c-0.2,0.2-0.2,0.5-0.2,0.8c0,0.4,0.1,0.7,0.3,0.9c0.2,0.2,0.5,0.4,0.9,0.5l1,0.4c0.2,0.1,0.3,0.1,0.4,0.2
	c0.1,0.1,0.2,0.1,0.3,0.2c0.1,0.1,0.1,0.2,0.2,0.3c0,0.1,0,0.2,0,0.4c0,0.3-0.1,0.5-0.3,0.7c-0.2,0.2-0.5,0.2-0.9,0.2
	c-0.5,0-1-0.2-1.4-0.5c0,0-0.1,0-0.1,0c-0.1,0-0.1,0-0.2,0.1c-0.1,0.1-0.1,0.2-0.1,0.3c0,0.1,0,0.1,0,0.1c0.4,0.5,1,0.7,1.8,0.7
	c0.6,0,1.1-0.1,1.4-0.4c0.3-0.3,0.5-0.7,0.5-1.2c0-0.2,0-0.4-0.1-0.6C179.3,167,179.2,166.8,179.1,166.7z M182.9,168.6v0.4
	c0,0.1,0,0.2,0.1,0.2c0.1,0.1,0.1,0.1,0.2,0.1c0.1,0,0.2,0,0.2-0.1c0.1-0.1,0.1-0.1,0.1-0.3v-3.3c0-0.1,0-0.2-0.1-0.3
	c-0.1-0.1-0.1-0.1-0.2-0.1c-0.1,0-0.2,0-0.2,0.1c-0.1,0.1-0.1,0.1-0.1,0.3v2c0,0.4-0.1,0.7-0.3,0.9c-0.2,0.2-0.4,0.3-0.7,0.3
	c-0.3,0-0.5-0.1-0.6-0.3c-0.1-0.2-0.2-0.4-0.2-0.8v-2.2c0-0.1,0-0.2-0.1-0.3c-0.1-0.1-0.1-0.1-0.2-0.1s-0.2,0-0.2,0.1
	c-0.1,0.1-0.1,0.1-0.1,0.3v2.2c0,0.5,0.1,0.9,0.4,1.2c0.2,0.3,0.6,0.4,1,0.4c0.3,0,0.5-0.1,0.7-0.2
	C182.6,169.1,182.8,168.9,182.9,168.6z M186.4,167l-0.6-0.2c-0.3-0.1-0.4-0.1-0.5-0.2c-0.1-0.1-0.1-0.2-0.1-0.3
	c0-0.2,0.1-0.3,0.2-0.4c0.2-0.1,0.4-0.1,0.6-0.1c0.1,0,0.2,0,0.2,0c0.1,0,0.2,0,0.2,0.1c0.1,0,0.1,0,0.2,0.1c0,0,0.1,0,0.2,0.1
	c0.1,0,0.1,0,0.1,0.1c0,0,0.1,0,0.1,0c0.1,0,0.1,0,0.1-0.1c0,0,0.1-0.1,0.1-0.2c0-0.1,0-0.2-0.1-0.2c-0.1-0.1-0.3-0.1-0.5-0.2
	c-0.2-0.1-0.4-0.1-0.7-0.1c-0.2,0-0.4,0-0.5,0.1c-0.2,0-0.3,0.1-0.5,0.2c-0.1,0.1-0.2,0.2-0.3,0.3c-0.1,0.1-0.1,0.3-0.1,0.5
	c0,0.1,0,0.2,0,0.3c0,0.1,0.1,0.2,0.1,0.2c0,0.1,0.1,0.1,0.2,0.2c0.1,0,0.1,0.1,0.2,0.1c0.1,0,0.2,0.1,0.3,0.1
	c0.1,0,0.2,0.1,0.3,0.1l0.6,0.2c0.2,0.1,0.4,0.1,0.5,0.2c0.1,0.1,0.1,0.2,0.1,0.4c0,0.2-0.1,0.4-0.2,0.5c-0.2,0.1-0.4,0.2-0.6,0.2
	c-0.4,0-0.7-0.1-1.1-0.3c-0.1,0-0.1-0.1-0.2-0.1c-0.1,0-0.1,0-0.2,0.1c0,0-0.1,0.1-0.1,0.2c0,0.1,0,0.2,0.1,0.2
	c0.1,0.1,0.3,0.2,0.6,0.3c0.2,0.1,0.5,0.1,0.8,0.1c0.3,0,0.5,0,0.7-0.1c0.2-0.1,0.4-0.2,0.5-0.4c0.1-0.2,0.2-0.4,0.2-0.7
	c0-0.3-0.1-0.5-0.2-0.7C187,167.3,186.7,167.1,186.4,167z M188.8,169.1c0.2,0.2,0.4,0.3,0.7,0.3h0.2c0.1,0,0.2,0,0.2,0
	c0.1,0,0.1,0,0.2,0c0.1,0,0.1,0,0.1-0.1c0,0,0-0.1,0-0.2c0-0.1,0-0.1-0.1-0.2c0-0.1-0.1-0.1-0.2-0.1h0l-0.2,0h0
	c-0.2,0-0.3-0.1-0.3-0.2c-0.1-0.1-0.1-0.3-0.1-0.6v-2.2h0.7c0.2,0,0.2-0.1,0.2-0.2c0-0.1,0-0.1-0.1-0.2c0,0-0.1-0.1-0.2-0.1h-0.7
	v-1.2c0-0.1,0-0.2-0.1-0.2c0,0-0.1-0.1-0.2-0.1c-0.1,0-0.1,0-0.2,0.1c-0.1,0.1-0.1,0.1-0.1,0.2l-0.1,1.1h-0.4c-0.1,0-0.1,0-0.2,0.1
	s-0.1,0.1-0.1,0.2c0,0.1,0,0.1,0.1,0.2c0,0,0.1,0.1,0.2,0.1h0.4v2.3C188.6,168.6,188.6,168.9,188.8,169.1z M191.6,169.1
	c0.3,0.2,0.6,0.2,0.9,0.3c0.5,0,1-0.2,1.4-0.6c0.1-0.1,0.1-0.1,0.1-0.2c0-0.1,0-0.1-0.1-0.2c0,0-0.1-0.1-0.1-0.1c0,0-0.1,0-0.1,0.1
	c-0.2,0.1-0.3,0.3-0.5,0.4c-0.2,0.1-0.4,0.1-0.6,0.1c-0.3,0-0.6-0.1-0.8-0.4c-0.2-0.2-0.3-0.6-0.3-1.1h2.5c0.1,0,0.1,0,0.2-0.1
	c0-0.1,0.1-0.1,0.1-0.2c0-0.3,0-0.5-0.1-0.7c-0.1-0.2-0.2-0.4-0.3-0.6c-0.1-0.2-0.3-0.3-0.5-0.4c-0.2-0.1-0.5-0.2-0.7-0.2
	c-0.4,0-0.7,0.1-0.9,0.3c-0.3,0.2-0.5,0.4-0.6,0.8c-0.1,0.3-0.2,0.7-0.2,1c0,0.4,0.1,0.8,0.2,1.1C191.2,168.7,191.4,169,191.6,169.1
	z M191.5,166.5c0.1-0.1,0.1-0.3,0.2-0.4c0.1-0.1,0.2-0.2,0.3-0.3c0.1-0.1,0.3-0.1,0.5-0.1c0.3,0,0.6,0.1,0.7,0.4
	c0.2,0.2,0.3,0.5,0.3,0.9h-2.1C191.4,166.8,191.5,166.7,191.5,166.5z M195.4,169.3c0.1,0,0.2,0,0.2-0.1c0.1-0.1,0.1-0.1,0.1-0.3v-2
	c0-0.4,0.1-0.7,0.3-0.9c0.2-0.2,0.4-0.3,0.7-0.3c0.3,0,0.5,0.1,0.6,0.3c0.1,0.2,0.2,0.4,0.2,0.8v2.2c0,0.1,0,0.2,0.1,0.3
	c0.1,0.1,0.1,0.1,0.2,0.1s0.2,0,0.2-0.1c0.1-0.1,0.1-0.1,0.1-0.3v-2.2c0-0.5-0.1-0.9-0.4-1.2c-0.2-0.3-0.6-0.4-1-0.4
	c-0.3,0-0.5,0.1-0.7,0.2c-0.2,0.1-0.4,0.3-0.5,0.6v-0.4c0-0.1,0-0.2-0.1-0.2c-0.1-0.1-0.1-0.1-0.2-0.1s-0.2,0-0.2,0.1
	c-0.1,0.1-0.1,0.1-0.1,0.3v3.3c0,0.1,0,0.2,0.1,0.3C195.2,169.3,195.3,169.3,195.4,169.3z M199.5,168.1c0,0.4,0.1,0.7,0.2,0.9
	c0.2,0.2,0.4,0.3,0.7,0.3h0.2c0.1,0,0.2,0,0.2,0c0.1,0,0.1,0,0.2,0c0.1,0,0.1,0,0.1-0.1c0,0,0-0.1,0-0.2c0-0.1,0-0.1-0.1-0.2
	c0-0.1-0.1-0.1-0.2-0.1h0l-0.2,0h0c-0.2,0-0.3-0.1-0.3-0.2c-0.1-0.1-0.1-0.3-0.1-0.6v-2.2h0.7c0.2,0,0.2-0.1,0.2-0.2
	c0-0.1,0-0.1-0.1-0.2c0,0-0.1-0.1-0.2-0.1h-0.7v-1.2c0-0.1,0-0.2-0.1-0.2c0,0-0.1-0.1-0.2-0.1c-0.1,0-0.1,0-0.2,0.1
	c-0.1,0.1-0.1,0.1-0.1,0.2l-0.1,1.1h-0.4c-0.1,0-0.1,0-0.2,0.1s-0.1,0.1-0.1,0.2c0,0.1,0,0.1,0.1,0.2c0,0,0.1,0.1,0.2,0.1h0.4V168.1
	z M204,168.6v0.4c0,0.1,0,0.2,0.1,0.2c0.1,0.1,0.1,0.1,0.2,0.1c0.1,0,0.2,0,0.2-0.1c0.1-0.1,0.1-0.1,0.1-0.2v-2.4
	c0-0.5-0.1-0.8-0.4-1.1c-0.3-0.2-0.6-0.3-1-0.3c-0.5,0-1,0.1-1.3,0.4c-0.1,0-0.1,0.1-0.1,0.2c0,0.1,0,0.1,0.1,0.2
	c0,0.1,0.1,0.1,0.2,0.1c0,0,0.1,0,0.1,0c0.1-0.1,0.2-0.1,0.3-0.1c0.1,0,0.2-0.1,0.3-0.1c0.1,0,0.3-0.1,0.4-0.1
	c0.2,0,0.4,0.1,0.6,0.2c0.1,0.1,0.2,0.4,0.2,0.6v0.4c-0.3,0-0.5,0-0.7,0c-0.2,0-0.4,0-0.6,0c-0.2,0-0.3,0-0.4,0.1
	c-0.1,0-0.2,0.1-0.3,0.1c-0.1,0.1-0.2,0.1-0.2,0.2c-0.1,0.1-0.1,0.2-0.1,0.3c0,0.1,0,0.3,0,0.4c0,0.4,0.1,0.7,0.4,0.9
	c0.2,0.2,0.5,0.3,0.9,0.3C203.4,169.4,203.8,169.1,204,168.6z M203,168.9c-0.2,0-0.4-0.1-0.5-0.2c-0.1-0.1-0.2-0.3-0.2-0.5
	c0-0.1,0-0.2,0.1-0.3c0-0.1,0.1-0.2,0.2-0.2c0.1-0.1,0.2-0.1,0.3-0.1c0.1,0,0.3-0.1,0.5-0.1c0.2,0,0.4,0,0.7,0v0.1
	c0,0.4-0.1,0.7-0.3,1C203.5,168.8,203.3,168.9,203,168.9z M206.3,169.2c0.1-0.1,0.1-0.1,0.1-0.2v-0.4c0.1,0.3,0.3,0.5,0.5,0.6
	c0.2,0.1,0.5,0.2,0.7,0.2c0.3,0,0.5-0.1,0.7-0.2c0.2-0.1,0.4-0.3,0.5-0.5c0.1-0.2,0.2-0.4,0.3-0.7c0.1-0.3,0.1-0.5,0.1-0.8
	c0-0.3,0-0.6-0.1-0.8c-0.1-0.2-0.2-0.5-0.3-0.7c-0.1-0.2-0.3-0.3-0.5-0.4c-0.2-0.1-0.4-0.2-0.7-0.2c-0.3,0-0.5,0.1-0.7,0.2
	c-0.2,0.1-0.4,0.3-0.5,0.6v-2.1c0-0.1,0-0.2-0.1-0.2c-0.1-0.1-0.1-0.1-0.2-0.1c-0.1,0-0.2,0-0.2,0.1c-0.1,0.1-0.1,0.1-0.1,0.2v5.1
	c0,0.1,0,0.2,0.1,0.3c0.1,0.1,0.1,0.1,0.2,0.1C206.2,169.3,206.3,169.3,206.3,169.2z M206.5,166.7c0-0.2,0.1-0.3,0.2-0.5
	c0.1-0.2,0.2-0.3,0.3-0.4c0.1-0.1,0.3-0.1,0.5-0.1c0.2,0,0.4,0,0.5,0.1c0.1,0.1,0.3,0.2,0.3,0.4c0.1,0.2,0.1,0.3,0.2,0.5
	c0,0.2,0.1,0.4,0.1,0.6c0,0.2,0,0.4-0.1,0.5c0,0.2-0.1,0.3-0.2,0.5c-0.1,0.2-0.2,0.3-0.3,0.4c-0.1,0.1-0.3,0.1-0.5,0.2
	c-0.7,0-1.1-0.5-1.1-1.6C206.4,167.1,206.4,166.9,206.5,166.7z M210.4,164.4c0.1,0,0.2,0,0.3-0.1c0.1-0.1,0.1-0.2,0.1-0.3
	c0-0.1,0-0.2-0.1-0.3c-0.1-0.1-0.2-0.1-0.3-0.1c-0.1,0-0.2,0-0.3,0.1c-0.1,0.1-0.1,0.2-0.1,0.3c0,0.1,0,0.2,0.1,0.3
	C210.2,164.3,210.3,164.4,210.4,164.4z M210.7,169.2c0.1-0.1,0.1-0.2,0.1-0.3v-3.3c0-0.1,0-0.2-0.1-0.3c-0.1-0.1-0.1-0.1-0.2-0.1
	c-0.1,0-0.2,0-0.2,0.1s-0.1,0.2-0.1,0.3v3.3c0,0.1,0,0.2,0.1,0.3c0.1,0.1,0.1,0.1,0.2,0.1C210.5,169.3,210.6,169.3,210.7,169.2z
	 M212.2,163.5c-0.1,0-0.2,0-0.2,0.1c-0.1,0.1-0.1,0.2-0.1,0.3v5c0,0.1,0,0.2,0.1,0.3c0.1,0.1,0.1,0.1,0.2,0.1s0.2,0,0.2-0.1
	c0.1-0.1,0.1-0.2,0.1-0.3v-5c0-0.1,0-0.2-0.1-0.3C212.4,163.6,212.3,163.5,212.2,163.5z M214,164.4c0.1,0,0.2,0,0.3-0.1
	c0.1-0.1,0.1-0.2,0.1-0.3c0-0.1,0-0.2-0.1-0.3c-0.1-0.1-0.2-0.1-0.3-0.1c-0.1,0-0.2,0-0.3,0.1c-0.1,0.1-0.1,0.2-0.1,0.3
	c0,0.1,0,0.2,0.1,0.3C213.8,164.3,213.9,164.4,214,164.4z M214,165.3c-0.1,0-0.2,0-0.2,0.1c-0.1,0.1-0.1,0.2-0.1,0.3v3.3
	c0,0.1,0,0.2,0.1,0.3c0.1,0.1,0.1,0.1,0.2,0.1c0.1,0,0.2,0,0.2-0.1c0.1-0.1,0.1-0.2,0.1-0.3v-3.3c0-0.1,0-0.2-0.1-0.3
	C214.2,165.3,214.1,165.3,214,165.3z M217.5,169.2c0.2-0.1,0.4-0.3,0.5-0.6v0.4c0,0.1,0,0.2,0.1,0.2c0.1,0.1,0.1,0.1,0.2,0.1
	c0.1,0,0.2,0,0.2-0.1c0.1-0.1,0.1-0.1,0.1-0.3v-5.1c0-0.1,0-0.2-0.1-0.2c-0.1-0.1-0.1-0.1-0.2-0.1c-0.1,0-0.2,0-0.2,0.1
	c-0.1,0.1-0.1,0.1-0.1,0.2v2.1c-0.1-0.2-0.3-0.4-0.5-0.6c-0.2-0.1-0.4-0.2-0.7-0.2c-0.3,0-0.5,0.1-0.7,0.2s-0.4,0.3-0.5,0.4
	c-0.1,0.2-0.2,0.4-0.3,0.7c-0.1,0.2-0.1,0.5-0.1,0.8c0,0.3,0,0.5,0.1,0.8c0.1,0.3,0.2,0.5,0.3,0.7c0.1,0.2,0.3,0.3,0.5,0.5
	c0.2,0.1,0.4,0.2,0.7,0.2C217,169.4,217.3,169.3,217.5,169.2z M216.1,168.3c-0.1-0.2-0.1-0.3-0.2-0.5c0-0.2-0.1-0.4-0.1-0.5
	c0-0.2,0-0.4,0.1-0.6c0-0.2,0.1-0.3,0.2-0.5c0.1-0.2,0.2-0.3,0.3-0.4c0.1-0.1,0.3-0.1,0.5-0.1c0.2,0,0.4,0,0.5,0.1
	c0.1,0.1,0.3,0.2,0.3,0.4c0.1,0.2,0.1,0.3,0.2,0.5c0,0.2,0.1,0.4,0.1,0.6c0,1.1-0.4,1.6-1.1,1.6c-0.2,0-0.4-0.1-0.5-0.2
	C216.2,168.6,216.1,168.5,216.1,168.3z M221.1,165.2c-0.5,0-1,0.1-1.3,0.4c-0.1,0-0.1,0.1-0.1,0.2c0,0.1,0,0.1,0.1,0.2
	c0,0.1,0.1,0.1,0.2,0.1c0,0,0.1,0,0.1,0c0.1-0.1,0.2-0.1,0.3-0.1c0.1,0,0.2-0.1,0.3-0.1c0.1,0,0.3-0.1,0.4-0.1
	c0.2,0,0.4,0.1,0.6,0.2c0.1,0.1,0.2,0.4,0.2,0.6v0.4c-0.3,0-0.5,0-0.7,0c-0.2,0-0.4,0-0.6,0c-0.2,0-0.3,0-0.4,0.1
	c-0.1,0-0.2,0.1-0.3,0.1c-0.1,0.1-0.2,0.1-0.2,0.2c-0.1,0.1-0.1,0.2-0.1,0.3c0,0.1,0,0.3,0,0.4c0,0.4,0.1,0.7,0.4,0.9
	c0.2,0.2,0.5,0.3,0.9,0.3c0.5,0,0.9-0.3,1.1-0.8v0.4c0,0.1,0,0.2,0.1,0.2c0.1,0.1,0.1,0.1,0.2,0.1s0.2,0,0.2-0.1
	c0.1-0.1,0.1-0.1,0.1-0.2v-2.4c0-0.5-0.1-0.8-0.4-1.1C221.9,165.3,221.5,165.2,221.1,165.2z M221.8,167.5c0,0.4-0.1,0.7-0.3,1
	c-0.2,0.3-0.5,0.4-0.7,0.4c-0.2,0-0.4-0.1-0.5-0.2c-0.1-0.1-0.2-0.3-0.2-0.5c0-0.1,0-0.2,0.1-0.3c0-0.1,0.1-0.2,0.2-0.2
	c0.1-0.1,0.2-0.1,0.3-0.1c0.1,0,0.3-0.1,0.5-0.1c0.2,0,0.4,0,0.7,0V167.5z M226.7,163.6c-0.1-0.1-0.1-0.1-0.2-0.1
	c-0.1,0-0.2,0-0.2,0.1c-0.1,0.1-0.1,0.1-0.1,0.2v2.1c-0.1-0.2-0.3-0.4-0.5-0.6c-0.2-0.1-0.4-0.2-0.7-0.2c-0.3,0-0.5,0.1-0.7,0.2
	c-0.2,0.1-0.4,0.3-0.5,0.4c-0.1,0.2-0.2,0.4-0.3,0.7c-0.1,0.2-0.1,0.5-0.1,0.8c0,0.3,0,0.5,0.1,0.8c0.1,0.3,0.2,0.5,0.3,0.7
	c0.1,0.2,0.3,0.3,0.5,0.5c0.2,0.1,0.4,0.2,0.7,0.2c0.3,0,0.5-0.1,0.7-0.2c0.2-0.1,0.4-0.3,0.5-0.6v0.4c0,0.1,0,0.2,0.1,0.2
	c0.1,0.1,0.1,0.1,0.2,0.1c0.1,0,0.2,0,0.2-0.1c0.1-0.1,0.1-0.1,0.1-0.3v-5.1C226.8,163.8,226.7,163.7,226.7,163.6z M225,168.9
	c-0.2,0-0.4-0.1-0.5-0.2c-0.1-0.1-0.2-0.2-0.3-0.4c-0.1-0.2-0.1-0.3-0.2-0.5c0-0.2-0.1-0.4-0.1-0.5c0-0.2,0-0.4,0.1-0.6
	c0-0.2,0.1-0.3,0.2-0.5c0.1-0.2,0.2-0.3,0.3-0.4c0.1-0.1,0.3-0.1,0.5-0.1c0.2,0,0.4,0,0.5,0.1c0.1,0.1,0.3,0.2,0.3,0.4
	c0.1,0.2,0.1,0.3,0.2,0.5c0,0.2,0.1,0.4,0.1,0.6C226.1,168.3,225.7,168.9,225,168.9z M179.1,174.1c-0.1-0.1-0.3-0.2-0.4-0.3
	c-0.1-0.1-0.3-0.2-0.5-0.2l-1-0.4c-0.2-0.1-0.4-0.2-0.5-0.3c-0.1-0.1-0.2-0.3-0.2-0.5c0-0.3,0.1-0.5,0.3-0.6
	c0.2-0.1,0.5-0.2,0.9-0.2c0.3,0,0.5,0,0.7,0.1c0.2,0.1,0.4,0.2,0.6,0.3c0.1,0,0.1,0.1,0.2,0.1c0.1,0,0.1,0,0.2-0.1
	c0.1-0.1,0.1-0.1,0.1-0.2c0-0.1,0-0.1-0.1-0.2c-0.2-0.2-0.4-0.3-0.7-0.4c-0.3-0.1-0.6-0.2-1-0.2c-0.3,0-0.7,0.1-0.9,0.2
	c-0.3,0.1-0.5,0.3-0.7,0.5c-0.2,0.2-0.2,0.5-0.2,0.8c0,0.4,0.1,0.7,0.3,0.9c0.2,0.2,0.5,0.4,0.9,0.5l1,0.4c0.2,0.1,0.3,0.1,0.4,0.2
	c0.1,0.1,0.2,0.1,0.3,0.2c0.1,0.1,0.1,0.2,0.2,0.3c0,0.1,0,0.2,0,0.4c0,0.3-0.1,0.5-0.3,0.7c-0.2,0.2-0.5,0.2-0.9,0.2
	c-0.5,0-1-0.2-1.4-0.5c0,0-0.1,0-0.1,0c-0.1,0-0.1,0-0.2,0.1c-0.1,0.1-0.1,0.2-0.1,0.3c0,0.1,0,0.1,0,0.1c0.4,0.5,1,0.7,1.8,0.7
	c0.6,0,1.1-0.1,1.4-0.4c0.3-0.3,0.5-0.7,0.5-1.2c0-0.2,0-0.4-0.1-0.6C179.3,174.4,179.2,174.2,179.1,174.1z M180.8,172.7
	c-0.1,0-0.2,0-0.2,0.1c-0.1,0.1-0.1,0.2-0.1,0.3v3.3c0,0.1,0,0.2,0.1,0.3c0.1,0.1,0.1,0.1,0.2,0.1c0.1,0,0.2,0,0.2-0.1
	c0.1-0.1,0.1-0.2,0.1-0.3v-3.3c0-0.1,0-0.2-0.1-0.3S180.9,172.7,180.8,172.7z M180.8,170.9c-0.1,0-0.2,0-0.3,0.1
	c-0.1,0.1-0.1,0.2-0.1,0.3c0,0.1,0,0.2,0.1,0.3c0.1,0.1,0.2,0.1,0.3,0.1c0.1,0,0.2,0,0.3-0.1c0.1-0.1,0.1-0.2,0.1-0.3
	c0-0.1,0-0.2-0.1-0.3C181,170.9,180.9,170.9,180.8,170.9z M184.1,172.6c-0.3,0-0.5,0.1-0.7,0.2c-0.2,0.1-0.4,0.3-0.5,0.6V173
	c0-0.1,0-0.2-0.1-0.2c-0.1-0.1-0.1-0.1-0.2-0.1c-0.1,0-0.2,0-0.2,0.1c-0.1,0.1-0.1,0.1-0.1,0.3v3.3c0,0.1,0,0.2,0.1,0.3
	c0.1,0.1,0.1,0.1,0.2,0.1c0.1,0,0.2,0,0.2-0.1c0.1-0.1,0.1-0.1,0.1-0.3v-2c0-0.4,0.1-0.7,0.3-0.9c0.2-0.2,0.4-0.3,0.7-0.3
	c0.3,0,0.5,0.1,0.6,0.3c0.1,0.2,0.2,0.4,0.2,0.8v2.2c0,0.1,0,0.2,0.1,0.3c0.1,0.1,0.1,0.1,0.2,0.1c0.1,0,0.2,0,0.2-0.1
	c0.1-0.1,0.1-0.1,0.1-0.3v-2.2c0-0.5-0.1-0.9-0.4-1.2C184.8,172.7,184.5,172.6,184.1,172.6z M191.5,170.9H189c-0.1,0-0.2,0-0.2,0.1
	c-0.1,0.1-0.1,0.2-0.1,0.3v5c0,0.1,0,0.2,0.1,0.3c0.1,0.1,0.2,0.1,0.3,0.1c0.1,0,0.2,0,0.3-0.1c0.1-0.1,0.1-0.2,0.1-0.3V174h2.1
	c0.1,0,0.2,0,0.2-0.1c0.1-0.1,0.1-0.1,0.1-0.2c0-0.1,0-0.2-0.1-0.2c-0.1-0.1-0.1-0.1-0.2-0.1h-2.1v-1.8h2.2c0.1,0,0.2,0,0.2-0.1
	c0.1-0.1,0.1-0.1,0.1-0.2c0-0.1,0-0.2-0.1-0.2C191.7,171,191.6,170.9,191.5,170.9z M194.1,172.6c-0.3,0-0.5,0.1-0.7,0.3
	s-0.3,0.4-0.4,0.6l0-0.5c0-0.1,0-0.2-0.1-0.2c-0.1-0.1-0.1-0.1-0.2-0.1s-0.2,0-0.2,0.1c-0.1,0.1-0.1,0.1-0.1,0.2v3.3
	c0,0.1,0,0.2,0.1,0.3c0.1,0.1,0.1,0.1,0.2,0.1s0.2,0,0.2-0.1c0.1-0.1,0.1-0.1,0.1-0.3v-2.1c0-0.3,0.1-0.6,0.3-0.8
	c0.2-0.2,0.4-0.3,0.8-0.3c0.1,0,0.1,0,0.2-0.1c0-0.1,0.1-0.1,0.1-0.2c0-0.1,0-0.2-0.1-0.2C194.2,172.7,194.2,172.6,194.1,172.6z
	 M196.6,172.6c-0.6,0-1,0.2-1.3,0.6c-0.3,0.4-0.5,0.9-0.5,1.5c0,0.6,0.2,1.1,0.5,1.5c0.3,0.4,0.8,0.6,1.3,0.6c0.6,0,1-0.2,1.3-0.6
	c0.3-0.4,0.5-0.9,0.5-1.5c0-0.6-0.2-1.1-0.5-1.5C197.6,172.8,197.2,172.6,196.6,172.6z M197.5,175.9c-0.2,0.3-0.5,0.4-0.9,0.4
	c-0.4,0-0.6-0.1-0.9-0.4c-0.2-0.3-0.3-0.7-0.3-1.2c0-0.5,0.1-0.9,0.3-1.2c0.2-0.3,0.5-0.4,0.9-0.4c0.4,0,0.6,0.1,0.9,0.4
	c0.2,0.3,0.3,0.7,0.3,1.2C197.8,175.2,197.7,175.6,197.5,175.9z M201.1,172.6c-0.3,0-0.5,0.1-0.7,0.2c-0.2,0.1-0.4,0.3-0.5,0.6V173
	c0-0.1,0-0.2-0.1-0.2c-0.1-0.1-0.1-0.1-0.2-0.1c-0.1,0-0.2,0-0.2,0.1c-0.1,0.1-0.1,0.1-0.1,0.3v3.3c0,0.1,0,0.2,0.1,0.3
	c0.1,0.1,0.1,0.1,0.2,0.1c0.1,0,0.2,0,0.2-0.1c0.1-0.1,0.1-0.1,0.1-0.3v-2c0-0.4,0.1-0.7,0.3-0.9c0.2-0.2,0.4-0.3,0.7-0.3
	c0.3,0,0.5,0.1,0.6,0.3c0.1,0.2,0.2,0.4,0.2,0.8v2.2c0,0.1,0,0.2,0.1,0.3c0.1,0.1,0.1,0.1,0.2,0.1c0.1,0,0.2,0,0.2-0.1
	c0.1-0.1,0.1-0.1,0.1-0.3v-2.2c0-0.5-0.1-0.9-0.4-1.2C201.8,172.7,201.5,172.6,201.1,172.6z M205.1,176.2L205.1,176.2l-0.3,0h0
	c-0.2,0-0.3-0.1-0.3-0.2c-0.1-0.1-0.1-0.3-0.1-0.6v-2.2h0.7c0.2,0,0.2-0.1,0.2-0.2c0-0.1,0-0.1-0.1-0.2c0,0-0.1-0.1-0.2-0.1h-0.7
	v-1.2c0-0.1,0-0.2-0.1-0.2c0,0-0.1-0.1-0.2-0.1c-0.1,0-0.1,0-0.2,0.1c-0.1,0.1-0.1,0.1-0.1,0.2l-0.1,1.1h-0.4c-0.1,0-0.1,0-0.2,0.1
	c0,0-0.1,0.1-0.1,0.2c0,0.1,0,0.1,0.1,0.2c0,0,0.1,0.1,0.2,0.1h0.4v2.3c0,0.4,0.1,0.7,0.2,0.9c0.2,0.2,0.4,0.3,0.7,0.3h0.2
	c0.1,0,0.2,0,0.2,0c0.1,0,0.1,0,0.2,0c0.1,0,0.1,0,0.1-0.1c0,0,0-0.1,0-0.2c0-0.1,0-0.1-0.1-0.2
	C205.3,176.2,205.2,176.2,205.1,176.2z M208.9,173.2c-0.1-0.2-0.3-0.3-0.5-0.4c-0.2-0.1-0.5-0.2-0.7-0.2c-0.4,0-0.7,0.1-0.9,0.3
	c-0.3,0.2-0.5,0.4-0.6,0.8c-0.1,0.3-0.2,0.7-0.2,1c0,0.4,0.1,0.8,0.2,1.1c0.2,0.3,0.4,0.6,0.6,0.7c0.3,0.2,0.6,0.2,0.9,0.3
	c0.5,0,1-0.2,1.4-0.6c0.1-0.1,0.1-0.1,0.1-0.2c0-0.1,0-0.1-0.1-0.2c0,0-0.1-0.1-0.1-0.1c0,0-0.1,0-0.1,0.1c-0.2,0.1-0.3,0.3-0.5,0.4
	c-0.2,0.1-0.4,0.1-0.6,0.1c-0.3,0-0.6-0.1-0.8-0.4c-0.2-0.2-0.3-0.6-0.3-1.1h2.5c0.1,0,0.1,0,0.2-0.1c0-0.1,0.1-0.1,0.1-0.2
	c0-0.3,0-0.5-0.1-0.7C209.2,173.6,209.1,173.4,208.9,173.2z M206.6,174.4c0-0.2,0-0.3,0.1-0.5c0.1-0.1,0.1-0.3,0.2-0.4
	c0.1-0.1,0.2-0.2,0.3-0.3c0.1-0.1,0.3-0.1,0.5-0.1c0.3,0,0.6,0.1,0.7,0.4c0.2,0.2,0.3,0.5,0.3,0.9H206.6z M211.9,172.6
	c-0.3,0-0.5,0.1-0.7,0.3s-0.3,0.4-0.4,0.6l0-0.5c0-0.1,0-0.2-0.1-0.2c-0.1-0.1-0.1-0.1-0.2-0.1s-0.2,0-0.2,0.1
	c-0.1,0.1-0.1,0.1-0.1,0.2v3.3c0,0.1,0,0.2,0.1,0.3c0.1,0.1,0.1,0.1,0.2,0.1s0.2,0,0.2-0.1c0.1-0.1,0.1-0.1,0.1-0.3v-2.1
	c0-0.3,0.1-0.6,0.3-0.8c0.2-0.2,0.4-0.3,0.8-0.3c0.1,0,0.1,0,0.2-0.1c0-0.1,0.1-0.1,0.1-0.2c0-0.1,0-0.2-0.1-0.2
	C212,172.7,212,172.6,211.9,172.6z M214.2,172.6c-0.5,0-1,0.1-1.3,0.4c-0.1,0-0.1,0.1-0.1,0.2c0,0.1,0,0.1,0.1,0.2
	c0,0.1,0.1,0.1,0.2,0.1c0,0,0.1,0,0.1,0c0.1-0.1,0.2-0.1,0.3-0.1c0.1,0,0.2-0.1,0.3-0.1c0.1,0,0.3-0.1,0.4-0.1
	c0.2,0,0.4,0.1,0.6,0.2c0.1,0.1,0.2,0.4,0.2,0.6v0.4c-0.3,0-0.5,0-0.7,0c-0.2,0-0.4,0-0.6,0c-0.2,0-0.3,0-0.4,0.1
	c-0.1,0-0.2,0.1-0.3,0.1c-0.1,0.1-0.2,0.1-0.2,0.2c-0.1,0.1-0.1,0.2-0.1,0.3c0,0.1,0,0.3,0,0.4c0,0.4,0.1,0.7,0.4,0.9
	c0.2,0.2,0.5,0.3,0.9,0.3c0.5,0,0.9-0.3,1.1-0.8v0.4c0,0.1,0,0.2,0.1,0.2c0.1,0.1,0.1,0.1,0.2,0.1c0.1,0,0.2,0,0.2-0.1
	c0.1-0.1,0.1-0.1,0.1-0.2V174c0-0.5-0.1-0.8-0.4-1.1C215,172.7,214.6,172.6,214.2,172.6z M215,174.9c0,0.4-0.1,0.7-0.3,1
	c-0.2,0.3-0.5,0.4-0.7,0.4c-0.2,0-0.4-0.1-0.5-0.2c-0.1-0.1-0.2-0.3-0.2-0.5c0-0.1,0-0.2,0.1-0.3c0-0.1,0.1-0.2,0.2-0.2
	c0.1-0.1,0.2-0.1,0.3-0.1c0.1,0,0.3-0.1,0.5-0.1c0.2,0,0.4,0,0.7,0V174.9z M218.4,174.4l-0.6-0.2c-0.3-0.1-0.4-0.1-0.5-0.2
	c-0.1-0.1-0.1-0.2-0.1-0.3c0-0.2,0.1-0.3,0.2-0.4c0.2-0.1,0.4-0.1,0.6-0.1c0.1,0,0.2,0,0.2,0c0.1,0,0.2,0,0.2,0.1
	c0.1,0,0.1,0,0.2,0.1c0,0,0.1,0,0.2,0.1c0.1,0,0.1,0,0.1,0.1c0,0,0.1,0,0.1,0c0.1,0,0.1,0,0.2-0.1c0,0,0.1-0.1,0.1-0.2
	c0-0.1,0-0.2-0.1-0.2c-0.1-0.1-0.3-0.1-0.5-0.2c-0.2-0.1-0.4-0.1-0.7-0.1c-0.2,0-0.4,0-0.5,0.1c-0.2,0-0.3,0.1-0.5,0.2
	c-0.1,0.1-0.2,0.2-0.3,0.3c-0.1,0.1-0.1,0.3-0.1,0.5c0,0.1,0,0.2,0,0.3c0,0.1,0.1,0.2,0.1,0.2c0,0.1,0.1,0.1,0.2,0.2
	c0.1,0,0.1,0.1,0.2,0.1c0.1,0,0.2,0.1,0.3,0.1c0.1,0,0.2,0.1,0.3,0.1l0.6,0.2c0.2,0.1,0.4,0.1,0.5,0.2c0.1,0.1,0.1,0.2,0.1,0.4
	c0,0.2-0.1,0.4-0.2,0.5c-0.2,0.1-0.4,0.2-0.6,0.2c-0.4,0-0.7-0.1-1.1-0.3c-0.1,0-0.1-0.1-0.2-0.1c-0.1,0-0.1,0-0.2,0.1
	c0,0-0.1,0.1-0.1,0.2c0,0.1,0,0.2,0.1,0.2c0.1,0.1,0.3,0.2,0.6,0.3c0.2,0.1,0.5,0.1,0.8,0.1c0.3,0,0.5,0,0.7-0.1
	c0.2-0.1,0.4-0.2,0.5-0.4c0.1-0.2,0.2-0.4,0.2-0.7c0-0.3-0.1-0.5-0.2-0.7S218.8,174.5,218.4,174.4z M152.6,171.1
	c-0.3-0.3-0.6-0.5-0.9-0.7c-0.3-0.2-0.7-0.4-1.2-0.5c0,0-0.4-0.1-1.1-0.4s-1-0.3-1.1-0.4c-0.4-0.1-0.6-0.3-0.8-0.5
	c-0.2-0.2-0.3-0.5-0.3-0.8c0-0.3,0.1-0.5,0.2-0.7c0.1-0.2,0.3-0.3,0.5-0.4c0.2-0.1,0.4-0.2,0.7-0.2c0.2,0,0.5-0.1,0.8-0.1
	c0.9,0,1.8,0.3,2.5,0.8c0.1,0.1,0.2,0.1,0.3,0.1c0.2,0,0.4-0.1,0.5-0.3c0.1-0.2,0.2-0.4,0.2-0.7c0-0.2-0.1-0.4-0.2-0.6
	c-0.3-0.3-0.9-0.6-1.5-0.8c-0.7-0.2-1.3-0.3-2-0.3c-1.2,0-2.2,0.3-2.9,0.9c-0.8,0.6-1.1,1.5-1.1,2.5c0,0.8,0.2,1.5,0.6,1.9
	c0.4,0.5,1,0.9,1.8,1.2l2.4,0.9c0.5,0.2,0.8,0.4,1,0.6c0.2,0.2,0.3,0.6,0.3,1c0,0.5-0.2,0.9-0.6,1.2c-0.4,0.3-0.9,0.4-1.5,0.4
	c-1,0-1.9-0.3-2.9-0.9c-0.1-0.1-0.2-0.1-0.3-0.1c-0.2,0-0.4,0.1-0.6,0.4c-0.2,0.3-0.3,0.5-0.3,0.8c0,0.2,0.1,0.4,0.2,0.4
	c0.9,0.8,2.2,1.2,3.8,1.2c1.3,0,2.3-0.3,3-1c0.8-0.6,1.1-1.5,1.1-2.6c0-0.5-0.1-0.9-0.2-1.3C153.1,171.7,152.9,171.3,152.6,171.1z
	 M162.3,171.1c-0.3-0.3-0.6-0.5-0.9-0.7c-0.3-0.2-0.7-0.4-1.2-0.5c0,0-0.4-0.1-1.1-0.4s-1-0.3-1.1-0.4c-0.4-0.1-0.6-0.3-0.8-0.5
	c-0.2-0.2-0.3-0.5-0.3-0.8c0-0.3,0.1-0.5,0.2-0.7c0.1-0.2,0.3-0.3,0.5-0.4c0.2-0.1,0.4-0.2,0.7-0.2c0.2,0,0.5-0.1,0.8-0.1
	c0.9,0,1.8,0.3,2.5,0.8c0.1,0.1,0.2,0.1,0.3,0.1c0.2,0,0.4-0.1,0.5-0.3c0.1-0.2,0.2-0.4,0.2-0.7c0-0.2-0.1-0.4-0.2-0.6
	c-0.3-0.3-0.9-0.6-1.5-0.8c-0.7-0.2-1.3-0.3-2-0.3c-1.2,0-2.2,0.3-2.9,0.9c-0.8,0.6-1.1,1.5-1.1,2.5c0,0.8,0.2,1.5,0.6,1.9
	c0.4,0.5,1,0.9,1.8,1.2l2.4,0.9c0.5,0.2,0.8,0.4,1,0.6c0.2,0.2,0.3,0.6,0.3,1c0,0.5-0.2,0.9-0.6,1.2c-0.4,0.3-0.9,0.4-1.5,0.4
	c-1,0-1.9-0.3-2.9-0.9c-0.1-0.1-0.2-0.1-0.3-0.1c-0.2,0-0.4,0.1-0.6,0.4c-0.2,0.3-0.3,0.5-0.3,0.8c0,0.2,0.1,0.4,0.2,0.4
	c0.9,0.8,2.2,1.2,3.8,1.2c1.3,0,2.3-0.3,3-1c0.8-0.6,1.1-1.5,1.1-2.6c0-0.5-0.1-0.9-0.2-1.3C162.7,171.7,162.5,171.3,162.3,171.1z
	 M170.9,164.8H166c-0.3,0-0.6,0.1-0.8,0.3s-0.3,0.5-0.3,0.9v9.5c0,0.4,0.1,0.7,0.3,0.9c0.2,0.2,0.4,0.3,0.7,0.3
	c0.3,0,0.5-0.1,0.7-0.3c0.2-0.2,0.3-0.5,0.3-0.9v-4h3.7c0.2,0,0.4-0.1,0.6-0.3c0.1-0.2,0.2-0.4,0.2-0.7c0-0.2-0.1-0.5-0.2-0.6
	c-0.1-0.2-0.3-0.3-0.6-0.3H167v-3h3.9c0.2,0,0.4-0.1,0.6-0.3c0.1-0.2,0.2-0.4,0.2-0.7c0-0.2-0.1-0.5-0.2-0.7
	C171.3,164.8,171.2,164.8,170.9,164.8z"/>
<path class="st13" d="M173.8,157.5c0.8,1,1.5,2.3,1.9,3c0.4,0.6-0.2,1.3-1.1-0.1c-0.9-1.4-5.1-6.6-10.3-8.1
	c-6.8-1.9-16.2-1.2-24.5,10.2c0,0,2.7-8.4,13.2-11.5C162.1,148.2,169.7,152.3,173.8,157.5z"/>
<path class="st14" d="M143.4,159c-0.4,0.5-3,3.9-3.7,5.1c-0.8,1.1-1.2,2.3-1.3,5.8s0.6,9,5.4,14.3c4.8,5.3,11,6.4,15.8,6.4
	c0,0-7.4-0.6-13.2-6.6s-6.5-9.5-6.2-15.7C140.3,164.4,143.4,159,143.4,159z"/>
<path class="st15" d="M175.9,179.4c-1.2-0.9-1.9,0-2.5,1c-0.6,0.9-2.9,4-6.6,5.9s-9.2,3-15.2,0.9c0,0,3.9,2.4,8.1,2.7
	c4.2,0.3,5.6-0.1,8.4-1.6c2.8-1.5,5.6-4,6.9-5.8C176.2,180.7,176.6,179.9,175.9,179.4z"/>
<path class="st15" d="M210.8,263.2H156c-3.9,0-7.1-3.2-7.1-7.1v0c0-3.9,3.2-7.1,7.1-7.1h54.8c3.9,0,7.1,3.2,7.1,7.1v0
	C218,260.1,214.8,263.2,210.8,263.2z"/>
<rect x="157.8" y="76" class="st4" width="54.7" height="2.5"/>
<rect x="157.8" y="87.3" class="st4" width="54.7" height="2.5"/>
<rect x="151.7" y="81.2" class="st4" width="64.7" height="2.5"/>
<text transform="matrix(1 0 0 1 168.2985 259.5)" class="st12 st16 st17">Iniciar</text>
</svg>
