<?xml version="1.0" encoding="utf-8"?>
<!-- Generator: Adobe Illustrator 24.1.2, SVG Export Plug-In . SVG Version: 6.00 Build 0)  -->
<svg version="1.1" id="Capa_1" xmlns="http://www.w3.org/2000/svg" xmlns:xlink="http://www.w3.org/1999/xlink" x="0px" y="0px"
	 viewBox="0 0 116.4 116.4" style="enable-background:new 0 0 116.4 116.4;" xml:space="preserve">
<style type="text/css">
	.st0{fill:#B8CC6A;}
</style>
<path class="st0" d="M76.8,48c1.3-0.1,1.9-1.8-0.4-3.8S69.7,44,69.7,44C74,48.6,76.8,48,76.8,48z M59.2,55.4l4.9,3.6h1.5
	c0,0-0.2-1.7-0.7-4.4l-9-6.6c-0.7-0.5-0.8-1.4-0.3-2.1c0.5-0.7,1.4-0.8,2.1-0.3l6.5,4.7c-0.4-2-0.9-4.3-1.6-6.6l-8.8-6.4
	c-0.7-0.5-0.8-1.4-0.3-2.1c0.5-0.7,1.4-0.8,2.1-0.3l5.7,4.1c-2.1-6.4-5.1-13-8.8-13c-4.7,0-4.9,5.2-3.8,12c1,6.8,3.7,21,3.7,21H59
	l-1.6-1.1c-0.7-0.5-0.8-1.4-0.3-2.1C57.6,55,58.5,54.9,59.2,55.4z M58.9,20.5c17.4,0,31.5,15.9,31.5,35.3c0,1.1,0.9,2,2,2s2-0.9,2-2
	c0-21.7-15.9-39.3-35.5-39.3c-8.2,0-15.8,3.1-21.9,8.4c0.6,1.1,1.4,2.3,2.1,3.5C44.5,23.5,51.4,20.5,58.9,20.5z M69.9,59h14.9
	c0,0,2.1-3.1,1.6-6.4c-0.6-3.7-4.8-5.9-9.1-3.6c0,0-5.5-1.8-7.8,1.3C66.6,54.1,69.9,59,69.9,59z M95.5,62H22.6c-1,0-1.8,1-1.5,1.9
	l11.2,43.4c0.2,0.7,0.8,1.2,1.5,1.2h50.5c0.7,0,1.3-0.5,1.5-1.2L97,63.9C97.3,63,96.5,62,95.5,62z M39.6,103.8c-0.1,0-0.2,0-0.4,0
	c-0.7,0-1.3-0.5-1.5-1.1l-8.5-33.3c-0.2-0.8,0.3-1.6,1.1-1.8c0.8-0.2,1.6,0.3,1.8,1.1l8.5,33.3C40.9,102.8,40.4,103.6,39.6,103.8z
	 M35.7,59h8.8l-2.8-1c-0.8-0.3-1.2-1.1-0.9-1.9c0.3-0.8,1.1-1.2,1.9-0.9l7.6,2.6c-0.5-1.2-1.5-3.4-2.6-5.9l-10-3.4
	c-0.8-0.3-1.2-1.1-0.9-1.9c0.3-0.8,1.1-1.2,1.9-0.9l7.3,2.5c-1-2.3-2.2-4.6-3.3-6.9l-9.9-3.4c-0.8-0.3-1.2-1.1-0.9-1.9
	c0.3-0.8,1.1-1.2,1.9-0.9l7,2.4c-0.6-1.2-1.3-2.4-1.8-3.4c-0.4-0.7-0.9-1.5-1.4-2.3l-9.8-3.3c-0.8-0.3-1.2-1.1-0.9-1.9
	c0.3-0.8,1.1-1.2,1.9-0.9l6.3,2.1c-4-5.9-8.5-11.2-11.7-10.8c-4.4,0.6-5.2,5.9-1.7,13.7C25,38.4,35.7,59,35.7,59z M25.4,57.9
	c1.1,0,2-0.9,2-2c0-2,0.2-3.9,0.4-5.8c-0.9-1.5-2-3.2-3.1-5c-0.9,3.4-1.4,7-1.4,10.7C23.4,57,24.3,57.9,25.4,57.9z"/>
</svg>
