<?xml version="1.0" encoding="utf-8"?>
<!-- Generator: Adobe Illustrator 24.1.2, SVG Export Plug-In . SVG Version: 6.00 Build 0)  -->
<svg version="1.1" id="Capa_2" xmlns="http://www.w3.org/2000/svg" xmlns:xlink="http://www.w3.org/1999/xlink" x="0px" y="0px"
	 viewBox="0 0 116.4 116.4" style="enable-background:new 0 0 116.4 116.4;" xml:space="preserve">
<style type="text/css">
	.st0{fill:#B8CC6A;}
</style>
<path class="st0" d="M60.6,19.6c-21,0-38.2,16.6-39.1,37.4h-4.9c-0.9,0-1.7,0.6-1.9,1.5l-4,15.7c-0.2,0.6,0,1.2,0.4,1.7
	c0.4,0.5,1,0.8,1.6,0.8h3.8v6c0,1.1,0.9,2,2,2s2-0.9,2-2v-6h5.9v6c0,1.1,0.9,2,2,2s2-0.9,2-2v-6h3.8c0.6,0,1.2-0.3,1.6-0.8
	c0.4-0.5,0.5-1.1,0.4-1.7l-4-15.7c-0.2-0.9-1-1.5-1.9-1.5h-4.6c0.9-18.6,16.3-33.4,35.1-33.4c19.4,0,35.1,15.8,35.1,35.1
	c0,18.7-14.7,34-33.1,35.1V83.4c8.5-1,15.1-8.2,15.1-17c0-11.4-10.9-31.2-17.1-31.2c-6.7,0-17.1,19-17.1,31.2c0,8.8,6.7,16,15.2,17
	v12.5c0,1.1,0.9,2,2,2c21.6,0,39.1-17.6,39.1-39.1S82.2,19.6,60.6,19.6z M60.6,56.7c-1.1,0-2,0.9-2,2v20.6
	c-6.3-0.9-11.2-6.4-11.2-13c0-12.1,10.1-27.2,13.1-27.2c2.7,0.3,13.2,16.2,13.2,27.2c0,6.5-4.8,12-11.1,13V58.7
	C62.6,57.6,61.7,56.7,60.6,56.7z"/>
</svg>
