<?xml version="1.0" encoding="utf-8"?>
<!-- Generator: Adobe Illustrator 24.1.2, SVG Export Plug-In . SVG Version: 6.00 Build 0)  -->
<svg version="1.1" id="Capa_2" xmlns="http://www.w3.org/2000/svg" xmlns:xlink="http://www.w3.org/1999/xlink" x="0px" y="0px"
	 viewBox="0 0 116.4 116.4" style="enable-background:new 0 0 116.4 116.4;" xml:space="preserve">
<style type="text/css">
	.st0{fill:#B8CC6A;}
</style>
<path class="st0" d="M88.6,14.8h-9.9c-2.2,0-4.1,1.8-4.1,4.1v20.7c0,1.8-1.5,3.3-3.3,3.3H45.6c-1.8,0-3.3-1.5-3.3-3.3V18.9
	c0-2.2-1.8-4.1-4.1-4.1H27.8c-2.2,0-4.1,1.8-4.1,4.1v81.6c0,2.9,2.4,5.3,5.3,5.3h58.2c2.9,0,5.3-2.4,5.3-5.3V18.9
	C92.7,16.6,90.8,14.8,88.6,14.8z M88.7,100.5c0,0.7-0.6,1.3-1.3,1.3H29.1c-0.7,0-1.3-0.6-1.3-1.3l0.1-81.7l10.5,0.1v20.7
	c0,4,3.3,7.3,7.3,7.3h25.7c4,0,7.3-3.3,7.3-7.3V18.9l0.1-0.1l10,0.1V100.5z M71.4,72.3l-3.6,1.8l3.8,7.6c0.5,0.9,0.5,2-0.1,2.9
	C71,85.5,70.1,86,69,86h-3.3l1.9-3.2l-3.4-2l-3.6,6.1c-0.4,0.6-0.4,1.3,0,2l3.2,6l3.5-1.9l-1.6-3H69c2.5,0,4.7-1.3,6-3.4
	c1.3-2.1,1.3-4.7,0.2-6.8L71.4,72.3z M45.2,84.5c-0.5-0.9-0.6-2-0.1-2.9l2.1-4.2l1.4,2.6l3.5-1.9l-3.4-6.2c-0.4-0.6-1-1-1.8-1h-7.7
	v4H44l-2.5,4.9c-1.2,2.2-1.1,4.7,0.2,6.8s3.5,3.4,6,3.4h7.1v-4h-7.1C46.6,86,45.7,85.5,45.2,84.5z M59.8,68.1H66
	c0.7,0,1.4-0.4,1.7-1l3.4-5.9l-3.5-2l-1.5,2.7l-1.6-3.2c-1.2-2.3-3.6-3.7-6.1-3.7c0,0,0,0,0,0c-2.6,0-4.9,1.4-6.2,3.7l-3.4,6.8
	l3.6,1.8l3.4-6.8c0.5-1,1.5-1.6,2.6-1.6s2.1,0.6,2.6,1.5l1.8,3.6h-3V68.1z"/>
</svg>
