<?xml version="1.0" encoding="utf-8"?>
<!-- Generator: Adobe Illustrator 24.1.2, SVG Export Plug-In . SVG Version: 6.00 Build 0)  -->
<svg version="1.1" id="Capa_2" xmlns="http://www.w3.org/2000/svg" xmlns:xlink="http://www.w3.org/1999/xlink" x="0px" y="0px"
	 viewBox="0 0 116.4 116.4" style="enable-background:new 0 0 116.4 116.4;" xml:space="preserve">
<style type="text/css">
	.st0{fill:#B8CC6A;}
</style>
<path class="st0" d="M88.8,61.9c-1.8,0-3.5,0.3-5.1,0.7l-6.8-20.2c-0.2-0.7-0.8-1.2-1.5-1.3l-3.3-0.6c-0.4-1.6-1.7-2.9-3.5-3
	l-12-1.2l-9.1-7c-0.9-0.7-2.1-1-3.2-0.8c-1.1,0.2-2.1,0.9-2.7,2L31.4,48.6c-1.1,1.9-0.4,4.3,1.4,5.4l16.5,9.8v17.5c0,2.2,1.8,4,4,4
	s4-1.8,4-4V61.6c0-1.4-0.7-2.7-2-3.4l-11.7-7l5.9-10.3l3.1,2.4c0.6,0.5,1.3,0.7,2.1,0.8l13.2,1.3c1.2,0.1,2.3-0.3,3.1-1.1l2.5,0.5
	l2,5.8H58.3c-1.1,0-2,0.9-2,2s0.9,2,2,2h18.6l0.3,0.8L61.7,70.1c-0.8,0.8-0.8,2-0.1,2.8c0.4,0.4,0.9,0.6,1.4,0.6
	c0.5,0,1-0.2,1.4-0.6l14-13.5l1.5,4.5c-6.2,3.2-10.5,9.7-10.5,17.2c0,10.7,8.7,19.3,19.3,19.3s19.3-8.7,19.3-19.3
	S99.5,61.9,88.8,61.9z M88.8,96.6c-8.5,0-15.3-6.9-15.3-15.3c0-5.7,3.2-10.7,7.8-13.4l4.7,14c0.3,0.8,1.1,1.4,1.9,1.4
	c0.2,0,0.4,0,0.6-0.1c1-0.4,1.6-1.5,1.3-2.5L85,66.4c1.2-0.3,2.5-0.5,3.8-0.5c8.5,0,15.3,6.9,15.3,15.3S97.3,96.6,88.8,96.6z
	 M26.8,100.6c10.7,0,19.3-8.7,19.3-19.3c0-5.3-2.1-10-5.5-13.5c0,0-0.1-0.1-0.1-0.1c0,0-0.1-0.1-0.1-0.1c-3.5-3.4-8.3-5.6-13.5-5.6
	c-10.7,0-19.3,8.7-19.3,19.3S16.1,100.6,26.8,100.6z M42,79.3H31.6l7.3-7.3C40.5,74,41.6,76.5,42,79.3z M26.8,65.9
	c3.5,0,6.7,1.2,9.3,3.2L28,77.2c-0.4-0.1-0.8-0.2-1.2-0.2c-2.4,0-4.3,1.9-4.3,4.3s1.9,4.3,4.3,4.3c1.7,0,3.1-1,3.8-2.4H42
	c-1,7.5-7.4,13.3-15.2,13.3c-8.5,0-15.3-6.9-15.3-15.3S18.3,65.9,26.8,65.9z M59,91.7c1.1,0,2-0.9,2-2s-0.9-2-2-2h-6.2
	c-1.1,0-2,0.9-2,2s0.9,2,2,2H59z M103.4,103.5H11.6c-1.1,0-2,0.9-2,2s0.9,2,2,2h91.8c1.1,0,2-0.9,2-2S104.5,103.5,103.4,103.5z
	 M53.3,26.8c4,0,7.3-3.3,7.3-7.3s-3.3-7.3-7.3-7.3c-4,0-7.3,3.3-7.3,7.3S49.3,26.8,53.3,26.8z"/>
</svg>
