<?xml version="1.0" encoding="utf-8"?>
<!-- Generator: Adobe Illustrator 24.1.2, SVG Export Plug-In . SVG Version: 6.00 Build 0)  -->
<svg version="1.1" id="Capa_1" xmlns="http://www.w3.org/2000/svg" xmlns:xlink="http://www.w3.org/1999/xlink" x="0px" y="0px"
	 viewBox="0 0 88 88" style="enable-background:new 0 0 88 88;" xml:space="preserve">
<style type="text/css">
	.st0{fill:#B8CC6A;}
</style>
<path class="st0" d="M47.4,53.6c-0.7,0.5-1.7,0.7-2.8,0.7c-2.4,0-5.2-0.9-8.5-2.6c-0.6,0.4-1.1,1-1.5,1.9c-0.5,0.9-0.7,1.7-0.7,2.5
	c2.1,1.4,4.8,2.3,8,2.8v3.7c0.5,0.1,1.2,0.1,2.1,0.1c0.9,0,1.7,0,2.3-0.1v-3.6c2.5-0.3,4.6-1.1,6.1-2.5c1.5-1.4,2.3-3.1,2.3-5.2
	c0-3.6-2.1-6.2-6.3-7.8l-4.5-1.6c-1-0.3-1.7-0.7-2.1-1.1c-0.5-0.4-0.7-0.9-0.7-1.6s0.3-1.3,0.9-1.7s1.5-0.7,2.5-0.7
	c1.9,0,4.4,0.6,7.3,1.8c1.3-1.2,2-2.7,2-4.6c-2.6-1.1-5-1.8-7.3-2v-3.8c-0.5-0.1-1.3-0.2-2.3-0.2s-1.7,0.1-2.2,0.2V32
	c-2.2,0.4-3.9,1.3-5.2,2.6c-1.3,1.4-1.9,3.1-1.9,5c0,3.2,2,5.6,6,7.1l4.6,1.6c2,0.8,3,1.8,3,3.2C48.5,52.4,48.1,53.1,47.4,53.6z
	 M44,75c-14.9,0-27.4-10.6-30.3-24.7l9.6,4.5c1.3,0.6,2.7,0,3.3-1.2c0.6-1.3,0-2.7-1.2-3.3l-14.1-6.5c-1.3-0.6-2.7,0-3.3,1.2L1.5,59
	c-0.6,1.3,0,2.7,1.2,3.3c0.3,0.2,0.7,0.2,1,0.2c0.9,0,1.8-0.5,2.3-1.5l3.4-7.3C13.7,68.9,27.6,80,44,80c16.4,0,30.2-11,34.6-26
	l-4.8-1.6C70.2,65.4,58.2,75,44,75z M85.2,27.7c-1.3-0.6-2.7,0-3.3,1.2l-3,6.4C75,19.7,60.9,8,44,8C27.4,8,13.3,19.4,9.2,34.9
	l4.8,1.3C17.5,22.9,29.7,13,44,13c15.7,0,28.7,11.7,30.7,26.9l-10.1-4.7c-1.3-0.6-2.7,0-3.3,1.2c-0.6,1.3,0,2.7,1.2,3.3l14.1,6.5
	c0.3,0.2,0.7,0.2,1,0.2c0.9,0,1.8-0.5,2.3-1.4L86.4,31C87,29.8,86.5,28.3,85.2,27.7z"/>
</svg>
