<?xml version="1.0" encoding="utf-8"?>
<!-- Generator: Adobe Illustrator 25.3.1, SVG Export Plug-In . SVG Version: 6.00 Build 0)  -->
<svg version="1.1" id="Capa_3" xmlns="http://www.w3.org/2000/svg" xmlns:xlink="http://www.w3.org/1999/xlink" x="0px" y="0px"
	 viewBox="0 0 168.9 116.6" style="enable-background:new 0 0 168.9 116.6;" xml:space="preserve">
<style type="text/css">
	.st0{fill:#FFFFFF;}
</style>
<path class="st0" d="M97.8,52.7c-31.8,0-48.9,23-48.9,23s-7.6-18.3-32.9-23c0,0,22.7,32.5,1,61.5c0,0,21.7,0.3,31.9-22.5
	c0,0,26.7,24.8,49.8,24.8c28.6,0,54.4-33.6,54.4-33.6S129.5,52.7,97.8,52.7z M116.7,86c-4.5,0-8.1-3.6-8.1-8.1
	c0-4.5,3.6-8.1,8.1-8.1c4.5,0,8.1,3.6,8.1,8.1C124.9,82.4,121.2,86,116.7,86z M28.5,14.4c6.3,0.6,13.1-2,20.1-7.8
	c2.9,2.6,9,6.8,16.9,7.2c6.6,0.3,13-2.1,19-7.2c3.5,2.7,11.2,7.8,20.2,7.5c5.9-0.2,11.3-2.7,16.1-7.3c3.5,2.9,11,8.3,18.2,8.3
	c0.7,0,1.4,0,2-0.2c4.2-0.6,7.5-3.2,9.9-7.6c0.7-1.3,0.2-3-1.1-3.7c-1.3-0.7-3-0.2-3.7,1.1c-1.5,2.8-3.5,4.4-5.9,4.7
	c-6.3,1-14.9-5.8-17.6-8.5c-0.5-0.5-1.3-0.8-2-0.8c-0.7,0-1.5,0.4-2,0.9c-4.2,4.7-9,7.2-14.1,7.4C94.8,8.9,86.5,1,86.4,0.9
	c-1.1-1-2.7-1-3.8,0C77.1,6,71.5,8.5,65.8,8.3c-8.8-0.4-15-7.1-15-7.2c-0.5-0.5-1.2-0.9-1.9-0.9c-0.7,0-1.4,0.2-2,0.7
	c-6.5,5.8-12.5,8.5-17.8,8.1c-5.1-0.4-7.8-3.7-7.9-3.9c-0.9-1.2-2.6-1.4-3.8-0.5c-1.2,0.9-1.4,2.7-0.5,3.9C17,8.7,21,13.7,28.5,14.4
	z M28.5,35.3c6.3,0.6,13.1-2,20.1-7.8c2.9,2.6,9,6.8,16.9,7.2c6.6,0.3,13-2.1,19-7.2c3.5,2.7,11.2,7.8,20.2,7.5
	c5.9-0.2,11.3-2.7,16.1-7.3c3.5,2.9,11,8.3,18.2,8.3c0.7,0,1.4,0,2-0.2c4.2-0.6,7.5-3.2,9.9-7.6c0.7-1.3,0.2-3-1.1-3.7
	c-1.3-0.7-3-0.2-3.7,1.1c-1.5,2.8-3.5,4.4-5.9,4.7c-6.3,1-14.9-5.8-17.6-8.5c-0.5-0.5-1.3-0.8-2-0.8c-0.7,0-1.5,0.4-2,0.9
	c-4.2,4.7-9,7.2-14.1,7.4c-9.8,0.4-18.1-7.5-18.2-7.6c-1.1-1-2.7-1-3.8,0c-5.5,5.1-11.1,7.6-16.8,7.4c-8.8-0.4-15-7.1-15-7.2
	c-0.5-0.5-1.2-0.9-1.9-0.9c-0.7,0-1.4,0.2-2,0.7c-6.5,5.8-12.5,8.5-17.8,8.1c-5.1-0.4-7.8-3.7-7.9-3.9c-0.9-1.2-2.6-1.4-3.8-0.5
	c-1.2,0.9-1.4,2.7-0.5,3.9C17,29.5,21,34.6,28.5,35.3z"/>
</svg>
