<?xml version="1.0" encoding="utf-8"?>
<!-- Generator: Adobe Illustrator 25.3.1, SVG Export Plug-In . SVG Version: 6.00 Build 0)  -->
<svg version="1.1" id="Capa_2" xmlns="http://www.w3.org/2000/svg" xmlns:xlink="http://www.w3.org/1999/xlink" x="0px" y="0px"
	 viewBox="0 0 168.9 116.6" style="enable-background:new 0 0 168.9 116.6;" xml:space="preserve">
<style type="text/css">
	.st0{fill:#FFFFFF;}
</style>
<path class="st0" d="M133,22.8c-18.9,0-27.8,7.6-39,17.2c-2.3,2-4.7,4.1-7.1,6.3l6.8,7.3c2.3-2.1,4.5-4.1,6.7-6
	c11.7-10,18-14.8,32.5-14.8c16.2,0,24.8,8.8,24.8,25.5c0,16.5-12.3,25.5-23.9,25.5c-12.6,0-27.2-11.9-42.3-25.2
	c-2-1.8-4.1-3.6-6.1-5.5C69,38.2,51.8,22.8,35.2,22.8c-21,0-34.1,19.3-34.1,37.2c0,9,4,17.6,11.3,24.1c6.8,6,15.7,9.5,24.4,9.6
	c0.1,0,0.3,0,0.4,0c12.2,0,21.2-6.2,28.5-12.7l4.4,4.2l3.8-21.1l-20.3,5.4l4.8,4.5c-6,5.3-12.8,9.7-21.5,9.6
	c-15.2-0.2-25.8-12.6-25.8-23.7c0-13.1,9.2-27.2,24.1-27.2c12.8,0,29.3,14.7,43.7,27.7c2.1,1.9,4.2,3.7,6.2,5.5
	c17.2,15.1,32.7,27.7,48.9,27.7c8.4,0,16.8-3.4,23.1-9.2c7-6.6,10.8-15.9,10.8-26.2C167.8,36.1,154.8,22.8,133,22.8z"/>
</svg>
