<?xml version="1.0" encoding="utf-8"?>
<!-- Generator: Adobe Illustrator 25.3.1, SVG Export Plug-In . SVG Version: 6.00 Build 0)  -->
<svg version="1.1" id="Capa_3" xmlns="http://www.w3.org/2000/svg" xmlns:xlink="http://www.w3.org/1999/xlink" x="0px" y="0px"
	 viewBox="0 0 168.9 116.6" style="enable-background:new 0 0 168.9 116.6;" xml:space="preserve">
<style type="text/css">
	.st0{fill:#FFFFFF;}
</style>
<path class="st0" d="M84.4,17.1C30.5,17.1,4,58.4,4,58.4s26.6,41.1,80.5,41.1c53.9,0,80.5-41.1,80.5-41.1S138.4,17.1,84.4,17.1z
	 M117.2,51.9c-0.5,0.3-1.3,0.8-1.8,1.5c-1,1.1,0,0,0.7,0.4c0.6,0.4,1,0.6,1.5,0.8c0.1,1.3,0.2,2.6,0.2,3.9c0,2.4-0.3,4.7-0.7,6.9
	c-0.1-0.5-0.1-1-0.2-0.9c-0.4,0.4-1.2-2-1.2-2s-1.3-1.6-1.4-2.2s1.3-3.4,1.4-4.4s-0.6-1.5-1-1.8s-0.8-0.7-1.7-0.8
	c-0.9-0.1-0.4-1.5-0.8-1.5s-0.8,1.1-0.7,2.5c0.1,1.4,0.6,0.4,1.3,1.1s-0.1,0.6-1.8,2c-1.7,1.4-1.5,0.6-2.7,1.3s-1.4,1.3-2.2,2.7
	s0.3,1.3,0.8,2s0.1,0.7,1,2.1c0.8,1.4,0.1,1.1,0,1.7s-1.8-0.4-2.7-1s-2.1-2.2-2.8-3.6s-1.1-2.6-1.7-3.9s-1.3-2-1.3-2
	S98.7,56.2,98,56s-1.5,0-1.8,1.1s1.4,1.7,0,2.5s-0.4,1.5-0.8,1.9s-0.6,0.4-1.7,1s0,0-0.8,1.5c-0.8,1.5,0,0-1.3-0.1
	c-1.3-0.1-1.4-0.3-0.8-1.5s0.7-0.9,2.2-1.4c0.8-0.2-1-0.6-3-1.5s-1.4-0.9-3-1.5s-2-1.7-2.9-2.5s-0.2-1.7-1.3-2.4
	c-1.1-0.7-3.9-2-4.8-2.1s0,0.6,0.6,1.1c0.6,0.6,2.7,2.5,3.9,4.4s2,1.3,1.4,2.2s-2.7,1.8-4.1,2c-1.4,0.1-2.5-1.5-4.1-3.1
	s-2.4-1-2.4-1s0,0,0.3,0.6s1,1.7,2.2,3.9s2.5,2,3.5,3.4c1,1.4-0.6,0.8-1.4,1.8s-0.7,1.4-1.1,2.4s0.1,1.4,1,0.7s0.6-1.1,1.8-2.5
	c1.3-1.4,1.1-0.1,0.8,1.8s-0.2,1.1-1.2,3.5c-1,2.4-1,2.2-2.1,2.8s0,0,0.1-1.8s0.1-2.2-0.3-3.1s-0.3,1.4-0.7,2.7S76.1,74.3,75,75
	s-1,2.2-1.5,4.8s-3.5,3.9-4.1,3.9s-2.5,0-3.1-0.7c-0.6-0.7-1-3.9-0.6-5.5c0.4-1.5-1.1-1.3-2.6-3.9c-1.5-2.7-4.4-3.2-5.2-3
	s-1,0.8-1.1,1.4s-1.8,0.3-2.8-0.6c-0.1-0.1-0.1-0.1-0.2-0.2c-1.6-3.9-2.6-8.3-2.6-12.8c0-0.7,0-1.3,0.1-1.9c0.5-1.8,1.4-3.1,1.9-3.7
	c0.8-1,1.7-1.1,2.7-1.3s2.7,0.4,3.8,1s2,1.3,2,1.3s1.5,0.6,2.7,0.7c1.1,0.1,2.7,0.4,3.5,0s1-0.8,1-0.8s0.6-1,0.1-1.7
	s-0.6-0.9-1.1-0.2c-0.6,0.7-0.7-1.3-2-1.6s0,0.6-1.3,1.3c-1.3,0.7,0,0-1.5-1c-1.5-1,0-1.7-0.3-2.4s-1.8,0.7-3,1.3s-3.2,0.6-5.8,1.4
	c-2.1,0.7-1.7,0-1.6-0.9c0.2-0.6,0.4-1.3,0.6-1.9c0.5-0.3,1.1-0.5,1.6-0.8c1-0.6,0.8,0.3,2,0.7s1.5-0.1,2-1.4s0.8-1.4,2.1-2.5
	s2.7-1,4.1-1c1.4,0,2.5,0.7,3.5,1s1.4-0.6,3.2-2.1s0.6-1.3,0-1.3s-2.2,1.1-3.7,1.7s-3.1,0-4.8-0.8c-1.7-0.8-0.1-3.2,2.1-3.8
	c2.2-0.6,5.8-0.4,7.8-1s2.7-1.1,4-0.6s0,1-0.7,1.3s-3.3,2.5-3.3,2.5s1.3,0.1,2,0s3-1.7,4.6-2.5c1.7-0.8,1.3-1,0.6-2
	s-2.8-2.2-2.7-3.9s-0.1-1.1-1.7-1.3c-1.2-0.1-4.7-0.1-8-0.4c5-2.9,10.8-4.6,17-4.6C100.6,25.1,114.1,36.6,117.2,51.9z M108.2,81.8
	c-1.9-0.4-1.9,0.3-2.9,0.2c-1.1-0.1-0.3-1-1.3-1.4s-1.7,1.7-2.5,1.1s-2-1.7-2.1-4.5s1.7-3.8,2.8-5.1s3.5-2.2,6.8-2.4
	c3.2-0.1,4.5-1.8,5.6-2.2c0.6-0.2,1.1,0.6,1.5,1.4C114.5,73.8,111.7,78.2,108.2,81.8z M109.8,63.5c-0.8-0.4-0.8,0.1-1.5-0.6
	s-1.9-0.8-0.5-1.1s1.6-0.5,2,0S109.8,63.5,109.8,63.5z M109.9,65.2c0,0,1.6-0.1,1.8,0s0.4,0.4,0.5,1.4s-0.6,0.4-1.1,0.4
	s-1.1,0-1.7-0.3C108.8,66.5,109.3,65.6,109.9,65.2z M62.9,34.7c0,0,0,0.7,0,1.7s-1.5,1.2-2,1.5c-0.4,0.2-1.6,0.4-2.8,0.1
	c1-1.3,2.1-2.5,3.3-3.7L62.9,34.7z M54.4,44c0.1-0.1,0.1-0.2,0.2-0.2c1-1.5,1.1-1.9,2-3.3c0,0,4.1-0.8,4.5,0s-2.1,2-2.1,2
	s-2.7,1.8-3.5,2.9s-1.2,1.2-1.8,0.7c0,0-0.1-0.1-0.1-0.1C53.8,45.2,54.1,44.6,54.4,44z M84.4,91.8c-3.5,0-6.9-0.5-10-1.5
	c-0.1-1.3,0.8-2.3,2.4-3.6c2.1-1.7,4.8-2,7.3-1.5s5.9,1.3,7.9,2.4s3.9,0.1,4.8-1s2.7-1.8,4.4-2.2c1.5-0.4,2.7,0.1,3.7,0.5
	C99.2,89.2,92.1,91.8,84.4,91.8z"/>
</svg>
