<?xml version="1.0" encoding="utf-8"?>
<!-- Generator: Adobe Illustrator 25.3.1, SVG Export Plug-In . SVG Version: 6.00 Build 0)  -->
<svg version="1.1" id="Capa_2" xmlns="http://www.w3.org/2000/svg" xmlns:xlink="http://www.w3.org/1999/xlink" x="0px" y="0px"
	 viewBox="0 0 168.9 116.6" style="enable-background:new 0 0 168.9 116.6;" xml:space="preserve">
<style type="text/css">
	.st0{fill:#FFFFFF;}
</style>
<path class="st0" d="M142.8,51.4c0-16.5-12.9-30-29.2-30.9C109.3,8.6,97.9,0,84.5,0S59.6,8.6,55.3,20.5C39.1,21.5,26.2,35,26.2,51.4
	c0,9.7,4.5,18.4,11.6,24.1c-1.1,3.2-1.7,6.6-1.7,10.1c0,17.1,13.9,31,31,31c6.4,0,12.3-1.9,17.2-5.2c4.9,3.3,10.9,5.2,17.2,5.2
	c17.1,0,31-13.9,31-31c0-3.4-0.6-6.7-1.6-9.8C138.1,70.2,142.8,61.3,142.8,51.4z M108.2,31c0,11.8-8.6,21.5-19.9,23.4
	c-0.1-1-0.2-1.9-0.2-2.9c0-11.8,8.6-21.5,19.9-23.4C108.1,29,108.2,30,108.2,31z M84.2,101.9c-4-4.3-6.5-10-6.5-16.3
	s2.5-12,6.5-16.3c4,4.3,6.5,10,6.5,16.3S88.2,97.7,84.2,101.9z M60.9,28c11.3,1.8,19.9,11.6,19.9,23.4c0,1-0.1,2-0.2,2.9
	C69.4,52.5,60.7,42.7,60.7,31C60.7,30,60.8,29,60.9,28z M77.1,64.2c-4.2,6.6-11.6,10.9-19.9,10.9c-3.6,0-7-0.8-10.1-2.3
	c4.2-6.6,11.6-10.9,19.9-10.9C70.6,61.9,74,62.8,77.1,64.2z M91.7,64c3-1.3,6.2-2.1,9.7-2.1c8.4,0,15.9,4.5,20.1,11.1
	c-3,1.3-6.2,2.1-9.7,2.1C103.4,75.1,96,70.7,91.7,64z M84.5,7.2c9.5,0,17.7,5.7,21.5,13.8c-9.3,1.8-17.2,7.8-21.5,15.9
	C80.1,28.8,72.3,22.8,63,21C66.7,12.9,74.9,7.2,84.5,7.2z M33.4,51.4c0-11.9,8.8-21.7,20.2-23.4c-0.1,1-0.1,2-0.1,3
	c0,9.6,4.4,18.1,11.2,23.8c-9.9,0.7-18.5,6.1-23.7,14C36.4,64.5,33.4,58.3,33.4,51.4z M43.3,85.7c0-2.1,0.3-4.2,0.8-6.1
	c4,1.8,8.4,2.9,13,2.9c5.1,0,9.8-1.2,14.1-3.4c-0.5,2.1-0.7,4.4-0.7,6.7c0,8,3,15.3,8,20.7c-3.4,1.9-7.3,3-11.5,3
	C53.9,109.4,43.3,98.7,43.3,85.7z M125.1,85.7c0,13.1-10.6,23.7-23.7,23.7c-4.2,0-8.1-1.1-11.5-3c5-5.5,8-12.8,8-20.7
	c0-2.4-0.3-4.7-0.8-7c4.4,2.4,9.4,3.7,14.7,3.7c4.5,0,8.7-1,12.6-2.7C124.9,81.6,125.1,83.6,125.1,85.7z M104.2,54.8
	c6.9-5.7,11.2-14.3,11.2-23.9c0-1-0.1-2-0.1-3c11.4,1.7,20.2,11.5,20.2,23.4c0,7-3.1,13.3-8,17.7C122.5,61.2,114,55.7,104.2,54.8z"
	/>
</svg>
