<?xml version="1.0" encoding="utf-8"?>
<!-- Generator: Adobe Illustrator 25.3.1, SVG Export Plug-In . SVG Version: 6.00 Build 0)  -->
<svg version="1.1" id="Capa_3" xmlns="http://www.w3.org/2000/svg" xmlns:xlink="http://www.w3.org/1999/xlink" x="0px" y="0px"
	 viewBox="0 0 168.9 116.6" style="enable-background:new 0 0 168.9 116.6;" xml:space="preserve">
<style type="text/css">
	.st0{fill:#FFFFFF;}
</style>
<path class="st0" d="M36.9,40.8c-3.2,2.4-5.4,6.2-5.4,10.6c0,7.3,5.9,13.2,13.2,13.2h28.1c10.7,0,19.4-8.7,19.4-19.4
	c0-9.1-6.3-16.7-14.7-18.8c1.1-2.3,1.7-4.9,1.7-7.6c0-10.1-8.2-18.3-18.3-18.3c-9,0-16.5,6.5-18,15.1c-7.2,0.2-13,6.2-13,13.5
	C29.8,34.1,32.6,38.6,36.9,40.8z M65.6,86.1v-18H55.3v18H65.6z M24.3,116.2h120.4v-7.2H24.3V116.2z M24.3,95.2v7.2h120.4v-7.2H24.3z
	 M121.9,47.6c0,0-14.4-5.8-19,2.6c0,0,11.4-2.8,18.4,4.7c0,0,5.6-8.3,19.6-5.2C140.9,49.6,133,40.1,121.9,47.6z M105.7,24
	c0,0,5.4-7.3,17.7-4.3c0,0-7.2-8.5-17.7-3.1c0,0-12.6-4.7-15.6,2.8C90.1,19.3,103.4,17.9,105.7,24z M125.1,9.3
	c4.9-1.6,13.3,1.4,13.3,1.4C134.9,4.2,126,6,126,6c-6.1-8.2-13.1-1.9-13.1-1.9C123.4,4.6,125.1,9.3,125.1,9.3z"/>
</svg>
