<?xml version="1.0" encoding="utf-8"?>
<!-- Generator: Adobe Illustrator 25.3.1, SVG Export Plug-In . SVG Version: 6.00 Build 0)  -->
<svg version="1.1" id="Capa_2" xmlns="http://www.w3.org/2000/svg" xmlns:xlink="http://www.w3.org/1999/xlink" x="0px" y="0px"
	 viewBox="0 0 168.9 116.6" style="enable-background:new 0 0 168.9 116.6;" xml:space="preserve">
<style type="text/css">
	.st0{fill:#FFFFFF;}
</style>
<path class="st0" d="M84.5,88.8c16.8,0,30.5-13.6,30.5-30.5s-13.6-30.5-30.5-30.5S54,41.5,54,58.3S67.6,88.8,84.5,88.8z M82,40.7
	c0-1.4,1.1-2.5,2.5-2.5s2.5,1.1,2.5,2.5V51c0,1.4-1.1,2.5-2.5,2.5S82,52.4,82,51V40.7z M75,45.1c1.1-0.8,2.7-0.6,3.5,0.6
	c0.8,1.1,0.6,2.7-0.6,3.5c-2.9,2.1-4.7,5.5-4.7,9.2c0,6.2,5.1,11.3,11.3,11.3s11.3-5.1,11.3-11.3c0-3.8-1.9-7.2-5-9.3
	c-1.1-0.8-1.4-2.3-0.7-3.5c0.8-1.1,2.3-1.4,3.5-0.7c4.5,3,7.2,8.1,7.2,13.5c0,9-7.3,16.3-16.3,16.3c-9,0-16.3-7.3-16.3-16.3
	C68.2,53.1,70.7,48.1,75,45.1z M64.2,26.8c0.5,0,1-0.1,1.5-0.4c1.4-0.8,1.9-2.7,1.1-4.1L59,9.1c-0.8-1.4-2.7-1.9-4.1-1.1
	c-1.4,0.8-1.9,2.7-1.1,4.1l7.8,13.2C62.1,26.2,63.1,26.8,64.2,26.8z M84.5,21.2c1.7,0,3-1.3,3-3V3c0-1.7-1.3-3-3-3s-3,1.3-3,3v15.3
	C81.5,19.9,82.8,21.2,84.5,21.2z M102.9,26.1c0.5,0.3,1,0.4,1.5,0.4c1,0,2.1-0.5,2.6-1.5l7.6-13.3c0.8-1.4,0.3-3.3-1.1-4.1
	c-1.4-0.8-3.3-0.3-4.1,1.1L101.8,22C100.9,23.5,101.4,25.3,102.9,26.1z M48.4,76l-13.2,7.8c-1.4,0.8-1.9,2.7-1.1,4.1
	c0.6,1,1.6,1.5,2.6,1.5c0.5,0,1-0.1,1.5-0.4l13.2-7.8c1.4-0.8,1.9-2.7,1.1-4.1C51.7,75.7,49.8,75.2,48.4,76z M47.4,58.3
	c0-1.7-1.3-3-3-3H29.1c-1.7,0-3,1.3-3,3s1.3,3,3,3h15.3C46.1,61.3,47.4,60,47.4,58.3z M34.9,33.4L48.2,41c0.5,0.3,1,0.4,1.5,0.4
	c1,0,2.1-0.5,2.6-1.5c0.8-1.4,0.3-3.3-1.1-4.1l-13.3-7.6c-1.4-0.8-3.3-0.3-4.1,1.1C33,30.8,33.5,32.6,34.9,33.4z M134,83.2
	l-13.3-7.6c-1.4-0.8-3.3-0.3-4.1,1.1c-0.8,1.4-0.3,3.3,1.1,4.1l13.3,7.6c0.5,0.3,1,0.4,1.5,0.4c1,0,2.1-0.5,2.6-1.5
	C135.9,85.8,135.4,84,134,83.2z M66.1,90.5c-1.4-0.8-3.3-0.3-4.1,1.1l-7.6,13.3c-0.8,1.4-0.3,3.3,1.1,4.1c0.5,0.3,1,0.4,1.5,0.4
	c1,0,2.1-0.5,2.6-1.5l7.6-13.3C68,93.1,67.5,91.3,66.1,90.5z M139.8,55.3h-15.5c-1.7,0-3,1.3-3,3s1.3,3,3,3h15.5c1.7,0,3-1.3,3-3
	S141.5,55.3,139.8,55.3z M119,41c0.5,0,1-0.1,1.5-0.4l13.2-7.8c1.4-0.8,1.9-2.7,1.1-4.1c-0.8-1.4-2.7-1.9-4.1-1.1l-13.2,7.8
	c-1.4,0.8-1.9,2.7-1.1,4.1C117,40.5,118,41,119,41z M106.9,90.5c-0.8-1.4-2.7-1.9-4.1-1.1c-1.4,0.8-1.9,2.7-1.1,4.1l8.2,14
	c0.6,1,1.6,1.5,2.6,1.5c0.5,0,1-0.1,1.5-0.4c1.4-0.8,1.9-2.7,1.1-4.1L106.9,90.5z M84.5,95.4c-1.7,0-3,1.3-3,3v15.3c0,1.7,1.3,3,3,3
	s3-1.3,3-3V98.4C87.5,96.7,86.1,95.4,84.5,95.4z"/>
</svg>
