<?xml version="1.0" encoding="utf-8"?>
<!-- Generator: Adobe Illustrator 25.3.1, SVG Export Plug-In . SVG Version: 6.00 Build 0)  -->
<svg version="1.1" id="Capa_2" xmlns="http://www.w3.org/2000/svg" xmlns:xlink="http://www.w3.org/1999/xlink" x="0px" y="0px"
	 viewBox="0 0 168.9 116.6" style="enable-background:new 0 0 168.9 116.6;" xml:space="preserve">
<style type="text/css">
	.st0{fill:#FFFFFF;}
</style>
<path class="st0" d="M35.4,116.6h29.2V53.5L35.4,79V116.6z M69.1,53.5v63.2h29.2V53.5L83.7,68.1L69.1,53.5z M103.8,116.6h29.2V23.8
	l-29.2,26V116.6z M138.2,0L122,5c-0.8,0.2-1,1.2-0.4,1.8l2.9,2.7L83.7,49L67.3,33.1c-1.5-1.4-3.7-1.4-5.2-0.1L30.6,62.3
	c-1.5,1.4-1.6,3.8-0.2,5.4c0.7,0.8,1.8,1.2,2.8,1.2c0.9,0,1.8-0.3,2.6-1L64.6,41l16.5,16c1.5,1.4,3.8,1.4,5.3,0L130,14.7l2.4,2.3
	c0.6,0.5,1.5,0.3,1.7-0.4l5.4-15.2C139.8,0.6,139-0.2,138.2,0z"/>
</svg>
